<?xml version="1.0" encoding="UTF-8" standalone="no"?>
<!DOCTYPE svg PUBLIC "-//W3C//DTD SVG 1.1//EN"
 "http://www.w3.org/Graphics/SVG/1.1/DTD/svg11.dtd">
<!-- Generated by graphviz version 2.43.0 (0)
 -->
<!-- Title: %3 Pages: 1 -->
<svg width="299pt" height="188pt"
 viewBox="0.00 0.00 299.00 188.00" xmlns="http://www.w3.org/2000/svg" xmlns:xlink="http://www.w3.org/1999/xlink">
<g id="graph0" class="graph" transform="scale(1 1) rotate(0) translate(4 184)">
<title>%3</title>
<polygon fill="white" stroke="transparent" points="-4,4 -4,-184 295,-184 295,4 -4,4"/>
<!-- include -->
<g id="node1" class="node">
<title>include</title>
<ellipse fill="none" stroke="black" cx="121" cy="-162" rx="36.29" ry="18"/>
<text text-anchor="middle" x="121" y="-158.3" font-family="Times,serif" font-size="14.00">include</text>
</g>
<!-- src -->
<g id="node2" class="node">
<title>src</title>
<ellipse fill="none" stroke="black" cx="27" cy="-90" rx="27" ry="18"/>
<text text-anchor="middle" x="27" y="-86.3" font-family="Times,serif" font-size="14.00">src</text>
</g>
<!-- include&#45;&gt;src -->
<g id="edge1" class="edge">
<title>include&#45;&gt;src</title>
<path fill="none" stroke="black" d="M101.52,-146.5C87.37,-135.95 68.07,-121.58 52.65,-110.1"/>
<polygon fill="black" stroke="black" points="54.66,-107.23 44.55,-104.07 50.48,-112.85 54.66,-107.23"/>
</g>
<!-- test/include -->
<g id="node3" class="node">
<title>test/include</title>
<ellipse fill="none" stroke="black" cx="161" cy="-90" rx="51.19" ry="18"/>
<text text-anchor="middle" x="161" y="-86.3" font-family="Times,serif" font-size="14.00">test/include</text>
</g>
<!-- include&#45;&gt;test/include -->
<g id="edge2" class="edge">
<title>include&#45;&gt;test/include</title>
<path fill="none" stroke="black" d="M130.48,-144.41C135.19,-136.16 140.99,-126.01 146.27,-116.78"/>
<polygon fill="black" stroke="black" points="149.39,-118.38 151.31,-107.96 143.31,-114.9 149.39,-118.38"/>
</g>
<!-- test/src -->
<g id="node5" class="node">
<title>test/src</title>
<ellipse fill="none" stroke="black" cx="73" cy="-18" rx="36" ry="18"/>
<text text-anchor="middle" x="73" y="-14.3" font-family="Times,serif" font-size="14.00">test/src</text>
</g>
<!-- include&#45;&gt;test/src -->
<g id="edge3" class="edge">
<title>include&#45;&gt;test/src</title>
<path fill="none" stroke="black" d="M114.27,-143.9C110.27,-133.56 105.18,-120.08 101,-108 93.83,-87.27 86.41,-63.57 81.01,-45.84"/>
<polygon fill="black" stroke="black" points="84.33,-44.71 78.09,-36.16 77.63,-46.74 84.33,-44.71"/>
</g>
<!-- test/tool -->
<g id="node6" class="node">
<title>test/tool</title>
<ellipse fill="none" stroke="black" cx="252" cy="-18" rx="38.99" ry="18"/>
<text text-anchor="middle" x="252" y="-14.3" font-family="Times,serif" font-size="14.00">test/tool</text>
</g>
<!-- include&#45;&gt;test/tool -->
<g id="edge4" class="edge">
<title>include&#45;&gt;test/tool</title>
<path fill="none" stroke="black" d="M151.09,-151.77C173.23,-143.56 202.57,-129.47 221,-108 236.02,-90.51 243.89,-65.31 247.94,-46.18"/>
<polygon fill="black" stroke="black" points="251.4,-46.75 249.82,-36.27 244.52,-45.45 251.4,-46.75"/>
</g>
<!-- test/lib -->
<g id="node4" class="node">
<title>test/lib</title>
<ellipse fill="none" stroke="black" cx="161" cy="-18" rx="34.39" ry="18"/>
<text text-anchor="middle" x="161" y="-14.3" font-family="Times,serif" font-size="14.00">test/lib</text>
</g>
<!-- test/include&#45;&gt;test/lib -->
<g id="edge7" class="edge">
<title>test/include&#45;&gt;test/lib</title>
<path fill="none" stroke="black" d="M161,-71.7C161,-63.98 161,-54.71 161,-46.11"/>
<polygon fill="black" stroke="black" points="164.5,-46.1 161,-36.1 157.5,-46.1 164.5,-46.1"/>
</g>
<!-- test/include&#45;&gt;test/src -->
<g id="edge5" class="edge">
<title>test/include&#45;&gt;test/src</title>
<path fill="none" stroke="black" d="M141.03,-73.12C128.69,-63.29 112.7,-50.58 99.32,-39.94"/>
<polygon fill="black" stroke="black" points="101.39,-37.11 91.39,-33.63 97.04,-42.59 101.39,-37.11"/>
</g>
<!-- test/include&#45;&gt;test/tool -->
<g id="edge6" class="edge">
<title>test/include&#45;&gt;test/tool</title>
<path fill="none" stroke="black" d="M181.65,-73.12C194.33,-63.36 210.72,-50.75 224.5,-40.16"/>
<polygon fill="black" stroke="black" points="226.88,-42.74 232.68,-33.86 222.62,-37.19 226.88,-42.74"/>
</g>
</g>
</svg>
