<?xml version="1.0" encoding="UTF-8" standalone="no"?>
<!DOCTYPE svg PUBLIC "-//W3C//DTD SVG 1.1//EN"
 "http://www.w3.org/Graphics/SVG/1.1/DTD/svg11.dtd">
<!-- Generated by graphviz version 2.43.0 (0)
 -->
<!-- Title: %3 Pages: 1 -->
<svg width="988pt" height="917pt"
 viewBox="0.00 0.00 988.00 917.00" xmlns="http://www.w3.org/2000/svg" xmlns:xlink="http://www.w3.org/1999/xlink">
<g id="graph0" class="graph" transform="scale(1 1) rotate(0) translate(4 913)">
<title>%3</title>
<polygon fill="white" stroke="transparent" points="-4,4 -4,-913 984,-913 984,4 -4,4"/>
<g id="clust2" class="cluster">
<title>cluster_providers</title>
<path fill="none" stroke="black" d="M20,-260C20,-260 352,-260 352,-260 358,-260 364,-266 364,-272 364,-272 364,-833 364,-833 364,-839 358,-845 352,-845 352,-845 20,-845 20,-845 14,-845 8,-839 8,-833 8,-833 8,-272 8,-272 8,-266 14,-260 20,-260"/>
<text text-anchor="middle" x="186" y="-267.8" font-family="Times,serif" font-size="14.00">providers</text>
</g>
<g id="clust5" class="cluster">
<title>cluster_compressors</title>
<path fill="none" stroke="black" d="M384,-698C384,-698 522,-698 522,-698 528,-698 534,-704 534,-710 534,-710 534,-833 534,-833 534,-839 528,-845 522,-845 522,-845 384,-845 384,-845 378,-845 372,-839 372,-833 372,-833 372,-710 372,-710 372,-704 378,-698 384,-698"/>
<text text-anchor="middle" x="453" y="-705.8" font-family="Times,serif" font-size="14.00">compressors</text>
</g>
<g id="clust6" class="cluster">
<title>cluster_obfuscators</title>
<path fill="none" stroke="black" d="M554,-698C554,-698 686,-698 686,-698 692,-698 698,-704 698,-710 698,-710 698,-833 698,-833 698,-839 692,-845 686,-845 686,-845 554,-845 554,-845 548,-845 542,-839 542,-833 542,-833 542,-710 542,-710 542,-704 548,-698 554,-698"/>
<text text-anchor="middle" x="620" y="-705.8" font-family="Times,serif" font-size="14.00">obfuscators</text>
</g>
<g id="clust7" class="cluster">
<title>cluster_correctors</title>
<path fill="none" stroke="black" d="M718,-698C718,-698 838,-698 838,-698 844,-698 850,-704 850,-710 850,-710 850,-833 850,-833 850,-839 844,-845 838,-845 838,-845 718,-845 718,-845 712,-845 706,-839 706,-833 706,-833 706,-710 706,-710 706,-704 712,-698 718,-698"/>
<text text-anchor="middle" x="778" y="-705.8" font-family="Times,serif" font-size="14.00">correctors</text>
</g>
<g id="clust8" class="cluster">
<title>cluster_test</title>
<path fill="none" stroke="black" d="M384,-479C384,-479 960,-479 960,-479 966,-479 972,-485 972,-491 972,-491 972,-614 972,-614 972,-620 966,-626 960,-626 960,-626 384,-626 384,-626 378,-626 372,-620 372,-614 372,-614 372,-491 372,-491 372,-485 378,-479 384,-479"/>
<text text-anchor="middle" x="672" y="-486.8" font-family="Times,serif" font-size="14.00">TESTS</text>
</g>
<!-- provider -->
<g id="node1" class="node">
<title>provider</title>
<ellipse fill="none" stroke="red" cx="277" cy="-819" rx="40.09" ry="18"/>
<text text-anchor="middle" x="277" y="-815.3" font-family="Times,serif" font-size="14.00" fill="red">provider</text>
</g>
<!-- video_encoder -->
<g id="node18" class="node">
<title>video_encoder</title>
<ellipse fill="none" stroke="black" cx="541" cy="-891" rx="62.29" ry="18"/>
<text text-anchor="middle" x="541" y="-887.3" font-family="Times,serif" font-size="14.00">video_encoder</text>
</g>
<!-- provider&#45;&gt;video_encoder -->
<g id="edge20" class="edge">
<title>provider&#45;&gt;video_encoder</title>
<path fill="none" stroke="black" d="M310.25,-829.25C327.47,-834.01 348.85,-839.88 368,-845 407.43,-855.54 452.01,-867.13 486.03,-875.91"/>
<polygon fill="black" stroke="black" points="485.23,-879.31 495.79,-878.42 486.98,-872.54 485.23,-879.31"/>
</g>
<!-- basic_provider -->
<g id="node2" class="node">
<title>basic_provider</title>
<ellipse fill="none" stroke="blue" cx="239" cy="-747" rx="63.09" ry="18"/>
<text text-anchor="middle" x="239" y="-743.3" font-family="Times,serif" font-size="14.00" fill="blue">basic_provider</text>
</g>
<!-- basic_provider&#45;&gt;provider -->
<g id="edge1" class="edge">
<title>basic_provider&#45;&gt;provider</title>
<path fill="none" stroke="blue" d="M248.2,-764.95C252.63,-773.11 258.05,-783.09 262.98,-792.18"/>
<polygon fill="blue" stroke="blue" points="260.04,-794.09 267.89,-801.21 266.19,-790.75 260.04,-794.09"/>
</g>
<!-- basic_block_container -->
<g id="node3" class="node">
<title>basic_block_container</title>
<ellipse fill="none" stroke="black" cx="239" cy="-528" rx="89.88" ry="18"/>
<text text-anchor="middle" x="239" y="-524.3" font-family="Times,serif" font-size="14.00">basic_block_container</text>
</g>
<!-- basic_block_container&#45;&gt;basic_provider -->
<g id="edge2" class="edge">
<title>basic_block_container&#45;&gt;basic_provider</title>
<path fill="none" stroke="black" d="M239,-546.03C239,-583.49 239,-673.32 239,-718.74"/>
<polygon fill="black" stroke="black" points="235.5,-718.75 239,-728.75 242.5,-718.75 235.5,-718.75"/>
</g>
<!-- raw_ip_length_reader -->
<g id="node7" class="node">
<title>raw_ip_length_reader</title>
<ellipse fill="none" stroke="blue" cx="118" cy="-600" rx="87.99" ry="18"/>
<text text-anchor="middle" x="118" y="-596.3" font-family="Times,serif" font-size="14.00" fill="blue">raw_ip_length_reader</text>
</g>
<!-- basic_block_container&#45;&gt;raw_ip_length_reader -->
<g id="edge9" class="edge">
<title>basic_block_container&#45;&gt;raw_ip_length_reader</title>
<path fill="none" stroke="black" d="M210.94,-545.24C194.29,-554.87 172.99,-567.19 154.99,-577.6"/>
<polygon fill="black" stroke="black" points="152.82,-574.82 145.91,-582.85 156.32,-580.87 152.82,-574.82"/>
</g>
<!-- basic_block_test -->
<g id="node29" class="node">
<title>basic_block_test</title>
<ellipse fill="none" stroke="black" cx="786" cy="-600" rx="69.59" ry="18"/>
<text text-anchor="middle" x="786" y="-596.3" font-family="Times,serif" font-size="14.00">basic_block_test</text>
</g>
<!-- basic_block_container&#45;&gt;basic_block_test -->
<g id="edge44" class="edge">
<title>basic_block_container&#45;&gt;basic_block_test</title>
<path fill="none" stroke="black" d="M310.94,-538.81C329.52,-541.25 349.49,-543.8 368,-546 518.45,-563.9 557.39,-558.03 707,-582 713.18,-582.99 719.61,-584.15 726.01,-585.4"/>
<polygon fill="black" stroke="black" points="725.51,-588.86 736,-587.4 726.89,-582 725.51,-588.86"/>
</g>
<!-- basic_block_pointer -->
<g id="node4" class="node">
<title>basic_block_pointer</title>
<ellipse fill="none" stroke="black" cx="274" cy="-453" rx="81.79" ry="18"/>
<text text-anchor="middle" x="274" y="-449.3" font-family="Times,serif" font-size="14.00">basic_block_pointer</text>
</g>
<!-- basic_block_pointer&#45;&gt;basic_block_container -->
<g id="edge3" class="edge">
<title>basic_block_pointer&#45;&gt;basic_block_container</title>
<path fill="none" stroke="black" d="M265.88,-470.93C261.63,-479.8 256.32,-490.87 251.55,-500.82"/>
<polygon fill="black" stroke="black" points="248.36,-499.38 247.19,-509.91 254.67,-502.4 248.36,-499.38"/>
</g>
<!-- basic_block_pointer&#45;&gt;basic_block_test -->
<g id="edge45" class="edge">
<title>basic_block_pointer&#45;&gt;basic_block_test</title>
<path fill="none" stroke="black" d="M349.1,-460.18C390.38,-463.51 442.51,-467.63 489,-471 515.88,-472.95 584.57,-470.07 610,-479 659.09,-496.24 662.98,-516.74 706,-546 721.29,-556.4 738.35,-567.74 752.78,-577.25"/>
<polygon fill="black" stroke="black" points="751.11,-580.34 761.39,-582.92 754.96,-574.49 751.11,-580.34"/>
</g>
<!-- basic_block_pointer_proxy -->
<g id="node5" class="node">
<title>basic_block_pointer_proxy</title>
<ellipse fill="none" stroke="black" cx="249" cy="-381" rx="106.68" ry="18"/>
<text text-anchor="middle" x="249" y="-377.3" font-family="Times,serif" font-size="14.00">basic_block_pointer_proxy</text>
</g>
<!-- basic_block_pointer_proxy&#45;&gt;basic_block_container -->
<g id="edge5" class="edge">
<title>basic_block_pointer_proxy&#45;&gt;basic_block_container</title>
<path fill="none" stroke="black" d="M159.5,-390.82C131.75,-398.25 104.02,-411.52 87,-435 59.83,-472.48 116.75,-497.63 168.51,-512.03"/>
<polygon fill="black" stroke="black" points="167.87,-515.48 178.43,-514.68 169.67,-508.72 167.87,-515.48"/>
</g>
<!-- basic_block_pointer_proxy&#45;&gt;basic_block_pointer -->
<g id="edge4" class="edge">
<title>basic_block_pointer_proxy&#45;&gt;basic_block_pointer</title>
<path fill="none" stroke="black" d="M255.18,-399.3C258,-407.19 261.39,-416.7 264.52,-425.45"/>
<polygon fill="black" stroke="black" points="261.23,-426.66 267.89,-434.9 267.82,-424.3 261.23,-426.66"/>
</g>
<!-- basic_block_pointer_proxy&#45;&gt;basic_block_test -->
<g id="edge43" class="edge">
<title>basic_block_pointer_proxy&#45;&gt;basic_block_test</title>
<path fill="none" stroke="black" d="M344.58,-389.05C408.46,-395.92 493.56,-409.29 565,-435 601.72,-448.22 608.97,-456.7 641,-479 684.94,-509.58 732.02,-550.17 760.23,-575.43"/>
<polygon fill="black" stroke="black" points="758.24,-578.34 768.01,-582.44 762.93,-573.14 758.24,-578.34"/>
</g>
<!-- data_length_reader -->
<g id="node6" class="node">
<title>data_length_reader</title>
<ellipse fill="none" stroke="red" cx="130" cy="-672" rx="77.99" ry="18"/>
<text text-anchor="middle" x="130" y="-668.3" font-family="Times,serif" font-size="14.00" fill="red">data_length_reader</text>
</g>
<!-- data_length_reader&#45;&gt;basic_provider -->
<g id="edge8" class="edge">
<title>data_length_reader&#45;&gt;basic_provider</title>
<path fill="none" stroke="black" d="M154.19,-689.2C169.68,-699.57 189.96,-713.15 206.8,-724.44"/>
<polygon fill="black" stroke="black" points="205,-727.44 215.25,-730.1 208.89,-721.62 205,-727.44"/>
</g>
<!-- raw_ip_length_reader&#45;&gt;data_length_reader -->
<g id="edge7" class="edge">
<title>raw_ip_length_reader&#45;&gt;data_length_reader</title>
<path fill="none" stroke="blue" d="M120.97,-618.3C122.29,-626.02 123.88,-635.29 125.35,-643.89"/>
<polygon fill="blue" stroke="blue" points="121.93,-644.63 127.07,-653.9 128.83,-643.45 121.93,-644.63"/>
</g>
<!-- bit_area -->
<g id="node8" class="node">
<title>bit_area</title>
<ellipse fill="none" stroke="black" cx="135" cy="-453" rx="38.99" ry="18"/>
<text text-anchor="middle" x="135" y="-449.3" font-family="Times,serif" font-size="14.00">bit_area</text>
</g>
<!-- bit_area&#45;&gt;basic_block_container -->
<g id="edge6" class="edge">
<title>bit_area&#45;&gt;basic_block_container</title>
<path fill="none" stroke="black" d="M155.55,-468.42C170.27,-478.75 190.37,-492.87 207.16,-504.65"/>
<polygon fill="black" stroke="black" points="205.4,-507.69 215.59,-510.57 209.42,-501.96 205.4,-507.69"/>
</g>
<!-- basic_block_config -->
<g id="node9" class="node">
<title>basic_block_config</title>
<ellipse fill="none" stroke="black" cx="95" cy="-309" rx="79.09" ry="18"/>
<text text-anchor="middle" x="95" y="-305.3" font-family="Times,serif" font-size="14.00">basic_block_config</text>
</g>
<!-- basic_block_config&#45;&gt;basic_block_container -->
<g id="edge10" class="edge">
<title>basic_block_config&#45;&gt;basic_block_container</title>
<path fill="none" stroke="black" d="M86.14,-326.91C70.99,-358.45 44.6,-427.02 76,-471 93.26,-495.18 121.65,-509.03 149.95,-516.92"/>
<polygon fill="black" stroke="black" points="149.38,-520.39 159.93,-519.47 151.11,-513.61 149.38,-520.39"/>
</g>
<!-- basic_block_config&#45;&gt;basic_block_pointer -->
<g id="edge11" class="edge">
<title>basic_block_config&#45;&gt;basic_block_pointer</title>
<path fill="none" stroke="black" d="M95.91,-327.03C97.86,-346.84 103.96,-379.33 123,-399 135.85,-412.28 176.1,-426.06 211.82,-436.25"/>
<polygon fill="black" stroke="black" points="211.17,-439.7 221.74,-439.02 213.05,-432.96 211.17,-439.7"/>
</g>
<!-- basic_block_config&#45;&gt;basic_block_pointer_proxy -->
<g id="edge12" class="edge">
<title>basic_block_config&#45;&gt;basic_block_pointer_proxy</title>
<path fill="none" stroke="black" d="M128.8,-325.36C150.99,-335.45 180.28,-348.76 204.38,-359.72"/>
<polygon fill="black" stroke="black" points="203.13,-362.99 213.68,-363.94 206.02,-356.62 203.13,-362.99"/>
</g>
<!-- basic_block_config&#45;&gt;raw_ip_length_reader -->
<g id="edge13" class="edge">
<title>basic_block_config&#45;&gt;raw_ip_length_reader</title>
<path fill="none" stroke="black" d="M80.25,-326.85C72.63,-336.68 64.09,-349.72 60,-363 45.87,-408.88 48.71,-424.11 59,-471 67.23,-508.51 87.54,-548.14 102.03,-573.19"/>
<polygon fill="black" stroke="black" points="99.16,-575.21 107.26,-582.04 105.19,-571.65 99.16,-575.21"/>
</g>
<!-- rect -->
<g id="node10" class="node">
<title>rect</title>
<ellipse fill="none" stroke="black" cx="219" cy="-309" rx="27" ry="18"/>
<text text-anchor="middle" x="219" y="-305.3" font-family="Times,serif" font-size="14.00">rect</text>
</g>
<!-- rect&#45;&gt;basic_block_pointer -->
<g id="edge15" class="edge">
<title>rect&#45;&gt;basic_block_pointer</title>
<path fill="none" stroke="black" d="M197.63,-320.13C174.56,-331.56 140.14,-350.21 133,-363 125.2,-376.97 123.89,-385.85 133,-399 142.65,-412.94 178.72,-426.36 211.95,-436.21"/>
<polygon fill="black" stroke="black" points="211.1,-439.61 221.68,-439.02 213.05,-432.88 211.1,-439.61"/>
</g>
<!-- rect&#45;&gt;basic_block_pointer_proxy -->
<g id="edge14" class="edge">
<title>rect&#45;&gt;basic_block_pointer_proxy</title>
<path fill="none" stroke="black" d="M226.11,-326.59C229.52,-334.55 233.69,-344.28 237.53,-353.24"/>
<polygon fill="black" stroke="black" points="234.37,-354.74 241.52,-362.55 240.8,-351.98 234.37,-354.74"/>
</g>
<!-- rgb_index -->
<g id="node11" class="node">
<title>rgb_index</title>
<ellipse fill="none" stroke="black" cx="310" cy="-309" rx="46.29" ry="18"/>
<text text-anchor="middle" x="310" y="-305.3" font-family="Times,serif" font-size="14.00">rgb_index</text>
</g>
<!-- rgb_index&#45;&gt;basic_block_pointer_proxy -->
<g id="edge16" class="edge">
<title>rgb_index&#45;&gt;basic_block_pointer_proxy</title>
<path fill="none" stroke="black" d="M295.85,-326.24C288.37,-334.82 279.03,-345.54 270.66,-355.14"/>
<polygon fill="black" stroke="black" points="267.85,-353.04 263.92,-362.88 273.13,-357.64 267.85,-353.04"/>
</g>
<!-- compressor -->
<g id="node12" class="node">
<title>compressor</title>
<ellipse fill="none" stroke="red" cx="463" cy="-819" rx="51.99" ry="18"/>
<text text-anchor="middle" x="463" y="-815.3" font-family="Times,serif" font-size="14.00" fill="red">compressor</text>
</g>
<!-- compressor&#45;&gt;video_encoder -->
<g id="edge21" class="edge">
<title>compressor&#45;&gt;video_encoder</title>
<path fill="none" stroke="black" d="M481.09,-836.24C491.16,-845.27 503.87,-856.67 514.98,-866.65"/>
<polygon fill="black" stroke="black" points="512.96,-869.54 522.74,-873.61 517.63,-864.33 512.96,-869.54"/>
</g>
<!-- none_compressor -->
<g id="node13" class="node">
<title>none_compressor</title>
<ellipse fill="none" stroke="blue" cx="453" cy="-747" rx="73.39" ry="18"/>
<text text-anchor="middle" x="453" y="-743.3" font-family="Times,serif" font-size="14.00" fill="blue">none_compressor</text>
</g>
<!-- none_compressor&#45;&gt;compressor -->
<g id="edge17" class="edge">
<title>none_compressor&#45;&gt;compressor</title>
<path fill="none" stroke="blue" d="M455.47,-765.3C456.57,-773.02 457.9,-782.29 459.13,-790.89"/>
<polygon fill="blue" stroke="blue" points="455.68,-791.49 460.56,-800.9 462.61,-790.5 455.68,-791.49"/>
</g>
<!-- obfuscator -->
<g id="node14" class="node">
<title>obfuscator</title>
<ellipse fill="none" stroke="red" cx="609" cy="-819" rx="48.19" ry="18"/>
<text text-anchor="middle" x="609" y="-815.3" font-family="Times,serif" font-size="14.00" fill="red">obfuscator</text>
</g>
<!-- obfuscator&#45;&gt;video_encoder -->
<g id="edge22" class="edge">
<title>obfuscator&#45;&gt;video_encoder</title>
<path fill="none" stroke="black" d="M593.23,-836.24C584.6,-845.12 573.75,-856.29 564.17,-866.15"/>
<polygon fill="black" stroke="black" points="561.62,-863.76 557.16,-873.37 566.64,-868.63 561.62,-863.76"/>
</g>
<!-- none_obfuscator -->
<g id="node15" class="node">
<title>none_obfuscator</title>
<ellipse fill="none" stroke="blue" cx="620" cy="-747" rx="69.59" ry="18"/>
<text text-anchor="middle" x="620" y="-743.3" font-family="Times,serif" font-size="14.00" fill="blue">none_obfuscator</text>
</g>
<!-- none_obfuscator&#45;&gt;obfuscator -->
<g id="edge18" class="edge">
<title>none_obfuscator&#45;&gt;obfuscator</title>
<path fill="none" stroke="blue" d="M617.28,-765.3C616.07,-773.02 614.61,-782.29 613.26,-790.89"/>
<polygon fill="blue" stroke="blue" points="609.78,-790.47 611.69,-800.9 616.7,-791.56 609.78,-790.47"/>
</g>
<!-- corrector -->
<g id="node16" class="node">
<title>corrector</title>
<ellipse fill="none" stroke="red" cx="767" cy="-819" rx="42.49" ry="18"/>
<text text-anchor="middle" x="767" y="-815.3" font-family="Times,serif" font-size="14.00" fill="red">corrector</text>
</g>
<!-- corrector&#45;&gt;video_encoder -->
<g id="edge23" class="edge">
<title>corrector&#45;&gt;video_encoder</title>
<path fill="none" stroke="black" d="M737.44,-832.05C726.4,-836.37 713.71,-841.12 702,-845 667.2,-856.53 627.54,-867.64 596.29,-875.93"/>
<polygon fill="black" stroke="black" points="595.23,-872.59 586.45,-878.52 597.02,-879.36 595.23,-872.59"/>
</g>
<!-- none_corrector -->
<g id="node17" class="node">
<title>none_corrector</title>
<ellipse fill="none" stroke="blue" cx="778" cy="-747" rx="63.89" ry="18"/>
<text text-anchor="middle" x="778" y="-743.3" font-family="Times,serif" font-size="14.00" fill="blue">none_corrector</text>
</g>
<!-- none_corrector&#45;&gt;corrector -->
<g id="edge19" class="edge">
<title>none_corrector&#45;&gt;corrector</title>
<path fill="none" stroke="blue" d="M775.28,-765.3C774.07,-773.02 772.61,-782.29 771.26,-790.89"/>
<polygon fill="blue" stroke="blue" points="767.78,-790.47 769.69,-800.9 774.7,-791.56 767.78,-790.47"/>
</g>
<!-- color -->
<g id="node19" class="node">
<title>color</title>
<ellipse fill="none" stroke="black" cx="710" cy="-90" rx="28.7" ry="18"/>
<text text-anchor="middle" x="710" y="-86.3" font-family="Times,serif" font-size="14.00">color</text>
</g>
<!-- color&#45;&gt;basic_block_pointer -->
<g id="edge25" class="edge">
<title>color&#45;&gt;basic_block_pointer</title>
<path fill="none" stroke="black" d="M717.51,-107.66C728.58,-133.8 748,-186.3 748,-233 748,-233 748,-233 748,-310 748,-390.46 494.23,-429.2 358.06,-444.19"/>
<polygon fill="black" stroke="black" points="357.63,-440.72 348.06,-445.28 358.38,-447.68 357.63,-440.72"/>
</g>
<!-- color&#45;&gt;basic_block_pointer_proxy -->
<g id="edge24" class="edge">
<title>color&#45;&gt;basic_block_pointer_proxy</title>
<path fill="none" stroke="black" d="M709.88,-108.1C709,-127.09 705.23,-157.97 691,-180 631.13,-272.66 591.52,-281.54 491,-327 444.91,-347.85 390.08,-360.72 344.28,-368.56"/>
<polygon fill="black" stroke="black" points="343.65,-365.11 334.35,-370.2 344.79,-372.02 343.65,-365.11"/>
</g>
<!-- hsv_codec -->
<g id="node23" class="node">
<title>hsv_codec</title>
<ellipse fill="none" stroke="blue" cx="281" cy="-162" rx="48.19" ry="18"/>
<text text-anchor="middle" x="281" y="-158.3" font-family="Times,serif" font-size="14.00" fill="blue">hsv_codec</text>
</g>
<!-- color&#45;&gt;hsv_codec -->
<g id="edge27" class="edge">
<title>color&#45;&gt;hsv_codec</title>
<path fill="none" stroke="black" d="M681.75,-93.58C619.26,-99.6 464.81,-116.22 338,-144 334.08,-144.86 330.04,-145.85 326.01,-146.91"/>
<polygon fill="black" stroke="black" points="324.77,-143.62 316.06,-149.66 326.63,-150.37 324.77,-143.62"/>
</g>
<!-- rgb_palette_codec -->
<g id="node25" class="node">
<title>rgb_palette_codec</title>
<ellipse fill="none" stroke="blue" cx="607" cy="-162" rx="75.29" ry="18"/>
<text text-anchor="middle" x="607" y="-158.3" font-family="Times,serif" font-size="14.00" fill="blue">rgb_palette_codec</text>
</g>
<!-- color&#45;&gt;rgb_palette_codec -->
<g id="edge26" class="edge">
<title>color&#45;&gt;rgb_palette_codec</title>
<path fill="none" stroke="black" d="M691.11,-103.84C676.67,-113.65 656.41,-127.42 639.4,-138.98"/>
<polygon fill="black" stroke="black" points="637.15,-136.28 630.85,-144.79 641.09,-142.07 637.15,-136.28"/>
</g>
<!-- color_test -->
<g id="node28" class="node">
<title>color_test</title>
<ellipse fill="none" stroke="black" cx="919" cy="-600" rx="45.49" ry="18"/>
<text text-anchor="middle" x="919" y="-596.3" font-family="Times,serif" font-size="14.00">color_test</text>
</g>
<!-- color&#45;&gt;color_test -->
<g id="edge41" class="edge">
<title>color&#45;&gt;color_test</title>
<path fill="none" stroke="black" d="M734.45,-99.5C779.49,-116.89 871,-161.07 871,-233 871,-233 871,-233 871,-454 871,-497.41 890.63,-544.59 904.78,-572.97"/>
<polygon fill="black" stroke="black" points="901.83,-574.9 909.52,-582.19 908.06,-571.7 901.83,-574.9"/>
</g>
<!-- color&#45;&gt;basic_block_test -->
<g id="edge40" class="edge">
<title>color&#45;&gt;basic_block_test</title>
<path fill="none" stroke="black" d="M724.3,-105.77C746.31,-130.15 786,-181.27 786,-233 786,-233 786,-233 786,-454 786,-494.85 786,-542.17 786,-571.35"/>
<polygon fill="black" stroke="black" points="782.5,-571.59 786,-581.59 789.5,-571.59 782.5,-571.59"/>
</g>
<!-- status_error -->
<g id="node20" class="node">
<title>status_error</title>
<ellipse fill="none" stroke="black" cx="457" cy="-18" rx="51.99" ry="18"/>
<text text-anchor="middle" x="457" y="-14.3" font-family="Times,serif" font-size="14.00">status_error</text>
</g>
<!-- status_error&#45;&gt;color -->
<g id="edge28" class="edge">
<title>status_error&#45;&gt;color</title>
<path fill="none" stroke="black" d="M496.25,-29.86C545,-43.35 627.45,-66.16 674.43,-79.16"/>
<polygon fill="black" stroke="black" points="673.6,-82.56 684.17,-81.85 675.46,-75.81 673.6,-82.56"/>
</g>
<!-- color_codec -->
<g id="node22" class="node">
<title>color_codec</title>
<ellipse fill="none" stroke="purple" cx="428" cy="-309" rx="53.89" ry="18"/>
<text text-anchor="middle" x="428" y="-305.3" font-family="Times,serif" font-size="14.00" fill="purple">color_codec</text>
</g>
<!-- status_error&#45;&gt;color_codec -->
<g id="edge29" class="edge">
<title>status_error&#45;&gt;color_codec</title>
<path fill="none" stroke="black" d="M413.7,-28.04C358.45,-42.15 265.13,-75.26 224,-144 215.78,-157.73 216.71,-165.76 224,-180 248.97,-228.74 273.6,-230.58 324,-252 342.29,-259.78 349.91,-251.76 368,-260 381.35,-266.08 394.3,-275.79 404.74,-284.9"/>
<polygon fill="black" stroke="black" points="402.43,-287.53 412.19,-291.67 407.14,-282.35 402.43,-287.53"/>
</g>
<!-- math -->
<g id="node21" class="node">
<title>math</title>
<ellipse fill="none" stroke="black" cx="527" cy="-453" rx="28.7" ry="18"/>
<text text-anchor="middle" x="527" y="-449.3" font-family="Times,serif" font-size="14.00">math</text>
</g>
<!-- math&#45;&gt;basic_block_container -->
<g id="edge30" class="edge">
<title>math&#45;&gt;basic_block_container</title>
<path fill="none" stroke="black" d="M498.79,-456.71C466.73,-460.18 413.01,-467.22 368,-479 339.53,-486.45 308.6,-497.84 284.16,-507.66"/>
<polygon fill="black" stroke="black" points="282.74,-504.46 274.8,-511.47 285.38,-510.94 282.74,-504.46"/>
</g>
<!-- math_test -->
<g id="node31" class="node">
<title>math_test</title>
<ellipse fill="none" stroke="black" cx="653" cy="-600" rx="45.49" ry="18"/>
<text text-anchor="middle" x="653" y="-596.3" font-family="Times,serif" font-size="14.00">math_test</text>
</g>
<!-- math&#45;&gt;math_test -->
<g id="edge42" class="edge">
<title>math&#45;&gt;math_test</title>
<path fill="none" stroke="black" d="M555.23,-456.1C572.99,-458.82 595.27,-465.01 610,-479 635.78,-503.49 646.14,-544.51 650.28,-571.66"/>
<polygon fill="black" stroke="black" points="646.82,-572.22 651.62,-581.67 653.76,-571.29 646.82,-572.22"/>
</g>
<!-- color_codec&#45;&gt;basic_block_pointer_proxy -->
<g id="edge31" class="edge">
<title>color_codec&#45;&gt;basic_block_pointer_proxy</title>
<path fill="none" stroke="black" d="M394.33,-323.17C367.46,-333.67 329.42,-348.55 299,-360.45"/>
<polygon fill="black" stroke="black" points="297.45,-357.29 289.41,-364.2 300,-363.81 297.45,-357.29"/>
</g>
<!-- hsv_codec&#45;&gt;color_codec -->
<g id="edge32" class="edge">
<title>hsv_codec&#45;&gt;color_codec</title>
<path fill="none" stroke="blue" d="M294.74,-179.33C310.4,-197.64 337.05,-227.91 362,-252 374.03,-263.62 388.08,-275.72 400.11,-285.69"/>
<polygon fill="blue" stroke="blue" points="398.12,-288.58 408.07,-292.22 402.56,-283.17 398.12,-288.58"/>
</g>
<!-- palette_codec -->
<g id="node24" class="node">
<title>palette_codec</title>
<ellipse fill="none" stroke="purple" cx="430" cy="-234" rx="59.29" ry="18"/>
<text text-anchor="middle" x="430" y="-230.3" font-family="Times,serif" font-size="14.00" fill="purple">palette_codec</text>
</g>
<!-- palette_codec&#45;&gt;color_codec -->
<g id="edge33" class="edge">
<title>palette_codec&#45;&gt;color_codec</title>
<path fill="none" stroke="purple" d="M429.53,-252.3C429.29,-260.75 429.01,-271.13 428.75,-280.63"/>
<polygon fill="purple" stroke="purple" points="425.25,-280.73 428.47,-290.82 432.24,-280.92 425.25,-280.73"/>
</g>
<!-- rgb_palette_codec&#45;&gt;palette_codec -->
<g id="edge34" class="edge">
<title>rgb_palette_codec&#45;&gt;palette_codec</title>
<path fill="none" stroke="blue" d="M569.89,-177.67C542.03,-188.7 503.75,-203.83 474.28,-215.49"/>
<polygon fill="blue" stroke="blue" points="472.66,-212.36 464.65,-219.3 475.24,-218.87 472.66,-212.36"/>
</g>
<!-- ycbcr_palette_codec -->
<g id="node26" class="node">
<title>ycbcr_palette_codec</title>
<ellipse fill="none" stroke="blue" cx="430" cy="-162" rx="83.39" ry="18"/>
<text text-anchor="middle" x="430" y="-158.3" font-family="Times,serif" font-size="14.00" fill="blue">ycbcr_palette_codec</text>
</g>
<!-- ycbcr_palette_codec&#45;&gt;palette_codec -->
<g id="edge35" class="edge">
<title>ycbcr_palette_codec&#45;&gt;palette_codec</title>
<path fill="none" stroke="blue" d="M430,-180.3C430,-188.02 430,-197.29 430,-205.89"/>
<polygon fill="blue" stroke="blue" points="426.5,-205.9 430,-215.9 433.5,-205.9 426.5,-205.9"/>
</g>
<!-- test -->
<g id="node27" class="node">
<title>test</title>
<ellipse fill="none" stroke="black" cx="574" cy="-528" rx="27" ry="18"/>
<text text-anchor="middle" x="574" y="-524.3" font-family="Times,serif" font-size="14.00">test</text>
</g>
<!-- test&#45;&gt;color_test -->
<g id="edge36" class="edge">
<title>test&#45;&gt;color_test</title>
<path fill="none" stroke="black" d="M600.32,-532.67C651.65,-540.07 768.54,-558.13 865,-582 868.55,-582.88 872.2,-583.86 875.86,-584.9"/>
<polygon fill="black" stroke="black" points="874.9,-588.26 885.48,-587.74 876.88,-581.55 874.9,-588.26"/>
</g>
<!-- test&#45;&gt;basic_block_test -->
<g id="edge37" class="edge">
<title>test&#45;&gt;basic_block_test</title>
<path fill="none" stroke="black" d="M595.98,-538.55C602.1,-541.09 608.77,-543.75 615,-546 653.31,-559.85 697.21,-573.41 730.94,-583.34"/>
<polygon fill="black" stroke="black" points="730.04,-586.73 740.62,-586.18 732,-580.01 730.04,-586.73"/>
</g>
<!-- raw_ip_length_reader_test -->
<g id="node30" class="node">
<title>raw_ip_length_reader_test</title>
<ellipse fill="none" stroke="black" cx="485" cy="-600" rx="104.78" ry="18"/>
<text text-anchor="middle" x="485" y="-596.3" font-family="Times,serif" font-size="14.00">raw_ip_length_reader_test</text>
</g>
<!-- test&#45;&gt;raw_ip_length_reader_test -->
<g id="edge38" class="edge">
<title>test&#45;&gt;raw_ip_length_reader_test</title>
<path fill="none" stroke="black" d="M557.26,-542.17C545.22,-551.63 528.67,-564.65 514.45,-575.84"/>
<polygon fill="black" stroke="black" points="512.09,-573.24 506.39,-582.18 516.41,-578.75 512.09,-573.24"/>
</g>
<!-- test&#45;&gt;math_test -->
<g id="edge39" class="edge">
<title>test&#45;&gt;math_test</title>
<path fill="none" stroke="black" d="M589.61,-542.83C600.38,-552.37 614.95,-565.28 627.4,-576.32"/>
<polygon fill="black" stroke="black" points="625.41,-579.23 635.22,-583.24 630.06,-573.99 625.41,-579.23"/>
</g>
</g>
</svg>
