<?xml version="1.0" encoding="UTF-8" standalone="no"?>
<!DOCTYPE svg PUBLIC "-//W3C//DTD SVG 1.1//EN"
 "http://www.w3.org/Graphics/SVG/1.1/DTD/svg11.dtd">
<!-- Generated by graphviz version 2.43.0 (0)
 -->
<!-- Title: %3 Pages: 1 -->
<svg width="879pt" height="701pt"
 viewBox="0.00 0.00 879.00 701.00" xmlns="http://www.w3.org/2000/svg" xmlns:xlink="http://www.w3.org/1999/xlink">
<g id="graph0" class="graph" transform="scale(1 1) rotate(0) translate(4 697)">
<title>%3</title>
<polygon fill="white" stroke="transparent" points="-4,4 -4,-697 875,-697 875,4 -4,4"/>
<g id="clust2" class="cluster">
<title>cluster_providers</title>
<path fill="none" stroke="black" d="M20,-44C20,-44 352,-44 352,-44 358,-44 364,-50 364,-56 364,-56 364,-617 364,-617 364,-623 358,-629 352,-629 352,-629 20,-629 20,-629 14,-629 8,-623 8,-617 8,-617 8,-56 8,-56 8,-50 14,-44 20,-44"/>
<text text-anchor="middle" x="186" y="-51.8" font-family="Times,serif" font-size="14.00">providers</text>
</g>
<g id="clust5" class="cluster">
<title>cluster_compressors</title>
<path fill="none" stroke="black" d="M384,-482C384,-482 522,-482 522,-482 528,-482 534,-488 534,-494 534,-494 534,-617 534,-617 534,-623 528,-629 522,-629 522,-629 384,-629 384,-629 378,-629 372,-623 372,-617 372,-617 372,-494 372,-494 372,-488 378,-482 384,-482"/>
<text text-anchor="middle" x="453" y="-489.8" font-family="Times,serif" font-size="14.00">compressors</text>
</g>
<g id="clust6" class="cluster">
<title>cluster_obfuscators</title>
<path fill="none" stroke="black" d="M554,-482C554,-482 686,-482 686,-482 692,-482 698,-488 698,-494 698,-494 698,-617 698,-617 698,-623 692,-629 686,-629 686,-629 554,-629 554,-629 548,-629 542,-623 542,-617 542,-617 542,-494 542,-494 542,-488 548,-482 554,-482"/>
<text text-anchor="middle" x="620" y="-489.8" font-family="Times,serif" font-size="14.00">obfuscators</text>
</g>
<g id="clust7" class="cluster">
<title>cluster_correctors</title>
<path fill="none" stroke="black" d="M718,-482C718,-482 838,-482 838,-482 844,-482 850,-488 850,-494 850,-494 850,-617 850,-617 850,-623 844,-629 838,-629 838,-629 718,-629 718,-629 712,-629 706,-623 706,-617 706,-617 706,-494 706,-494 706,-488 712,-482 718,-482"/>
<text text-anchor="middle" x="778" y="-489.8" font-family="Times,serif" font-size="14.00">correctors</text>
</g>
<g id="clust8" class="cluster">
<title>cluster_test</title>
<path fill="none" stroke="black" d="M384,-263C384,-263 851,-263 851,-263 857,-263 863,-269 863,-275 863,-275 863,-398 863,-398 863,-404 857,-410 851,-410 851,-410 384,-410 384,-410 378,-410 372,-404 372,-398 372,-398 372,-275 372,-275 372,-269 378,-263 384,-263"/>
<text text-anchor="middle" x="617.5" y="-270.8" font-family="Times,serif" font-size="14.00">TESTS</text>
</g>
<!-- provider -->
<g id="node1" class="node">
<title>provider</title>
<ellipse fill="none" stroke="red" cx="291" cy="-603" rx="40.09" ry="18"/>
<text text-anchor="middle" x="291" y="-599.3" font-family="Times,serif" font-size="14.00" fill="red">provider</text>
</g>
<!-- video_encoder -->
<g id="node17" class="node">
<title>video_encoder</title>
<ellipse fill="none" stroke="black" cx="541" cy="-675" rx="62.29" ry="18"/>
<text text-anchor="middle" x="541" y="-671.3" font-family="Times,serif" font-size="14.00">video_encoder</text>
</g>
<!-- provider&#45;&gt;video_encoder -->
<g id="edge19" class="edge">
<title>provider&#45;&gt;video_encoder</title>
<path fill="none" stroke="black" d="M321.97,-614.52C335.97,-619.15 352.75,-624.55 368,-629 406.91,-640.37 451.14,-651.85 485.15,-660.37"/>
<polygon fill="black" stroke="black" points="484.35,-663.78 494.9,-662.8 486.05,-656.98 484.35,-663.78"/>
</g>
<!-- basic_provider -->
<g id="node2" class="node">
<title>basic_provider</title>
<ellipse fill="none" stroke="blue" cx="248" cy="-531" rx="63.09" ry="18"/>
<text text-anchor="middle" x="248" y="-527.3" font-family="Times,serif" font-size="14.00" fill="blue">basic_provider</text>
</g>
<!-- basic_provider&#45;&gt;provider -->
<g id="edge1" class="edge">
<title>basic_provider&#45;&gt;provider</title>
<path fill="none" stroke="blue" d="M258.41,-548.95C263.48,-557.2 269.68,-567.3 275.31,-576.46"/>
<polygon fill="blue" stroke="blue" points="272.47,-578.52 280.69,-585.21 278.43,-574.86 272.47,-578.52"/>
</g>
<!-- basic_block_container -->
<g id="node3" class="node">
<title>basic_block_container</title>
<ellipse fill="none" stroke="black" cx="248" cy="-312" rx="89.88" ry="18"/>
<text text-anchor="middle" x="248" y="-308.3" font-family="Times,serif" font-size="14.00">basic_block_container</text>
</g>
<!-- basic_block_container&#45;&gt;basic_provider -->
<g id="edge2" class="edge">
<title>basic_block_container&#45;&gt;basic_provider</title>
<path fill="none" stroke="black" d="M248,-330.03C248,-367.49 248,-457.32 248,-502.74"/>
<polygon fill="black" stroke="black" points="244.5,-502.75 248,-512.75 251.5,-502.75 244.5,-502.75"/>
</g>
<!-- raw_ip_length_reader -->
<g id="node7" class="node">
<title>raw_ip_length_reader</title>
<ellipse fill="none" stroke="blue" cx="132" cy="-384" rx="87.99" ry="18"/>
<text text-anchor="middle" x="132" y="-380.3" font-family="Times,serif" font-size="14.00" fill="blue">raw_ip_length_reader</text>
</g>
<!-- basic_block_container&#45;&gt;raw_ip_length_reader -->
<g id="edge8" class="edge">
<title>basic_block_container&#45;&gt;raw_ip_length_reader</title>
<path fill="none" stroke="black" d="M221.1,-329.24C205.14,-338.87 184.72,-351.19 167.46,-361.6"/>
<polygon fill="black" stroke="black" points="165.51,-358.69 158.76,-366.85 169.13,-364.68 165.51,-358.69"/>
</g>
<!-- basic_block_test -->
<g id="node22" class="node">
<title>basic_block_test</title>
<ellipse fill="none" stroke="black" cx="677" cy="-384" rx="69.59" ry="18"/>
<text text-anchor="middle" x="677" y="-380.3" font-family="Times,serif" font-size="14.00">basic_block_test</text>
</g>
<!-- basic_block_container&#45;&gt;basic_block_test -->
<g id="edge32" class="edge">
<title>basic_block_container&#45;&gt;basic_block_test</title>
<path fill="none" stroke="black" d="M318.61,-323.11C405.12,-335.59 546.65,-356.35 599,-366 604.76,-367.06 610.75,-368.24 616.73,-369.46"/>
<polygon fill="black" stroke="black" points="616.24,-372.93 626.75,-371.55 617.67,-366.08 616.24,-372.93"/>
</g>
<!-- basic_block_pointer -->
<g id="node4" class="node">
<title>basic_block_pointer</title>
<ellipse fill="none" stroke="black" cx="230" cy="-237" rx="81.79" ry="18"/>
<text text-anchor="middle" x="230" y="-233.3" font-family="Times,serif" font-size="14.00">basic_block_pointer</text>
</g>
<!-- basic_block_pointer&#45;&gt;basic_block_container -->
<g id="edge3" class="edge">
<title>basic_block_pointer&#45;&gt;basic_block_container</title>
<path fill="none" stroke="black" d="M234.27,-255.3C236.37,-263.85 238.96,-274.35 241.33,-283.93"/>
<polygon fill="black" stroke="black" points="237.97,-284.95 243.76,-293.82 244.77,-283.28 237.97,-284.95"/>
</g>
<!-- basic_block_pointer&#45;&gt;basic_block_test -->
<g id="edge33" class="edge">
<title>basic_block_pointer&#45;&gt;basic_block_test</title>
<path fill="none" stroke="black" d="M311.09,-239.95C407.79,-242.87 559.31,-249.54 582,-263 612.43,-281.06 602.94,-302.34 625,-330 633.04,-340.08 642.73,-350.37 651.56,-359.17"/>
<polygon fill="black" stroke="black" points="649.12,-361.68 658.72,-366.17 654.02,-356.68 649.12,-361.68"/>
</g>
<!-- basic_block_pointer_proxy -->
<g id="node5" class="node">
<title>basic_block_pointer_proxy</title>
<ellipse fill="none" stroke="black" cx="249" cy="-165" rx="106.68" ry="18"/>
<text text-anchor="middle" x="249" y="-161.3" font-family="Times,serif" font-size="14.00">basic_block_pointer_proxy</text>
</g>
<!-- basic_block_pointer_proxy&#45;&gt;basic_block_container -->
<g id="edge5" class="edge">
<title>basic_block_pointer_proxy&#45;&gt;basic_block_container</title>
<path fill="none" stroke="black" d="M283.51,-182.25C297.86,-190.97 313.02,-203.21 321,-219 328.22,-233.28 328.08,-240.65 321,-255 314.05,-269.08 301.68,-280.61 289.06,-289.46"/>
<polygon fill="black" stroke="black" points="286.81,-286.76 280.36,-295.17 290.64,-292.61 286.81,-286.76"/>
</g>
<!-- basic_block_pointer_proxy&#45;&gt;basic_block_pointer -->
<g id="edge4" class="edge">
<title>basic_block_pointer_proxy&#45;&gt;basic_block_pointer</title>
<path fill="none" stroke="black" d="M244.3,-183.3C242.19,-191.1 239.64,-200.49 237.28,-209.17"/>
<polygon fill="black" stroke="black" points="233.88,-208.33 234.64,-218.9 240.64,-210.16 233.88,-208.33"/>
</g>
<!-- basic_block_pointer_proxy&#45;&gt;basic_block_test -->
<g id="edge31" class="edge">
<title>basic_block_pointer_proxy&#45;&gt;basic_block_test</title>
<path fill="none" stroke="black" d="M350.93,-170.42C431.1,-178.78 541.5,-201.64 617,-263 646.33,-286.84 662.59,-328.67 670.56,-356.11"/>
<polygon fill="black" stroke="black" points="667.21,-357.12 673.22,-365.85 673.96,-355.28 667.21,-357.12"/>
</g>
<!-- data_length_reader -->
<g id="node6" class="node">
<title>data_length_reader</title>
<ellipse fill="none" stroke="red" cx="141" cy="-456" rx="77.99" ry="18"/>
<text text-anchor="middle" x="141" y="-452.3" font-family="Times,serif" font-size="14.00" fill="red">data_length_reader</text>
</g>
<!-- data_length_reader&#45;&gt;basic_provider -->
<g id="edge7" class="edge">
<title>data_length_reader&#45;&gt;basic_provider</title>
<path fill="none" stroke="black" d="M164.75,-473.2C179.95,-483.57 199.86,-497.15 216.39,-508.44"/>
<polygon fill="black" stroke="black" points="214.45,-511.35 224.69,-514.1 218.4,-505.57 214.45,-511.35"/>
</g>
<!-- raw_ip_length_reader&#45;&gt;data_length_reader -->
<g id="edge6" class="edge">
<title>raw_ip_length_reader&#45;&gt;data_length_reader</title>
<path fill="none" stroke="blue" d="M134.22,-402.3C135.22,-410.02 136.41,-419.29 137.51,-427.89"/>
<polygon fill="blue" stroke="blue" points="134.05,-428.42 138.8,-437.9 141,-427.53 134.05,-428.42"/>
</g>
<!-- basic_block_config -->
<g id="node8" class="node">
<title>basic_block_config</title>
<ellipse fill="none" stroke="black" cx="95" cy="-93" rx="79.09" ry="18"/>
<text text-anchor="middle" x="95" y="-89.3" font-family="Times,serif" font-size="14.00">basic_block_config</text>
</g>
<!-- basic_block_config&#45;&gt;basic_block_container -->
<g id="edge9" class="edge">
<title>basic_block_config&#45;&gt;basic_block_container</title>
<path fill="none" stroke="black" d="M94.07,-111.09C93.56,-129.27 94.11,-158.72 101,-183 110.88,-217.81 113.27,-229.56 139,-255 154.92,-270.75 176.18,-283.02 195.7,-292"/>
<polygon fill="black" stroke="black" points="194.54,-295.32 205.11,-296.15 197.37,-288.91 194.54,-295.32"/>
</g>
<!-- basic_block_config&#45;&gt;basic_block_pointer -->
<g id="edge10" class="edge">
<title>basic_block_config&#45;&gt;basic_block_pointer</title>
<path fill="none" stroke="black" d="M96.66,-111.34C99.34,-130.83 106.29,-162.44 124,-183 137.32,-198.47 156.24,-209.9 174.41,-218.11"/>
<polygon fill="black" stroke="black" points="173.24,-221.42 183.81,-222.12 175.98,-214.98 173.24,-221.42"/>
</g>
<!-- basic_block_config&#45;&gt;basic_block_pointer_proxy -->
<g id="edge11" class="edge">
<title>basic_block_config&#45;&gt;basic_block_pointer_proxy</title>
<path fill="none" stroke="black" d="M128.8,-109.36C150.99,-119.45 180.28,-132.76 204.38,-143.72"/>
<polygon fill="black" stroke="black" points="203.13,-146.99 213.68,-147.94 206.02,-140.62 203.13,-146.99"/>
</g>
<!-- basic_block_config&#45;&gt;raw_ip_length_reader -->
<g id="edge12" class="edge">
<title>basic_block_config&#45;&gt;raw_ip_length_reader</title>
<path fill="none" stroke="black" d="M93.78,-111.18C93.11,-121.54 92.34,-135.02 92,-147 91.55,-162.99 90.42,-167.08 92,-183 98.2,-245.65 115.08,-317.74 124.82,-355.94"/>
<polygon fill="black" stroke="black" points="121.47,-356.98 127.36,-365.78 128.25,-355.23 121.47,-356.98"/>
</g>
<!-- rect -->
<g id="node9" class="node">
<title>rect</title>
<ellipse fill="none" stroke="black" cx="219" cy="-93" rx="27" ry="18"/>
<text text-anchor="middle" x="219" y="-89.3" font-family="Times,serif" font-size="14.00">rect</text>
</g>
<!-- rect&#45;&gt;basic_block_pointer -->
<g id="edge14" class="edge">
<title>rect&#45;&gt;basic_block_pointer</title>
<path fill="none" stroke="black" d="M197.63,-104.13C174.56,-115.56 140.14,-134.21 133,-147 125.2,-160.97 124.84,-169.24 133,-183 142.21,-198.52 157.74,-209.79 173.71,-217.84"/>
<polygon fill="black" stroke="black" points="172.57,-221.17 183.12,-222.21 175.52,-214.82 172.57,-221.17"/>
</g>
<!-- rect&#45;&gt;basic_block_pointer_proxy -->
<g id="edge13" class="edge">
<title>rect&#45;&gt;basic_block_pointer_proxy</title>
<path fill="none" stroke="black" d="M226.11,-110.59C229.52,-118.55 233.69,-128.28 237.53,-137.24"/>
<polygon fill="black" stroke="black" points="234.37,-138.74 241.52,-146.55 240.8,-135.98 234.37,-138.74"/>
</g>
<!-- rgb_index -->
<g id="node10" class="node">
<title>rgb_index</title>
<ellipse fill="none" stroke="black" cx="310" cy="-93" rx="46.29" ry="18"/>
<text text-anchor="middle" x="310" y="-89.3" font-family="Times,serif" font-size="14.00">rgb_index</text>
</g>
<!-- rgb_index&#45;&gt;basic_block_pointer_proxy -->
<g id="edge15" class="edge">
<title>rgb_index&#45;&gt;basic_block_pointer_proxy</title>
<path fill="none" stroke="black" d="M295.85,-110.24C288.37,-118.82 279.03,-129.54 270.66,-139.14"/>
<polygon fill="black" stroke="black" points="267.85,-137.04 263.92,-146.88 273.13,-141.64 267.85,-137.04"/>
</g>
<!-- compressor -->
<g id="node11" class="node">
<title>compressor</title>
<ellipse fill="none" stroke="red" cx="463" cy="-603" rx="51.99" ry="18"/>
<text text-anchor="middle" x="463" y="-599.3" font-family="Times,serif" font-size="14.00" fill="red">compressor</text>
</g>
<!-- compressor&#45;&gt;video_encoder -->
<g id="edge20" class="edge">
<title>compressor&#45;&gt;video_encoder</title>
<path fill="none" stroke="black" d="M481.09,-620.24C491.16,-629.27 503.87,-640.67 514.98,-650.65"/>
<polygon fill="black" stroke="black" points="512.96,-653.54 522.74,-657.61 517.63,-648.33 512.96,-653.54"/>
</g>
<!-- none_compressor -->
<g id="node12" class="node">
<title>none_compressor</title>
<ellipse fill="none" stroke="blue" cx="453" cy="-531" rx="73.39" ry="18"/>
<text text-anchor="middle" x="453" y="-527.3" font-family="Times,serif" font-size="14.00" fill="blue">none_compressor</text>
</g>
<!-- none_compressor&#45;&gt;compressor -->
<g id="edge16" class="edge">
<title>none_compressor&#45;&gt;compressor</title>
<path fill="none" stroke="blue" d="M455.47,-549.3C456.57,-557.02 457.9,-566.29 459.13,-574.89"/>
<polygon fill="blue" stroke="blue" points="455.68,-575.49 460.56,-584.9 462.61,-574.5 455.68,-575.49"/>
</g>
<!-- obfuscator -->
<g id="node13" class="node">
<title>obfuscator</title>
<ellipse fill="none" stroke="red" cx="609" cy="-603" rx="48.19" ry="18"/>
<text text-anchor="middle" x="609" y="-599.3" font-family="Times,serif" font-size="14.00" fill="red">obfuscator</text>
</g>
<!-- obfuscator&#45;&gt;video_encoder -->
<g id="edge21" class="edge">
<title>obfuscator&#45;&gt;video_encoder</title>
<path fill="none" stroke="black" d="M593.23,-620.24C584.6,-629.12 573.75,-640.29 564.17,-650.15"/>
<polygon fill="black" stroke="black" points="561.62,-647.76 557.16,-657.37 566.64,-652.63 561.62,-647.76"/>
</g>
<!-- none_obfuscator -->
<g id="node14" class="node">
<title>none_obfuscator</title>
<ellipse fill="none" stroke="blue" cx="620" cy="-531" rx="69.59" ry="18"/>
<text text-anchor="middle" x="620" y="-527.3" font-family="Times,serif" font-size="14.00" fill="blue">none_obfuscator</text>
</g>
<!-- none_obfuscator&#45;&gt;obfuscator -->
<g id="edge17" class="edge">
<title>none_obfuscator&#45;&gt;obfuscator</title>
<path fill="none" stroke="blue" d="M617.28,-549.3C616.07,-557.02 614.61,-566.29 613.26,-574.89"/>
<polygon fill="blue" stroke="blue" points="609.78,-574.47 611.69,-584.9 616.7,-575.56 609.78,-574.47"/>
</g>
<!-- corrector -->
<g id="node15" class="node">
<title>corrector</title>
<ellipse fill="none" stroke="red" cx="767" cy="-603" rx="42.49" ry="18"/>
<text text-anchor="middle" x="767" y="-599.3" font-family="Times,serif" font-size="14.00" fill="red">corrector</text>
</g>
<!-- corrector&#45;&gt;video_encoder -->
<g id="edge22" class="edge">
<title>corrector&#45;&gt;video_encoder</title>
<path fill="none" stroke="black" d="M737.44,-616.05C726.4,-620.37 713.71,-625.12 702,-629 667.2,-640.53 627.54,-651.64 596.29,-659.93"/>
<polygon fill="black" stroke="black" points="595.23,-656.59 586.45,-662.52 597.02,-663.36 595.23,-656.59"/>
</g>
<!-- none_corrector -->
<g id="node16" class="node">
<title>none_corrector</title>
<ellipse fill="none" stroke="blue" cx="778" cy="-531" rx="63.89" ry="18"/>
<text text-anchor="middle" x="778" y="-527.3" font-family="Times,serif" font-size="14.00" fill="blue">none_corrector</text>
</g>
<!-- none_corrector&#45;&gt;corrector -->
<g id="edge18" class="edge">
<title>none_corrector&#45;&gt;corrector</title>
<path fill="none" stroke="blue" d="M775.28,-549.3C774.07,-557.02 772.61,-566.29 771.26,-574.89"/>
<polygon fill="blue" stroke="blue" points="767.78,-574.47 769.69,-584.9 774.7,-575.56 767.78,-574.47"/>
</g>
<!-- color -->
<g id="node18" class="node">
<title>color</title>
<ellipse fill="none" stroke="black" cx="595" cy="-93" rx="28.7" ry="18"/>
<text text-anchor="middle" x="595" y="-89.3" font-family="Times,serif" font-size="14.00">color</text>
</g>
<!-- color&#45;&gt;basic_block_pointer -->
<g id="edge24" class="edge">
<title>color&#45;&gt;basic_block_pointer</title>
<path fill="none" stroke="black" d="M571.33,-103.21C512.25,-126.19 357.35,-186.46 278.14,-217.27"/>
<polygon fill="black" stroke="black" points="276.46,-214.17 268.41,-221.06 279,-220.69 276.46,-214.17"/>
</g>
<!-- color&#45;&gt;basic_block_pointer_proxy -->
<g id="edge23" class="edge">
<title>color&#45;&gt;basic_block_pointer_proxy</title>
<path fill="none" stroke="black" d="M568.14,-99.43C516.47,-109.89 401.58,-133.13 324.69,-148.69"/>
<polygon fill="black" stroke="black" points="323.68,-145.32 314.57,-150.73 325.07,-152.18 323.68,-145.32"/>
</g>
<!-- color_test -->
<g id="node21" class="node">
<title>color_test</title>
<ellipse fill="none" stroke="black" cx="810" cy="-384" rx="45.49" ry="18"/>
<text text-anchor="middle" x="810" y="-380.3" font-family="Times,serif" font-size="14.00">color_test</text>
</g>
<!-- color&#45;&gt;color_test -->
<g id="edge30" class="edge">
<title>color&#45;&gt;color_test</title>
<path fill="none" stroke="black" d="M606.94,-109.74C614.91,-120.27 625.61,-134.45 635,-147 692.46,-223.8 759.93,-315.11 791.7,-358.18"/>
<polygon fill="black" stroke="black" points="788.99,-360.4 797.74,-366.37 794.62,-356.24 788.99,-360.4"/>
</g>
<!-- color&#45;&gt;basic_block_test -->
<g id="edge29" class="edge">
<title>color&#45;&gt;basic_block_test</title>
<path fill="none" stroke="black" d="M601.34,-110.59C612.65,-140.63 636.57,-206.23 652,-263 660.56,-294.48 667.83,-331.3 672.29,-355.76"/>
<polygon fill="black" stroke="black" points="668.87,-356.53 674.08,-365.76 675.76,-355.3 668.87,-356.53"/>
</g>
<!-- status_error -->
<g id="node19" class="node">
<title>status_error</title>
<ellipse fill="none" stroke="black" cx="595" cy="-18" rx="51.99" ry="18"/>
<text text-anchor="middle" x="595" y="-14.3" font-family="Times,serif" font-size="14.00">status_error</text>
</g>
<!-- status_error&#45;&gt;color -->
<g id="edge25" class="edge">
<title>status_error&#45;&gt;color</title>
<path fill="none" stroke="black" d="M595,-36.3C595,-44.75 595,-55.13 595,-64.63"/>
<polygon fill="black" stroke="black" points="591.5,-64.82 595,-74.82 598.5,-64.82 591.5,-64.82"/>
</g>
<!-- test -->
<g id="node20" class="node">
<title>test</title>
<ellipse fill="none" stroke="black" cx="546" cy="-312" rx="27" ry="18"/>
<text text-anchor="middle" x="546" y="-308.3" font-family="Times,serif" font-size="14.00">test</text>
</g>
<!-- test&#45;&gt;color_test -->
<g id="edge26" class="edge">
<title>test&#45;&gt;color_test</title>
<path fill="none" stroke="black" d="M571.02,-318.82C610.5,-328.11 689.61,-347.19 756,-366 759.32,-366.94 762.74,-367.94 766.17,-368.97"/>
<polygon fill="black" stroke="black" points="765.22,-372.34 775.81,-371.91 767.27,-365.64 765.22,-372.34"/>
</g>
<!-- test&#45;&gt;basic_block_test -->
<g id="edge27" class="edge">
<title>test&#45;&gt;basic_block_test</title>
<path fill="none" stroke="black" d="M566.47,-323.94C585.78,-334.26 615.22,-349.99 638.86,-362.62"/>
<polygon fill="black" stroke="black" points="637.46,-365.84 647.93,-367.46 640.76,-359.66 637.46,-365.84"/>
</g>
<!-- raw_ip_length_reader_test -->
<g id="node23" class="node">
<title>raw_ip_length_reader_test</title>
<ellipse fill="none" stroke="black" cx="485" cy="-384" rx="104.78" ry="18"/>
<text text-anchor="middle" x="485" y="-380.3" font-family="Times,serif" font-size="14.00">raw_ip_length_reader_test</text>
</g>
<!-- test&#45;&gt;raw_ip_length_reader_test -->
<g id="edge28" class="edge">
<title>test&#45;&gt;raw_ip_length_reader_test</title>
<path fill="none" stroke="black" d="M533.06,-327.85C525.39,-336.65 515.47,-348.03 506.64,-358.17"/>
<polygon fill="black" stroke="black" points="503.78,-356.12 499.85,-365.96 509.06,-360.72 503.78,-356.12"/>
</g>
</g>
</svg>
