<?xml version="1.0" encoding="UTF-8" standalone="no"?>
<!DOCTYPE svg PUBLIC "-//W3C//DTD SVG 1.1//EN"
 "http://www.w3.org/Graphics/SVG/1.1/DTD/svg11.dtd">
<!-- Generated by graphviz version 2.43.0 (0)
 -->
<!-- Title: %3 Pages: 1 -->
<svg width="2118pt" height="917pt"
 viewBox="0.00 0.00 2118.00 917.00" xmlns="http://www.w3.org/2000/svg" xmlns:xlink="http://www.w3.org/1999/xlink">
<g id="graph0" class="graph" transform="scale(1 1) rotate(0) translate(4 913)">
<title>%3</title>
<polygon fill="white" stroke="transparent" points="-4,4 -4,-913 2114,-913 2114,4 -4,4"/>
<g id="clust2" class="cluster">
<title>cluster_providers</title>
<path fill="none" stroke="black" d="M20,-260C20,-260 1482,-260 1482,-260 1488,-260 1494,-266 1494,-272 1494,-272 1494,-833 1494,-833 1494,-839 1488,-845 1482,-845 1482,-845 20,-845 20,-845 14,-845 8,-839 8,-833 8,-833 8,-272 8,-272 8,-266 14,-260 20,-260"/>
<text text-anchor="middle" x="751" y="-267.8" font-family="Times,serif" font-size="14.00">providers</text>
</g>
<g id="clust6" class="cluster">
<title>cluster_compressors</title>
<path fill="none" stroke="black" d="M1514,-698C1514,-698 1652,-698 1652,-698 1658,-698 1664,-704 1664,-710 1664,-710 1664,-833 1664,-833 1664,-839 1658,-845 1652,-845 1652,-845 1514,-845 1514,-845 1508,-845 1502,-839 1502,-833 1502,-833 1502,-710 1502,-710 1502,-704 1508,-698 1514,-698"/>
<text text-anchor="middle" x="1583" y="-705.8" font-family="Times,serif" font-size="14.00">compressors</text>
</g>
<g id="clust7" class="cluster">
<title>cluster_obfuscators</title>
<path fill="none" stroke="black" d="M1684,-698C1684,-698 1816,-698 1816,-698 1822,-698 1828,-704 1828,-710 1828,-710 1828,-833 1828,-833 1828,-839 1822,-845 1816,-845 1816,-845 1684,-845 1684,-845 1678,-845 1672,-839 1672,-833 1672,-833 1672,-710 1672,-710 1672,-704 1678,-698 1684,-698"/>
<text text-anchor="middle" x="1750" y="-705.8" font-family="Times,serif" font-size="14.00">obfuscators</text>
</g>
<g id="clust8" class="cluster">
<title>cluster_correctors</title>
<path fill="none" stroke="black" d="M1848,-698C1848,-698 1968,-698 1968,-698 1974,-698 1980,-704 1980,-710 1980,-710 1980,-833 1980,-833 1980,-839 1974,-845 1968,-845 1968,-845 1848,-845 1848,-845 1842,-845 1836,-839 1836,-833 1836,-833 1836,-710 1836,-710 1836,-704 1842,-698 1848,-698"/>
<text text-anchor="middle" x="1908" y="-705.8" font-family="Times,serif" font-size="14.00">correctors</text>
</g>
<g id="clust9" class="cluster">
<title>cluster_test</title>
<path fill="none" stroke="black" d="M1514,-479C1514,-479 2090,-479 2090,-479 2096,-479 2102,-485 2102,-491 2102,-491 2102,-614 2102,-614 2102,-620 2096,-626 2090,-626 2090,-626 1514,-626 1514,-626 1508,-626 1502,-620 1502,-614 1502,-614 1502,-491 1502,-491 1502,-485 1508,-479 1514,-479"/>
<text text-anchor="middle" x="1802" y="-486.8" font-family="Times,serif" font-size="14.00">TESTS</text>
</g>
<!-- provider -->
<g id="node1" class="node">
<title>provider</title>
<ellipse fill="none" stroke="red" cx="1410" cy="-819" rx="40.09" ry="18"/>
<text text-anchor="middle" x="1410" y="-815.3" font-family="Times,serif" font-size="14.00" fill="red">provider</text>
</g>
<!-- video_encoder -->
<g id="node26" class="node">
<title>video_encoder</title>
<ellipse fill="none" stroke="black" cx="1671" cy="-891" rx="62.29" ry="18"/>
<text text-anchor="middle" x="1671" y="-887.3" font-family="Times,serif" font-size="14.00">video_encoder</text>
</g>
<!-- provider&#45;&gt;video_encoder -->
<g id="edge33" class="edge">
<title>provider&#45;&gt;video_encoder</title>
<path fill="none" stroke="black" d="M1442.96,-829.55C1459.47,-834.29 1479.76,-840.04 1498,-845 1537.38,-855.72 1581.96,-867.3 1616,-876.03"/>
<polygon fill="black" stroke="black" points="1615.2,-879.44 1625.76,-878.53 1616.94,-872.66 1615.2,-879.44"/>
</g>
<!-- basic_provider -->
<g id="node2" class="node">
<title>basic_provider</title>
<ellipse fill="none" stroke="blue" cx="1339" cy="-747" rx="63.09" ry="18"/>
<text text-anchor="middle" x="1339" y="-743.3" font-family="Times,serif" font-size="14.00" fill="blue">basic_provider</text>
</g>
<!-- basic_provider&#45;&gt;provider -->
<g id="edge1" class="edge">
<title>basic_provider&#45;&gt;provider</title>
<path fill="none" stroke="blue" d="M1355.83,-764.59C1364.98,-773.61 1376.44,-784.91 1386.46,-794.79"/>
<polygon fill="blue" stroke="blue" points="1384.21,-797.48 1393.78,-802.01 1389.12,-792.5 1384.21,-797.48"/>
</g>
<!-- basic_block_container -->
<g id="node3" class="node">
<title>basic_block_container</title>
<ellipse fill="none" stroke="black" cx="1339" cy="-528" rx="89.88" ry="18"/>
<text text-anchor="middle" x="1339" y="-524.3" font-family="Times,serif" font-size="14.00">basic_block_container</text>
</g>
<!-- basic_block_container&#45;&gt;basic_provider -->
<g id="edge2" class="edge">
<title>basic_block_container&#45;&gt;basic_provider</title>
<path fill="none" stroke="black" d="M1339,-546.03C1339,-583.49 1339,-673.32 1339,-718.74"/>
<polygon fill="black" stroke="black" points="1335.5,-718.75 1339,-728.75 1342.5,-718.75 1335.5,-718.75"/>
</g>
<!-- raw_ip_length_reader -->
<g id="node7" class="node">
<title>raw_ip_length_reader</title>
<ellipse fill="none" stroke="blue" cx="1218" cy="-600" rx="87.99" ry="18"/>
<text text-anchor="middle" x="1218" y="-596.3" font-family="Times,serif" font-size="14.00" fill="blue">raw_ip_length_reader</text>
</g>
<!-- basic_block_container&#45;&gt;raw_ip_length_reader -->
<g id="edge9" class="edge">
<title>basic_block_container&#45;&gt;raw_ip_length_reader</title>
<path fill="none" stroke="black" d="M1310.94,-545.24C1294.29,-554.87 1272.99,-567.19 1254.99,-577.6"/>
<polygon fill="black" stroke="black" points="1252.82,-574.82 1245.91,-582.85 1256.32,-580.87 1252.82,-574.82"/>
</g>
<!-- basic_block_test -->
<g id="node37" class="node">
<title>basic_block_test</title>
<ellipse fill="none" stroke="black" cx="1916" cy="-600" rx="69.59" ry="18"/>
<text text-anchor="middle" x="1916" y="-596.3" font-family="Times,serif" font-size="14.00">basic_block_test</text>
</g>
<!-- basic_block_container&#45;&gt;basic_block_test -->
<g id="edge57" class="edge">
<title>basic_block_container&#45;&gt;basic_block_test</title>
<path fill="none" stroke="black" d="M1416.23,-537.27C1442.21,-540.05 1471.36,-543.16 1498,-546 1648.66,-562.05 1687.39,-558.03 1837,-582 1843.18,-582.99 1849.61,-584.15 1856.01,-585.4"/>
<polygon fill="black" stroke="black" points="1855.51,-588.86 1866,-587.4 1856.89,-582 1855.51,-588.86"/>
</g>
<!-- basic_block_pointer -->
<g id="node4" class="node">
<title>basic_block_pointer</title>
<ellipse fill="none" stroke="black" cx="1404" cy="-453" rx="81.79" ry="18"/>
<text text-anchor="middle" x="1404" y="-449.3" font-family="Times,serif" font-size="14.00">basic_block_pointer</text>
</g>
<!-- basic_block_pointer&#45;&gt;basic_block_container -->
<g id="edge3" class="edge">
<title>basic_block_pointer&#45;&gt;basic_block_container</title>
<path fill="none" stroke="black" d="M1388.92,-470.93C1380.56,-480.33 1370,-492.18 1360.75,-502.57"/>
<polygon fill="black" stroke="black" points="1358.03,-500.36 1353.99,-510.16 1363.26,-505.02 1358.03,-500.36"/>
</g>
<!-- basic_block_pointer&#45;&gt;basic_block_test -->
<g id="edge58" class="edge">
<title>basic_block_pointer&#45;&gt;basic_block_test</title>
<path fill="none" stroke="black" d="M1479.25,-460.17C1520.26,-463.48 1571.91,-467.58 1618,-471 1643.77,-472.91 1709.52,-470.73 1734,-479 1750.46,-484.56 1836.9,-543.85 1884.49,-576.96"/>
<polygon fill="black" stroke="black" points="1882.7,-579.97 1892.9,-582.81 1886.7,-574.23 1882.7,-579.97"/>
</g>
<!-- basic_block_pointer_proxy -->
<g id="node5" class="node">
<title>basic_block_pointer_proxy</title>
<ellipse fill="none" stroke="black" cx="1379" cy="-381" rx="106.68" ry="18"/>
<text text-anchor="middle" x="1379" y="-377.3" font-family="Times,serif" font-size="14.00">basic_block_pointer_proxy</text>
</g>
<!-- basic_block_pointer_proxy&#45;&gt;basic_block_container -->
<g id="edge5" class="edge">
<title>basic_block_pointer_proxy&#45;&gt;basic_block_container</title>
<path fill="none" stroke="black" d="M1305.86,-394.12C1261.33,-403.16 1210.48,-417.03 1197,-435 1170.47,-470.35 1224.19,-495.93 1272.98,-511.01"/>
<polygon fill="black" stroke="black" points="1272.06,-514.39 1282.65,-513.89 1274.06,-507.68 1272.06,-514.39"/>
</g>
<!-- basic_block_pointer_proxy&#45;&gt;basic_block_pointer -->
<g id="edge4" class="edge">
<title>basic_block_pointer_proxy&#45;&gt;basic_block_pointer</title>
<path fill="none" stroke="black" d="M1385.18,-399.3C1388,-407.19 1391.39,-416.7 1394.52,-425.45"/>
<polygon fill="black" stroke="black" points="1391.23,-426.66 1397.89,-434.9 1397.82,-424.3 1391.23,-426.66"/>
</g>
<!-- basic_block_pointer_proxy&#45;&gt;basic_block_test -->
<g id="edge56" class="edge">
<title>basic_block_pointer_proxy&#45;&gt;basic_block_test</title>
<path fill="none" stroke="black" d="M1475.53,-388.65C1539.18,-395.34 1623.48,-408.65 1694,-435 1776.76,-465.93 1855.47,-537.38 1893.03,-574.94"/>
<polygon fill="black" stroke="black" points="1890.89,-577.75 1900.41,-582.41 1895.87,-572.84 1890.89,-577.75"/>
</g>
<!-- data_length_reader -->
<g id="node6" class="node">
<title>data_length_reader</title>
<ellipse fill="none" stroke="red" cx="1230" cy="-672" rx="77.99" ry="18"/>
<text text-anchor="middle" x="1230" y="-668.3" font-family="Times,serif" font-size="14.00" fill="red">data_length_reader</text>
</g>
<!-- data_length_reader&#45;&gt;basic_provider -->
<g id="edge8" class="edge">
<title>data_length_reader&#45;&gt;basic_provider</title>
<path fill="none" stroke="black" d="M1254.19,-689.2C1269.68,-699.57 1289.96,-713.15 1306.8,-724.44"/>
<polygon fill="black" stroke="black" points="1305,-727.44 1315.25,-730.1 1308.89,-721.62 1305,-727.44"/>
</g>
<!-- raw_ip_length_reader&#45;&gt;data_length_reader -->
<g id="edge7" class="edge">
<title>raw_ip_length_reader&#45;&gt;data_length_reader</title>
<path fill="none" stroke="blue" d="M1220.97,-618.3C1222.29,-626.02 1223.88,-635.29 1225.35,-643.89"/>
<polygon fill="blue" stroke="blue" points="1221.93,-644.63 1227.07,-653.9 1228.83,-643.45 1221.93,-644.63"/>
</g>
<!-- bit_area -->
<g id="node8" class="node">
<title>bit_area</title>
<ellipse fill="none" stroke="black" cx="1245" cy="-453" rx="38.99" ry="18"/>
<text text-anchor="middle" x="1245" y="-449.3" font-family="Times,serif" font-size="14.00">bit_area</text>
</g>
<!-- bit_area&#45;&gt;basic_block_container -->
<g id="edge6" class="edge">
<title>bit_area&#45;&gt;basic_block_container</title>
<path fill="none" stroke="black" d="M1264.02,-468.77C1277.15,-478.97 1294.85,-492.72 1309.76,-504.29"/>
<polygon fill="black" stroke="black" points="1307.67,-507.1 1317.71,-510.47 1311.96,-501.57 1307.67,-507.1"/>
</g>
<!-- video_pipe_config -->
<g id="node9" class="node">
<title>video_pipe_config</title>
<ellipse fill="none" stroke="black" cx="727" cy="-309" rx="76.89" ry="18"/>
<text text-anchor="middle" x="727" y="-305.3" font-family="Times,serif" font-size="14.00">video_pipe_config</text>
</g>
<!-- video_pipe -->
<g id="node10" class="node">
<title>video_pipe</title>
<ellipse fill="none" stroke="purple" cx="885" cy="-528" rx="50.09" ry="18"/>
<text text-anchor="middle" x="885" y="-524.3" font-family="Times,serif" font-size="14.00" fill="purple">video_pipe</text>
</g>
<!-- video_pipe_config&#45;&gt;video_pipe -->
<g id="edge16" class="edge">
<title>video_pipe_config&#45;&gt;video_pipe</title>
<path fill="none" stroke="black" d="M801.22,-313.74C919.39,-320.46 1139.46,-336.42 1163,-363 1235.11,-444.41 1038.09,-496.64 938.57,-517.15"/>
<polygon fill="black" stroke="black" points="937.79,-513.74 928.68,-519.15 939.18,-520.6 937.79,-513.74"/>
</g>
<!-- readonly_video_pipe -->
<g id="node11" class="node">
<title>readonly_video_pipe</title>
<ellipse fill="none" stroke="purple" cx="492" cy="-453" rx="85.29" ry="18"/>
<text text-anchor="middle" x="492" y="-449.3" font-family="Times,serif" font-size="14.00" fill="purple">readonly_video_pipe</text>
</g>
<!-- video_pipe_config&#45;&gt;readonly_video_pipe -->
<g id="edge17" class="edge">
<title>video_pipe_config&#45;&gt;readonly_video_pipe</title>
<path fill="none" stroke="black" d="M668.3,-320.75C638.9,-328.51 604.28,-341.54 579,-363 565.05,-374.84 570.85,-385.05 559,-399 549.34,-410.37 536.93,-420.99 525.42,-429.69"/>
<polygon fill="black" stroke="black" points="523.25,-426.94 517.25,-435.67 527.38,-432.58 523.25,-426.94"/>
</g>
<!-- writeonly_video_pipe -->
<g id="node12" class="node">
<title>writeonly_video_pipe</title>
<ellipse fill="none" stroke="purple" cx="885" cy="-453" rx="87.99" ry="18"/>
<text text-anchor="middle" x="885" y="-449.3" font-family="Times,serif" font-size="14.00" fill="purple">writeonly_video_pipe</text>
</g>
<!-- video_pipe_config&#45;&gt;writeonly_video_pipe -->
<g id="edge18" class="edge">
<title>video_pipe_config&#45;&gt;writeonly_video_pipe</title>
<path fill="none" stroke="black" d="M793.75,-317.94C823.13,-324.96 855.35,-338.17 875,-363 888.68,-380.28 890.27,-405.71 888.97,-424.97"/>
<polygon fill="black" stroke="black" points="885.49,-424.65 888.01,-434.94 892.46,-425.32 885.49,-424.65"/>
</g>
<!-- linux_tcp_readonly_video_pipe -->
<g id="node13" class="node">
<title>linux_tcp_readonly_video_pipe</title>
<ellipse fill="none" stroke="blue" cx="138" cy="-381" rx="122.38" ry="18"/>
<text text-anchor="middle" x="138" y="-377.3" font-family="Times,serif" font-size="14.00" fill="blue">linux_tcp_readonly_video_pipe</text>
</g>
<!-- video_pipe_config&#45;&gt;linux_tcp_readonly_video_pipe -->
<g id="edge19" class="edge">
<title>video_pipe_config&#45;&gt;linux_tcp_readonly_video_pipe</title>
<path fill="none" stroke="black" d="M659.07,-317.56C569.61,-327.59 407.44,-346.01 269,-363 258.28,-364.32 247.07,-365.72 235.92,-367.14"/>
<polygon fill="black" stroke="black" points="235.18,-363.71 225.71,-368.45 236.07,-370.65 235.18,-363.71"/>
</g>
<!-- linux_tcp_writeonly_video_pipe -->
<g id="node14" class="node">
<title>linux_tcp_writeonly_video_pipe</title>
<ellipse fill="none" stroke="blue" cx="1029" cy="-381" rx="125.38" ry="18"/>
<text text-anchor="middle" x="1029" y="-377.3" font-family="Times,serif" font-size="14.00" fill="blue">linux_tcp_writeonly_video_pipe</text>
</g>
<!-- video_pipe_config&#45;&gt;linux_tcp_writeonly_video_pipe -->
<g id="edge20" class="edge">
<title>video_pipe_config&#45;&gt;linux_tcp_writeonly_video_pipe</title>
<path fill="none" stroke="black" d="M779.6,-322.19C828.45,-333.51 901.61,-350.47 956.08,-363.1"/>
<polygon fill="black" stroke="black" points="955.49,-366.55 966.02,-365.4 957.07,-359.74 955.49,-366.55"/>
</g>
<!-- windows_tcp_readonly_video_pipe -->
<g id="node15" class="node">
<title>windows_tcp_readonly_video_pipe</title>
<ellipse fill="none" stroke="blue" cx="414" cy="-381" rx="135.68" ry="18"/>
<text text-anchor="middle" x="414" y="-377.3" font-family="Times,serif" font-size="14.00" fill="blue">windows_tcp_readonly_video_pipe</text>
</g>
<!-- video_pipe_config&#45;&gt;windows_tcp_readonly_video_pipe -->
<g id="edge21" class="edge">
<title>video_pipe_config&#45;&gt;windows_tcp_readonly_video_pipe</title>
<path fill="none" stroke="black" d="M673.55,-321.95C623.06,-333.24 546.83,-350.29 490.02,-363"/>
<polygon fill="black" stroke="black" points="489,-359.64 480.01,-365.24 490.53,-366.47 489,-359.64"/>
</g>
<!-- windows_tcp_writeonly_video_pipe -->
<g id="node16" class="node">
<title>windows_tcp_writeonly_video_pipe</title>
<ellipse fill="none" stroke="blue" cx="727" cy="-381" rx="139.18" ry="18"/>
<text text-anchor="middle" x="727" y="-377.3" font-family="Times,serif" font-size="14.00" fill="blue">windows_tcp_writeonly_video_pipe</text>
</g>
<!-- video_pipe_config&#45;&gt;windows_tcp_writeonly_video_pipe -->
<g id="edge22" class="edge">
<title>video_pipe_config&#45;&gt;windows_tcp_writeonly_video_pipe</title>
<path fill="none" stroke="black" d="M727,-327.3C727,-335.02 727,-344.29 727,-352.89"/>
<polygon fill="black" stroke="black" points="723.5,-352.9 727,-362.9 730.5,-352.9 723.5,-352.9"/>
</g>
<!-- readonly_video_pipe&#45;&gt;video_pipe -->
<g id="edge10" class="edge">
<title>readonly_video_pipe&#45;&gt;video_pipe</title>
<path fill="none" stroke="purple" d="M553.84,-465.49C630.17,-479.67 758.74,-503.55 831.18,-517"/>
<polygon fill="purple" stroke="purple" points="830.98,-520.53 841.45,-518.91 832.26,-513.64 830.98,-520.53"/>
</g>
<!-- writeonly_video_pipe&#45;&gt;video_pipe -->
<g id="edge11" class="edge">
<title>writeonly_video_pipe&#45;&gt;video_pipe</title>
<path fill="none" stroke="purple" d="M885,-471.3C885,-479.75 885,-490.13 885,-499.63"/>
<polygon fill="purple" stroke="purple" points="881.5,-499.82 885,-509.82 888.5,-499.82 881.5,-499.82"/>
</g>
<!-- linux_tcp_readonly_video_pipe&#45;&gt;readonly_video_pipe -->
<g id="edge12" class="edge">
<title>linux_tcp_readonly_video_pipe&#45;&gt;readonly_video_pipe</title>
<path fill="none" stroke="blue" d="M207.94,-395.83C269.97,-408.1 360.11,-425.92 422.12,-438.18"/>
<polygon fill="blue" stroke="blue" points="421.72,-441.67 432.21,-440.18 423.08,-434.8 421.72,-441.67"/>
</g>
<!-- linux_tcp_writeonly_video_pipe&#45;&gt;writeonly_video_pipe -->
<g id="edge13" class="edge">
<title>linux_tcp_writeonly_video_pipe&#45;&gt;writeonly_video_pipe</title>
<path fill="none" stroke="blue" d="M995.24,-398.41C974.73,-408.38 948.38,-421.19 926.59,-431.78"/>
<polygon fill="blue" stroke="blue" points="925.02,-428.65 917.56,-436.17 928.08,-434.95 925.02,-428.65"/>
</g>
<!-- windows_tcp_readonly_video_pipe&#45;&gt;readonly_video_pipe -->
<g id="edge14" class="edge">
<title>windows_tcp_readonly_video_pipe&#45;&gt;readonly_video_pipe</title>
<path fill="none" stroke="blue" d="M432.88,-398.95C442.75,-407.8 454.98,-418.78 465.76,-428.45"/>
<polygon fill="blue" stroke="blue" points="463.51,-431.14 473.29,-435.21 468.19,-425.93 463.51,-431.14"/>
</g>
<!-- windows_tcp_writeonly_video_pipe&#45;&gt;writeonly_video_pipe -->
<g id="edge15" class="edge">
<title>windows_tcp_writeonly_video_pipe&#45;&gt;writeonly_video_pipe</title>
<path fill="none" stroke="blue" d="M764.04,-398.41C786.91,-408.54 816.39,-421.6 840.52,-432.29"/>
<polygon fill="blue" stroke="blue" points="839.25,-435.56 849.82,-436.41 842.09,-429.16 839.25,-435.56"/>
</g>
<!-- basic_block_config -->
<g id="node17" class="node">
<title>basic_block_config</title>
<ellipse fill="none" stroke="black" cx="1213" cy="-309" rx="79.09" ry="18"/>
<text text-anchor="middle" x="1213" y="-305.3" font-family="Times,serif" font-size="14.00">basic_block_config</text>
</g>
<!-- basic_block_config&#45;&gt;basic_block_container -->
<g id="edge23" class="edge">
<title>basic_block_config&#45;&gt;basic_block_container</title>
<path fill="none" stroke="black" d="M1211.19,-327.05C1210.06,-346.28 1211.03,-377.65 1226,-399 1245.4,-426.68 1269.45,-410.75 1293,-435 1298.02,-440.17 1314.99,-475.38 1326.85,-500.71"/>
<polygon fill="black" stroke="black" points="1323.71,-502.26 1331.11,-509.84 1330.06,-499.3 1323.71,-502.26"/>
</g>
<!-- basic_block_config&#45;&gt;basic_block_pointer -->
<g id="edge24" class="edge">
<title>basic_block_config&#45;&gt;basic_block_pointer</title>
<path fill="none" stroke="black" d="M1216.41,-327.14C1221.24,-347.05 1231.92,-379.63 1253,-399 1274.41,-418.67 1303.55,-431.11 1330.52,-438.95"/>
<polygon fill="black" stroke="black" points="1329.77,-442.38 1340.34,-441.64 1331.62,-435.63 1329.77,-442.38"/>
</g>
<!-- basic_block_config&#45;&gt;basic_block_pointer_proxy -->
<g id="edge25" class="edge">
<title>basic_block_config&#45;&gt;basic_block_pointer_proxy</title>
<path fill="none" stroke="black" d="M1249.02,-325.19C1273.31,-335.43 1305.6,-349.05 1331.92,-360.15"/>
<polygon fill="black" stroke="black" points="1330.75,-363.45 1341.32,-364.11 1333.47,-357 1330.75,-363.45"/>
</g>
<!-- basic_block_config&#45;&gt;raw_ip_length_reader -->
<g id="edge26" class="edge">
<title>basic_block_config&#45;&gt;raw_ip_length_reader</title>
<path fill="none" stroke="black" d="M1206.98,-327.33C1197.49,-356.75 1180.72,-418.43 1187,-471 1191.24,-506.52 1201.87,-546.43 1209.51,-572.1"/>
<polygon fill="black" stroke="black" points="1206.21,-573.29 1212.46,-581.85 1212.91,-571.26 1206.21,-573.29"/>
</g>
<!-- rect -->
<g id="node18" class="node">
<title>rect</title>
<ellipse fill="none" stroke="black" cx="1337" cy="-309" rx="27" ry="18"/>
<text text-anchor="middle" x="1337" y="-305.3" font-family="Times,serif" font-size="14.00">rect</text>
</g>
<!-- rect&#45;&gt;basic_block_pointer -->
<g id="edge28" class="edge">
<title>rect&#45;&gt;basic_block_pointer</title>
<path fill="none" stroke="black" d="M1317.13,-321.37C1297.28,-333.19 1268.89,-351.54 1263,-363 1255.69,-377.23 1253.89,-385.85 1263,-399 1277.46,-419.88 1301.24,-432.55 1325.19,-440.22"/>
<polygon fill="black" stroke="black" points="1324.49,-443.67 1335.07,-443.12 1326.46,-436.95 1324.49,-443.67"/>
</g>
<!-- rect&#45;&gt;basic_block_pointer_proxy -->
<g id="edge27" class="edge">
<title>rect&#45;&gt;basic_block_pointer_proxy</title>
<path fill="none" stroke="black" d="M1346.53,-325.88C1351.52,-334.2 1357.75,-344.59 1363.42,-354.04"/>
<polygon fill="black" stroke="black" points="1360.48,-355.93 1368.62,-362.71 1366.48,-352.33 1360.48,-355.93"/>
</g>
<!-- rgb_index -->
<g id="node19" class="node">
<title>rgb_index</title>
<ellipse fill="none" stroke="black" cx="1428" cy="-309" rx="46.29" ry="18"/>
<text text-anchor="middle" x="1428" y="-305.3" font-family="Times,serif" font-size="14.00">rgb_index</text>
</g>
<!-- rgb_index&#45;&gt;basic_block_pointer_proxy -->
<g id="edge29" class="edge">
<title>rgb_index&#45;&gt;basic_block_pointer_proxy</title>
<path fill="none" stroke="black" d="M1416.39,-326.59C1410.49,-335.01 1403.21,-345.42 1396.64,-354.8"/>
<polygon fill="black" stroke="black" points="1393.74,-352.84 1390.87,-363.04 1399.47,-356.86 1393.74,-352.84"/>
</g>
<!-- compressor -->
<g id="node20" class="node">
<title>compressor</title>
<ellipse fill="none" stroke="red" cx="1593" cy="-819" rx="51.99" ry="18"/>
<text text-anchor="middle" x="1593" y="-815.3" font-family="Times,serif" font-size="14.00" fill="red">compressor</text>
</g>
<!-- compressor&#45;&gt;video_encoder -->
<g id="edge34" class="edge">
<title>compressor&#45;&gt;video_encoder</title>
<path fill="none" stroke="black" d="M1611.09,-836.24C1621.16,-845.27 1633.87,-856.67 1644.98,-866.65"/>
<polygon fill="black" stroke="black" points="1642.96,-869.54 1652.74,-873.61 1647.63,-864.33 1642.96,-869.54"/>
</g>
<!-- none_compressor -->
<g id="node21" class="node">
<title>none_compressor</title>
<ellipse fill="none" stroke="blue" cx="1583" cy="-747" rx="73.39" ry="18"/>
<text text-anchor="middle" x="1583" y="-743.3" font-family="Times,serif" font-size="14.00" fill="blue">none_compressor</text>
</g>
<!-- none_compressor&#45;&gt;compressor -->
<g id="edge30" class="edge">
<title>none_compressor&#45;&gt;compressor</title>
<path fill="none" stroke="blue" d="M1585.47,-765.3C1586.57,-773.02 1587.9,-782.29 1589.13,-790.89"/>
<polygon fill="blue" stroke="blue" points="1585.68,-791.49 1590.56,-800.9 1592.61,-790.5 1585.68,-791.49"/>
</g>
<!-- obfuscator -->
<g id="node22" class="node">
<title>obfuscator</title>
<ellipse fill="none" stroke="red" cx="1739" cy="-819" rx="48.19" ry="18"/>
<text text-anchor="middle" x="1739" y="-815.3" font-family="Times,serif" font-size="14.00" fill="red">obfuscator</text>
</g>
<!-- obfuscator&#45;&gt;video_encoder -->
<g id="edge35" class="edge">
<title>obfuscator&#45;&gt;video_encoder</title>
<path fill="none" stroke="black" d="M1723.23,-836.24C1714.6,-845.12 1703.75,-856.29 1694.17,-866.15"/>
<polygon fill="black" stroke="black" points="1691.62,-863.76 1687.16,-873.37 1696.64,-868.63 1691.62,-863.76"/>
</g>
<!-- none_obfuscator -->
<g id="node23" class="node">
<title>none_obfuscator</title>
<ellipse fill="none" stroke="blue" cx="1750" cy="-747" rx="69.59" ry="18"/>
<text text-anchor="middle" x="1750" y="-743.3" font-family="Times,serif" font-size="14.00" fill="blue">none_obfuscator</text>
</g>
<!-- none_obfuscator&#45;&gt;obfuscator -->
<g id="edge31" class="edge">
<title>none_obfuscator&#45;&gt;obfuscator</title>
<path fill="none" stroke="blue" d="M1747.28,-765.3C1746.07,-773.02 1744.61,-782.29 1743.26,-790.89"/>
<polygon fill="blue" stroke="blue" points="1739.78,-790.47 1741.69,-800.9 1746.7,-791.56 1739.78,-790.47"/>
</g>
<!-- corrector -->
<g id="node24" class="node">
<title>corrector</title>
<ellipse fill="none" stroke="red" cx="1897" cy="-819" rx="42.49" ry="18"/>
<text text-anchor="middle" x="1897" y="-815.3" font-family="Times,serif" font-size="14.00" fill="red">corrector</text>
</g>
<!-- corrector&#45;&gt;video_encoder -->
<g id="edge36" class="edge">
<title>corrector&#45;&gt;video_encoder</title>
<path fill="none" stroke="black" d="M1867.44,-832.05C1856.4,-836.37 1843.71,-841.12 1832,-845 1797.2,-856.53 1757.54,-867.64 1726.29,-875.93"/>
<polygon fill="black" stroke="black" points="1725.23,-872.59 1716.45,-878.52 1727.02,-879.36 1725.23,-872.59"/>
</g>
<!-- none_corrector -->
<g id="node25" class="node">
<title>none_corrector</title>
<ellipse fill="none" stroke="blue" cx="1908" cy="-747" rx="63.89" ry="18"/>
<text text-anchor="middle" x="1908" y="-743.3" font-family="Times,serif" font-size="14.00" fill="blue">none_corrector</text>
</g>
<!-- none_corrector&#45;&gt;corrector -->
<g id="edge32" class="edge">
<title>none_corrector&#45;&gt;corrector</title>
<path fill="none" stroke="blue" d="M1905.28,-765.3C1904.07,-773.02 1902.61,-782.29 1901.26,-790.89"/>
<polygon fill="blue" stroke="blue" points="1897.78,-790.47 1899.69,-800.9 1904.7,-791.56 1897.78,-790.47"/>
</g>
<!-- color -->
<g id="node27" class="node">
<title>color</title>
<ellipse fill="none" stroke="black" cx="1803" cy="-90" rx="28.7" ry="18"/>
<text text-anchor="middle" x="1803" y="-86.3" font-family="Times,serif" font-size="14.00">color</text>
</g>
<!-- color&#45;&gt;basic_block_pointer -->
<g id="edge38" class="edge">
<title>color&#45;&gt;basic_block_pointer</title>
<path fill="none" stroke="black" d="M1810.51,-107.66C1821.58,-133.8 1841,-186.3 1841,-233 1841,-233 1841,-233 1841,-310 1841,-384.08 1611,-425.41 1484.72,-442.52"/>
<polygon fill="black" stroke="black" points="1484.15,-439.06 1474.7,-443.86 1485.07,-446 1484.15,-439.06"/>
</g>
<!-- color&#45;&gt;basic_block_pointer_proxy -->
<g id="edge37" class="edge">
<title>color&#45;&gt;basic_block_pointer_proxy</title>
<path fill="none" stroke="black" d="M1802.47,-108.2C1801.21,-127.01 1797.1,-157.46 1784,-180 1734.63,-264.91 1706.45,-282.3 1619,-327 1575.73,-349.12 1523.46,-362.05 1478.76,-369.58"/>
<polygon fill="black" stroke="black" points="1478.07,-366.15 1468.76,-371.2 1479.19,-373.06 1478.07,-366.15"/>
</g>
<!-- hsv_codec -->
<g id="node31" class="node">
<title>hsv_codec</title>
<ellipse fill="none" stroke="blue" cx="1727" cy="-162" rx="48.19" ry="18"/>
<text text-anchor="middle" x="1727" y="-158.3" font-family="Times,serif" font-size="14.00" fill="blue">hsv_codec</text>
</g>
<!-- color&#45;&gt;hsv_codec -->
<g id="edge40" class="edge">
<title>color&#45;&gt;hsv_codec</title>
<path fill="none" stroke="black" d="M1787.25,-105.5C1777.08,-114.87 1763.62,-127.27 1752,-137.97"/>
<polygon fill="black" stroke="black" points="1749.3,-135.7 1744.32,-145.05 1754.04,-140.85 1749.3,-135.7"/>
</g>
<!-- rgb_palette_codec -->
<g id="node33" class="node">
<title>rgb_palette_codec</title>
<ellipse fill="none" stroke="blue" cx="1586" cy="-162" rx="75.29" ry="18"/>
<text text-anchor="middle" x="1586" y="-158.3" font-family="Times,serif" font-size="14.00" fill="blue">rgb_palette_codec</text>
</g>
<!-- color&#45;&gt;rgb_palette_codec -->
<g id="edge39" class="edge">
<title>color&#45;&gt;rgb_palette_codec</title>
<path fill="none" stroke="black" d="M1778.11,-99.03C1744.26,-109.95 1682.88,-129.75 1638.6,-144.03"/>
<polygon fill="black" stroke="black" points="1637.3,-140.77 1628.86,-147.17 1639.45,-147.44 1637.3,-140.77"/>
</g>
<!-- color_test -->
<g id="node36" class="node">
<title>color_test</title>
<ellipse fill="none" stroke="black" cx="2049" cy="-600" rx="45.49" ry="18"/>
<text text-anchor="middle" x="2049" y="-596.3" font-family="Times,serif" font-size="14.00">color_test</text>
</g>
<!-- color&#45;&gt;color_test -->
<g id="edge54" class="edge">
<title>color&#45;&gt;color_test</title>
<path fill="none" stroke="black" d="M1829.16,-97.29C1881.47,-111.59 1994,-151.81 1994,-233 1994,-233 1994,-233 1994,-454 1994,-498.27 2016.69,-545.48 2032.92,-573.6"/>
<polygon fill="black" stroke="black" points="2030.01,-575.57 2038.13,-582.37 2036.03,-571.99 2030.01,-575.57"/>
</g>
<!-- color&#45;&gt;basic_block_test -->
<g id="edge53" class="edge">
<title>color&#45;&gt;basic_block_test</title>
<path fill="none" stroke="black" d="M1821.95,-103.85C1852.44,-126.22 1909,-175.47 1909,-233 1909,-233 1909,-233 1909,-454 1909,-494.9 1911.81,-542.21 1913.87,-571.37"/>
<polygon fill="black" stroke="black" points="1910.4,-571.88 1914.62,-581.6 1917.38,-571.38 1910.4,-571.88"/>
</g>
<!-- status_error -->
<g id="node28" class="node">
<title>status_error</title>
<ellipse fill="none" stroke="black" cx="1550" cy="-18" rx="51.99" ry="18"/>
<text text-anchor="middle" x="1550" y="-14.3" font-family="Times,serif" font-size="14.00">status_error</text>
</g>
<!-- status_error&#45;&gt;color -->
<g id="edge41" class="edge">
<title>status_error&#45;&gt;color</title>
<path fill="none" stroke="black" d="M1589.25,-29.86C1638,-43.35 1720.45,-66.16 1767.43,-79.16"/>
<polygon fill="black" stroke="black" points="1766.6,-82.56 1777.17,-81.85 1768.46,-75.81 1766.6,-82.56"/>
</g>
<!-- color_codec -->
<g id="node30" class="node">
<title>color_codec</title>
<ellipse fill="none" stroke="purple" cx="1556" cy="-309" rx="53.89" ry="18"/>
<text text-anchor="middle" x="1556" y="-305.3" font-family="Times,serif" font-size="14.00" fill="purple">color_codec</text>
</g>
<!-- status_error&#45;&gt;color_codec -->
<g id="edge42" class="edge">
<title>status_error&#45;&gt;color_codec</title>
<path fill="none" stroke="black" d="M1507.39,-28.46C1426.84,-48.43 1264.74,-99.76 1317,-180 1365,-253.7 1423.19,-213.75 1498,-260 1509.46,-267.09 1521.1,-276.26 1530.92,-284.68"/>
<polygon fill="black" stroke="black" points="1528.87,-287.53 1538.69,-291.51 1533.49,-282.28 1528.87,-287.53"/>
</g>
<!-- math -->
<g id="node29" class="node">
<title>math</title>
<ellipse fill="none" stroke="black" cx="1656" cy="-453" rx="28.7" ry="18"/>
<text text-anchor="middle" x="1656" y="-449.3" font-family="Times,serif" font-size="14.00">math</text>
</g>
<!-- math&#45;&gt;basic_block_container -->
<g id="edge43" class="edge">
<title>math&#45;&gt;basic_block_container</title>
<path fill="none" stroke="black" d="M1628.1,-457.25C1596.35,-461.21 1543.07,-468.68 1498,-479 1462.24,-487.19 1422.75,-499.09 1392.07,-509"/>
<polygon fill="black" stroke="black" points="1390.86,-505.71 1382.44,-512.14 1393.03,-512.37 1390.86,-505.71"/>
</g>
<!-- math_test -->
<g id="node39" class="node">
<title>math_test</title>
<ellipse fill="none" stroke="black" cx="1783" cy="-600" rx="45.49" ry="18"/>
<text text-anchor="middle" x="1783" y="-596.3" font-family="Times,serif" font-size="14.00">math_test</text>
</g>
<!-- math&#45;&gt;math_test -->
<g id="edge55" class="edge">
<title>math&#45;&gt;math_test</title>
<path fill="none" stroke="black" d="M1684.23,-457.08C1700.53,-460.19 1720.43,-466.44 1734,-479 1760.54,-503.56 1773.07,-544.56 1778.72,-571.69"/>
<polygon fill="black" stroke="black" points="1775.31,-572.52 1780.62,-581.69 1782.19,-571.21 1775.31,-572.52"/>
</g>
<!-- color_codec&#45;&gt;basic_block_pointer_proxy -->
<g id="edge44" class="edge">
<title>color_codec&#45;&gt;basic_block_pointer_proxy</title>
<path fill="none" stroke="black" d="M1522.71,-323.17C1496.14,-333.67 1458.52,-348.55 1428.44,-360.45"/>
<polygon fill="black" stroke="black" points="1426.97,-357.26 1418.96,-364.2 1429.55,-363.77 1426.97,-357.26"/>
</g>
<!-- hsv_codec&#45;&gt;color_codec -->
<g id="edge45" class="edge">
<title>hsv_codec&#45;&gt;color_codec</title>
<path fill="none" stroke="blue" d="M1708.88,-178.89C1688.39,-196.79 1653.99,-226.7 1624,-252 1610.67,-263.24 1595.73,-275.58 1583.25,-285.81"/>
<polygon fill="blue" stroke="blue" points="1580.97,-283.15 1575.45,-292.19 1585.4,-288.57 1580.97,-283.15"/>
</g>
<!-- palette_codec -->
<g id="node32" class="node">
<title>palette_codec</title>
<ellipse fill="none" stroke="purple" cx="1556" cy="-234" rx="59.29" ry="18"/>
<text text-anchor="middle" x="1556" y="-230.3" font-family="Times,serif" font-size="14.00" fill="purple">palette_codec</text>
</g>
<!-- palette_codec&#45;&gt;color_codec -->
<g id="edge46" class="edge">
<title>palette_codec&#45;&gt;color_codec</title>
<path fill="none" stroke="purple" d="M1556,-252.3C1556,-260.75 1556,-271.13 1556,-280.63"/>
<polygon fill="purple" stroke="purple" points="1552.5,-280.82 1556,-290.82 1559.5,-280.82 1552.5,-280.82"/>
</g>
<!-- rgb_palette_codec&#45;&gt;palette_codec -->
<g id="edge47" class="edge">
<title>rgb_palette_codec&#45;&gt;palette_codec</title>
<path fill="none" stroke="blue" d="M1578.74,-179.95C1575.32,-187.91 1571.18,-197.59 1567.36,-206.49"/>
<polygon fill="blue" stroke="blue" points="1564.13,-205.15 1563.4,-215.72 1570.56,-207.91 1564.13,-205.15"/>
</g>
<!-- ycbcr_palette_codec -->
<g id="node34" class="node">
<title>ycbcr_palette_codec</title>
<ellipse fill="none" stroke="blue" cx="1409" cy="-162" rx="83.39" ry="18"/>
<text text-anchor="middle" x="1409" y="-158.3" font-family="Times,serif" font-size="14.00" fill="blue">ycbcr_palette_codec</text>
</g>
<!-- ycbcr_palette_codec&#45;&gt;palette_codec -->
<g id="edge48" class="edge">
<title>ycbcr_palette_codec&#45;&gt;palette_codec</title>
<path fill="none" stroke="blue" d="M1441.99,-178.71C1464.01,-189.2 1493.09,-203.04 1516.37,-214.13"/>
<polygon fill="blue" stroke="blue" points="1515.09,-217.4 1525.63,-218.54 1518.1,-211.08 1515.09,-217.4"/>
</g>
<!-- test -->
<g id="node35" class="node">
<title>test</title>
<ellipse fill="none" stroke="black" cx="1698" cy="-528" rx="27" ry="18"/>
<text text-anchor="middle" x="1698" y="-524.3" font-family="Times,serif" font-size="14.00">test</text>
</g>
<!-- test&#45;&gt;color_test -->
<g id="edge49" class="edge">
<title>test&#45;&gt;color_test</title>
<path fill="none" stroke="black" d="M1724.46,-532.56C1776.64,-539.83 1896.32,-557.77 1995,-582 1998.55,-582.87 2002.21,-583.85 2005.87,-584.88"/>
<polygon fill="black" stroke="black" points="2004.9,-588.25 2015.49,-587.72 2006.88,-581.53 2004.9,-588.25"/>
</g>
<!-- test&#45;&gt;basic_block_test -->
<g id="edge50" class="edge">
<title>test&#45;&gt;basic_block_test</title>
<path fill="none" stroke="black" d="M1719.97,-538.59C1726.08,-541.13 1732.76,-543.78 1739,-546 1778.88,-560.2 1824.68,-573.84 1859.7,-583.73"/>
<polygon fill="black" stroke="black" points="1859.17,-587.22 1869.74,-586.55 1861.06,-580.48 1859.17,-587.22"/>
</g>
<!-- raw_ip_length_reader_test -->
<g id="node38" class="node">
<title>raw_ip_length_reader_test</title>
<ellipse fill="none" stroke="black" cx="1615" cy="-600" rx="104.78" ry="18"/>
<text text-anchor="middle" x="1615" y="-596.3" font-family="Times,serif" font-size="14.00">raw_ip_length_reader_test</text>
</g>
<!-- test&#45;&gt;raw_ip_length_reader_test -->
<g id="edge51" class="edge">
<title>test&#45;&gt;raw_ip_length_reader_test</title>
<path fill="none" stroke="black" d="M1681.6,-542.83C1670.49,-552.2 1655.53,-564.81 1642.61,-575.71"/>
<polygon fill="black" stroke="black" points="1640.27,-573.11 1634.88,-582.24 1644.78,-578.46 1640.27,-573.11"/>
</g>
<!-- test&#45;&gt;math_test -->
<g id="edge52" class="edge">
<title>test&#45;&gt;math_test</title>
<path fill="none" stroke="black" d="M1714.39,-542.5C1726.25,-552.26 1742.53,-565.67 1756.26,-576.98"/>
<polygon fill="black" stroke="black" points="1754.05,-579.69 1763.99,-583.35 1758.5,-574.29 1754.05,-579.69"/>
</g>
</g>
</svg>
