<?xml version="1.0" encoding="UTF-8" standalone="no"?>
<!DOCTYPE svg PUBLIC "-//W3C//DTD SVG 1.1//EN"
 "http://www.w3.org/Graphics/SVG/1.1/DTD/svg11.dtd">
<!-- Generated by graphviz version 2.43.0 (0)
 -->
<!-- Title: %3 Pages: 1 -->
<svg width="1514pt" height="917pt"
 viewBox="0.00 0.00 1514.00 917.00" xmlns="http://www.w3.org/2000/svg" xmlns:xlink="http://www.w3.org/1999/xlink">
<g id="graph0" class="graph" transform="scale(1 1) rotate(0) translate(4 913)">
<title>%3</title>
<polygon fill="white" stroke="transparent" points="-4,4 -4,-913 1510,-913 1510,4 -4,4"/>
<g id="clust2" class="cluster">
<title>cluster_providers</title>
<path fill="none" stroke="black" d="M20,-260C20,-260 878,-260 878,-260 884,-260 890,-266 890,-272 890,-272 890,-833 890,-833 890,-839 884,-845 878,-845 878,-845 20,-845 20,-845 14,-845 8,-839 8,-833 8,-833 8,-272 8,-272 8,-266 14,-260 20,-260"/>
<text text-anchor="middle" x="449" y="-267.8" font-family="Times,serif" font-size="14.00">providers</text>
</g>
<g id="clust6" class="cluster">
<title>cluster_compressors</title>
<path fill="none" stroke="black" d="M910,-698C910,-698 1048,-698 1048,-698 1054,-698 1060,-704 1060,-710 1060,-710 1060,-833 1060,-833 1060,-839 1054,-845 1048,-845 1048,-845 910,-845 910,-845 904,-845 898,-839 898,-833 898,-833 898,-710 898,-710 898,-704 904,-698 910,-698"/>
<text text-anchor="middle" x="979" y="-705.8" font-family="Times,serif" font-size="14.00">compressors</text>
</g>
<g id="clust7" class="cluster">
<title>cluster_obfuscators</title>
<path fill="none" stroke="black" d="M1080,-698C1080,-698 1212,-698 1212,-698 1218,-698 1224,-704 1224,-710 1224,-710 1224,-833 1224,-833 1224,-839 1218,-845 1212,-845 1212,-845 1080,-845 1080,-845 1074,-845 1068,-839 1068,-833 1068,-833 1068,-710 1068,-710 1068,-704 1074,-698 1080,-698"/>
<text text-anchor="middle" x="1146" y="-705.8" font-family="Times,serif" font-size="14.00">obfuscators</text>
</g>
<g id="clust8" class="cluster">
<title>cluster_correctors</title>
<path fill="none" stroke="black" d="M1244,-698C1244,-698 1364,-698 1364,-698 1370,-698 1376,-704 1376,-710 1376,-710 1376,-833 1376,-833 1376,-839 1370,-845 1364,-845 1364,-845 1244,-845 1244,-845 1238,-845 1232,-839 1232,-833 1232,-833 1232,-710 1232,-710 1232,-704 1238,-698 1244,-698"/>
<text text-anchor="middle" x="1304" y="-705.8" font-family="Times,serif" font-size="14.00">correctors</text>
</g>
<g id="clust9" class="cluster">
<title>cluster_test</title>
<path fill="none" stroke="black" d="M910,-479C910,-479 1486,-479 1486,-479 1492,-479 1498,-485 1498,-491 1498,-491 1498,-614 1498,-614 1498,-620 1492,-626 1486,-626 1486,-626 910,-626 910,-626 904,-626 898,-620 898,-614 898,-614 898,-491 898,-491 898,-485 904,-479 910,-479"/>
<text text-anchor="middle" x="1198" y="-486.8" font-family="Times,serif" font-size="14.00">TESTS</text>
</g>
<!-- provider -->
<g id="node1" class="node">
<title>provider</title>
<ellipse fill="none" stroke="red" cx="806" cy="-819" rx="40.09" ry="18"/>
<text text-anchor="middle" x="806" y="-815.3" font-family="Times,serif" font-size="14.00" fill="red">provider</text>
</g>
<!-- video_encoder -->
<g id="node24" class="node">
<title>video_encoder</title>
<ellipse fill="none" stroke="black" cx="1067" cy="-891" rx="62.29" ry="18"/>
<text text-anchor="middle" x="1067" y="-887.3" font-family="Times,serif" font-size="14.00">video_encoder</text>
</g>
<!-- provider&#45;&gt;video_encoder -->
<g id="edge25" class="edge">
<title>provider&#45;&gt;video_encoder</title>
<path fill="none" stroke="black" d="M838.96,-829.55C855.47,-834.29 875.76,-840.04 894,-845 933.38,-855.72 977.96,-867.3 1012,-876.03"/>
<polygon fill="black" stroke="black" points="1011.2,-879.44 1021.76,-878.53 1012.94,-872.66 1011.2,-879.44"/>
</g>
<!-- basic_provider -->
<g id="node2" class="node">
<title>basic_provider</title>
<ellipse fill="none" stroke="blue" cx="735" cy="-747" rx="63.09" ry="18"/>
<text text-anchor="middle" x="735" y="-743.3" font-family="Times,serif" font-size="14.00" fill="blue">basic_provider</text>
</g>
<!-- basic_provider&#45;&gt;provider -->
<g id="edge1" class="edge">
<title>basic_provider&#45;&gt;provider</title>
<path fill="none" stroke="blue" d="M751.83,-764.59C760.98,-773.61 772.44,-784.91 782.46,-794.79"/>
<polygon fill="blue" stroke="blue" points="780.21,-797.48 789.78,-802.01 785.12,-792.5 780.21,-797.48"/>
</g>
<!-- basic_block_container -->
<g id="node3" class="node">
<title>basic_block_container</title>
<ellipse fill="none" stroke="blue" cx="735" cy="-528" rx="89.88" ry="18"/>
<text text-anchor="middle" x="735" y="-524.3" font-family="Times,serif" font-size="14.00" fill="blue">basic_block_container</text>
</g>
<!-- basic_block_container&#45;&gt;basic_provider -->
<g id="edge2" class="edge">
<title>basic_block_container&#45;&gt;basic_provider</title>
<path fill="none" stroke="black" d="M735,-546.03C735,-583.49 735,-673.32 735,-718.74"/>
<polygon fill="black" stroke="black" points="731.5,-718.75 735,-728.75 738.5,-718.75 731.5,-718.75"/>
</g>
<!-- raw_ip_length_reader -->
<g id="node7" class="node">
<title>raw_ip_length_reader</title>
<ellipse fill="none" stroke="blue" cx="614" cy="-600" rx="87.99" ry="18"/>
<text text-anchor="middle" x="614" y="-596.3" font-family="Times,serif" font-size="14.00" fill="blue">raw_ip_length_reader</text>
</g>
<!-- basic_block_container&#45;&gt;raw_ip_length_reader -->
<g id="edge9" class="edge">
<title>basic_block_container&#45;&gt;raw_ip_length_reader</title>
<path fill="none" stroke="black" d="M706.94,-545.24C690.29,-554.87 668.99,-567.19 650.99,-577.6"/>
<polygon fill="black" stroke="black" points="648.82,-574.82 641.91,-582.85 652.32,-580.87 648.82,-574.82"/>
</g>
<!-- basic_block_test -->
<g id="node35" class="node">
<title>basic_block_test</title>
<ellipse fill="none" stroke="black" cx="1312" cy="-600" rx="69.59" ry="18"/>
<text text-anchor="middle" x="1312" y="-596.3" font-family="Times,serif" font-size="14.00">basic_block_test</text>
</g>
<!-- basic_block_container&#45;&gt;basic_block_test -->
<g id="edge49" class="edge">
<title>basic_block_container&#45;&gt;basic_block_test</title>
<path fill="none" stroke="black" d="M812.23,-537.27C838.21,-540.05 867.36,-543.16 894,-546 1044.66,-562.05 1083.39,-558.03 1233,-582 1239.18,-582.99 1245.61,-584.15 1252.01,-585.4"/>
<polygon fill="black" stroke="black" points="1251.51,-588.86 1262,-587.4 1252.89,-582 1251.51,-588.86"/>
</g>
<!-- basic_block_pointer -->
<g id="node4" class="node">
<title>basic_block_pointer</title>
<ellipse fill="none" stroke="blue" cx="800" cy="-453" rx="81.79" ry="18"/>
<text text-anchor="middle" x="800" y="-449.3" font-family="Times,serif" font-size="14.00" fill="blue">basic_block_pointer</text>
</g>
<!-- basic_block_pointer&#45;&gt;basic_block_container -->
<g id="edge3" class="edge">
<title>basic_block_pointer&#45;&gt;basic_block_container</title>
<path fill="none" stroke="black" d="M784.92,-470.93C776.56,-480.33 766,-492.18 756.75,-502.57"/>
<polygon fill="black" stroke="black" points="754.03,-500.36 749.99,-510.16 759.26,-505.02 754.03,-500.36"/>
</g>
<!-- basic_block_pointer&#45;&gt;basic_block_test -->
<g id="edge50" class="edge">
<title>basic_block_pointer&#45;&gt;basic_block_test</title>
<path fill="none" stroke="black" d="M876.13,-459.63C975.14,-466.97 1135.62,-478.86 1136,-479 1185.02,-496.44 1188.98,-516.74 1232,-546 1247.29,-556.4 1264.35,-567.74 1278.78,-577.25"/>
<polygon fill="black" stroke="black" points="1277.11,-580.34 1287.39,-582.92 1280.96,-574.49 1277.11,-580.34"/>
</g>
<!-- basic_block_pointer_proxy -->
<g id="node5" class="node">
<title>basic_block_pointer_proxy</title>
<ellipse fill="none" stroke="blue" cx="775" cy="-381" rx="106.68" ry="18"/>
<text text-anchor="middle" x="775" y="-377.3" font-family="Times,serif" font-size="14.00" fill="blue">basic_block_pointer_proxy</text>
</g>
<!-- basic_block_pointer_proxy&#45;&gt;basic_block_container -->
<g id="edge5" class="edge">
<title>basic_block_pointer_proxy&#45;&gt;basic_block_container</title>
<path fill="none" stroke="black" d="M743.99,-398.42C730.61,-407.31 716.37,-419.63 709,-435 698.76,-456.35 708.01,-482.47 718.2,-501.42"/>
<polygon fill="black" stroke="black" points="715.18,-503.18 723.2,-510.09 721.24,-499.68 715.18,-503.18"/>
</g>
<!-- basic_block_pointer_proxy&#45;&gt;basic_block_pointer -->
<g id="edge4" class="edge">
<title>basic_block_pointer_proxy&#45;&gt;basic_block_pointer</title>
<path fill="none" stroke="black" d="M781.18,-399.3C784,-407.19 787.39,-416.7 790.52,-425.45"/>
<polygon fill="black" stroke="black" points="787.23,-426.66 793.89,-434.9 793.82,-424.3 787.23,-426.66"/>
</g>
<!-- basic_block_pointer_proxy&#45;&gt;basic_block_test -->
<g id="edge48" class="edge">
<title>basic_block_pointer_proxy&#45;&gt;basic_block_test</title>
<path fill="none" stroke="black" d="M877.53,-386.16C944.66,-391.8 1033.12,-404.89 1106,-435 1183.7,-467.11 1256.08,-537.73 1290.68,-574.95"/>
<polygon fill="black" stroke="black" points="1288.14,-577.36 1297.48,-582.36 1293.3,-572.63 1288.14,-577.36"/>
</g>
<!-- data_length_reader -->
<g id="node6" class="node">
<title>data_length_reader</title>
<ellipse fill="none" stroke="red" cx="626" cy="-672" rx="77.99" ry="18"/>
<text text-anchor="middle" x="626" y="-668.3" font-family="Times,serif" font-size="14.00" fill="red">data_length_reader</text>
</g>
<!-- data_length_reader&#45;&gt;basic_provider -->
<g id="edge8" class="edge">
<title>data_length_reader&#45;&gt;basic_provider</title>
<path fill="none" stroke="black" d="M650.19,-689.2C665.68,-699.57 685.96,-713.15 702.8,-724.44"/>
<polygon fill="black" stroke="black" points="701,-727.44 711.25,-730.1 704.89,-721.62 701,-727.44"/>
</g>
<!-- raw_ip_length_reader&#45;&gt;data_length_reader -->
<g id="edge7" class="edge">
<title>raw_ip_length_reader&#45;&gt;data_length_reader</title>
<path fill="none" stroke="blue" d="M616.97,-618.3C618.29,-626.02 619.88,-635.29 621.35,-643.89"/>
<polygon fill="blue" stroke="blue" points="617.93,-644.63 623.07,-653.9 624.83,-643.45 617.93,-644.63"/>
</g>
<!-- bit_area -->
<g id="node8" class="node">
<title>bit_area</title>
<ellipse fill="none" stroke="green" cx="621" cy="-453" rx="38.99" ry="18"/>
<text text-anchor="middle" x="621" y="-449.3" font-family="Times,serif" font-size="14.00" fill="green">bit_area</text>
</g>
<!-- bit_area&#45;&gt;basic_block_container -->
<g id="edge6" class="edge">
<title>bit_area&#45;&gt;basic_block_container</title>
<path fill="none" stroke="black" d="M642.98,-468.08C659.4,-478.59 682.15,-493.16 700.93,-505.18"/>
<polygon fill="black" stroke="black" points="699.2,-508.23 709.5,-510.67 702.97,-502.33 699.2,-508.23"/>
</g>
<!-- video_pipe_in -->
<g id="node9" class="node">
<title>video_pipe_in</title>
<ellipse fill="none" stroke="red" cx="277" cy="-453" rx="61.19" ry="18"/>
<text text-anchor="middle" x="277" y="-449.3" font-family="Times,serif" font-size="14.00" fill="red">video_pipe_in</text>
</g>
<!-- video_pipe_out -->
<g id="node10" class="node">
<title>video_pipe_out</title>
<ellipse fill="none" stroke="red" cx="477" cy="-453" rx="65.79" ry="18"/>
<text text-anchor="middle" x="477" y="-449.3" font-family="Times,serif" font-size="14.00" fill="red">video_pipe_out</text>
</g>
<!-- ffmpeg_rtmp_pipe_in -->
<g id="node11" class="node">
<title>ffmpeg_rtmp_pipe_in</title>
<ellipse fill="none" stroke="blue" cx="277" cy="-381" rx="89.08" ry="18"/>
<text text-anchor="middle" x="277" y="-377.3" font-family="Times,serif" font-size="14.00" fill="blue">ffmpeg_rtmp_pipe_in</text>
</g>
<!-- ffmpeg_rtmp_pipe_in&#45;&gt;video_pipe_in -->
<g id="edge11" class="edge">
<title>ffmpeg_rtmp_pipe_in&#45;&gt;video_pipe_in</title>
<path fill="none" stroke="blue" d="M277,-399.3C277,-407.02 277,-416.29 277,-424.89"/>
<polygon fill="blue" stroke="blue" points="273.5,-424.9 277,-434.9 280.5,-424.9 273.5,-424.9"/>
</g>
<!-- ffmpeg_rtmp_pipe_out -->
<g id="node12" class="node">
<title>ffmpeg_rtmp_pipe_out</title>
<ellipse fill="none" stroke="blue" cx="477" cy="-381" rx="92.88" ry="18"/>
<text text-anchor="middle" x="477" y="-377.3" font-family="Times,serif" font-size="14.00" fill="blue">ffmpeg_rtmp_pipe_out</text>
</g>
<!-- ffmpeg_rtmp_pipe_out&#45;&gt;video_pipe_out -->
<g id="edge12" class="edge">
<title>ffmpeg_rtmp_pipe_out&#45;&gt;video_pipe_out</title>
<path fill="none" stroke="blue" d="M477,-399.3C477,-407.02 477,-416.29 477,-424.89"/>
<polygon fill="blue" stroke="blue" points="473.5,-424.9 477,-434.9 480.5,-424.9 473.5,-424.9"/>
</g>
<!-- video_pipe_config -->
<g id="node13" class="node">
<title>video_pipe_config</title>
<ellipse fill="none" stroke="green" cx="93" cy="-381" rx="76.89" ry="18"/>
<text text-anchor="middle" x="93" y="-377.3" font-family="Times,serif" font-size="14.00" fill="green">video_pipe_config</text>
</g>
<!-- ffmpeg_rtmp_config -->
<g id="node14" class="node">
<title>ffmpeg_rtmp_config</title>
<ellipse fill="none" stroke="green" cx="277" cy="-309" rx="85.29" ry="18"/>
<text text-anchor="middle" x="277" y="-305.3" font-family="Times,serif" font-size="14.00" fill="green">ffmpeg_rtmp_config</text>
</g>
<!-- ffmpeg_rtmp_config&#45;&gt;ffmpeg_rtmp_pipe_in -->
<g id="edge13" class="edge">
<title>ffmpeg_rtmp_config&#45;&gt;ffmpeg_rtmp_pipe_in</title>
<path fill="none" stroke="black" d="M277,-327.3C277,-335.02 277,-344.29 277,-352.89"/>
<polygon fill="black" stroke="black" points="273.5,-352.9 277,-362.9 280.5,-352.9 273.5,-352.9"/>
</g>
<!-- ffmpeg_rtmp_config&#45;&gt;ffmpeg_rtmp_pipe_out -->
<g id="edge14" class="edge">
<title>ffmpeg_rtmp_config&#45;&gt;ffmpeg_rtmp_pipe_out</title>
<path fill="none" stroke="black" d="M318.93,-324.67C349.68,-335.44 391.65,-350.13 424.61,-361.67"/>
<polygon fill="black" stroke="black" points="423.5,-364.98 434.09,-364.98 425.81,-358.38 423.5,-364.98"/>
</g>
<!-- ffmpeg_rtmp_config&#45;&gt;video_pipe_config -->
<g id="edge10" class="edge">
<title>ffmpeg_rtmp_config&#45;&gt;video_pipe_config</title>
<path fill="none" stroke="green" d="M237.53,-325.02C209.23,-335.78 170.96,-350.34 140.91,-361.77"/>
<polygon fill="green" stroke="green" points="139.56,-358.54 131.46,-365.37 142.05,-365.08 139.56,-358.54"/>
</g>
<!-- basic_block_config -->
<g id="node15" class="node">
<title>basic_block_config</title>
<ellipse fill="none" stroke="green" cx="609" cy="-309" rx="79.09" ry="18"/>
<text text-anchor="middle" x="609" y="-305.3" font-family="Times,serif" font-size="14.00" fill="green">basic_block_config</text>
</g>
<!-- basic_block_config&#45;&gt;basic_block_container -->
<g id="edge15" class="edge">
<title>basic_block_config&#45;&gt;basic_block_container</title>
<path fill="none" stroke="black" d="M607.81,-327.32C607.32,-346.23 608.95,-376.78 622,-399 635.33,-421.69 650.69,-416.11 669,-435 688.72,-455.35 707.16,-481.96 719.51,-501.32"/>
<polygon fill="black" stroke="black" points="716.62,-503.3 724.9,-509.92 722.56,-499.59 716.62,-503.3"/>
</g>
<!-- basic_block_config&#45;&gt;basic_block_pointer -->
<g id="edge16" class="edge">
<title>basic_block_config&#45;&gt;basic_block_pointer</title>
<path fill="none" stroke="black" d="M612.41,-327.14C617.24,-347.05 627.92,-379.63 649,-399 670.41,-418.67 699.55,-431.11 726.52,-438.95"/>
<polygon fill="black" stroke="black" points="725.77,-442.38 736.34,-441.64 727.62,-435.63 725.77,-442.38"/>
</g>
<!-- basic_block_config&#45;&gt;basic_block_pointer_proxy -->
<g id="edge17" class="edge">
<title>basic_block_config&#45;&gt;basic_block_pointer_proxy</title>
<path fill="none" stroke="black" d="M645.02,-325.19C669.31,-335.43 701.6,-349.05 727.92,-360.15"/>
<polygon fill="black" stroke="black" points="726.75,-363.45 737.32,-364.11 729.47,-357 726.75,-363.45"/>
</g>
<!-- basic_block_config&#45;&gt;raw_ip_length_reader -->
<g id="edge18" class="edge">
<title>basic_block_config&#45;&gt;raw_ip_length_reader</title>
<path fill="none" stroke="black" d="M602.43,-327.06C593.66,-350.82 578.59,-395.42 573,-435 570.76,-450.84 570.53,-455.19 573,-471 578.66,-507.23 592.82,-547.21 602.91,-572.69"/>
<polygon fill="black" stroke="black" points="599.69,-574.06 606.69,-582.02 606.18,-571.44 599.69,-574.06"/>
</g>
<!-- rect -->
<g id="node16" class="node">
<title>rect</title>
<ellipse fill="none" stroke="green" cx="733" cy="-309" rx="27" ry="18"/>
<text text-anchor="middle" x="733" y="-305.3" font-family="Times,serif" font-size="14.00" fill="green">rect</text>
</g>
<!-- rect&#45;&gt;basic_block_pointer -->
<g id="edge20" class="edge">
<title>rect&#45;&gt;basic_block_pointer</title>
<path fill="none" stroke="black" d="M713.13,-321.37C693.28,-333.19 664.89,-351.54 659,-363 651.69,-377.23 649.89,-385.85 659,-399 673.46,-419.88 697.24,-432.55 721.19,-440.22"/>
<polygon fill="black" stroke="black" points="720.49,-443.67 731.07,-443.12 722.46,-436.95 720.49,-443.67"/>
</g>
<!-- rect&#45;&gt;basic_block_pointer_proxy -->
<g id="edge19" class="edge">
<title>rect&#45;&gt;basic_block_pointer_proxy</title>
<path fill="none" stroke="black" d="M742.53,-325.88C747.52,-334.2 753.75,-344.59 759.42,-354.04"/>
<polygon fill="black" stroke="black" points="756.48,-355.93 764.62,-362.71 762.48,-352.33 756.48,-355.93"/>
</g>
<!-- rgb_index -->
<g id="node17" class="node">
<title>rgb_index</title>
<ellipse fill="none" stroke="green" cx="824" cy="-309" rx="46.29" ry="18"/>
<text text-anchor="middle" x="824" y="-305.3" font-family="Times,serif" font-size="14.00" fill="green">rgb_index</text>
</g>
<!-- rgb_index&#45;&gt;basic_block_pointer_proxy -->
<g id="edge21" class="edge">
<title>rgb_index&#45;&gt;basic_block_pointer_proxy</title>
<path fill="none" stroke="black" d="M812.39,-326.59C806.49,-335.01 799.21,-345.42 792.64,-354.8"/>
<polygon fill="black" stroke="black" points="789.74,-352.84 786.87,-363.04 795.47,-356.86 789.74,-352.84"/>
</g>
<!-- compressor -->
<g id="node18" class="node">
<title>compressor</title>
<ellipse fill="none" stroke="red" cx="989" cy="-819" rx="51.99" ry="18"/>
<text text-anchor="middle" x="989" y="-815.3" font-family="Times,serif" font-size="14.00" fill="red">compressor</text>
</g>
<!-- compressor&#45;&gt;video_encoder -->
<g id="edge26" class="edge">
<title>compressor&#45;&gt;video_encoder</title>
<path fill="none" stroke="black" d="M1007.09,-836.24C1017.16,-845.27 1029.87,-856.67 1040.98,-866.65"/>
<polygon fill="black" stroke="black" points="1038.96,-869.54 1048.74,-873.61 1043.63,-864.33 1038.96,-869.54"/>
</g>
<!-- none_compressor -->
<g id="node19" class="node">
<title>none_compressor</title>
<ellipse fill="none" stroke="blue" cx="979" cy="-747" rx="73.39" ry="18"/>
<text text-anchor="middle" x="979" y="-743.3" font-family="Times,serif" font-size="14.00" fill="blue">none_compressor</text>
</g>
<!-- none_compressor&#45;&gt;compressor -->
<g id="edge22" class="edge">
<title>none_compressor&#45;&gt;compressor</title>
<path fill="none" stroke="blue" d="M981.47,-765.3C982.57,-773.02 983.9,-782.29 985.13,-790.89"/>
<polygon fill="blue" stroke="blue" points="981.68,-791.49 986.56,-800.9 988.61,-790.5 981.68,-791.49"/>
</g>
<!-- obfuscator -->
<g id="node20" class="node">
<title>obfuscator</title>
<ellipse fill="none" stroke="red" cx="1135" cy="-819" rx="48.19" ry="18"/>
<text text-anchor="middle" x="1135" y="-815.3" font-family="Times,serif" font-size="14.00" fill="red">obfuscator</text>
</g>
<!-- obfuscator&#45;&gt;video_encoder -->
<g id="edge27" class="edge">
<title>obfuscator&#45;&gt;video_encoder</title>
<path fill="none" stroke="black" d="M1119.23,-836.24C1110.6,-845.12 1099.75,-856.29 1090.17,-866.15"/>
<polygon fill="black" stroke="black" points="1087.62,-863.76 1083.16,-873.37 1092.64,-868.63 1087.62,-863.76"/>
</g>
<!-- none_obfuscator -->
<g id="node21" class="node">
<title>none_obfuscator</title>
<ellipse fill="none" stroke="blue" cx="1146" cy="-747" rx="69.59" ry="18"/>
<text text-anchor="middle" x="1146" y="-743.3" font-family="Times,serif" font-size="14.00" fill="blue">none_obfuscator</text>
</g>
<!-- none_obfuscator&#45;&gt;obfuscator -->
<g id="edge23" class="edge">
<title>none_obfuscator&#45;&gt;obfuscator</title>
<path fill="none" stroke="blue" d="M1143.28,-765.3C1142.07,-773.02 1140.61,-782.29 1139.26,-790.89"/>
<polygon fill="blue" stroke="blue" points="1135.78,-790.47 1137.69,-800.9 1142.7,-791.56 1135.78,-790.47"/>
</g>
<!-- corrector -->
<g id="node22" class="node">
<title>corrector</title>
<ellipse fill="none" stroke="red" cx="1293" cy="-819" rx="42.49" ry="18"/>
<text text-anchor="middle" x="1293" y="-815.3" font-family="Times,serif" font-size="14.00" fill="red">corrector</text>
</g>
<!-- corrector&#45;&gt;video_encoder -->
<g id="edge28" class="edge">
<title>corrector&#45;&gt;video_encoder</title>
<path fill="none" stroke="black" d="M1263.44,-832.05C1252.4,-836.37 1239.71,-841.12 1228,-845 1193.2,-856.53 1153.54,-867.64 1122.29,-875.93"/>
<polygon fill="black" stroke="black" points="1121.23,-872.59 1112.45,-878.52 1123.02,-879.36 1121.23,-872.59"/>
</g>
<!-- none_corrector -->
<g id="node23" class="node">
<title>none_corrector</title>
<ellipse fill="none" stroke="blue" cx="1304" cy="-747" rx="63.89" ry="18"/>
<text text-anchor="middle" x="1304" y="-743.3" font-family="Times,serif" font-size="14.00" fill="blue">none_corrector</text>
</g>
<!-- none_corrector&#45;&gt;corrector -->
<g id="edge24" class="edge">
<title>none_corrector&#45;&gt;corrector</title>
<path fill="none" stroke="blue" d="M1301.28,-765.3C1300.07,-773.02 1298.61,-782.29 1297.26,-790.89"/>
<polygon fill="blue" stroke="blue" points="1293.78,-790.47 1295.69,-800.9 1300.7,-791.56 1293.78,-790.47"/>
</g>
<!-- color -->
<g id="node25" class="node">
<title>color</title>
<ellipse fill="none" stroke="black" cx="1236" cy="-90" rx="28.7" ry="18"/>
<text text-anchor="middle" x="1236" y="-86.3" font-family="Times,serif" font-size="14.00">color</text>
</g>
<!-- color&#45;&gt;basic_block_pointer -->
<g id="edge30" class="edge">
<title>color&#45;&gt;basic_block_pointer</title>
<path fill="none" stroke="black" d="M1243.51,-107.66C1254.58,-133.8 1274,-186.3 1274,-233 1274,-233 1274,-233 1274,-310 1274,-390.46 1020.23,-429.2 884.06,-444.19"/>
<polygon fill="black" stroke="black" points="883.63,-440.72 874.06,-445.28 884.38,-447.68 883.63,-440.72"/>
</g>
<!-- color&#45;&gt;basic_block_pointer_proxy -->
<g id="edge29" class="edge">
<title>color&#45;&gt;basic_block_pointer_proxy</title>
<path fill="none" stroke="black" d="M1235.9,-108.11C1235.03,-127.11 1231.29,-158 1217,-180 1156.52,-273.12 1116.24,-281.4 1015,-327 969.34,-347.57 915.09,-360.42 869.74,-368.3"/>
<polygon fill="black" stroke="black" points="868.89,-364.9 859.61,-370.01 870.05,-371.8 868.89,-364.9"/>
</g>
<!-- hsv_codec -->
<g id="node29" class="node">
<title>hsv_codec</title>
<ellipse fill="none" stroke="blue" cx="807" cy="-162" rx="48.19" ry="18"/>
<text text-anchor="middle" x="807" y="-158.3" font-family="Times,serif" font-size="14.00" fill="blue">hsv_codec</text>
</g>
<!-- color&#45;&gt;hsv_codec -->
<g id="edge32" class="edge">
<title>color&#45;&gt;hsv_codec</title>
<path fill="none" stroke="black" d="M1207.75,-93.58C1145.26,-99.6 990.81,-116.22 864,-144 860.08,-144.86 856.04,-145.85 852.01,-146.91"/>
<polygon fill="black" stroke="black" points="850.77,-143.62 842.06,-149.66 852.63,-150.37 850.77,-143.62"/>
</g>
<!-- rgb_palette_codec -->
<g id="node31" class="node">
<title>rgb_palette_codec</title>
<ellipse fill="none" stroke="blue" cx="1133" cy="-162" rx="75.29" ry="18"/>
<text text-anchor="middle" x="1133" y="-158.3" font-family="Times,serif" font-size="14.00" fill="blue">rgb_palette_codec</text>
</g>
<!-- color&#45;&gt;rgb_palette_codec -->
<g id="edge31" class="edge">
<title>color&#45;&gt;rgb_palette_codec</title>
<path fill="none" stroke="black" d="M1217.11,-103.84C1202.67,-113.65 1182.41,-127.42 1165.4,-138.98"/>
<polygon fill="black" stroke="black" points="1163.15,-136.28 1156.85,-144.79 1167.09,-142.07 1163.15,-136.28"/>
</g>
<!-- color_test -->
<g id="node34" class="node">
<title>color_test</title>
<ellipse fill="none" stroke="black" cx="1445" cy="-600" rx="45.49" ry="18"/>
<text text-anchor="middle" x="1445" y="-596.3" font-family="Times,serif" font-size="14.00">color_test</text>
</g>
<!-- color&#45;&gt;color_test -->
<g id="edge46" class="edge">
<title>color&#45;&gt;color_test</title>
<path fill="none" stroke="black" d="M1260.45,-99.5C1305.49,-116.89 1397,-161.07 1397,-233 1397,-233 1397,-233 1397,-454 1397,-497.41 1416.63,-544.59 1430.78,-572.97"/>
<polygon fill="black" stroke="black" points="1427.83,-574.9 1435.52,-582.19 1434.06,-571.7 1427.83,-574.9"/>
</g>
<!-- color&#45;&gt;basic_block_test -->
<g id="edge45" class="edge">
<title>color&#45;&gt;basic_block_test</title>
<path fill="none" stroke="black" d="M1250.3,-105.77C1272.31,-130.15 1312,-181.27 1312,-233 1312,-233 1312,-233 1312,-454 1312,-494.85 1312,-542.17 1312,-571.35"/>
<polygon fill="black" stroke="black" points="1308.5,-571.59 1312,-581.59 1315.5,-571.59 1308.5,-571.59"/>
</g>
<!-- status_error -->
<g id="node26" class="node">
<title>status_error</title>
<ellipse fill="none" stroke="black" cx="983" cy="-18" rx="51.99" ry="18"/>
<text text-anchor="middle" x="983" y="-14.3" font-family="Times,serif" font-size="14.00">status_error</text>
</g>
<!-- status_error&#45;&gt;color -->
<g id="edge33" class="edge">
<title>status_error&#45;&gt;color</title>
<path fill="none" stroke="black" d="M1022.25,-29.86C1071,-43.35 1153.45,-66.16 1200.43,-79.16"/>
<polygon fill="black" stroke="black" points="1199.6,-82.56 1210.17,-81.85 1201.46,-75.81 1199.6,-82.56"/>
</g>
<!-- color_codec -->
<g id="node28" class="node">
<title>color_codec</title>
<ellipse fill="none" stroke="purple" cx="952" cy="-309" rx="53.89" ry="18"/>
<text text-anchor="middle" x="952" y="-305.3" font-family="Times,serif" font-size="14.00" fill="purple">color_codec</text>
</g>
<!-- status_error&#45;&gt;color_codec -->
<g id="edge34" class="edge">
<title>status_error&#45;&gt;color_codec</title>
<path fill="none" stroke="black" d="M939.7,-28.04C884.45,-42.15 791.13,-75.26 750,-144 741.78,-157.73 742.71,-165.76 750,-180 774.97,-228.74 799.6,-230.58 850,-252 868.29,-259.78 875.98,-251.61 894,-260 906.9,-266.01 919.32,-275.59 929.34,-284.61"/>
<polygon fill="black" stroke="black" points="927.14,-287.35 936.81,-291.66 931.93,-282.25 927.14,-287.35"/>
</g>
<!-- math -->
<g id="node27" class="node">
<title>math</title>
<ellipse fill="none" stroke="black" cx="1068" cy="-453" rx="28.7" ry="18"/>
<text text-anchor="middle" x="1068" y="-449.3" font-family="Times,serif" font-size="14.00">math</text>
</g>
<!-- math&#45;&gt;basic_block_container -->
<g id="edge35" class="edge">
<title>math&#45;&gt;basic_block_container</title>
<path fill="none" stroke="black" d="M1039.74,-456.74C1005.12,-460.4 944.8,-467.75 894,-479 858.05,-486.96 818.41,-498.92 787.7,-508.91"/>
<polygon fill="black" stroke="black" points="786.47,-505.63 778.06,-512.08 788.66,-512.28 786.47,-505.63"/>
</g>
<!-- math_test -->
<g id="node37" class="node">
<title>math_test</title>
<ellipse fill="none" stroke="black" cx="1179" cy="-600" rx="45.49" ry="18"/>
<text text-anchor="middle" x="1179" y="-596.3" font-family="Times,serif" font-size="14.00">math_test</text>
</g>
<!-- math&#45;&gt;math_test -->
<g id="edge47" class="edge">
<title>math&#45;&gt;math_test</title>
<path fill="none" stroke="black" d="M1095.51,-458.42C1109.24,-461.92 1125.19,-468.1 1136,-479 1161.04,-504.25 1171.59,-545.07 1175.97,-571.98"/>
<polygon fill="black" stroke="black" points="1172.51,-572.49 1177.41,-581.88 1179.43,-571.49 1172.51,-572.49"/>
</g>
<!-- color_codec&#45;&gt;basic_block_pointer_proxy -->
<g id="edge36" class="edge">
<title>color_codec&#45;&gt;basic_block_pointer_proxy</title>
<path fill="none" stroke="black" d="M918.71,-323.17C892.14,-333.67 854.52,-348.55 824.44,-360.45"/>
<polygon fill="black" stroke="black" points="822.97,-357.26 814.96,-364.2 825.55,-363.77 822.97,-357.26"/>
</g>
<!-- hsv_codec&#45;&gt;color_codec -->
<g id="edge37" class="edge">
<title>hsv_codec&#45;&gt;color_codec</title>
<path fill="none" stroke="blue" d="M820.81,-179.26C836.53,-197.5 863.24,-227.72 888,-252 899.73,-263.51 913.36,-275.59 925.02,-285.58"/>
<polygon fill="blue" stroke="blue" points="922.84,-288.32 932.73,-292.13 927.37,-282.99 922.84,-288.32"/>
</g>
<!-- palette_codec -->
<g id="node30" class="node">
<title>palette_codec</title>
<ellipse fill="none" stroke="purple" cx="956" cy="-234" rx="59.29" ry="18"/>
<text text-anchor="middle" x="956" y="-230.3" font-family="Times,serif" font-size="14.00" fill="purple">palette_codec</text>
</g>
<!-- palette_codec&#45;&gt;color_codec -->
<g id="edge38" class="edge">
<title>palette_codec&#45;&gt;color_codec</title>
<path fill="none" stroke="purple" d="M955.05,-252.3C954.59,-260.75 954.02,-271.13 953.5,-280.63"/>
<polygon fill="purple" stroke="purple" points="949.99,-280.65 952.94,-290.82 956.98,-281.03 949.99,-280.65"/>
</g>
<!-- rgb_palette_codec&#45;&gt;palette_codec -->
<g id="edge39" class="edge">
<title>rgb_palette_codec&#45;&gt;palette_codec</title>
<path fill="none" stroke="blue" d="M1095.89,-177.67C1068.03,-188.7 1029.75,-203.83 1000.28,-215.49"/>
<polygon fill="blue" stroke="blue" points="998.66,-212.36 990.65,-219.3 1001.24,-218.87 998.66,-212.36"/>
</g>
<!-- ycbcr_palette_codec -->
<g id="node32" class="node">
<title>ycbcr_palette_codec</title>
<ellipse fill="none" stroke="blue" cx="956" cy="-162" rx="83.39" ry="18"/>
<text text-anchor="middle" x="956" y="-158.3" font-family="Times,serif" font-size="14.00" fill="blue">ycbcr_palette_codec</text>
</g>
<!-- ycbcr_palette_codec&#45;&gt;palette_codec -->
<g id="edge40" class="edge">
<title>ycbcr_palette_codec&#45;&gt;palette_codec</title>
<path fill="none" stroke="blue" d="M956,-180.3C956,-188.02 956,-197.29 956,-205.89"/>
<polygon fill="blue" stroke="blue" points="952.5,-205.9 956,-215.9 959.5,-205.9 952.5,-205.9"/>
</g>
<!-- test -->
<g id="node33" class="node">
<title>test</title>
<ellipse fill="none" stroke="black" cx="1100" cy="-528" rx="27" ry="18"/>
<text text-anchor="middle" x="1100" y="-524.3" font-family="Times,serif" font-size="14.00">test</text>
</g>
<!-- test&#45;&gt;color_test -->
<g id="edge41" class="edge">
<title>test&#45;&gt;color_test</title>
<path fill="none" stroke="black" d="M1126.32,-532.67C1177.65,-540.07 1294.54,-558.13 1391,-582 1394.55,-582.88 1398.2,-583.86 1401.86,-584.9"/>
<polygon fill="black" stroke="black" points="1400.9,-588.26 1411.48,-587.74 1402.88,-581.55 1400.9,-588.26"/>
</g>
<!-- test&#45;&gt;basic_block_test -->
<g id="edge42" class="edge">
<title>test&#45;&gt;basic_block_test</title>
<path fill="none" stroke="black" d="M1121.98,-538.55C1128.1,-541.09 1134.77,-543.75 1141,-546 1179.31,-559.85 1223.21,-573.41 1256.94,-583.34"/>
<polygon fill="black" stroke="black" points="1256.04,-586.73 1266.62,-586.18 1258,-580.01 1256.04,-586.73"/>
</g>
<!-- raw_ip_length_reader_test -->
<g id="node36" class="node">
<title>raw_ip_length_reader_test</title>
<ellipse fill="none" stroke="black" cx="1011" cy="-600" rx="104.78" ry="18"/>
<text text-anchor="middle" x="1011" y="-596.3" font-family="Times,serif" font-size="14.00">raw_ip_length_reader_test</text>
</g>
<!-- test&#45;&gt;raw_ip_length_reader_test -->
<g id="edge43" class="edge">
<title>test&#45;&gt;raw_ip_length_reader_test</title>
<path fill="none" stroke="black" d="M1083.26,-542.17C1071.22,-551.63 1054.67,-564.65 1040.45,-575.84"/>
<polygon fill="black" stroke="black" points="1038.09,-573.24 1032.39,-582.18 1042.41,-578.75 1038.09,-573.24"/>
</g>
<!-- test&#45;&gt;math_test -->
<g id="edge44" class="edge">
<title>test&#45;&gt;math_test</title>
<path fill="none" stroke="black" d="M1115.61,-542.83C1126.38,-552.37 1140.95,-565.28 1153.4,-576.32"/>
<polygon fill="black" stroke="black" points="1151.41,-579.23 1161.22,-583.24 1156.06,-573.99 1151.41,-579.23"/>
</g>
</g>
</svg>
