<?xml version="1.0" encoding="UTF-8" standalone="no"?>
<!DOCTYPE svg PUBLIC "-//W3C//DTD SVG 1.1//EN"
 "http://www.w3.org/Graphics/SVG/1.1/DTD/svg11.dtd">
<!-- Generated by graphviz version 2.43.0 (0)
 -->
<!-- Title: %3 Pages: 1 -->
<svg width="988pt" height="701pt"
 viewBox="0.00 0.00 988.00 701.00" xmlns="http://www.w3.org/2000/svg" xmlns:xlink="http://www.w3.org/1999/xlink">
<g id="graph0" class="graph" transform="scale(1 1) rotate(0) translate(4 697)">
<title>%3</title>
<polygon fill="white" stroke="transparent" points="-4,4 -4,-697 984,-697 984,4 -4,4"/>
<g id="clust2" class="cluster">
<title>cluster_providers</title>
<path fill="none" stroke="black" d="M20,-44C20,-44 352,-44 352,-44 358,-44 364,-50 364,-56 364,-56 364,-617 364,-617 364,-623 358,-629 352,-629 352,-629 20,-629 20,-629 14,-629 8,-623 8,-617 8,-617 8,-56 8,-56 8,-50 14,-44 20,-44"/>
<text text-anchor="middle" x="186" y="-51.8" font-family="Times,serif" font-size="14.00">providers</text>
</g>
<g id="clust5" class="cluster">
<title>cluster_compressors</title>
<path fill="none" stroke="black" d="M384,-482C384,-482 522,-482 522,-482 528,-482 534,-488 534,-494 534,-494 534,-617 534,-617 534,-623 528,-629 522,-629 522,-629 384,-629 384,-629 378,-629 372,-623 372,-617 372,-617 372,-494 372,-494 372,-488 378,-482 384,-482"/>
<text text-anchor="middle" x="453" y="-489.8" font-family="Times,serif" font-size="14.00">compressors</text>
</g>
<g id="clust6" class="cluster">
<title>cluster_obfuscators</title>
<path fill="none" stroke="black" d="M554,-482C554,-482 686,-482 686,-482 692,-482 698,-488 698,-494 698,-494 698,-617 698,-617 698,-623 692,-629 686,-629 686,-629 554,-629 554,-629 548,-629 542,-623 542,-617 542,-617 542,-494 542,-494 542,-488 548,-482 554,-482"/>
<text text-anchor="middle" x="620" y="-489.8" font-family="Times,serif" font-size="14.00">obfuscators</text>
</g>
<g id="clust7" class="cluster">
<title>cluster_correctors</title>
<path fill="none" stroke="black" d="M718,-482C718,-482 838,-482 838,-482 844,-482 850,-488 850,-494 850,-494 850,-617 850,-617 850,-623 844,-629 838,-629 838,-629 718,-629 718,-629 712,-629 706,-623 706,-617 706,-617 706,-494 706,-494 706,-488 712,-482 718,-482"/>
<text text-anchor="middle" x="778" y="-489.8" font-family="Times,serif" font-size="14.00">correctors</text>
</g>
<g id="clust8" class="cluster">
<title>cluster_test</title>
<path fill="none" stroke="black" d="M384,-263C384,-263 960,-263 960,-263 966,-263 972,-269 972,-275 972,-275 972,-398 972,-398 972,-404 966,-410 960,-410 960,-410 384,-410 384,-410 378,-410 372,-404 372,-398 372,-398 372,-275 372,-275 372,-269 378,-263 384,-263"/>
<text text-anchor="middle" x="672" y="-270.8" font-family="Times,serif" font-size="14.00">TESTS</text>
</g>
<!-- provider -->
<g id="node1" class="node">
<title>provider</title>
<ellipse fill="none" stroke="red" cx="277" cy="-603" rx="40.09" ry="18"/>
<text text-anchor="middle" x="277" y="-599.3" font-family="Times,serif" font-size="14.00" fill="red">provider</text>
</g>
<!-- video_encoder -->
<g id="node18" class="node">
<title>video_encoder</title>
<ellipse fill="none" stroke="black" cx="541" cy="-675" rx="62.29" ry="18"/>
<text text-anchor="middle" x="541" y="-671.3" font-family="Times,serif" font-size="14.00">video_encoder</text>
</g>
<!-- provider&#45;&gt;video_encoder -->
<g id="edge20" class="edge">
<title>provider&#45;&gt;video_encoder</title>
<path fill="none" stroke="black" d="M310.25,-613.25C327.47,-618.01 348.85,-623.88 368,-629 407.43,-639.54 452.01,-651.13 486.03,-659.91"/>
<polygon fill="black" stroke="black" points="485.23,-663.31 495.79,-662.42 486.98,-656.54 485.23,-663.31"/>
</g>
<!-- basic_provider -->
<g id="node2" class="node">
<title>basic_provider</title>
<ellipse fill="none" stroke="blue" cx="239" cy="-531" rx="63.09" ry="18"/>
<text text-anchor="middle" x="239" y="-527.3" font-family="Times,serif" font-size="14.00" fill="blue">basic_provider</text>
</g>
<!-- basic_provider&#45;&gt;provider -->
<g id="edge1" class="edge">
<title>basic_provider&#45;&gt;provider</title>
<path fill="none" stroke="blue" d="M248.2,-548.95C252.63,-557.11 258.05,-567.09 262.98,-576.18"/>
<polygon fill="blue" stroke="blue" points="260.04,-578.09 267.89,-585.21 266.19,-574.75 260.04,-578.09"/>
</g>
<!-- basic_block_container -->
<g id="node3" class="node">
<title>basic_block_container</title>
<ellipse fill="none" stroke="black" cx="239" cy="-312" rx="89.88" ry="18"/>
<text text-anchor="middle" x="239" y="-308.3" font-family="Times,serif" font-size="14.00">basic_block_container</text>
</g>
<!-- basic_block_container&#45;&gt;basic_provider -->
<g id="edge2" class="edge">
<title>basic_block_container&#45;&gt;basic_provider</title>
<path fill="none" stroke="black" d="M239,-330.03C239,-367.49 239,-457.32 239,-502.74"/>
<polygon fill="black" stroke="black" points="235.5,-502.75 239,-512.75 242.5,-502.75 235.5,-502.75"/>
</g>
<!-- raw_ip_length_reader -->
<g id="node7" class="node">
<title>raw_ip_length_reader</title>
<ellipse fill="none" stroke="blue" cx="118" cy="-384" rx="87.99" ry="18"/>
<text text-anchor="middle" x="118" y="-380.3" font-family="Times,serif" font-size="14.00" fill="blue">raw_ip_length_reader</text>
</g>
<!-- basic_block_container&#45;&gt;raw_ip_length_reader -->
<g id="edge9" class="edge">
<title>basic_block_container&#45;&gt;raw_ip_length_reader</title>
<path fill="none" stroke="black" d="M210.94,-329.24C194.29,-338.87 172.99,-351.19 154.99,-361.6"/>
<polygon fill="black" stroke="black" points="152.82,-358.82 145.91,-366.85 156.32,-364.87 152.82,-358.82"/>
</g>
<!-- basic_block_test -->
<g id="node24" class="node">
<title>basic_block_test</title>
<ellipse fill="none" stroke="black" cx="786" cy="-384" rx="69.59" ry="18"/>
<text text-anchor="middle" x="786" y="-380.3" font-family="Times,serif" font-size="14.00">basic_block_test</text>
</g>
<!-- basic_block_container&#45;&gt;basic_block_test -->
<g id="edge36" class="edge">
<title>basic_block_container&#45;&gt;basic_block_test</title>
<path fill="none" stroke="black" d="M310.94,-322.81C329.52,-325.25 349.49,-327.8 368,-330 518.45,-347.9 557.39,-342.03 707,-366 713.18,-366.99 719.61,-368.15 726.01,-369.4"/>
<polygon fill="black" stroke="black" points="725.51,-372.86 736,-371.4 726.89,-366 725.51,-372.86"/>
</g>
<!-- basic_block_pointer -->
<g id="node4" class="node">
<title>basic_block_pointer</title>
<ellipse fill="none" stroke="black" cx="274" cy="-237" rx="81.79" ry="18"/>
<text text-anchor="middle" x="274" y="-233.3" font-family="Times,serif" font-size="14.00">basic_block_pointer</text>
</g>
<!-- basic_block_pointer&#45;&gt;basic_block_container -->
<g id="edge3" class="edge">
<title>basic_block_pointer&#45;&gt;basic_block_container</title>
<path fill="none" stroke="black" d="M265.88,-254.93C261.63,-263.8 256.32,-274.87 251.55,-284.82"/>
<polygon fill="black" stroke="black" points="248.36,-283.38 247.19,-293.91 254.67,-286.4 248.36,-283.38"/>
</g>
<!-- basic_block_pointer&#45;&gt;basic_block_test -->
<g id="edge37" class="edge">
<title>basic_block_pointer&#45;&gt;basic_block_test</title>
<path fill="none" stroke="black" d="M351.01,-243.38C446.37,-250.1 597.09,-260.99 603,-263 619.51,-268.62 706.44,-327.88 754.31,-360.97"/>
<polygon fill="black" stroke="black" points="752.55,-364.01 762.77,-366.82 756.54,-358.25 752.55,-364.01"/>
</g>
<!-- basic_block_pointer_proxy -->
<g id="node5" class="node">
<title>basic_block_pointer_proxy</title>
<ellipse fill="none" stroke="black" cx="229" cy="-165" rx="106.68" ry="18"/>
<text text-anchor="middle" x="229" y="-161.3" font-family="Times,serif" font-size="14.00">basic_block_pointer_proxy</text>
</g>
<!-- basic_block_pointer_proxy&#45;&gt;basic_block_container -->
<g id="edge5" class="edge">
<title>basic_block_pointer_proxy&#45;&gt;basic_block_container</title>
<path fill="none" stroke="black" d="M150.67,-177.32C126.21,-184.95 101.78,-197.71 87,-219 77.88,-232.14 77.85,-241.88 87,-255 102.69,-277.5 128.49,-290.98 154.42,-299.06"/>
<polygon fill="black" stroke="black" points="153.76,-302.51 164.34,-301.89 155.69,-295.78 153.76,-302.51"/>
</g>
<!-- basic_block_pointer_proxy&#45;&gt;basic_block_pointer -->
<g id="edge4" class="edge">
<title>basic_block_pointer_proxy&#45;&gt;basic_block_pointer</title>
<path fill="none" stroke="black" d="M239.89,-182.95C245.12,-191.08 251.5,-201 257.32,-210.06"/>
<polygon fill="black" stroke="black" points="254.54,-212.21 262.89,-218.72 260.43,-208.42 254.54,-212.21"/>
</g>
<!-- basic_block_pointer_proxy&#45;&gt;basic_block_test -->
<g id="edge35" class="edge">
<title>basic_block_pointer_proxy&#45;&gt;basic_block_test</title>
<path fill="none" stroke="black" d="M322.29,-173.82C413.21,-182.48 544.36,-198.04 591,-219 664.71,-252.12 732.52,-321.49 765.32,-358.5"/>
<polygon fill="black" stroke="black" points="762.93,-361.09 772.14,-366.31 768.2,-356.48 762.93,-361.09"/>
</g>
<!-- data_length_reader -->
<g id="node6" class="node">
<title>data_length_reader</title>
<ellipse fill="none" stroke="red" cx="130" cy="-456" rx="77.99" ry="18"/>
<text text-anchor="middle" x="130" y="-452.3" font-family="Times,serif" font-size="14.00" fill="red">data_length_reader</text>
</g>
<!-- data_length_reader&#45;&gt;basic_provider -->
<g id="edge8" class="edge">
<title>data_length_reader&#45;&gt;basic_provider</title>
<path fill="none" stroke="black" d="M154.19,-473.2C169.68,-483.57 189.96,-497.15 206.8,-508.44"/>
<polygon fill="black" stroke="black" points="205,-511.44 215.25,-514.1 208.89,-505.62 205,-511.44"/>
</g>
<!-- raw_ip_length_reader&#45;&gt;data_length_reader -->
<g id="edge7" class="edge">
<title>raw_ip_length_reader&#45;&gt;data_length_reader</title>
<path fill="none" stroke="blue" d="M120.97,-402.3C122.29,-410.02 123.88,-419.29 125.35,-427.89"/>
<polygon fill="blue" stroke="blue" points="121.93,-428.63 127.07,-437.9 128.83,-427.45 121.93,-428.63"/>
</g>
<!-- bit_area -->
<g id="node8" class="node">
<title>bit_area</title>
<ellipse fill="none" stroke="black" cx="135" cy="-237" rx="38.99" ry="18"/>
<text text-anchor="middle" x="135" y="-233.3" font-family="Times,serif" font-size="14.00">bit_area</text>
</g>
<!-- bit_area&#45;&gt;basic_block_container -->
<g id="edge6" class="edge">
<title>bit_area&#45;&gt;basic_block_container</title>
<path fill="none" stroke="black" d="M155.55,-252.42C170.27,-262.75 190.37,-276.87 207.16,-288.65"/>
<polygon fill="black" stroke="black" points="205.4,-291.69 215.59,-294.57 209.42,-285.96 205.4,-291.69"/>
</g>
<!-- basic_block_config -->
<g id="node9" class="node">
<title>basic_block_config</title>
<ellipse fill="none" stroke="black" cx="95" cy="-93" rx="79.09" ry="18"/>
<text text-anchor="middle" x="95" y="-89.3" font-family="Times,serif" font-size="14.00">basic_block_config</text>
</g>
<!-- basic_block_config&#45;&gt;basic_block_container -->
<g id="edge10" class="edge">
<title>basic_block_config&#45;&gt;basic_block_container</title>
<path fill="none" stroke="black" d="M86.31,-110.91C71.46,-142.45 45.67,-211.02 77,-255 94.07,-278.96 122.11,-292.76 150.1,-300.68"/>
<polygon fill="black" stroke="black" points="149.42,-304.12 159.98,-303.25 151.18,-297.35 149.42,-304.12"/>
</g>
<!-- basic_block_config&#45;&gt;basic_block_pointer -->
<g id="edge11" class="edge">
<title>basic_block_config&#45;&gt;basic_block_pointer</title>
<path fill="none" stroke="black" d="M93.68,-111.3C93.16,-131.06 95.41,-163.2 113,-183 126.05,-197.69 169.31,-211.48 207.7,-221.31"/>
<polygon fill="black" stroke="black" points="207.3,-224.82 217.85,-223.85 209,-218.03 207.3,-224.82"/>
</g>
<!-- basic_block_config&#45;&gt;basic_block_pointer_proxy -->
<g id="edge12" class="edge">
<title>basic_block_config&#45;&gt;basic_block_pointer_proxy</title>
<path fill="none" stroke="black" d="M125.07,-109.71C143.81,-119.5 168.15,-132.21 188.56,-142.88"/>
<polygon fill="black" stroke="black" points="187.15,-146.08 197.63,-147.61 190.39,-139.88 187.15,-146.08"/>
</g>
<!-- basic_block_config&#45;&gt;raw_ip_length_reader -->
<g id="edge13" class="edge">
<title>basic_block_config&#45;&gt;raw_ip_length_reader</title>
<path fill="none" stroke="black" d="M80.18,-110.83C72.54,-120.65 64,-133.69 60,-147 46.19,-192.97 49.87,-208.08 60,-255 68.08,-292.43 88.06,-332.07 102.3,-357.15"/>
<polygon fill="black" stroke="black" points="99.4,-359.12 107.44,-366.01 105.45,-355.61 99.4,-359.12"/>
</g>
<!-- rect -->
<g id="node10" class="node">
<title>rect</title>
<ellipse fill="none" stroke="black" cx="329" cy="-93" rx="27" ry="18"/>
<text text-anchor="middle" x="329" y="-89.3" font-family="Times,serif" font-size="14.00">rect</text>
</g>
<!-- rect&#45;&gt;basic_block_pointer -->
<g id="edge15" class="edge">
<title>rect&#45;&gt;basic_block_pointer</title>
<path fill="none" stroke="black" d="M337.72,-110.29C346.36,-128.83 356.75,-159.56 345,-183 338.51,-195.95 327.19,-206.54 315.47,-214.76"/>
<polygon fill="black" stroke="black" points="313.4,-211.93 306.93,-220.32 317.22,-217.79 313.4,-211.93"/>
</g>
<!-- rect&#45;&gt;basic_block_pointer_proxy -->
<g id="edge14" class="edge">
<title>rect&#45;&gt;basic_block_pointer_proxy</title>
<path fill="none" stroke="black" d="M311.12,-106.51C297.25,-116.23 277.65,-129.94 261.08,-141.54"/>
<polygon fill="black" stroke="black" points="258.93,-138.78 252.74,-147.38 262.94,-144.51 258.93,-138.78"/>
</g>
<!-- rgb_index -->
<g id="node11" class="node">
<title>rgb_index</title>
<ellipse fill="none" stroke="black" cx="238" cy="-93" rx="46.29" ry="18"/>
<text text-anchor="middle" x="238" y="-89.3" font-family="Times,serif" font-size="14.00">rgb_index</text>
</g>
<!-- rgb_index&#45;&gt;basic_block_pointer_proxy -->
<g id="edge16" class="edge">
<title>rgb_index&#45;&gt;basic_block_pointer_proxy</title>
<path fill="none" stroke="black" d="M235.78,-111.3C234.78,-119.02 233.59,-128.29 232.49,-136.89"/>
<polygon fill="black" stroke="black" points="229,-136.53 231.2,-146.9 235.95,-137.42 229,-136.53"/>
</g>
<!-- compressor -->
<g id="node12" class="node">
<title>compressor</title>
<ellipse fill="none" stroke="red" cx="463" cy="-603" rx="51.99" ry="18"/>
<text text-anchor="middle" x="463" y="-599.3" font-family="Times,serif" font-size="14.00" fill="red">compressor</text>
</g>
<!-- compressor&#45;&gt;video_encoder -->
<g id="edge21" class="edge">
<title>compressor&#45;&gt;video_encoder</title>
<path fill="none" stroke="black" d="M481.09,-620.24C491.16,-629.27 503.87,-640.67 514.98,-650.65"/>
<polygon fill="black" stroke="black" points="512.96,-653.54 522.74,-657.61 517.63,-648.33 512.96,-653.54"/>
</g>
<!-- none_compressor -->
<g id="node13" class="node">
<title>none_compressor</title>
<ellipse fill="none" stroke="blue" cx="453" cy="-531" rx="73.39" ry="18"/>
<text text-anchor="middle" x="453" y="-527.3" font-family="Times,serif" font-size="14.00" fill="blue">none_compressor</text>
</g>
<!-- none_compressor&#45;&gt;compressor -->
<g id="edge17" class="edge">
<title>none_compressor&#45;&gt;compressor</title>
<path fill="none" stroke="blue" d="M455.47,-549.3C456.57,-557.02 457.9,-566.29 459.13,-574.89"/>
<polygon fill="blue" stroke="blue" points="455.68,-575.49 460.56,-584.9 462.61,-574.5 455.68,-575.49"/>
</g>
<!-- obfuscator -->
<g id="node14" class="node">
<title>obfuscator</title>
<ellipse fill="none" stroke="red" cx="609" cy="-603" rx="48.19" ry="18"/>
<text text-anchor="middle" x="609" y="-599.3" font-family="Times,serif" font-size="14.00" fill="red">obfuscator</text>
</g>
<!-- obfuscator&#45;&gt;video_encoder -->
<g id="edge22" class="edge">
<title>obfuscator&#45;&gt;video_encoder</title>
<path fill="none" stroke="black" d="M593.23,-620.24C584.6,-629.12 573.75,-640.29 564.17,-650.15"/>
<polygon fill="black" stroke="black" points="561.62,-647.76 557.16,-657.37 566.64,-652.63 561.62,-647.76"/>
</g>
<!-- none_obfuscator -->
<g id="node15" class="node">
<title>none_obfuscator</title>
<ellipse fill="none" stroke="blue" cx="620" cy="-531" rx="69.59" ry="18"/>
<text text-anchor="middle" x="620" y="-527.3" font-family="Times,serif" font-size="14.00" fill="blue">none_obfuscator</text>
</g>
<!-- none_obfuscator&#45;&gt;obfuscator -->
<g id="edge18" class="edge">
<title>none_obfuscator&#45;&gt;obfuscator</title>
<path fill="none" stroke="blue" d="M617.28,-549.3C616.07,-557.02 614.61,-566.29 613.26,-574.89"/>
<polygon fill="blue" stroke="blue" points="609.78,-574.47 611.69,-584.9 616.7,-575.56 609.78,-574.47"/>
</g>
<!-- corrector -->
<g id="node16" class="node">
<title>corrector</title>
<ellipse fill="none" stroke="red" cx="767" cy="-603" rx="42.49" ry="18"/>
<text text-anchor="middle" x="767" y="-599.3" font-family="Times,serif" font-size="14.00" fill="red">corrector</text>
</g>
<!-- corrector&#45;&gt;video_encoder -->
<g id="edge23" class="edge">
<title>corrector&#45;&gt;video_encoder</title>
<path fill="none" stroke="black" d="M737.44,-616.05C726.4,-620.37 713.71,-625.12 702,-629 667.2,-640.53 627.54,-651.64 596.29,-659.93"/>
<polygon fill="black" stroke="black" points="595.23,-656.59 586.45,-662.52 597.02,-663.36 595.23,-656.59"/>
</g>
<!-- none_corrector -->
<g id="node17" class="node">
<title>none_corrector</title>
<ellipse fill="none" stroke="blue" cx="778" cy="-531" rx="63.89" ry="18"/>
<text text-anchor="middle" x="778" y="-527.3" font-family="Times,serif" font-size="14.00" fill="blue">none_corrector</text>
</g>
<!-- none_corrector&#45;&gt;corrector -->
<g id="edge19" class="edge">
<title>none_corrector&#45;&gt;corrector</title>
<path fill="none" stroke="blue" d="M775.28,-549.3C774.07,-557.02 772.61,-566.29 771.26,-574.89"/>
<polygon fill="blue" stroke="blue" points="767.78,-574.47 769.69,-584.9 774.7,-575.56 767.78,-574.47"/>
</g>
<!-- color -->
<g id="node19" class="node">
<title>color</title>
<ellipse fill="none" stroke="black" cx="683" cy="-93" rx="28.7" ry="18"/>
<text text-anchor="middle" x="683" y="-89.3" font-family="Times,serif" font-size="14.00">color</text>
</g>
<!-- color&#45;&gt;basic_block_pointer -->
<g id="edge25" class="edge">
<title>color&#45;&gt;basic_block_pointer</title>
<path fill="none" stroke="black" d="M658.64,-102.46C593.58,-125.05 414.66,-187.16 325.67,-218.06"/>
<polygon fill="black" stroke="black" points="324.35,-214.82 316.05,-221.4 326.64,-221.43 324.35,-214.82"/>
</g>
<!-- color&#45;&gt;basic_block_pointer_proxy -->
<g id="edge24" class="edge">
<title>color&#45;&gt;basic_block_pointer_proxy</title>
<path fill="none" stroke="black" d="M655.62,-98.22C589.6,-108.4 419.37,-134.65 315,-150.74"/>
<polygon fill="black" stroke="black" points="314.46,-147.28 305.11,-152.27 315.53,-154.2 314.46,-147.28"/>
</g>
<!-- color_test -->
<g id="node23" class="node">
<title>color_test</title>
<ellipse fill="none" stroke="black" cx="919" cy="-384" rx="45.49" ry="18"/>
<text text-anchor="middle" x="919" y="-380.3" font-family="Times,serif" font-size="14.00">color_test</text>
</g>
<!-- color&#45;&gt;color_test -->
<g id="edge33" class="edge">
<title>color&#45;&gt;color_test</title>
<path fill="none" stroke="black" d="M695.69,-109.54C734.56,-157.14 852.22,-301.22 899.26,-358.82"/>
<polygon fill="black" stroke="black" points="896.63,-361.14 905.67,-366.67 902.05,-356.71 896.63,-361.14"/>
</g>
<!-- color&#45;&gt;basic_block_test -->
<g id="edge32" class="edge">
<title>color&#45;&gt;basic_block_test</title>
<path fill="none" stroke="black" d="M688.98,-110.79C706.12,-158.86 755.47,-297.35 776.42,-356.12"/>
<polygon fill="black" stroke="black" points="773.22,-357.56 779.87,-365.8 779.81,-355.21 773.22,-357.56"/>
</g>
<!-- status_error -->
<g id="node20" class="node">
<title>status_error</title>
<ellipse fill="none" stroke="black" cx="683" cy="-18" rx="51.99" ry="18"/>
<text text-anchor="middle" x="683" y="-14.3" font-family="Times,serif" font-size="14.00">status_error</text>
</g>
<!-- status_error&#45;&gt;color -->
<g id="edge26" class="edge">
<title>status_error&#45;&gt;color</title>
<path fill="none" stroke="black" d="M683,-36.3C683,-44.75 683,-55.13 683,-64.63"/>
<polygon fill="black" stroke="black" points="679.5,-64.82 683,-74.82 686.5,-64.82 679.5,-64.82"/>
</g>
<!-- math -->
<g id="node21" class="node">
<title>math</title>
<ellipse fill="none" stroke="black" cx="553" cy="-237" rx="28.7" ry="18"/>
<text text-anchor="middle" x="553" y="-233.3" font-family="Times,serif" font-size="14.00">math</text>
</g>
<!-- math&#45;&gt;basic_block_container -->
<g id="edge27" class="edge">
<title>math&#45;&gt;basic_block_container</title>
<path fill="none" stroke="black" d="M524.74,-239.86C488.13,-242.72 422.55,-249.35 368,-263 339.35,-270.17 308.3,-281.61 283.84,-291.52"/>
<polygon fill="black" stroke="black" points="282.38,-288.33 274.47,-295.37 285.05,-294.8 282.38,-288.33"/>
</g>
<!-- math_test -->
<g id="node26" class="node">
<title>math_test</title>
<ellipse fill="none" stroke="black" cx="653" cy="-384" rx="45.49" ry="18"/>
<text text-anchor="middle" x="653" y="-380.3" font-family="Times,serif" font-size="14.00">math_test</text>
</g>
<!-- math&#45;&gt;math_test -->
<g id="edge34" class="edge">
<title>math&#45;&gt;math_test</title>
<path fill="none" stroke="black" d="M577.66,-246.17C586.57,-250.11 596.11,-255.62 603,-263 627.61,-289.36 640.98,-329.57 647.55,-356.06"/>
<polygon fill="black" stroke="black" points="644.14,-356.88 649.82,-365.83 650.96,-355.29 644.14,-356.88"/>
</g>
<!-- test -->
<g id="node22" class="node">
<title>test</title>
<ellipse fill="none" stroke="black" cx="567" cy="-312" rx="27" ry="18"/>
<text text-anchor="middle" x="567" y="-308.3" font-family="Times,serif" font-size="14.00">test</text>
</g>
<!-- test&#45;&gt;color_test -->
<g id="edge28" class="edge">
<title>test&#45;&gt;color_test</title>
<path fill="none" stroke="black" d="M593.55,-316.55C645.91,-323.8 765.99,-341.72 865,-366 868.55,-366.87 872.21,-367.85 875.87,-368.88"/>
<polygon fill="black" stroke="black" points="874.91,-372.25 885.49,-371.71 876.88,-365.53 874.91,-372.25"/>
</g>
<!-- test&#45;&gt;basic_block_test -->
<g id="edge29" class="edge">
<title>test&#45;&gt;basic_block_test</title>
<path fill="none" stroke="black" d="M588.97,-322.6C595.08,-325.14 601.76,-327.78 608,-330 648.27,-344.3 694.56,-358 729.83,-367.89"/>
<polygon fill="black" stroke="black" points="728.9,-371.26 739.48,-370.57 730.78,-364.52 728.9,-371.26"/>
</g>
<!-- raw_ip_length_reader_test -->
<g id="node25" class="node">
<title>raw_ip_length_reader_test</title>
<ellipse fill="none" stroke="black" cx="485" cy="-384" rx="104.78" ry="18"/>
<text text-anchor="middle" x="485" y="-380.3" font-family="Times,serif" font-size="14.00">raw_ip_length_reader_test</text>
</g>
<!-- test&#45;&gt;raw_ip_length_reader_test -->
<g id="edge30" class="edge">
<title>test&#45;&gt;raw_ip_length_reader_test</title>
<path fill="none" stroke="black" d="M550.8,-326.83C539.82,-336.2 525.05,-348.81 512.28,-359.71"/>
<polygon fill="black" stroke="black" points="509.97,-357.08 504.64,-366.24 514.52,-362.41 509.97,-357.08"/>
</g>
<!-- test&#45;&gt;math_test -->
<g id="edge31" class="edge">
<title>test&#45;&gt;math_test</title>
<path fill="none" stroke="black" d="M583.58,-326.5C595.66,-336.33 612.28,-349.85 626.22,-361.21"/>
<polygon fill="black" stroke="black" points="624.11,-364 634.07,-367.59 628.53,-358.57 624.11,-364"/>
</g>
</g>
</svg>
