<?xml version="1.0" encoding="UTF-8" standalone="no"?>
<!DOCTYPE svg PUBLIC "-//W3C//DTD SVG 1.1//EN"
 "http://www.w3.org/Graphics/SVG/1.1/DTD/svg11.dtd">
<!-- Generated by graphviz version 2.43.0 (0)
 -->
<!-- Title: %3 Pages: 1 -->
<svg width="879pt" height="698pt"
 viewBox="0.00 0.00 879.00 698.00" xmlns="http://www.w3.org/2000/svg" xmlns:xlink="http://www.w3.org/1999/xlink">
<g id="graph0" class="graph" transform="scale(1 1) rotate(0) translate(4 694)">
<title>%3</title>
<polygon fill="white" stroke="transparent" points="-4,4 -4,-694 875,-694 875,4 -4,4"/>
<g id="clust2" class="cluster">
<title>cluster_providers</title>
<path fill="none" stroke="black" d="M20,-44C20,-44 352,-44 352,-44 358,-44 364,-50 364,-56 364,-56 364,-614 364,-614 364,-620 358,-626 352,-626 352,-626 20,-626 20,-626 14,-626 8,-620 8,-614 8,-614 8,-56 8,-56 8,-50 14,-44 20,-44"/>
<text text-anchor="middle" x="186" y="-51.8" font-family="Times,serif" font-size="14.00">providers</text>
</g>
<g id="clust5" class="cluster">
<title>cluster_compressors</title>
<path fill="none" stroke="black" d="M384,-479C384,-479 522,-479 522,-479 528,-479 534,-485 534,-491 534,-491 534,-614 534,-614 534,-620 528,-626 522,-626 522,-626 384,-626 384,-626 378,-626 372,-620 372,-614 372,-614 372,-491 372,-491 372,-485 378,-479 384,-479"/>
<text text-anchor="middle" x="453" y="-486.8" font-family="Times,serif" font-size="14.00">compressors</text>
</g>
<g id="clust6" class="cluster">
<title>cluster_obfuscators</title>
<path fill="none" stroke="black" d="M554,-479C554,-479 686,-479 686,-479 692,-479 698,-485 698,-491 698,-491 698,-614 698,-614 698,-620 692,-626 686,-626 686,-626 554,-626 554,-626 548,-626 542,-620 542,-614 542,-614 542,-491 542,-491 542,-485 548,-479 554,-479"/>
<text text-anchor="middle" x="620" y="-486.8" font-family="Times,serif" font-size="14.00">obfuscators</text>
</g>
<g id="clust7" class="cluster">
<title>cluster_correctors</title>
<path fill="none" stroke="black" d="M718,-479C718,-479 838,-479 838,-479 844,-479 850,-485 850,-491 850,-491 850,-614 850,-614 850,-620 844,-626 838,-626 838,-626 718,-626 718,-626 712,-626 706,-620 706,-614 706,-614 706,-491 706,-491 706,-485 712,-479 718,-479"/>
<text text-anchor="middle" x="778" y="-486.8" font-family="Times,serif" font-size="14.00">correctors</text>
</g>
<g id="clust8" class="cluster">
<title>cluster_test</title>
<path fill="none" stroke="black" d="M384,-283C384,-283 851,-283 851,-283 857,-283 863,-289 863,-295 863,-295 863,-395 863,-395 863,-401 857,-407 851,-407 851,-407 384,-407 384,-407 378,-407 372,-401 372,-395 372,-395 372,-295 372,-295 372,-289 378,-283 384,-283"/>
</g>
<!-- provider -->
<g id="node1" class="node">
<title>provider</title>
<ellipse fill="none" stroke="red" cx="291" cy="-600" rx="40.09" ry="18"/>
<text text-anchor="middle" x="291" y="-596.3" font-family="Times,serif" font-size="14.00" fill="red">provider</text>
</g>
<!-- video_encoder -->
<g id="node17" class="node">
<title>video_encoder</title>
<ellipse fill="none" stroke="black" cx="541" cy="-672" rx="62.29" ry="18"/>
<text text-anchor="middle" x="541" y="-668.3" font-family="Times,serif" font-size="14.00">video_encoder</text>
</g>
<!-- provider&#45;&gt;video_encoder -->
<g id="edge19" class="edge">
<title>provider&#45;&gt;video_encoder</title>
<path fill="none" stroke="black" d="M321.97,-611.52C335.97,-616.15 352.75,-621.55 368,-626 406.91,-637.37 451.14,-648.85 485.15,-657.37"/>
<polygon fill="black" stroke="black" points="484.35,-660.78 494.9,-659.8 486.05,-653.98 484.35,-660.78"/>
</g>
<!-- basic_provider -->
<g id="node2" class="node">
<title>basic_provider</title>
<ellipse fill="none" stroke="blue" cx="248" cy="-528" rx="63.09" ry="18"/>
<text text-anchor="middle" x="248" y="-524.3" font-family="Times,serif" font-size="14.00" fill="blue">basic_provider</text>
</g>
<!-- basic_provider&#45;&gt;provider -->
<g id="edge1" class="edge">
<title>basic_provider&#45;&gt;provider</title>
<path fill="none" stroke="blue" d="M258.41,-545.95C263.48,-554.2 269.68,-564.3 275.31,-573.46"/>
<polygon fill="blue" stroke="blue" points="272.47,-575.52 280.69,-582.21 278.43,-571.86 272.47,-575.52"/>
</g>
<!-- basic_block_container -->
<g id="node3" class="node">
<title>basic_block_container</title>
<ellipse fill="none" stroke="black" cx="248" cy="-309" rx="89.88" ry="18"/>
<text text-anchor="middle" x="248" y="-305.3" font-family="Times,serif" font-size="14.00">basic_block_container</text>
</g>
<!-- basic_block_container&#45;&gt;basic_provider -->
<g id="edge2" class="edge">
<title>basic_block_container&#45;&gt;basic_provider</title>
<path fill="none" stroke="black" d="M248,-327.03C248,-364.49 248,-454.32 248,-499.74"/>
<polygon fill="black" stroke="black" points="244.5,-499.75 248,-509.75 251.5,-499.75 244.5,-499.75"/>
</g>
<!-- raw_ip_length_reader -->
<g id="node7" class="node">
<title>raw_ip_length_reader</title>
<ellipse fill="none" stroke="blue" cx="132" cy="-381" rx="87.99" ry="18"/>
<text text-anchor="middle" x="132" y="-377.3" font-family="Times,serif" font-size="14.00" fill="blue">raw_ip_length_reader</text>
</g>
<!-- basic_block_container&#45;&gt;raw_ip_length_reader -->
<g id="edge8" class="edge">
<title>basic_block_container&#45;&gt;raw_ip_length_reader</title>
<path fill="none" stroke="black" d="M221.1,-326.24C205.14,-335.87 184.72,-348.19 167.46,-358.6"/>
<polygon fill="black" stroke="black" points="165.51,-355.69 158.76,-363.85 169.13,-361.68 165.51,-355.69"/>
</g>
<!-- basic_block_test -->
<g id="node22" class="node">
<title>basic_block_test</title>
<ellipse fill="none" stroke="black" cx="677" cy="-381" rx="69.59" ry="18"/>
<text text-anchor="middle" x="677" y="-377.3" font-family="Times,serif" font-size="14.00">basic_block_test</text>
</g>
<!-- basic_block_container&#45;&gt;basic_block_test -->
<g id="edge32" class="edge">
<title>basic_block_container&#45;&gt;basic_block_test</title>
<path fill="none" stroke="black" d="M318.61,-320.11C405.12,-332.59 546.65,-353.35 599,-363 604.76,-364.06 610.75,-365.24 616.73,-366.46"/>
<polygon fill="black" stroke="black" points="616.24,-369.93 626.75,-368.55 617.67,-363.08 616.24,-369.93"/>
</g>
<!-- basic_block_pointer -->
<g id="node4" class="node">
<title>basic_block_pointer</title>
<ellipse fill="none" stroke="black" cx="230" cy="-237" rx="81.79" ry="18"/>
<text text-anchor="middle" x="230" y="-233.3" font-family="Times,serif" font-size="14.00">basic_block_pointer</text>
</g>
<!-- basic_block_pointer&#45;&gt;basic_block_container -->
<g id="edge3" class="edge">
<title>basic_block_pointer&#45;&gt;basic_block_container</title>
<path fill="none" stroke="black" d="M234.45,-255.3C236.45,-263.1 238.87,-272.49 241.1,-281.17"/>
<polygon fill="black" stroke="black" points="237.72,-282.08 243.6,-290.9 244.5,-280.34 237.72,-282.08"/>
</g>
<!-- basic_block_pointer&#45;&gt;basic_block_test -->
<g id="edge33" class="edge">
<title>basic_block_pointer&#45;&gt;basic_block_test</title>
<path fill="none" stroke="black" d="M308.97,-242.07C397.74,-247.69 535.54,-259.86 582,-283 606.48,-295.19 605.87,-307.46 625,-327 634.3,-336.5 644.55,-346.94 653.47,-356.03"/>
<polygon fill="black" stroke="black" points="651.09,-358.61 660.6,-363.3 656.09,-353.71 651.09,-358.61"/>
</g>
<!-- basic_block_pointer_proxy -->
<g id="node5" class="node">
<title>basic_block_pointer_proxy</title>
<ellipse fill="none" stroke="black" cx="249" cy="-165" rx="106.68" ry="18"/>
<text text-anchor="middle" x="249" y="-161.3" font-family="Times,serif" font-size="14.00">basic_block_pointer_proxy</text>
</g>
<!-- basic_block_pointer_proxy&#45;&gt;basic_block_container -->
<g id="edge5" class="edge">
<title>basic_block_pointer_proxy&#45;&gt;basic_block_container</title>
<path fill="none" stroke="black" d="M283.51,-182.25C297.86,-190.97 313.02,-203.21 321,-219 328.22,-233.28 328.27,-240.75 321,-255 314.36,-268.02 302.86,-278.6 290.92,-286.77"/>
<polygon fill="black" stroke="black" points="288.78,-283.99 282.22,-292.31 292.53,-289.9 288.78,-283.99"/>
</g>
<!-- basic_block_pointer_proxy&#45;&gt;basic_block_pointer -->
<g id="edge4" class="edge">
<title>basic_block_pointer_proxy&#45;&gt;basic_block_pointer</title>
<path fill="none" stroke="black" d="M244.3,-183.3C242.19,-191.1 239.64,-200.49 237.28,-209.17"/>
<polygon fill="black" stroke="black" points="233.88,-208.33 234.64,-218.9 240.64,-210.16 233.88,-208.33"/>
</g>
<!-- basic_block_pointer_proxy&#45;&gt;basic_block_test -->
<g id="edge31" class="edge">
<title>basic_block_pointer_proxy&#45;&gt;basic_block_test</title>
<path fill="none" stroke="black" d="M334.3,-175.92C414.4,-188.93 534,-218.27 617,-283 640.56,-301.37 657.19,-331.79 666.88,-353.66"/>
<polygon fill="black" stroke="black" points="663.72,-355.19 670.84,-363.04 670.17,-352.47 663.72,-355.19"/>
</g>
<!-- data_length_reader -->
<g id="node6" class="node">
<title>data_length_reader</title>
<ellipse fill="none" stroke="red" cx="141" cy="-453" rx="77.99" ry="18"/>
<text text-anchor="middle" x="141" y="-449.3" font-family="Times,serif" font-size="14.00" fill="red">data_length_reader</text>
</g>
<!-- data_length_reader&#45;&gt;basic_provider -->
<g id="edge7" class="edge">
<title>data_length_reader&#45;&gt;basic_provider</title>
<path fill="none" stroke="black" d="M164.75,-470.2C179.95,-480.57 199.86,-494.15 216.39,-505.44"/>
<polygon fill="black" stroke="black" points="214.45,-508.35 224.69,-511.1 218.4,-502.57 214.45,-508.35"/>
</g>
<!-- raw_ip_length_reader&#45;&gt;data_length_reader -->
<g id="edge6" class="edge">
<title>raw_ip_length_reader&#45;&gt;data_length_reader</title>
<path fill="none" stroke="blue" d="M134.22,-399.3C135.22,-407.02 136.41,-416.29 137.51,-424.89"/>
<polygon fill="blue" stroke="blue" points="134.05,-425.42 138.8,-434.9 141,-424.53 134.05,-425.42"/>
</g>
<!-- basic_block_config -->
<g id="node8" class="node">
<title>basic_block_config</title>
<ellipse fill="none" stroke="black" cx="95" cy="-93" rx="79.09" ry="18"/>
<text text-anchor="middle" x="95" y="-89.3" font-family="Times,serif" font-size="14.00">basic_block_config</text>
</g>
<!-- basic_block_config&#45;&gt;basic_block_container -->
<g id="edge9" class="edge">
<title>basic_block_config&#45;&gt;basic_block_container</title>
<path fill="none" stroke="black" d="M94.07,-111.09C93.56,-129.27 94.11,-158.72 101,-183 110.88,-217.81 113,-229.84 139,-255 154.27,-269.77 174.44,-281.13 193.28,-289.48"/>
<polygon fill="black" stroke="black" points="192.11,-292.78 202.68,-293.45 194.83,-286.34 192.11,-292.78"/>
</g>
<!-- basic_block_config&#45;&gt;basic_block_pointer -->
<g id="edge10" class="edge">
<title>basic_block_config&#45;&gt;basic_block_pointer</title>
<path fill="none" stroke="black" d="M96.66,-111.34C99.34,-130.83 106.29,-162.44 124,-183 137.32,-198.47 156.24,-209.9 174.41,-218.11"/>
<polygon fill="black" stroke="black" points="173.24,-221.42 183.81,-222.12 175.98,-214.98 173.24,-221.42"/>
</g>
<!-- basic_block_config&#45;&gt;basic_block_pointer_proxy -->
<g id="edge11" class="edge">
<title>basic_block_config&#45;&gt;basic_block_pointer_proxy</title>
<path fill="none" stroke="black" d="M128.8,-109.36C150.99,-119.45 180.28,-132.76 204.38,-143.72"/>
<polygon fill="black" stroke="black" points="203.13,-146.99 213.68,-147.94 206.02,-140.62 203.13,-146.99"/>
</g>
<!-- basic_block_config&#45;&gt;raw_ip_length_reader -->
<g id="edge12" class="edge">
<title>basic_block_config&#45;&gt;raw_ip_length_reader</title>
<path fill="none" stroke="black" d="M93.78,-111.18C93.11,-121.54 92.34,-135.02 92,-147 91.55,-162.99 90.4,-167.08 92,-183 98.19,-244.58 115,-315.37 124.74,-353.07"/>
<polygon fill="black" stroke="black" points="121.37,-354 127.29,-362.79 128.14,-352.23 121.37,-354"/>
</g>
<!-- rect -->
<g id="node9" class="node">
<title>rect</title>
<ellipse fill="none" stroke="black" cx="219" cy="-93" rx="27" ry="18"/>
<text text-anchor="middle" x="219" y="-89.3" font-family="Times,serif" font-size="14.00">rect</text>
</g>
<!-- rect&#45;&gt;basic_block_pointer -->
<g id="edge14" class="edge">
<title>rect&#45;&gt;basic_block_pointer</title>
<path fill="none" stroke="black" d="M197.63,-104.13C174.56,-115.56 140.14,-134.21 133,-147 125.2,-160.97 124.84,-169.24 133,-183 142.21,-198.52 157.74,-209.79 173.71,-217.84"/>
<polygon fill="black" stroke="black" points="172.57,-221.17 183.12,-222.21 175.52,-214.82 172.57,-221.17"/>
</g>
<!-- rect&#45;&gt;basic_block_pointer_proxy -->
<g id="edge13" class="edge">
<title>rect&#45;&gt;basic_block_pointer_proxy</title>
<path fill="none" stroke="black" d="M226.11,-110.59C229.52,-118.55 233.69,-128.28 237.53,-137.24"/>
<polygon fill="black" stroke="black" points="234.37,-138.74 241.52,-146.55 240.8,-135.98 234.37,-138.74"/>
</g>
<!-- rgb_index -->
<g id="node10" class="node">
<title>rgb_index</title>
<ellipse fill="none" stroke="black" cx="310" cy="-93" rx="46.29" ry="18"/>
<text text-anchor="middle" x="310" y="-89.3" font-family="Times,serif" font-size="14.00">rgb_index</text>
</g>
<!-- rgb_index&#45;&gt;basic_block_pointer_proxy -->
<g id="edge15" class="edge">
<title>rgb_index&#45;&gt;basic_block_pointer_proxy</title>
<path fill="none" stroke="black" d="M295.85,-110.24C288.37,-118.82 279.03,-129.54 270.66,-139.14"/>
<polygon fill="black" stroke="black" points="267.85,-137.04 263.92,-146.88 273.13,-141.64 267.85,-137.04"/>
</g>
<!-- compressor -->
<g id="node11" class="node">
<title>compressor</title>
<ellipse fill="none" stroke="red" cx="463" cy="-600" rx="51.99" ry="18"/>
<text text-anchor="middle" x="463" y="-596.3" font-family="Times,serif" font-size="14.00" fill="red">compressor</text>
</g>
<!-- compressor&#45;&gt;video_encoder -->
<g id="edge20" class="edge">
<title>compressor&#45;&gt;video_encoder</title>
<path fill="none" stroke="black" d="M481.09,-617.24C491.16,-626.27 503.87,-637.67 514.98,-647.65"/>
<polygon fill="black" stroke="black" points="512.96,-650.54 522.74,-654.61 517.63,-645.33 512.96,-650.54"/>
</g>
<!-- none_compressor -->
<g id="node12" class="node">
<title>none_compressor</title>
<ellipse fill="none" stroke="blue" cx="453" cy="-528" rx="73.39" ry="18"/>
<text text-anchor="middle" x="453" y="-524.3" font-family="Times,serif" font-size="14.00" fill="blue">none_compressor</text>
</g>
<!-- none_compressor&#45;&gt;compressor -->
<g id="edge16" class="edge">
<title>none_compressor&#45;&gt;compressor</title>
<path fill="none" stroke="blue" d="M455.47,-546.3C456.57,-554.02 457.9,-563.29 459.13,-571.89"/>
<polygon fill="blue" stroke="blue" points="455.68,-572.49 460.56,-581.9 462.61,-571.5 455.68,-572.49"/>
</g>
<!-- obfuscator -->
<g id="node13" class="node">
<title>obfuscator</title>
<ellipse fill="none" stroke="red" cx="609" cy="-600" rx="48.19" ry="18"/>
<text text-anchor="middle" x="609" y="-596.3" font-family="Times,serif" font-size="14.00" fill="red">obfuscator</text>
</g>
<!-- obfuscator&#45;&gt;video_encoder -->
<g id="edge21" class="edge">
<title>obfuscator&#45;&gt;video_encoder</title>
<path fill="none" stroke="black" d="M593.23,-617.24C584.6,-626.12 573.75,-637.29 564.17,-647.15"/>
<polygon fill="black" stroke="black" points="561.62,-644.76 557.16,-654.37 566.64,-649.63 561.62,-644.76"/>
</g>
<!-- none_obfuscator -->
<g id="node14" class="node">
<title>none_obfuscator</title>
<ellipse fill="none" stroke="blue" cx="620" cy="-528" rx="69.59" ry="18"/>
<text text-anchor="middle" x="620" y="-524.3" font-family="Times,serif" font-size="14.00" fill="blue">none_obfuscator</text>
</g>
<!-- none_obfuscator&#45;&gt;obfuscator -->
<g id="edge17" class="edge">
<title>none_obfuscator&#45;&gt;obfuscator</title>
<path fill="none" stroke="blue" d="M617.28,-546.3C616.07,-554.02 614.61,-563.29 613.26,-571.89"/>
<polygon fill="blue" stroke="blue" points="609.78,-571.47 611.69,-581.9 616.7,-572.56 609.78,-571.47"/>
</g>
<!-- corrector -->
<g id="node15" class="node">
<title>corrector</title>
<ellipse fill="none" stroke="red" cx="767" cy="-600" rx="42.49" ry="18"/>
<text text-anchor="middle" x="767" y="-596.3" font-family="Times,serif" font-size="14.00" fill="red">corrector</text>
</g>
<!-- corrector&#45;&gt;video_encoder -->
<g id="edge22" class="edge">
<title>corrector&#45;&gt;video_encoder</title>
<path fill="none" stroke="black" d="M737.44,-613.05C726.4,-617.37 713.71,-622.12 702,-626 667.2,-637.53 627.54,-648.64 596.29,-656.93"/>
<polygon fill="black" stroke="black" points="595.23,-653.59 586.45,-659.52 597.02,-660.36 595.23,-653.59"/>
</g>
<!-- none_corrector -->
<g id="node16" class="node">
<title>none_corrector</title>
<ellipse fill="none" stroke="blue" cx="778" cy="-528" rx="63.89" ry="18"/>
<text text-anchor="middle" x="778" y="-524.3" font-family="Times,serif" font-size="14.00" fill="blue">none_corrector</text>
</g>
<!-- none_corrector&#45;&gt;corrector -->
<g id="edge18" class="edge">
<title>none_corrector&#45;&gt;corrector</title>
<path fill="none" stroke="blue" d="M775.28,-546.3C774.07,-554.02 772.61,-563.29 771.26,-571.89"/>
<polygon fill="blue" stroke="blue" points="767.78,-571.47 769.69,-581.9 774.7,-572.56 767.78,-571.47"/>
</g>
<!-- color -->
<g id="node18" class="node">
<title>color</title>
<ellipse fill="none" stroke="black" cx="595" cy="-93" rx="28.7" ry="18"/>
<text text-anchor="middle" x="595" y="-89.3" font-family="Times,serif" font-size="14.00">color</text>
</g>
<!-- color&#45;&gt;basic_block_pointer -->
<g id="edge24" class="edge">
<title>color&#45;&gt;basic_block_pointer</title>
<path fill="none" stroke="black" d="M571.33,-103.21C512.25,-126.19 357.35,-186.46 278.14,-217.27"/>
<polygon fill="black" stroke="black" points="276.46,-214.17 268.41,-221.06 279,-220.69 276.46,-214.17"/>
</g>
<!-- color&#45;&gt;basic_block_pointer_proxy -->
<g id="edge23" class="edge">
<title>color&#45;&gt;basic_block_pointer_proxy</title>
<path fill="none" stroke="black" d="M568.14,-99.43C516.47,-109.89 401.58,-133.13 324.69,-148.69"/>
<polygon fill="black" stroke="black" points="323.68,-145.32 314.57,-150.73 325.07,-152.18 323.68,-145.32"/>
</g>
<!-- color_test -->
<g id="node21" class="node">
<title>color_test</title>
<ellipse fill="none" stroke="black" cx="810" cy="-381" rx="45.49" ry="18"/>
<text text-anchor="middle" x="810" y="-377.3" font-family="Times,serif" font-size="14.00">color_test</text>
</g>
<!-- color&#45;&gt;color_test -->
<g id="edge30" class="edge">
<title>color&#45;&gt;color_test</title>
<path fill="none" stroke="black" d="M606.87,-109.78C642.45,-157.12 748.48,-298.16 791.52,-355.42"/>
<polygon fill="black" stroke="black" points="788.83,-357.67 797.64,-363.56 794.43,-353.46 788.83,-357.67"/>
</g>
<!-- color&#45;&gt;basic_block_test -->
<g id="edge29" class="edge">
<title>color&#45;&gt;basic_block_test</title>
<path fill="none" stroke="black" d="M599.88,-111.03C613.58,-158.81 652.45,-294.38 669.18,-352.73"/>
<polygon fill="black" stroke="black" points="665.92,-354.05 672.04,-362.69 672.65,-352.12 665.92,-354.05"/>
</g>
<!-- status_error -->
<g id="node19" class="node">
<title>status_error</title>
<ellipse fill="none" stroke="black" cx="595" cy="-18" rx="51.99" ry="18"/>
<text text-anchor="middle" x="595" y="-14.3" font-family="Times,serif" font-size="14.00">status_error</text>
</g>
<!-- status_error&#45;&gt;color -->
<g id="edge25" class="edge">
<title>status_error&#45;&gt;color</title>
<path fill="none" stroke="black" d="M595,-36.3C595,-44.75 595,-55.13 595,-64.63"/>
<polygon fill="black" stroke="black" points="591.5,-64.82 595,-74.82 598.5,-64.82 591.5,-64.82"/>
</g>
<!-- test -->
<g id="node20" class="node">
<title>test</title>
<ellipse fill="none" stroke="black" cx="546" cy="-309" rx="27" ry="18"/>
<text text-anchor="middle" x="546" y="-305.3" font-family="Times,serif" font-size="14.00">test</text>
</g>
<!-- test&#45;&gt;color_test -->
<g id="edge26" class="edge">
<title>test&#45;&gt;color_test</title>
<path fill="none" stroke="black" d="M571.02,-315.82C610.5,-325.11 689.61,-344.19 756,-363 759.32,-363.94 762.74,-364.94 766.17,-365.97"/>
<polygon fill="black" stroke="black" points="765.22,-369.34 775.81,-368.91 767.27,-362.64 765.22,-369.34"/>
</g>
<!-- test&#45;&gt;basic_block_test -->
<g id="edge27" class="edge">
<title>test&#45;&gt;basic_block_test</title>
<path fill="none" stroke="black" d="M566.47,-320.94C585.78,-331.26 615.22,-346.99 638.86,-359.62"/>
<polygon fill="black" stroke="black" points="637.46,-362.84 647.93,-364.46 640.76,-356.66 637.46,-362.84"/>
</g>
<!-- raw_ip_length_reader_test -->
<g id="node23" class="node">
<title>raw_ip_length_reader_test</title>
<ellipse fill="none" stroke="black" cx="485" cy="-381" rx="104.78" ry="18"/>
<text text-anchor="middle" x="485" y="-377.3" font-family="Times,serif" font-size="14.00">raw_ip_length_reader_test</text>
</g>
<!-- test&#45;&gt;raw_ip_length_reader_test -->
<g id="edge28" class="edge">
<title>test&#45;&gt;raw_ip_length_reader_test</title>
<path fill="none" stroke="black" d="M533.06,-324.85C525.39,-333.65 515.47,-345.03 506.64,-355.17"/>
<polygon fill="black" stroke="black" points="503.78,-353.12 499.85,-362.96 509.06,-357.72 503.78,-353.12"/>
</g>
</g>
</svg>
