<?xml version="1.0" encoding="UTF-8" standalone="no"?>
<!DOCTYPE svg PUBLIC "-//W3C//DTD SVG 1.1//EN"
 "http://www.w3.org/Graphics/SVG/1.1/DTD/svg11.dtd">
<!-- Generated by graphviz version 2.43.0 (0)
 -->
<!-- Title: %3 Pages: 1 -->
<svg width="1494pt" height="1092pt"
 viewBox="0.00 0.00 1494.00 1092.00" xmlns="http://www.w3.org/2000/svg" xmlns:xlink="http://www.w3.org/1999/xlink">
<g id="graph0" class="graph" transform="scale(1 1) rotate(0) translate(4 1088)">
<title>%3</title>
<polygon fill="white" stroke="transparent" points="-4,4 -4,-1088 1490,-1088 1490,4 -4,4"/>
<g id="clust3" class="cluster">
<title>cluster_providers</title>
<path fill="none" stroke="black" d="M628,-116C628,-116 980,-116 980,-116 986,-116 992,-122 992,-128 992,-128 992,-936 992,-936 992,-942 986,-948 980,-948 980,-948 628,-948 628,-948 622,-948 616,-942 616,-936 616,-936 616,-128 616,-128 616,-122 622,-116 628,-116"/>
<text text-anchor="middle" x="804" y="-123.8" font-family="Times,serif" font-size="14.00">providers</text>
</g>
<g id="clust6" class="cluster">
<title>cluster_color_codecs</title>
<path fill="none" stroke="black" d="M636,-147C636,-147 963,-147 963,-147 969,-147 975,-153 975,-159 975,-159 975,-354 975,-354 975,-360 969,-366 963,-366 963,-366 636,-366 636,-366 630,-366 624,-360 624,-354 624,-354 624,-159 624,-159 624,-153 630,-147 636,-147"/>
<text text-anchor="middle" x="799.5" y="-154.8" font-family="Times,serif" font-size="14.00">color_codecs</text>
</g>
<g id="clust7" class="cluster">
<title>cluster_compressors</title>
<path fill="none" stroke="black" d="M1012,-801C1012,-801 1150,-801 1150,-801 1156,-801 1162,-807 1162,-813 1162,-813 1162,-936 1162,-936 1162,-942 1156,-948 1150,-948 1150,-948 1012,-948 1012,-948 1006,-948 1000,-942 1000,-936 1000,-936 1000,-813 1000,-813 1000,-807 1006,-801 1012,-801"/>
<text text-anchor="middle" x="1081" y="-808.8" font-family="Times,serif" font-size="14.00">compressors</text>
</g>
<g id="clust8" class="cluster">
<title>cluster_obfuscators</title>
<path fill="none" stroke="black" d="M1182,-801C1182,-801 1314,-801 1314,-801 1320,-801 1326,-807 1326,-813 1326,-813 1326,-936 1326,-936 1326,-942 1320,-948 1314,-948 1314,-948 1182,-948 1182,-948 1176,-948 1170,-942 1170,-936 1170,-936 1170,-813 1170,-813 1170,-807 1176,-801 1182,-801"/>
<text text-anchor="middle" x="1248" y="-808.8" font-family="Times,serif" font-size="14.00">obfuscators</text>
</g>
<g id="clust9" class="cluster">
<title>cluster_correctors</title>
<path fill="none" stroke="black" d="M1346,-801C1346,-801 1466,-801 1466,-801 1472,-801 1478,-807 1478,-813 1478,-813 1478,-936 1478,-936 1478,-942 1472,-948 1466,-948 1466,-948 1346,-948 1346,-948 1340,-948 1334,-942 1334,-936 1334,-936 1334,-813 1334,-813 1334,-807 1340,-801 1346,-801"/>
<text text-anchor="middle" x="1406" y="-808.8" font-family="Times,serif" font-size="14.00">correctors</text>
</g>
<g id="clust11" class="cluster">
<title>cluster_test</title>
<path fill="none" stroke="black" d="M20,-582C20,-582 596,-582 596,-582 602,-582 608,-588 608,-594 608,-594 608,-717 608,-717 608,-723 602,-729 596,-729 596,-729 20,-729 20,-729 14,-729 8,-723 8,-717 8,-717 8,-594 8,-594 8,-588 14,-582 20,-582"/>
<text text-anchor="middle" x="308" y="-589.8" font-family="Times,serif" font-size="14.00">TESTS</text>
</g>
<!-- provider -->
<g id="node1" class="node">
<title>provider</title>
<ellipse fill="none" stroke="red" cx="848" cy="-922" rx="40.09" ry="18"/>
<text text-anchor="middle" x="848" y="-918.3" font-family="Times,serif" font-size="14.00" fill="red">provider</text>
</g>
<!-- video_encoder -->
<g id="node23" class="node">
<title>video_encoder</title>
<ellipse fill="none" stroke="blue" cx="1000" cy="-994" rx="62.29" ry="18"/>
<text text-anchor="middle" x="1000" y="-990.3" font-family="Times,serif" font-size="14.00" fill="blue">video_encoder</text>
</g>
<!-- provider&#45;&gt;video_encoder -->
<g id="edge25" class="edge">
<title>provider&#45;&gt;video_encoder</title>
<path fill="none" stroke="black" d="M875.17,-935.51C898.55,-946.28 932.61,-961.96 959.25,-974.23"/>
<polygon fill="black" stroke="black" points="957.78,-977.41 968.33,-978.41 960.71,-971.05 957.78,-977.41"/>
</g>
<!-- basic_provider -->
<g id="node2" class="node">
<title>basic_provider</title>
<ellipse fill="none" stroke="blue" cx="772" cy="-850" rx="63.09" ry="18"/>
<text text-anchor="middle" x="772" y="-846.3" font-family="Times,serif" font-size="14.00" fill="blue">basic_provider</text>
</g>
<!-- basic_provider&#45;&gt;provider -->
<g id="edge1" class="edge">
<title>basic_provider&#45;&gt;provider</title>
<path fill="none" stroke="blue" d="M790.01,-867.59C800.04,-876.83 812.67,-888.46 823.58,-898.51"/>
<polygon fill="blue" stroke="blue" points="821.43,-901.29 831.16,-905.49 826.18,-896.14 821.43,-901.29"/>
</g>
<!-- basic_block_container -->
<g id="node3" class="node">
<title>basic_block_container</title>
<ellipse fill="none" stroke="blue" cx="772" cy="-631" rx="89.88" ry="18"/>
<text text-anchor="middle" x="772" y="-627.3" font-family="Times,serif" font-size="14.00" fill="blue">basic_block_container</text>
</g>
<!-- basic_block_container&#45;&gt;basic_provider -->
<g id="edge2" class="edge">
<title>basic_block_container&#45;&gt;basic_provider</title>
<path fill="none" stroke="black" d="M772,-649.03C772,-686.49 772,-776.32 772,-821.74"/>
<polygon fill="black" stroke="black" points="768.5,-821.75 772,-831.75 775.5,-821.75 768.5,-821.75"/>
</g>
<!-- raw_ip_length_reader -->
<g id="node7" class="node">
<title>raw_ip_length_reader</title>
<ellipse fill="none" stroke="blue" cx="890" cy="-703" rx="87.99" ry="18"/>
<text text-anchor="middle" x="890" y="-699.3" font-family="Times,serif" font-size="14.00" fill="blue">raw_ip_length_reader</text>
</g>
<!-- basic_block_container&#45;&gt;raw_ip_length_reader -->
<g id="edge16" class="edge">
<title>basic_block_container&#45;&gt;raw_ip_length_reader</title>
<path fill="none" stroke="black" d="M799.37,-648.24C815.6,-657.87 836.37,-670.19 853.93,-680.6"/>
<polygon fill="black" stroke="black" points="852.39,-683.76 862.78,-685.85 855.97,-677.74 852.39,-683.76"/>
</g>
<!-- basic_block_test -->
<g id="node36" class="node">
<title>basic_block_test</title>
<ellipse fill="none" stroke="black" cx="303" cy="-703" rx="69.59" ry="18"/>
<text text-anchor="middle" x="303" y="-699.3" font-family="Times,serif" font-size="14.00">basic_block_test</text>
</g>
<!-- basic_block_container&#45;&gt;basic_block_test -->
<g id="edge52" class="edge">
<title>basic_block_container&#45;&gt;basic_block_test</title>
<path fill="none" stroke="black" d="M695.67,-640.52C616.65,-649.76 489.78,-665.8 381,-685 375.23,-686.02 369.24,-687.16 363.25,-688.37"/>
<polygon fill="black" stroke="black" points="362.32,-684.99 353.23,-690.43 363.73,-691.84 362.32,-684.99"/>
</g>
<!-- basic_block_pointer -->
<g id="node4" class="node">
<title>basic_block_pointer</title>
<ellipse fill="none" stroke="blue" cx="766" cy="-556" rx="81.79" ry="18"/>
<text text-anchor="middle" x="766" y="-552.3" font-family="Times,serif" font-size="14.00" fill="blue">basic_block_pointer</text>
</g>
<!-- basic_block_pointer&#45;&gt;basic_block_container -->
<g id="edge3" class="edge">
<title>basic_block_pointer&#45;&gt;basic_block_container</title>
<path fill="none" stroke="black" d="M767.42,-574.3C768.12,-582.75 768.97,-593.13 769.75,-602.63"/>
<polygon fill="black" stroke="black" points="766.28,-603.14 770.59,-612.82 773.26,-602.57 766.28,-603.14"/>
</g>
<!-- basic_block_pointer&#45;&gt;basic_block_test -->
<g id="edge53" class="edge">
<title>basic_block_pointer&#45;&gt;basic_block_test</title>
<path fill="none" stroke="black" d="M715.19,-570.16C701.46,-573.85 686.63,-577.96 673,-582 557.52,-616.22 423.35,-661.01 352.59,-685.03"/>
<polygon fill="black" stroke="black" points="351.37,-681.74 343.03,-688.27 353.63,-688.37 351.37,-681.74"/>
</g>
<!-- basic_block_pointer_proxy -->
<g id="node5" class="node">
<title>basic_block_pointer_proxy</title>
<ellipse fill="none" stroke="blue" cx="751" cy="-484" rx="106.68" ry="18"/>
<text text-anchor="middle" x="751" y="-480.3" font-family="Times,serif" font-size="14.00" fill="blue">basic_block_pointer_proxy</text>
</g>
<!-- basic_block_pointer_proxy&#45;&gt;basic_block_container -->
<g id="edge5" class="edge">
<title>basic_block_pointer_proxy&#45;&gt;basic_block_container</title>
<path fill="none" stroke="black" d="M714.22,-501.05C699.2,-509.67 683.41,-521.88 675,-538 667.6,-552.19 667,-560.14 675,-574 684.43,-590.34 700.65,-602.34 717.16,-610.94"/>
<polygon fill="black" stroke="black" points="715.79,-614.16 726.31,-615.37 718.84,-607.86 715.79,-614.16"/>
</g>
<!-- basic_block_pointer_proxy&#45;&gt;basic_block_pointer -->
<g id="edge4" class="edge">
<title>basic_block_pointer_proxy&#45;&gt;basic_block_pointer</title>
<path fill="none" stroke="black" d="M754.71,-502.3C756.36,-510.02 758.35,-519.29 760.19,-527.89"/>
<polygon fill="black" stroke="black" points="756.82,-528.85 762.33,-537.9 763.66,-527.38 756.82,-528.85"/>
</g>
<!-- basic_block_pointer_proxy&#45;&gt;basic_block_test -->
<g id="edge51" class="edge">
<title>basic_block_pointer_proxy&#45;&gt;basic_block_test</title>
<path fill="none" stroke="black" d="M651.39,-490.51C524.15,-499.87 314.63,-523.88 267,-582 248.13,-605.03 258.25,-620.54 267,-649 270.06,-658.94 275.68,-668.69 281.6,-677.07"/>
<polygon fill="black" stroke="black" points="278.95,-679.37 287.77,-685.24 284.54,-675.15 278.95,-679.37"/>
</g>
<!-- data_length_reader -->
<g id="node6" class="node">
<title>data_length_reader</title>
<ellipse fill="none" stroke="red" cx="879" cy="-775" rx="77.99" ry="18"/>
<text text-anchor="middle" x="879" y="-771.3" font-family="Times,serif" font-size="14.00" fill="red">data_length_reader</text>
</g>
<!-- data_length_reader&#45;&gt;basic_provider -->
<g id="edge15" class="edge">
<title>data_length_reader&#45;&gt;basic_provider</title>
<path fill="none" stroke="black" d="M855.25,-792.2C840.05,-802.57 820.14,-816.15 803.61,-827.44"/>
<polygon fill="black" stroke="black" points="801.6,-824.57 795.31,-833.1 805.55,-830.35 801.6,-824.57"/>
</g>
<!-- raw_ip_length_reader&#45;&gt;data_length_reader -->
<g id="edge14" class="edge">
<title>raw_ip_length_reader&#45;&gt;data_length_reader</title>
<path fill="none" stroke="blue" d="M887.28,-721.3C886.07,-729.02 884.61,-738.29 883.26,-746.89"/>
<polygon fill="blue" stroke="blue" points="879.78,-746.47 881.69,-756.9 886.7,-747.56 879.78,-746.47"/>
</g>
<!-- bit_area -->
<g id="node8" class="node">
<title>bit_area</title>
<ellipse fill="none" stroke="green" cx="925" cy="-556" rx="38.99" ry="18"/>
<text text-anchor="middle" x="925" y="-552.3" font-family="Times,serif" font-size="14.00" fill="green">bit_area</text>
</g>
<!-- bit_area&#45;&gt;basic_block_container -->
<g id="edge6" class="edge">
<title>bit_area&#45;&gt;basic_block_container</title>
<path fill="none" stroke="black" d="M898.7,-569.55C875.54,-580.6 841.39,-596.89 814.38,-609.78"/>
<polygon fill="black" stroke="black" points="812.68,-606.71 805.16,-614.18 815.69,-613.03 812.68,-606.71"/>
</g>
<!-- basic_block_config -->
<g id="node9" class="node">
<title>basic_block_config</title>
<ellipse fill="none" stroke="green" cx="905" cy="-412" rx="79.09" ry="18"/>
<text text-anchor="middle" x="905" y="-408.3" font-family="Times,serif" font-size="14.00" fill="green">basic_block_config</text>
</g>
<!-- basic_block_config&#45;&gt;basic_block_container -->
<g id="edge7" class="edge">
<title>basic_block_config&#45;&gt;basic_block_container</title>
<path fill="none" stroke="black" d="M901.59,-430C894,-466.56 874.96,-551.21 857,-574 845.75,-588.27 829.83,-600.11 814.8,-609.17"/>
<polygon fill="black" stroke="black" points="813.02,-606.16 806.1,-614.18 816.51,-612.23 813.02,-606.16"/>
</g>
<!-- basic_block_config&#45;&gt;basic_block_pointer -->
<g id="edge8" class="edge">
<title>basic_block_config&#45;&gt;basic_block_pointer</title>
<path fill="none" stroke="black" d="M901.32,-430.32C896.41,-449.79 886.03,-481.39 867,-502 853.57,-516.55 835.22,-527.82 817.85,-536.15"/>
<polygon fill="black" stroke="black" points="815.99,-533.15 808.34,-540.48 818.89,-539.52 815.99,-533.15"/>
</g>
<!-- basic_block_config&#45;&gt;basic_block_pointer_proxy -->
<g id="edge9" class="edge">
<title>basic_block_config&#45;&gt;basic_block_pointer_proxy</title>
<path fill="none" stroke="black" d="M871.2,-428.36C849.01,-438.45 819.72,-451.76 795.62,-462.72"/>
<polygon fill="black" stroke="black" points="793.98,-459.62 786.32,-466.94 796.87,-465.99 793.98,-459.62"/>
</g>
<!-- basic_block_config&#45;&gt;raw_ip_length_reader -->
<g id="edge10" class="edge">
<title>basic_block_config&#45;&gt;raw_ip_length_reader</title>
<path fill="none" stroke="black" d="M920.67,-429.93C945.39,-458.76 989.1,-519.59 973,-574 961.19,-613.93 932.58,-653.1 912.26,-677.37"/>
<polygon fill="black" stroke="black" points="909.56,-675.14 905.72,-685.01 914.88,-679.69 909.56,-675.14"/>
</g>
<!-- rect -->
<g id="node10" class="node">
<title>rect</title>
<ellipse fill="none" stroke="green" cx="651" cy="-412" rx="27" ry="18"/>
<text text-anchor="middle" x="651" y="-408.3" font-family="Times,serif" font-size="14.00" fill="green">rect</text>
</g>
<!-- rect&#45;&gt;basic_block_pointer -->
<g id="edge12" class="edge">
<title>rect&#45;&gt;basic_block_pointer</title>
<path fill="none" stroke="black" d="M641.57,-429.23C631.89,-448.26 620.17,-480 635,-502 648.14,-521.49 669.8,-533.82 691.75,-541.61"/>
<polygon fill="black" stroke="black" points="690.9,-545.01 701.49,-544.78 693.07,-538.36 690.9,-545.01"/>
</g>
<!-- rect&#45;&gt;basic_block_pointer_proxy -->
<g id="edge11" class="edge">
<title>rect&#45;&gt;basic_block_pointer_proxy</title>
<path fill="none" stroke="black" d="M668.88,-425.51C682.75,-435.23 702.35,-448.94 718.92,-460.54"/>
<polygon fill="black" stroke="black" points="717.06,-463.51 727.26,-466.38 721.07,-457.78 717.06,-463.51"/>
</g>
<!-- rgb_index -->
<g id="node11" class="node">
<title>rgb_index</title>
<ellipse fill="none" stroke="green" cx="742" cy="-412" rx="46.29" ry="18"/>
<text text-anchor="middle" x="742" y="-408.3" font-family="Times,serif" font-size="14.00" fill="green">rgb_index</text>
</g>
<!-- rgb_index&#45;&gt;basic_block_pointer_proxy -->
<g id="edge13" class="edge">
<title>rgb_index&#45;&gt;basic_block_pointer_proxy</title>
<path fill="none" stroke="black" d="M744.22,-430.3C745.22,-438.02 746.41,-447.29 747.51,-455.89"/>
<polygon fill="black" stroke="black" points="744.05,-456.42 748.8,-465.9 751,-455.53 744.05,-456.42"/>
</g>
<!-- color_codec -->
<g id="node12" class="node">
<title>color_codec</title>
<ellipse fill="none" stroke="purple" cx="800" cy="-340" rx="53.89" ry="18"/>
<text text-anchor="middle" x="800" y="-336.3" font-family="Times,serif" font-size="14.00" fill="purple">color_codec</text>
</g>
<!-- color_codec&#45;&gt;basic_block_pointer_proxy -->
<g id="edge21" class="edge">
<title>color_codec&#45;&gt;basic_block_pointer_proxy</title>
<path fill="none" stroke="black" d="M802.71,-358.08C804.89,-376.51 806.27,-406.4 797,-430 792.88,-440.48 785.74,-450.31 778.29,-458.58"/>
<polygon fill="black" stroke="black" points="775.56,-456.38 771.15,-466.01 780.6,-461.23 775.56,-456.38"/>
</g>
<!-- hsv_codec -->
<g id="node13" class="node">
<title>hsv_codec</title>
<ellipse fill="none" stroke="blue" cx="919" cy="-268" rx="48.19" ry="18"/>
<text text-anchor="middle" x="919" y="-264.3" font-family="Times,serif" font-size="14.00" fill="blue">hsv_codec</text>
</g>
<!-- hsv_codec&#45;&gt;color_codec -->
<g id="edge17" class="edge">
<title>hsv_codec&#45;&gt;color_codec</title>
<path fill="none" stroke="blue" d="M894.34,-283.5C876.95,-293.74 853.42,-307.58 834.21,-318.88"/>
<polygon fill="blue" stroke="blue" points="832.29,-315.94 825.45,-324.03 835.84,-321.98 832.29,-315.94"/>
</g>
<!-- palette_codec -->
<g id="node14" class="node">
<title>palette_codec</title>
<ellipse fill="none" stroke="purple" cx="794" cy="-268" rx="59.29" ry="18"/>
<text text-anchor="middle" x="794" y="-264.3" font-family="Times,serif" font-size="14.00" fill="purple">palette_codec</text>
</g>
<!-- palette_codec&#45;&gt;color_codec -->
<g id="edge18" class="edge">
<title>palette_codec&#45;&gt;color_codec</title>
<path fill="none" stroke="purple" d="M795.48,-286.3C796.14,-294.02 796.94,-303.29 797.68,-311.89"/>
<polygon fill="purple" stroke="purple" points="794.19,-312.23 798.53,-321.9 801.17,-311.63 794.19,-312.23"/>
</g>
<!-- rgb_palette_codec -->
<g id="node15" class="node">
<title>rgb_palette_codec</title>
<ellipse fill="none" stroke="blue" cx="892" cy="-196" rx="75.29" ry="18"/>
<text text-anchor="middle" x="892" y="-192.3" font-family="Times,serif" font-size="14.00" fill="blue">rgb_palette_codec</text>
</g>
<!-- rgb_palette_codec&#45;&gt;palette_codec -->
<g id="edge19" class="edge">
<title>rgb_palette_codec&#45;&gt;palette_codec</title>
<path fill="none" stroke="blue" d="M869.27,-213.24C855.94,-222.76 838.93,-234.91 824.45,-245.25"/>
<polygon fill="blue" stroke="blue" points="822.37,-242.43 816.27,-251.09 826.44,-248.13 822.37,-242.43"/>
</g>
<!-- ycbcr_palette_codec -->
<g id="node16" class="node">
<title>ycbcr_palette_codec</title>
<ellipse fill="none" stroke="blue" cx="715" cy="-196" rx="83.39" ry="18"/>
<text text-anchor="middle" x="715" y="-192.3" font-family="Times,serif" font-size="14.00" fill="blue">ycbcr_palette_codec</text>
</g>
<!-- ycbcr_palette_codec&#45;&gt;palette_codec -->
<g id="edge20" class="edge">
<title>ycbcr_palette_codec&#45;&gt;palette_codec</title>
<path fill="none" stroke="blue" d="M733.72,-213.59C743.93,-222.63 756.72,-233.97 767.9,-243.87"/>
<polygon fill="blue" stroke="blue" points="765.88,-246.76 775.69,-250.77 770.52,-241.52 765.88,-246.76"/>
</g>
<!-- compressor -->
<g id="node17" class="node">
<title>compressor</title>
<ellipse fill="none" stroke="red" cx="1070" cy="-922" rx="51.99" ry="18"/>
<text text-anchor="middle" x="1070" y="-918.3" font-family="Times,serif" font-size="14.00" fill="red">compressor</text>
</g>
<!-- compressor&#45;&gt;video_encoder -->
<g id="edge26" class="edge">
<title>compressor&#45;&gt;video_encoder</title>
<path fill="none" stroke="black" d="M1053.76,-939.24C1044.88,-948.12 1033.71,-959.29 1023.85,-969.15"/>
<polygon fill="black" stroke="black" points="1021.23,-966.82 1016.63,-976.37 1026.18,-971.77 1021.23,-966.82"/>
</g>
<!-- none_compressor -->
<g id="node18" class="node">
<title>none_compressor</title>
<ellipse fill="none" stroke="blue" cx="1081" cy="-850" rx="73.39" ry="18"/>
<text text-anchor="middle" x="1081" y="-846.3" font-family="Times,serif" font-size="14.00" fill="blue">none_compressor</text>
</g>
<!-- none_compressor&#45;&gt;compressor -->
<g id="edge22" class="edge">
<title>none_compressor&#45;&gt;compressor</title>
<path fill="none" stroke="blue" d="M1078.28,-868.3C1077.07,-876.02 1075.61,-885.29 1074.26,-893.89"/>
<polygon fill="blue" stroke="blue" points="1070.78,-893.47 1072.69,-903.9 1077.7,-894.56 1070.78,-893.47"/>
</g>
<!-- obfuscator -->
<g id="node19" class="node">
<title>obfuscator</title>
<ellipse fill="none" stroke="red" cx="1237" cy="-922" rx="48.19" ry="18"/>
<text text-anchor="middle" x="1237" y="-918.3" font-family="Times,serif" font-size="14.00" fill="red">obfuscator</text>
</g>
<!-- obfuscator&#45;&gt;video_encoder -->
<g id="edge27" class="edge">
<title>obfuscator&#45;&gt;video_encoder</title>
<path fill="none" stroke="black" d="M1203.94,-935.21C1192.04,-939.45 1178.48,-944.12 1166,-948 1129.44,-959.38 1087.85,-970.65 1055.45,-979.06"/>
<polygon fill="black" stroke="black" points="1054.51,-975.69 1045.71,-981.58 1056.26,-982.47 1054.51,-975.69"/>
</g>
<!-- none_obfuscator -->
<g id="node20" class="node">
<title>none_obfuscator</title>
<ellipse fill="none" stroke="blue" cx="1248" cy="-850" rx="69.59" ry="18"/>
<text text-anchor="middle" x="1248" y="-846.3" font-family="Times,serif" font-size="14.00" fill="blue">none_obfuscator</text>
</g>
<!-- none_obfuscator&#45;&gt;obfuscator -->
<g id="edge23" class="edge">
<title>none_obfuscator&#45;&gt;obfuscator</title>
<path fill="none" stroke="blue" d="M1245.28,-868.3C1244.07,-876.02 1242.61,-885.29 1241.26,-893.89"/>
<polygon fill="blue" stroke="blue" points="1237.78,-893.47 1239.69,-903.9 1244.7,-894.56 1237.78,-893.47"/>
</g>
<!-- corrector -->
<g id="node21" class="node">
<title>corrector</title>
<ellipse fill="none" stroke="red" cx="1395" cy="-922" rx="42.49" ry="18"/>
<text text-anchor="middle" x="1395" y="-918.3" font-family="Times,serif" font-size="14.00" fill="red">corrector</text>
</g>
<!-- corrector&#45;&gt;video_encoder -->
<g id="edge28" class="edge">
<title>corrector&#45;&gt;video_encoder</title>
<path fill="none" stroke="black" d="M1366.67,-935.54C1355.44,-940.07 1342.3,-944.84 1330,-948 1241.97,-970.6 1137.64,-982.42 1070.2,-988.17"/>
<polygon fill="black" stroke="black" points="1069.79,-984.69 1060.12,-989 1070.37,-991.66 1069.79,-984.69"/>
</g>
<!-- none_corrector -->
<g id="node22" class="node">
<title>none_corrector</title>
<ellipse fill="none" stroke="blue" cx="1406" cy="-850" rx="63.89" ry="18"/>
<text text-anchor="middle" x="1406" y="-846.3" font-family="Times,serif" font-size="14.00" fill="blue">none_corrector</text>
</g>
<!-- none_corrector&#45;&gt;corrector -->
<g id="edge24" class="edge">
<title>none_corrector&#45;&gt;corrector</title>
<path fill="none" stroke="blue" d="M1403.28,-868.3C1402.07,-876.02 1400.61,-885.29 1399.26,-893.89"/>
<polygon fill="blue" stroke="blue" points="1395.78,-893.47 1397.69,-903.9 1402.7,-894.56 1395.78,-893.47"/>
</g>
<!-- video_socket -->
<g id="node33" class="node">
<title>video_socket</title>
<ellipse fill="none" stroke="blue" cx="777" cy="-1066" rx="57.39" ry="18"/>
<text text-anchor="middle" x="777" y="-1062.3" font-family="Times,serif" font-size="14.00" fill="blue">video_socket</text>
</g>
<!-- video_encoder&#45;&gt;video_socket -->
<g id="edge41" class="edge">
<title>video_encoder&#45;&gt;video_socket</title>
<path fill="none" stroke="black" d="M959.36,-1007.76C921.76,-1019.56 865.79,-1037.13 825.79,-1049.68"/>
<polygon fill="black" stroke="black" points="824.73,-1046.35 816.24,-1052.68 826.83,-1053.03 824.73,-1046.35"/>
</g>
<!-- color -->
<g id="node24" class="node">
<title>color</title>
<ellipse fill="none" stroke="black" cx="892" cy="-90" rx="28.7" ry="18"/>
<text text-anchor="middle" x="892" y="-86.3" font-family="Times,serif" font-size="14.00">color</text>
</g>
<!-- color&#45;&gt;basic_block_pointer -->
<g id="edge30" class="edge">
<title>color&#45;&gt;basic_block_pointer</title>
<path fill="none" stroke="black" d="M920.3,-92.62C955.91,-95.24 1014.35,-101.64 1030,-116 1081.24,-163.02 1071,-197.46 1071,-267 1071,-267 1071,-267 1071,-413 1071,-466.06 917.37,-515.33 828.18,-539.46"/>
<polygon fill="black" stroke="black" points="827.19,-536.11 818.43,-542.07 829,-542.87 827.19,-536.11"/>
</g>
<!-- color&#45;&gt;basic_block_pointer_proxy -->
<g id="edge29" class="edge">
<title>color&#45;&gt;basic_block_pointer_proxy</title>
<path fill="none" stroke="black" d="M920.01,-94.25C947.61,-98.02 987.19,-105.15 998,-116 1046.62,-164.81 1033,-198.11 1033,-267 1033,-267 1033,-267 1033,-341 1033,-384.37 1026.67,-402.66 993,-430 970.16,-448.55 902.59,-462.41 844.64,-471.3"/>
<polygon fill="black" stroke="black" points="844.06,-467.84 834.69,-472.79 845.1,-474.77 844.06,-467.84"/>
</g>
<!-- color&#45;&gt;hsv_codec -->
<g id="edge32" class="edge">
<title>color&#45;&gt;hsv_codec</title>
<path fill="none" stroke="black" d="M920.68,-91.27C939.68,-93.13 963.36,-99.05 976,-116 1002.04,-150.92 993.4,-174.07 976,-214 970.59,-226.41 960.68,-237.23 950.63,-245.8"/>
<polygon fill="black" stroke="black" points="948.26,-243.21 942.61,-252.17 952.62,-248.69 948.26,-243.21"/>
</g>
<!-- color&#45;&gt;rgb_palette_codec -->
<g id="edge31" class="edge">
<title>color&#45;&gt;rgb_palette_codec</title>
<path fill="none" stroke="black" d="M892,-108.17C892,-124.36 892,-148.87 892,-167.73"/>
<polygon fill="black" stroke="black" points="888.5,-167.8 892,-177.8 895.5,-167.8 888.5,-167.8"/>
</g>
<!-- color_test -->
<g id="node35" class="node">
<title>color_test</title>
<ellipse fill="none" stroke="black" cx="61" cy="-703" rx="45.49" ry="18"/>
<text text-anchor="middle" x="61" y="-699.3" font-family="Times,serif" font-size="14.00">color_test</text>
</g>
<!-- color&#45;&gt;color_test -->
<g id="edge49" class="edge">
<title>color&#45;&gt;color_test</title>
<path fill="none" stroke="black" d="M863.31,-90.68C740.87,-89.51 265.64,-86.9 206,-116 127.19,-154.46 79,-179.31 79,-267 79,-267 79,-267 79,-557 79,-598.16 71.77,-645.4 66.47,-674.47"/>
<polygon fill="black" stroke="black" points="62.96,-674.2 64.56,-684.68 69.84,-675.49 62.96,-674.2"/>
</g>
<!-- color&#45;&gt;basic_block_test -->
<g id="edge48" class="edge">
<title>color&#45;&gt;basic_block_test</title>
<path fill="none" stroke="black" d="M863.33,-91.73C729.42,-95.93 172,-122.07 172,-267 172,-267 172,-267 172,-557 172,-612.91 226.28,-656.92 264.96,-681.19"/>
<polygon fill="black" stroke="black" points="263.56,-684.43 273.93,-686.64 267.2,-678.45 263.56,-684.43"/>
</g>
<!-- status_error -->
<g id="node25" class="node">
<title>status_error</title>
<ellipse fill="none" stroke="blue" cx="513" cy="-18" rx="51.99" ry="18"/>
<text text-anchor="middle" x="513" y="-14.3" font-family="Times,serif" font-size="14.00" fill="blue">status_error</text>
</g>
<!-- status_error&#45;&gt;color_codec -->
<g id="edge34" class="edge">
<title>status_error&#45;&gt;color_codec</title>
<path fill="none" stroke="black" d="M519.54,-35.97C534.01,-71.91 571.54,-157.04 623,-214 664.09,-259.48 724.58,-297.7 763.13,-319.48"/>
<polygon fill="black" stroke="black" points="761.51,-322.59 771.95,-324.4 764.92,-316.48 761.51,-322.59"/>
</g>
<!-- status_error&#45;&gt;color -->
<g id="edge33" class="edge">
<title>status_error&#45;&gt;color</title>
<path fill="none" stroke="black" d="M557.96,-27.3C633.5,-41.26 784.47,-69.14 854.6,-82.09"/>
<polygon fill="black" stroke="black" points="854.27,-85.59 864.74,-83.96 855.54,-78.71 854.27,-85.59"/>
</g>
<!-- math -->
<g id="node26" class="node">
<title>math</title>
<ellipse fill="none" stroke="black" cx="229" cy="-556" rx="28.7" ry="18"/>
<text text-anchor="middle" x="229" y="-552.3" font-family="Times,serif" font-size="14.00">math</text>
</g>
<!-- math&#45;&gt;basic_block_container -->
<g id="edge35" class="edge">
<title>math&#45;&gt;basic_block_container</title>
<path fill="none" stroke="black" d="M257.61,-556.67C321.65,-556.41 481.17,-558.42 612,-582 649.34,-588.73 690.31,-601.12 721.44,-611.62"/>
<polygon fill="black" stroke="black" points="720.59,-615.03 731.19,-614.96 722.86,-608.41 720.59,-615.03"/>
</g>
<!-- math_test -->
<g id="node38" class="node">
<title>math_test</title>
<ellipse fill="none" stroke="black" cx="170" cy="-703" rx="45.49" ry="18"/>
<text text-anchor="middle" x="170" y="-699.3" font-family="Times,serif" font-size="14.00">math_test</text>
</g>
<!-- math&#45;&gt;math_test -->
<g id="edge50" class="edge">
<title>math&#45;&gt;math_test</title>
<path fill="none" stroke="black" d="M222.23,-573.63C212.06,-598.63 192.74,-646.1 180.67,-675.79"/>
<polygon fill="black" stroke="black" points="177.4,-674.53 176.87,-685.11 183.88,-677.17 177.4,-674.53"/>
</g>
<!-- video_pipe_in -->
<g id="node27" class="node">
<title>video_pipe_in</title>
<ellipse fill="none" stroke="red" cx="394" cy="-994" rx="61.19" ry="18"/>
<text text-anchor="middle" x="394" y="-990.3" font-family="Times,serif" font-size="14.00" fill="red">video_pipe_in</text>
</g>
<!-- video_pipe_in&#45;&gt;video_socket -->
<g id="edge42" class="edge">
<title>video_pipe_in&#45;&gt;video_socket</title>
<path fill="none" stroke="black" d="M444.46,-1004.22C515.28,-1017.17 643.82,-1040.66 718.65,-1054.34"/>
<polygon fill="black" stroke="black" points="718.37,-1057.84 728.84,-1056.2 719.63,-1050.96 718.37,-1057.84"/>
</g>
<!-- video_pipe_out -->
<g id="node28" class="node">
<title>video_pipe_out</title>
<ellipse fill="none" stroke="red" cx="566" cy="-994" rx="65.79" ry="18"/>
<text text-anchor="middle" x="566" y="-990.3" font-family="Times,serif" font-size="14.00" fill="red">video_pipe_out</text>
</g>
<!-- video_pipe_out&#45;&gt;video_socket -->
<g id="edge43" class="edge">
<title>video_pipe_out&#45;&gt;video_socket</title>
<path fill="none" stroke="black" d="M606.18,-1008.33C641.31,-1019.98 692.36,-1036.92 729.49,-1049.24"/>
<polygon fill="black" stroke="black" points="728.5,-1052.6 739.09,-1052.42 730.71,-1045.95 728.5,-1052.6"/>
</g>
<!-- ffmpeg_rtmp_pipe_in -->
<g id="node29" class="node">
<title>ffmpeg_rtmp_pipe_in</title>
<ellipse fill="none" stroke="blue" cx="143" cy="-922" rx="89.08" ry="18"/>
<text text-anchor="middle" x="143" y="-918.3" font-family="Times,serif" font-size="14.00" fill="blue">ffmpeg_rtmp_pipe_in</text>
</g>
<!-- ffmpeg_rtmp_pipe_in&#45;&gt;video_pipe_in -->
<g id="edge37" class="edge">
<title>ffmpeg_rtmp_pipe_in&#45;&gt;video_pipe_in</title>
<path fill="none" stroke="blue" d="M192.89,-936.91C235.86,-948.9 297.69,-966.14 341.43,-978.34"/>
<polygon fill="blue" stroke="blue" points="340.73,-981.78 351.3,-981.09 342.61,-975.03 340.73,-981.78"/>
</g>
<!-- ffmpeg_rtmp_pipe_out -->
<g id="node30" class="node">
<title>ffmpeg_rtmp_pipe_out</title>
<ellipse fill="none" stroke="blue" cx="343" cy="-922" rx="92.88" ry="18"/>
<text text-anchor="middle" x="343" y="-918.3" font-family="Times,serif" font-size="14.00" fill="blue">ffmpeg_rtmp_pipe_out</text>
</g>
<!-- ffmpeg_rtmp_pipe_out&#45;&gt;video_pipe_out -->
<g id="edge38" class="edge">
<title>ffmpeg_rtmp_pipe_out&#45;&gt;video_pipe_out</title>
<path fill="none" stroke="blue" d="M389.48,-937.59C426.04,-949.06 476.93,-965.04 514.68,-976.89"/>
<polygon fill="blue" stroke="blue" points="513.88,-980.31 524.47,-979.96 515.98,-973.63 513.88,-980.31"/>
</g>
<!-- video_pipe_config -->
<g id="node31" class="node">
<title>video_pipe_config</title>
<ellipse fill="none" stroke="green" cx="531" cy="-922" rx="76.89" ry="18"/>
<text text-anchor="middle" x="531" y="-918.3" font-family="Times,serif" font-size="14.00" fill="green">video_pipe_config</text>
</g>
<!-- ffmpeg_rtmp_config -->
<g id="node32" class="node">
<title>ffmpeg_rtmp_config</title>
<ellipse fill="none" stroke="green" cx="343" cy="-850" rx="85.29" ry="18"/>
<text text-anchor="middle" x="343" y="-846.3" font-family="Times,serif" font-size="14.00" fill="green">ffmpeg_rtmp_config</text>
</g>
<!-- ffmpeg_rtmp_config&#45;&gt;ffmpeg_rtmp_pipe_in -->
<g id="edge39" class="edge">
<title>ffmpeg_rtmp_config&#45;&gt;ffmpeg_rtmp_pipe_in</title>
<path fill="none" stroke="black" d="M301.07,-865.67C270.21,-876.47 228.06,-891.23 195.05,-902.78"/>
<polygon fill="black" stroke="black" points="193.84,-899.5 185.56,-906.1 196.16,-906.1 193.84,-899.5"/>
</g>
<!-- ffmpeg_rtmp_config&#45;&gt;ffmpeg_rtmp_pipe_out -->
<g id="edge40" class="edge">
<title>ffmpeg_rtmp_config&#45;&gt;ffmpeg_rtmp_pipe_out</title>
<path fill="none" stroke="black" d="M343,-868.3C343,-876.02 343,-885.29 343,-893.89"/>
<polygon fill="black" stroke="black" points="339.5,-893.9 343,-903.9 346.5,-893.9 339.5,-893.9"/>
</g>
<!-- ffmpeg_rtmp_config&#45;&gt;video_pipe_config -->
<g id="edge36" class="edge">
<title>ffmpeg_rtmp_config&#45;&gt;video_pipe_config</title>
<path fill="none" stroke="green" d="M383.33,-866.02C412.34,-876.82 451.61,-891.44 482.36,-902.89"/>
<polygon fill="green" stroke="green" points="481.43,-906.28 492.02,-906.49 483.87,-899.72 481.43,-906.28"/>
</g>
<!-- test -->
<g id="node34" class="node">
<title>test</title>
<ellipse fill="none" stroke="black" cx="303" cy="-631" rx="27" ry="18"/>
<text text-anchor="middle" x="303" y="-627.3" font-family="Times,serif" font-size="14.00">test</text>
</g>
<!-- test&#45;&gt;color_test -->
<g id="edge44" class="edge">
<title>test&#45;&gt;color_test</title>
<path fill="none" stroke="black" d="M278.44,-638.76C242.65,-648.66 174.08,-667.8 116,-685 112.49,-686.04 108.85,-687.13 105.2,-688.24"/>
<polygon fill="black" stroke="black" points="104.13,-684.91 95.58,-691.17 106.17,-691.6 104.13,-684.91"/>
</g>
<!-- test&#45;&gt;basic_block_test -->
<g id="edge45" class="edge">
<title>test&#45;&gt;basic_block_test</title>
<path fill="none" stroke="black" d="M303,-649.3C303,-657.02 303,-666.29 303,-674.89"/>
<polygon fill="black" stroke="black" points="299.5,-674.9 303,-684.9 306.5,-674.9 299.5,-674.9"/>
</g>
<!-- raw_ip_length_reader_test -->
<g id="node37" class="node">
<title>raw_ip_length_reader_test</title>
<ellipse fill="none" stroke="black" cx="495" cy="-703" rx="104.78" ry="18"/>
<text text-anchor="middle" x="495" y="-699.3" font-family="Times,serif" font-size="14.00">raw_ip_length_reader_test</text>
</g>
<!-- test&#45;&gt;raw_ip_length_reader_test -->
<g id="edge46" class="edge">
<title>test&#45;&gt;raw_ip_length_reader_test</title>
<path fill="none" stroke="black" d="M326.16,-640.44C354.94,-650.94 404.91,-669.15 443.04,-683.06"/>
<polygon fill="black" stroke="black" points="441.86,-686.35 452.46,-686.49 444.26,-679.78 441.86,-686.35"/>
</g>
<!-- test&#45;&gt;math_test -->
<g id="edge47" class="edge">
<title>test&#45;&gt;math_test</title>
<path fill="none" stroke="black" d="M282.51,-642.78C261.96,-653.6 229.92,-670.46 205.28,-683.43"/>
<polygon fill="black" stroke="black" points="203.46,-680.44 196.24,-688.19 206.72,-686.63 203.46,-680.44"/>
</g>
</g>
</svg>
