<?xml version="1.0" encoding="UTF-8" standalone="no"?>
<!DOCTYPE svg PUBLIC "-//W3C//DTD SVG 1.1//EN"
 "http://www.w3.org/Graphics/SVG/1.1/DTD/svg11.dtd">
<!-- Generated by graphviz version 2.43.0 (0)
 -->
<!-- Title: %3 Pages: 1 -->
<svg width="1658pt" height="1020pt"
 viewBox="0.00 0.00 1658.49 1020.00" xmlns="http://www.w3.org/2000/svg" xmlns:xlink="http://www.w3.org/1999/xlink">
<g id="graph0" class="graph" transform="scale(1 1) rotate(0) translate(4 1016)">
<title>%3</title>
<polygon fill="white" stroke="transparent" points="-4,4 -4,-1016 1654.49,-1016 1654.49,4 -4,4"/>
<g id="clust2" class="cluster">
<title>cluster_providers</title>
<path fill="none" stroke="black" d="M628,-116C628,-116 1549,-116 1549,-116 1555,-116 1561,-122 1561,-128 1561,-128 1561,-936 1561,-936 1561,-942 1555,-948 1549,-948 1549,-948 628,-948 628,-948 622,-948 616,-942 616,-936 616,-936 616,-128 616,-128 616,-122 622,-116 628,-116"/>
<text text-anchor="middle" x="1088.5" y="-123.8" font-family="Times,serif" font-size="14.00">providers</text>
</g>
<g id="clust5" class="cluster">
<title>cluster_video_pipes</title>
<path fill="none" stroke="black" d="M995,-147C995,-147 1541,-147 1541,-147 1547,-147 1553,-153 1553,-159 1553,-159 1553,-354 1553,-354 1553,-360 1547,-366 1541,-366 1541,-366 995,-366 995,-366 989,-366 983,-360 983,-354 983,-354 983,-159 983,-159 983,-153 989,-147 995,-147"/>
<text text-anchor="middle" x="1268" y="-154.8" font-family="Times,serif" font-size="14.00">video_pipes</text>
</g>
<g id="clust6" class="cluster">
<title>cluster_color_codecs</title>
<path fill="none" stroke="black" d="M636,-147C636,-147 963,-147 963,-147 969,-147 975,-153 975,-159 975,-159 975,-354 975,-354 975,-360 969,-366 963,-366 963,-366 636,-366 636,-366 630,-366 624,-360 624,-354 624,-354 624,-159 624,-159 624,-153 630,-147 636,-147"/>
<text text-anchor="middle" x="799.5" y="-154.8" font-family="Times,serif" font-size="14.00">color_codecs</text>
</g>
<g id="clust7" class="cluster">
<title>cluster_compressors</title>
<path fill="none" stroke="black" d="M142,-801C142,-801 280,-801 280,-801 286,-801 292,-807 292,-813 292,-813 292,-936 292,-936 292,-942 286,-948 280,-948 280,-948 142,-948 142,-948 136,-948 130,-942 130,-936 130,-936 130,-813 130,-813 130,-807 136,-801 142,-801"/>
<text text-anchor="middle" x="211" y="-808.8" font-family="Times,serif" font-size="14.00">compressors</text>
</g>
<g id="clust8" class="cluster">
<title>cluster_obfuscators</title>
<path fill="none" stroke="black" d="M312,-801C312,-801 444,-801 444,-801 450,-801 456,-807 456,-813 456,-813 456,-936 456,-936 456,-942 450,-948 444,-948 444,-948 312,-948 312,-948 306,-948 300,-942 300,-936 300,-936 300,-813 300,-813 300,-807 306,-801 312,-801"/>
<text text-anchor="middle" x="378" y="-808.8" font-family="Times,serif" font-size="14.00">obfuscators</text>
</g>
<g id="clust9" class="cluster">
<title>cluster_correctors</title>
<path fill="none" stroke="black" d="M476,-801C476,-801 596,-801 596,-801 602,-801 608,-807 608,-813 608,-813 608,-936 608,-936 608,-942 602,-948 596,-948 596,-948 476,-948 476,-948 470,-948 464,-942 464,-936 464,-936 464,-813 464,-813 464,-807 470,-801 476,-801"/>
<text text-anchor="middle" x="536" y="-808.8" font-family="Times,serif" font-size="14.00">correctors</text>
</g>
<g id="clust10" class="cluster">
<title>cluster_test</title>
<path fill="none" stroke="black" d="M20,-582C20,-582 596,-582 596,-582 602,-582 608,-588 608,-594 608,-594 608,-717 608,-717 608,-723 602,-729 596,-729 596,-729 20,-729 20,-729 14,-729 8,-723 8,-717 8,-717 8,-594 8,-594 8,-588 14,-582 20,-582"/>
<text text-anchor="middle" x="308" y="-589.8" font-family="Times,serif" font-size="14.00">TESTS</text>
</g>
<!-- provider -->
<g id="node1" class="node">
<title>provider</title>
<ellipse fill="none" stroke="red" cx="692" cy="-922" rx="40.09" ry="18"/>
<text text-anchor="middle" x="692" y="-918.3" font-family="Times,serif" font-size="14.00" fill="red">provider</text>
</g>
<!-- video_encoder -->
<g id="node29" class="node">
<title>video_encoder</title>
<ellipse fill="none" stroke="black" cx="462" cy="-994" rx="62.29" ry="18"/>
<text text-anchor="middle" x="462" y="-990.3" font-family="Times,serif" font-size="14.00">video_encoder</text>
</g>
<!-- provider&#45;&gt;video_encoder -->
<g id="edge30" class="edge">
<title>provider&#45;&gt;video_encoder</title>
<path fill="none" stroke="black" d="M660.1,-933.06C645.46,-937.65 627.86,-943.14 612,-948 579.33,-958.01 542.58,-969.03 513.64,-977.67"/>
<polygon fill="black" stroke="black" points="512.33,-974.41 503.74,-980.62 514.33,-981.11 512.33,-974.41"/>
</g>
<!-- basic_provider -->
<g id="node2" class="node">
<title>basic_provider</title>
<ellipse fill="none" stroke="blue" cx="720" cy="-850" rx="63.09" ry="18"/>
<text text-anchor="middle" x="720" y="-846.3" font-family="Times,serif" font-size="14.00" fill="blue">basic_provider</text>
</g>
<!-- basic_provider&#45;&gt;provider -->
<g id="edge1" class="edge">
<title>basic_provider&#45;&gt;provider</title>
<path fill="none" stroke="blue" d="M713.22,-867.95C709.99,-876.03 706.05,-885.88 702.44,-894.89"/>
<polygon fill="blue" stroke="blue" points="699.18,-893.63 698.72,-904.21 705.68,-896.23 699.18,-893.63"/>
</g>
<!-- basic_block_container -->
<g id="node3" class="node">
<title>basic_block_container</title>
<ellipse fill="none" stroke="blue" cx="720" cy="-631" rx="89.88" ry="18"/>
<text text-anchor="middle" x="720" y="-627.3" font-family="Times,serif" font-size="14.00" fill="blue">basic_block_container</text>
</g>
<!-- basic_block_container&#45;&gt;basic_provider -->
<g id="edge2" class="edge">
<title>basic_block_container&#45;&gt;basic_provider</title>
<path fill="none" stroke="black" d="M720,-649.03C720,-686.49 720,-776.32 720,-821.74"/>
<polygon fill="black" stroke="black" points="716.5,-821.75 720,-831.75 723.5,-821.75 716.5,-821.75"/>
</g>
<!-- raw_ip_length_reader -->
<g id="node7" class="node">
<title>raw_ip_length_reader</title>
<ellipse fill="none" stroke="blue" cx="885" cy="-703" rx="87.99" ry="18"/>
<text text-anchor="middle" x="885" y="-699.3" font-family="Times,serif" font-size="14.00" fill="blue">raw_ip_length_reader</text>
</g>
<!-- basic_block_container&#45;&gt;raw_ip_length_reader -->
<g id="edge16" class="edge">
<title>basic_block_container&#45;&gt;raw_ip_length_reader</title>
<path fill="none" stroke="black" d="M756.62,-647.54C780.97,-657.87 813.14,-671.52 839.19,-682.57"/>
<polygon fill="black" stroke="black" points="837.91,-685.82 848.48,-686.51 840.64,-679.38 837.91,-685.82"/>
</g>
<!-- basic_block_test -->
<g id="node35" class="node">
<title>basic_block_test</title>
<ellipse fill="none" stroke="black" cx="303" cy="-703" rx="69.59" ry="18"/>
<text text-anchor="middle" x="303" y="-699.3" font-family="Times,serif" font-size="14.00">basic_block_test</text>
</g>
<!-- basic_block_container&#45;&gt;basic_block_test -->
<g id="edge49" class="edge">
<title>basic_block_container&#45;&gt;basic_block_test</title>
<path fill="none" stroke="black" d="M651.73,-642.76C638.55,-644.84 624.85,-646.99 612,-649 509.35,-665.08 483.14,-665.93 381,-685 375.33,-686.06 369.44,-687.22 363.55,-688.43"/>
<polygon fill="black" stroke="black" points="362.75,-685.02 353.68,-690.49 364.18,-691.87 362.75,-685.02"/>
</g>
<!-- basic_block_pointer -->
<g id="node4" class="node">
<title>basic_block_pointer</title>
<ellipse fill="none" stroke="blue" cx="726" cy="-556" rx="81.79" ry="18"/>
<text text-anchor="middle" x="726" y="-552.3" font-family="Times,serif" font-size="14.00" fill="blue">basic_block_pointer</text>
</g>
<!-- basic_block_pointer&#45;&gt;basic_block_container -->
<g id="edge3" class="edge">
<title>basic_block_pointer&#45;&gt;basic_block_container</title>
<path fill="none" stroke="black" d="M724.58,-574.3C723.88,-582.75 723.03,-593.13 722.25,-602.63"/>
<polygon fill="black" stroke="black" points="718.74,-602.57 721.41,-612.82 725.72,-603.14 718.74,-602.57"/>
</g>
<!-- basic_block_pointer&#45;&gt;basic_block_test -->
<g id="edge50" class="edge">
<title>basic_block_pointer&#45;&gt;basic_block_test</title>
<path fill="none" stroke="black" d="M669.52,-569.06C653.71,-572.81 636.59,-577.22 621,-582 521.39,-612.52 407.92,-658.02 347.09,-683.32"/>
<polygon fill="black" stroke="black" points="345.67,-680.12 337.79,-687.2 348.36,-686.58 345.67,-680.12"/>
</g>
<!-- basic_block_pointer_proxy -->
<g id="node5" class="node">
<title>basic_block_pointer_proxy</title>
<ellipse fill="none" stroke="blue" cx="764" cy="-484" rx="106.68" ry="18"/>
<text text-anchor="middle" x="764" y="-480.3" font-family="Times,serif" font-size="14.00" fill="blue">basic_block_pointer_proxy</text>
</g>
<!-- basic_block_pointer_proxy&#45;&gt;basic_block_container -->
<g id="edge5" class="edge">
<title>basic_block_pointer_proxy&#45;&gt;basic_block_container</title>
<path fill="none" stroke="black" d="M693.69,-497.65C671.11,-505.4 648.48,-517.89 635,-538 626.09,-551.29 627.41,-559.91 635,-574 643.19,-589.2 657.51,-600.96 672.09,-609.68"/>
<polygon fill="black" stroke="black" points="670.71,-612.92 681.15,-614.73 674.12,-606.81 670.71,-612.92"/>
</g>
<!-- basic_block_pointer_proxy&#45;&gt;basic_block_pointer -->
<g id="edge4" class="edge">
<title>basic_block_pointer_proxy&#45;&gt;basic_block_pointer</title>
<path fill="none" stroke="black" d="M754.8,-501.95C750.43,-509.99 745.11,-519.8 740.24,-528.77"/>
<polygon fill="black" stroke="black" points="737.07,-527.27 735.38,-537.72 743.22,-530.61 737.07,-527.27"/>
</g>
<!-- basic_block_pointer_proxy&#45;&gt;basic_block_test -->
<g id="edge48" class="edge">
<title>basic_block_pointer_proxy&#45;&gt;basic_block_test</title>
<path fill="none" stroke="black" d="M663.42,-489.98C532.96,-498.8 316.22,-522.24 267,-582 248.07,-604.98 258.25,-620.54 267,-649 270.06,-658.94 275.68,-668.69 281.6,-677.07"/>
<polygon fill="black" stroke="black" points="278.95,-679.37 287.77,-685.24 284.54,-675.15 278.95,-679.37"/>
</g>
<!-- data_length_reader -->
<g id="node6" class="node">
<title>data_length_reader</title>
<ellipse fill="none" stroke="red" cx="851" cy="-775" rx="77.99" ry="18"/>
<text text-anchor="middle" x="851" y="-771.3" font-family="Times,serif" font-size="14.00" fill="red">data_length_reader</text>
</g>
<!-- data_length_reader&#45;&gt;basic_provider -->
<g id="edge15" class="edge">
<title>data_length_reader&#45;&gt;basic_provider</title>
<path fill="none" stroke="black" d="M822.57,-791.84C803.17,-802.65 777.3,-817.07 756.39,-828.72"/>
<polygon fill="black" stroke="black" points="754.5,-825.77 747.47,-833.69 757.91,-831.88 754.5,-825.77"/>
</g>
<!-- raw_ip_length_reader&#45;&gt;data_length_reader -->
<g id="edge14" class="edge">
<title>raw_ip_length_reader&#45;&gt;data_length_reader</title>
<path fill="none" stroke="blue" d="M876.77,-720.95C872.9,-728.91 868.2,-738.59 863.88,-747.49"/>
<polygon fill="blue" stroke="blue" points="860.61,-746.2 859.39,-756.72 866.91,-749.26 860.61,-746.2"/>
</g>
<!-- bit_area -->
<g id="node8" class="node">
<title>bit_area</title>
<ellipse fill="none" stroke="green" cx="865" cy="-556" rx="38.99" ry="18"/>
<text text-anchor="middle" x="865" y="-552.3" font-family="Times,serif" font-size="14.00" fill="green">bit_area</text>
</g>
<!-- bit_area&#45;&gt;basic_block_container -->
<g id="edge6" class="edge">
<title>bit_area&#45;&gt;basic_block_container</title>
<path fill="none" stroke="black" d="M839.74,-569.72C817.92,-580.7 785.98,-596.78 760.57,-609.57"/>
<polygon fill="black" stroke="black" points="758.9,-606.5 751.54,-614.12 762.05,-612.75 758.9,-606.5"/>
</g>
<!-- basic_block_config -->
<g id="node9" class="node">
<title>basic_block_config</title>
<ellipse fill="none" stroke="green" cx="914" cy="-412" rx="79.09" ry="18"/>
<text text-anchor="middle" x="914" y="-408.3" font-family="Times,serif" font-size="14.00" fill="green">basic_block_config</text>
</g>
<!-- basic_block_config&#45;&gt;basic_block_container -->
<g id="edge7" class="edge">
<title>basic_block_config&#45;&gt;basic_block_container</title>
<path fill="none" stroke="black" d="M919.91,-430.13C929.74,-462.03 945.36,-531.19 913,-574 898.66,-592.97 844.88,-607.61 797.72,-617.16"/>
<polygon fill="black" stroke="black" points="796.91,-613.75 787.77,-619.12 798.26,-620.62 796.91,-613.75"/>
</g>
<!-- basic_block_config&#45;&gt;basic_block_pointer -->
<g id="edge8" class="edge">
<title>basic_block_config&#45;&gt;basic_block_pointer</title>
<path fill="none" stroke="black" d="M911.85,-430.12C908.47,-450.01 900.09,-482.57 880,-502 866.33,-515.22 824.53,-529.17 787.92,-539.45"/>
<polygon fill="black" stroke="black" points="786.96,-536.08 778.25,-542.11 788.82,-542.83 786.96,-536.08"/>
</g>
<!-- basic_block_config&#45;&gt;basic_block_pointer_proxy -->
<g id="edge9" class="edge">
<title>basic_block_config&#45;&gt;basic_block_pointer_proxy</title>
<path fill="none" stroke="black" d="M880.71,-428.54C859.24,-438.55 831.09,-451.69 807.81,-462.55"/>
<polygon fill="black" stroke="black" points="806.08,-459.5 798.5,-466.9 809.04,-465.84 806.08,-459.5"/>
</g>
<!-- basic_block_config&#45;&gt;raw_ip_length_reader -->
<g id="edge10" class="edge">
<title>basic_block_config&#45;&gt;raw_ip_length_reader</title>
<path fill="none" stroke="black" d="M922.72,-430.17C927.37,-440.31 932.62,-453.56 935,-466 938,-481.72 935.99,-486.03 935,-502 933,-534.19 932.95,-542.51 926,-574 918.1,-609.81 904.45,-649.88 895.09,-675.5"/>
<polygon fill="black" stroke="black" points="891.8,-674.3 891.61,-684.89 898.36,-676.73 891.8,-674.3"/>
</g>
<!-- rect -->
<g id="node10" class="node">
<title>rect</title>
<ellipse fill="none" stroke="green" cx="651" cy="-412" rx="27" ry="18"/>
<text text-anchor="middle" x="651" y="-408.3" font-family="Times,serif" font-size="14.00" fill="green">rect</text>
</g>
<!-- rect&#45;&gt;basic_block_pointer -->
<g id="edge12" class="edge">
<title>rect&#45;&gt;basic_block_pointer</title>
<path fill="none" stroke="black" d="M645.7,-429.86C640.82,-448.63 635.99,-479.32 648,-502 655.22,-515.64 667.7,-526.42 680.58,-534.59"/>
<polygon fill="black" stroke="black" points="679.11,-537.79 689.51,-539.84 682.66,-531.76 679.11,-537.79"/>
</g>
<!-- rect&#45;&gt;basic_block_pointer_proxy -->
<g id="edge11" class="edge">
<title>rect&#45;&gt;basic_block_pointer_proxy</title>
<path fill="none" stroke="black" d="M670.17,-424.87C686.11,-434.75 709.24,-449.08 728.54,-461.03"/>
<polygon fill="black" stroke="black" points="726.76,-464.05 737.1,-466.34 730.44,-458.09 726.76,-464.05"/>
</g>
<!-- rgb_index -->
<g id="node11" class="node">
<title>rgb_index</title>
<ellipse fill="none" stroke="green" cx="742" cy="-412" rx="46.29" ry="18"/>
<text text-anchor="middle" x="742" y="-408.3" font-family="Times,serif" font-size="14.00" fill="green">rgb_index</text>
</g>
<!-- rgb_index&#45;&gt;basic_block_pointer_proxy -->
<g id="edge13" class="edge">
<title>rgb_index&#45;&gt;basic_block_pointer_proxy</title>
<path fill="none" stroke="black" d="M747.33,-429.95C749.78,-437.74 752.74,-447.18 755.49,-455.92"/>
<polygon fill="black" stroke="black" points="752.23,-457.23 758.57,-465.72 758.91,-455.14 752.23,-457.23"/>
</g>
<!-- video_pipe_in -->
<g id="node12" class="node">
<title>video_pipe_in</title>
<ellipse fill="none" stroke="red" cx="1252" cy="-340" rx="61.19" ry="18"/>
<text text-anchor="middle" x="1252" y="-336.3" font-family="Times,serif" font-size="14.00" fill="red">video_pipe_in</text>
</g>
<!-- video_pipe_out -->
<g id="node13" class="node">
<title>video_pipe_out</title>
<ellipse fill="none" stroke="red" cx="1452" cy="-340" rx="65.79" ry="18"/>
<text text-anchor="middle" x="1452" y="-336.3" font-family="Times,serif" font-size="14.00" fill="red">video_pipe_out</text>
</g>
<!-- ffmpeg_rtmp_pipe_in -->
<g id="node14" class="node">
<title>ffmpeg_rtmp_pipe_in</title>
<ellipse fill="none" stroke="blue" cx="1252" cy="-268" rx="89.08" ry="18"/>
<text text-anchor="middle" x="1252" y="-264.3" font-family="Times,serif" font-size="14.00" fill="blue">ffmpeg_rtmp_pipe_in</text>
</g>
<!-- ffmpeg_rtmp_pipe_in&#45;&gt;video_pipe_in -->
<g id="edge18" class="edge">
<title>ffmpeg_rtmp_pipe_in&#45;&gt;video_pipe_in</title>
<path fill="none" stroke="blue" d="M1252,-286.3C1252,-294.02 1252,-303.29 1252,-311.89"/>
<polygon fill="blue" stroke="blue" points="1248.5,-311.9 1252,-321.9 1255.5,-311.9 1248.5,-311.9"/>
</g>
<!-- ffmpeg_rtmp_pipe_out -->
<g id="node15" class="node">
<title>ffmpeg_rtmp_pipe_out</title>
<ellipse fill="none" stroke="blue" cx="1452" cy="-268" rx="92.88" ry="18"/>
<text text-anchor="middle" x="1452" y="-264.3" font-family="Times,serif" font-size="14.00" fill="blue">ffmpeg_rtmp_pipe_out</text>
</g>
<!-- ffmpeg_rtmp_pipe_out&#45;&gt;video_pipe_out -->
<g id="edge19" class="edge">
<title>ffmpeg_rtmp_pipe_out&#45;&gt;video_pipe_out</title>
<path fill="none" stroke="blue" d="M1452,-286.3C1452,-294.02 1452,-303.29 1452,-311.89"/>
<polygon fill="blue" stroke="blue" points="1448.5,-311.9 1452,-321.9 1455.5,-311.9 1448.5,-311.9"/>
</g>
<!-- video_pipe_config -->
<g id="node16" class="node">
<title>video_pipe_config</title>
<ellipse fill="none" stroke="green" cx="1068" cy="-268" rx="76.89" ry="18"/>
<text text-anchor="middle" x="1068" y="-264.3" font-family="Times,serif" font-size="14.00" fill="green">video_pipe_config</text>
</g>
<!-- ffmpeg_rtmp_config -->
<g id="node17" class="node">
<title>ffmpeg_rtmp_config</title>
<ellipse fill="none" stroke="green" cx="1252" cy="-196" rx="85.29" ry="18"/>
<text text-anchor="middle" x="1252" y="-192.3" font-family="Times,serif" font-size="14.00" fill="green">ffmpeg_rtmp_config</text>
</g>
<!-- ffmpeg_rtmp_config&#45;&gt;ffmpeg_rtmp_pipe_in -->
<g id="edge20" class="edge">
<title>ffmpeg_rtmp_config&#45;&gt;ffmpeg_rtmp_pipe_in</title>
<path fill="none" stroke="black" d="M1252,-214.3C1252,-222.02 1252,-231.29 1252,-239.89"/>
<polygon fill="black" stroke="black" points="1248.5,-239.9 1252,-249.9 1255.5,-239.9 1248.5,-239.9"/>
</g>
<!-- ffmpeg_rtmp_config&#45;&gt;ffmpeg_rtmp_pipe_out -->
<g id="edge21" class="edge">
<title>ffmpeg_rtmp_config&#45;&gt;ffmpeg_rtmp_pipe_out</title>
<path fill="none" stroke="black" d="M1293.93,-211.67C1324.68,-222.44 1366.65,-237.13 1399.61,-248.67"/>
<polygon fill="black" stroke="black" points="1398.5,-251.98 1409.09,-251.98 1400.81,-245.38 1398.5,-251.98"/>
</g>
<!-- ffmpeg_rtmp_config&#45;&gt;video_pipe_config -->
<g id="edge17" class="edge">
<title>ffmpeg_rtmp_config&#45;&gt;video_pipe_config</title>
<path fill="none" stroke="green" d="M1212.53,-212.02C1184.23,-222.78 1145.96,-237.34 1115.91,-248.77"/>
<polygon fill="green" stroke="green" points="1114.56,-245.54 1106.46,-252.37 1117.05,-252.08 1114.56,-245.54"/>
</g>
<!-- color_codec -->
<g id="node18" class="node">
<title>color_codec</title>
<ellipse fill="none" stroke="purple" cx="800" cy="-340" rx="53.89" ry="18"/>
<text text-anchor="middle" x="800" y="-336.3" font-family="Times,serif" font-size="14.00" fill="purple">color_codec</text>
</g>
<!-- color_codec&#45;&gt;basic_block_pointer_proxy -->
<g id="edge26" class="edge">
<title>color_codec&#45;&gt;basic_block_pointer_proxy</title>
<path fill="none" stroke="black" d="M802,-358.16C803.54,-376.4 804.33,-405.89 797,-430 794.08,-439.6 788.96,-449.18 783.61,-457.5"/>
<polygon fill="black" stroke="black" points="780.57,-455.76 777.81,-465.99 786.35,-459.71 780.57,-455.76"/>
</g>
<!-- hsv_codec -->
<g id="node19" class="node">
<title>hsv_codec</title>
<ellipse fill="none" stroke="blue" cx="919" cy="-268" rx="48.19" ry="18"/>
<text text-anchor="middle" x="919" y="-264.3" font-family="Times,serif" font-size="14.00" fill="blue">hsv_codec</text>
</g>
<!-- hsv_codec&#45;&gt;color_codec -->
<g id="edge22" class="edge">
<title>hsv_codec&#45;&gt;color_codec</title>
<path fill="none" stroke="blue" d="M894.34,-283.5C876.95,-293.74 853.42,-307.58 834.21,-318.88"/>
<polygon fill="blue" stroke="blue" points="832.29,-315.94 825.45,-324.03 835.84,-321.98 832.29,-315.94"/>
</g>
<!-- palette_codec -->
<g id="node20" class="node">
<title>palette_codec</title>
<ellipse fill="none" stroke="purple" cx="794" cy="-268" rx="59.29" ry="18"/>
<text text-anchor="middle" x="794" y="-264.3" font-family="Times,serif" font-size="14.00" fill="purple">palette_codec</text>
</g>
<!-- palette_codec&#45;&gt;color_codec -->
<g id="edge23" class="edge">
<title>palette_codec&#45;&gt;color_codec</title>
<path fill="none" stroke="purple" d="M795.48,-286.3C796.14,-294.02 796.94,-303.29 797.68,-311.89"/>
<polygon fill="purple" stroke="purple" points="794.19,-312.23 798.53,-321.9 801.17,-311.63 794.19,-312.23"/>
</g>
<!-- rgb_palette_codec -->
<g id="node21" class="node">
<title>rgb_palette_codec</title>
<ellipse fill="none" stroke="blue" cx="892" cy="-196" rx="75.29" ry="18"/>
<text text-anchor="middle" x="892" y="-192.3" font-family="Times,serif" font-size="14.00" fill="blue">rgb_palette_codec</text>
</g>
<!-- rgb_palette_codec&#45;&gt;palette_codec -->
<g id="edge24" class="edge">
<title>rgb_palette_codec&#45;&gt;palette_codec</title>
<path fill="none" stroke="blue" d="M869.27,-213.24C855.94,-222.76 838.93,-234.91 824.45,-245.25"/>
<polygon fill="blue" stroke="blue" points="822.37,-242.43 816.27,-251.09 826.44,-248.13 822.37,-242.43"/>
</g>
<!-- ycbcr_palette_codec -->
<g id="node22" class="node">
<title>ycbcr_palette_codec</title>
<ellipse fill="none" stroke="blue" cx="715" cy="-196" rx="83.39" ry="18"/>
<text text-anchor="middle" x="715" y="-192.3" font-family="Times,serif" font-size="14.00" fill="blue">ycbcr_palette_codec</text>
</g>
<!-- ycbcr_palette_codec&#45;&gt;palette_codec -->
<g id="edge25" class="edge">
<title>ycbcr_palette_codec&#45;&gt;palette_codec</title>
<path fill="none" stroke="blue" d="M733.72,-213.59C743.93,-222.63 756.72,-233.97 767.9,-243.87"/>
<polygon fill="blue" stroke="blue" points="765.88,-246.76 775.69,-250.77 770.52,-241.52 765.88,-246.76"/>
</g>
<!-- compressor -->
<g id="node23" class="node">
<title>compressor</title>
<ellipse fill="none" stroke="red" cx="221" cy="-922" rx="51.99" ry="18"/>
<text text-anchor="middle" x="221" y="-918.3" font-family="Times,serif" font-size="14.00" fill="red">compressor</text>
</g>
<!-- compressor&#45;&gt;video_encoder -->
<g id="edge31" class="edge">
<title>compressor&#45;&gt;video_encoder</title>
<path fill="none" stroke="black" d="M256.35,-935.24C268.83,-939.44 282.99,-944.07 296,-948 332.79,-959.11 374.53,-970.42 406.96,-978.92"/>
<polygon fill="black" stroke="black" points="406.15,-982.33 416.71,-981.47 407.92,-975.55 406.15,-982.33"/>
</g>
<!-- none_compressor -->
<g id="node24" class="node">
<title>none_compressor</title>
<ellipse fill="none" stroke="blue" cx="211" cy="-850" rx="73.39" ry="18"/>
<text text-anchor="middle" x="211" y="-846.3" font-family="Times,serif" font-size="14.00" fill="blue">none_compressor</text>
</g>
<!-- none_compressor&#45;&gt;compressor -->
<g id="edge27" class="edge">
<title>none_compressor&#45;&gt;compressor</title>
<path fill="none" stroke="blue" d="M213.47,-868.3C214.57,-876.02 215.9,-885.29 217.13,-893.89"/>
<polygon fill="blue" stroke="blue" points="213.68,-894.49 218.56,-903.9 220.61,-893.5 213.68,-894.49"/>
</g>
<!-- obfuscator -->
<g id="node25" class="node">
<title>obfuscator</title>
<ellipse fill="none" stroke="red" cx="389" cy="-922" rx="48.19" ry="18"/>
<text text-anchor="middle" x="389" y="-918.3" font-family="Times,serif" font-size="14.00" fill="red">obfuscator</text>
</g>
<!-- obfuscator&#45;&gt;video_encoder -->
<g id="edge32" class="edge">
<title>obfuscator&#45;&gt;video_encoder</title>
<path fill="none" stroke="black" d="M405.93,-939.24C415.35,-948.27 427.25,-959.67 437.65,-969.65"/>
<polygon fill="black" stroke="black" points="435.27,-972.22 444.91,-976.61 440.11,-967.16 435.27,-972.22"/>
</g>
<!-- none_obfuscator -->
<g id="node26" class="node">
<title>none_obfuscator</title>
<ellipse fill="none" stroke="blue" cx="378" cy="-850" rx="69.59" ry="18"/>
<text text-anchor="middle" x="378" y="-846.3" font-family="Times,serif" font-size="14.00" fill="blue">none_obfuscator</text>
</g>
<!-- none_obfuscator&#45;&gt;obfuscator -->
<g id="edge28" class="edge">
<title>none_obfuscator&#45;&gt;obfuscator</title>
<path fill="none" stroke="blue" d="M380.72,-868.3C381.93,-876.02 383.39,-885.29 384.74,-893.89"/>
<polygon fill="blue" stroke="blue" points="381.3,-894.56 386.31,-903.9 388.22,-893.47 381.3,-894.56"/>
</g>
<!-- corrector -->
<g id="node27" class="node">
<title>corrector</title>
<ellipse fill="none" stroke="red" cx="525" cy="-922" rx="42.49" ry="18"/>
<text text-anchor="middle" x="525" y="-918.3" font-family="Times,serif" font-size="14.00" fill="red">corrector</text>
</g>
<!-- corrector&#45;&gt;video_encoder -->
<g id="edge33" class="edge">
<title>corrector&#45;&gt;video_encoder</title>
<path fill="none" stroke="black" d="M510.39,-939.24C502.47,-948.03 492.54,-959.07 483.73,-968.86"/>
<polygon fill="black" stroke="black" points="481.06,-966.59 476.97,-976.37 486.26,-971.28 481.06,-966.59"/>
</g>
<!-- none_corrector -->
<g id="node28" class="node">
<title>none_corrector</title>
<ellipse fill="none" stroke="blue" cx="536" cy="-850" rx="63.89" ry="18"/>
<text text-anchor="middle" x="536" y="-846.3" font-family="Times,serif" font-size="14.00" fill="blue">none_corrector</text>
</g>
<!-- none_corrector&#45;&gt;corrector -->
<g id="edge29" class="edge">
<title>none_corrector&#45;&gt;corrector</title>
<path fill="none" stroke="blue" d="M533.28,-868.3C532.07,-876.02 530.61,-885.29 529.26,-893.89"/>
<polygon fill="blue" stroke="blue" points="525.78,-893.47 527.69,-903.9 532.7,-894.56 525.78,-893.47"/>
</g>
<!-- color -->
<g id="node30" class="node">
<title>color</title>
<ellipse fill="none" stroke="black" cx="892" cy="-90" rx="28.7" ry="18"/>
<text text-anchor="middle" x="892" y="-86.3" font-family="Times,serif" font-size="14.00">color</text>
</g>
<!-- color&#45;&gt;basic_block_pointer -->
<g id="edge35" class="edge">
<title>color&#45;&gt;basic_block_pointer</title>
<path fill="none" stroke="black" d="M920.79,-91.03C1051.62,-91.28 1584.9,-93.69 1612,-116 1665.18,-159.79 1647,-198.11 1647,-267 1647,-267 1647,-267 1647,-413 1647,-599.52 1000.93,-506.98 817,-538 810.03,-539.18 802.76,-540.45 795.51,-541.75"/>
<polygon fill="black" stroke="black" points="794.88,-538.31 785.67,-543.54 796.13,-545.2 794.88,-538.31"/>
</g>
<!-- color&#45;&gt;basic_block_pointer_proxy -->
<g id="edge34" class="edge">
<title>color&#45;&gt;basic_block_pointer_proxy</title>
<path fill="none" stroke="black" d="M920.89,-91.04C1048.52,-91.36 1556.69,-94.02 1582,-116 1633.48,-160.7 1609,-198.82 1609,-267 1609,-267 1609,-267 1609,-341 1609,-414.89 1099.96,-459.63 872.06,-475.95"/>
<polygon fill="black" stroke="black" points="871.48,-472.48 861.76,-476.68 871.98,-479.46 871.48,-472.48"/>
</g>
<!-- color&#45;&gt;hsv_codec -->
<g id="edge37" class="edge">
<title>color&#45;&gt;hsv_codec</title>
<path fill="none" stroke="black" d="M920.77,-90.98C1045.54,-91.05 1534.63,-92.78 1557,-116 1587.21,-147.37 1586.83,-182.26 1557,-214 1512.94,-260.89 1042.43,-239.17 979,-250 974.18,-250.82 969.2,-251.88 964.26,-253.07"/>
<polygon fill="black" stroke="black" points="963.05,-249.77 954.25,-255.66 964.8,-256.55 963.05,-249.77"/>
</g>
<!-- color&#45;&gt;rgb_palette_codec -->
<g id="edge36" class="edge">
<title>color&#45;&gt;rgb_palette_codec</title>
<path fill="none" stroke="black" d="M892,-108.17C892,-124.36 892,-148.87 892,-167.73"/>
<polygon fill="black" stroke="black" points="888.5,-167.8 892,-177.8 895.5,-167.8 888.5,-167.8"/>
</g>
<!-- color_test -->
<g id="node34" class="node">
<title>color_test</title>
<ellipse fill="none" stroke="black" cx="61" cy="-703" rx="45.49" ry="18"/>
<text text-anchor="middle" x="61" y="-699.3" font-family="Times,serif" font-size="14.00">color_test</text>
</g>
<!-- color&#45;&gt;color_test -->
<g id="edge46" class="edge">
<title>color&#45;&gt;color_test</title>
<path fill="none" stroke="black" d="M863.31,-90.68C740.87,-89.51 265.64,-86.9 206,-116 127.19,-154.46 79,-179.31 79,-267 79,-267 79,-267 79,-557 79,-598.16 71.77,-645.4 66.47,-674.47"/>
<polygon fill="black" stroke="black" points="62.96,-674.2 64.56,-684.68 69.84,-675.49 62.96,-674.2"/>
</g>
<!-- color&#45;&gt;basic_block_test -->
<g id="edge45" class="edge">
<title>color&#45;&gt;basic_block_test</title>
<path fill="none" stroke="black" d="M863.33,-91.73C729.42,-95.93 172,-122.07 172,-267 172,-267 172,-267 172,-557 172,-612.91 226.28,-656.92 264.96,-681.19"/>
<polygon fill="black" stroke="black" points="263.56,-684.43 273.93,-686.64 267.2,-678.45 263.56,-684.43"/>
</g>
<!-- status_error -->
<g id="node31" class="node">
<title>status_error</title>
<ellipse fill="none" stroke="black" cx="513" cy="-18" rx="51.99" ry="18"/>
<text text-anchor="middle" x="513" y="-14.3" font-family="Times,serif" font-size="14.00">status_error</text>
</g>
<!-- status_error&#45;&gt;color_codec -->
<g id="edge39" class="edge">
<title>status_error&#45;&gt;color_codec</title>
<path fill="none" stroke="black" d="M519.54,-35.97C534.01,-71.91 571.54,-157.04 623,-214 664.09,-259.48 724.58,-297.7 763.13,-319.48"/>
<polygon fill="black" stroke="black" points="761.51,-322.59 771.95,-324.4 764.92,-316.48 761.51,-322.59"/>
</g>
<!-- status_error&#45;&gt;color -->
<g id="edge38" class="edge">
<title>status_error&#45;&gt;color</title>
<path fill="none" stroke="black" d="M557.96,-27.3C633.5,-41.26 784.47,-69.14 854.6,-82.09"/>
<polygon fill="black" stroke="black" points="854.27,-85.59 864.74,-83.96 855.54,-78.71 854.27,-85.59"/>
</g>
<!-- math -->
<g id="node32" class="node">
<title>math</title>
<ellipse fill="none" stroke="black" cx="229" cy="-556" rx="28.7" ry="18"/>
<text text-anchor="middle" x="229" y="-552.3" font-family="Times,serif" font-size="14.00">math</text>
</g>
<!-- math&#45;&gt;basic_block_container -->
<g id="edge40" class="edge">
<title>math&#45;&gt;basic_block_container</title>
<path fill="none" stroke="black" d="M257.53,-557.56C334.43,-559.29 544.8,-565.43 612,-582 636.25,-587.98 661.86,-599.12 682.05,-609.17"/>
<polygon fill="black" stroke="black" points="680.7,-612.41 691.2,-613.84 683.88,-606.18 680.7,-612.41"/>
</g>
<!-- math_test -->
<g id="node37" class="node">
<title>math_test</title>
<ellipse fill="none" stroke="black" cx="170" cy="-703" rx="45.49" ry="18"/>
<text text-anchor="middle" x="170" y="-699.3" font-family="Times,serif" font-size="14.00">math_test</text>
</g>
<!-- math&#45;&gt;math_test -->
<g id="edge47" class="edge">
<title>math&#45;&gt;math_test</title>
<path fill="none" stroke="black" d="M222.23,-573.63C212.06,-598.63 192.74,-646.1 180.67,-675.79"/>
<polygon fill="black" stroke="black" points="177.4,-674.53 176.87,-685.11 183.88,-677.17 177.4,-674.53"/>
</g>
<!-- test -->
<g id="node33" class="node">
<title>test</title>
<ellipse fill="none" stroke="black" cx="303" cy="-631" rx="27" ry="18"/>
<text text-anchor="middle" x="303" y="-627.3" font-family="Times,serif" font-size="14.00">test</text>
</g>
<!-- test&#45;&gt;color_test -->
<g id="edge41" class="edge">
<title>test&#45;&gt;color_test</title>
<path fill="none" stroke="black" d="M278.44,-638.76C242.65,-648.66 174.08,-667.8 116,-685 112.49,-686.04 108.85,-687.13 105.2,-688.24"/>
<polygon fill="black" stroke="black" points="104.13,-684.91 95.58,-691.17 106.17,-691.6 104.13,-684.91"/>
</g>
<!-- test&#45;&gt;basic_block_test -->
<g id="edge42" class="edge">
<title>test&#45;&gt;basic_block_test</title>
<path fill="none" stroke="black" d="M303,-649.3C303,-657.02 303,-666.29 303,-674.89"/>
<polygon fill="black" stroke="black" points="299.5,-674.9 303,-684.9 306.5,-674.9 299.5,-674.9"/>
</g>
<!-- raw_ip_length_reader_test -->
<g id="node36" class="node">
<title>raw_ip_length_reader_test</title>
<ellipse fill="none" stroke="black" cx="495" cy="-703" rx="104.78" ry="18"/>
<text text-anchor="middle" x="495" y="-699.3" font-family="Times,serif" font-size="14.00">raw_ip_length_reader_test</text>
</g>
<!-- test&#45;&gt;raw_ip_length_reader_test -->
<g id="edge43" class="edge">
<title>test&#45;&gt;raw_ip_length_reader_test</title>
<path fill="none" stroke="black" d="M326.16,-640.44C354.94,-650.94 404.91,-669.15 443.04,-683.06"/>
<polygon fill="black" stroke="black" points="441.86,-686.35 452.46,-686.49 444.26,-679.78 441.86,-686.35"/>
</g>
<!-- test&#45;&gt;math_test -->
<g id="edge44" class="edge">
<title>test&#45;&gt;math_test</title>
<path fill="none" stroke="black" d="M282.51,-642.78C261.96,-653.6 229.92,-670.46 205.28,-683.43"/>
<polygon fill="black" stroke="black" points="203.46,-680.44 196.24,-688.19 206.72,-686.63 203.46,-680.44"/>
</g>
</g>
</svg>
