<?xml version="1.0" encoding="UTF-8" standalone="no"?>
<!DOCTYPE svg PUBLIC "-//W3C//DTD SVG 1.1//EN"
 "http://www.w3.org/Graphics/SVG/1.1/DTD/svg11.dtd">
<!-- Generated by graphviz version 2.43.0 (0)
 -->
<!-- Title: %3 Pages: 1 -->
<svg width="1965pt" height="917pt"
 viewBox="0.00 0.00 1965.00 917.00" xmlns="http://www.w3.org/2000/svg" xmlns:xlink="http://www.w3.org/1999/xlink">
<g id="graph0" class="graph" transform="scale(1 1) rotate(0) translate(4 913)">
<title>%3</title>
<polygon fill="white" stroke="transparent" points="-4,4 -4,-913 1961,-913 1961,4 -4,4"/>
<g id="clust2" class="cluster">
<title>cluster_providers</title>
<path fill="none" stroke="black" d="M20,-260C20,-260 1329,-260 1329,-260 1335,-260 1341,-266 1341,-272 1341,-272 1341,-833 1341,-833 1341,-839 1335,-845 1329,-845 1329,-845 20,-845 20,-845 14,-845 8,-839 8,-833 8,-833 8,-272 8,-272 8,-266 14,-260 20,-260"/>
<text text-anchor="middle" x="674.5" y="-267.8" font-family="Times,serif" font-size="14.00">providers</text>
</g>
<g id="clust6" class="cluster">
<title>cluster_compressors</title>
<path fill="none" stroke="black" d="M1361,-698C1361,-698 1499,-698 1499,-698 1505,-698 1511,-704 1511,-710 1511,-710 1511,-833 1511,-833 1511,-839 1505,-845 1499,-845 1499,-845 1361,-845 1361,-845 1355,-845 1349,-839 1349,-833 1349,-833 1349,-710 1349,-710 1349,-704 1355,-698 1361,-698"/>
<text text-anchor="middle" x="1430" y="-705.8" font-family="Times,serif" font-size="14.00">compressors</text>
</g>
<g id="clust7" class="cluster">
<title>cluster_obfuscators</title>
<path fill="none" stroke="black" d="M1531,-698C1531,-698 1663,-698 1663,-698 1669,-698 1675,-704 1675,-710 1675,-710 1675,-833 1675,-833 1675,-839 1669,-845 1663,-845 1663,-845 1531,-845 1531,-845 1525,-845 1519,-839 1519,-833 1519,-833 1519,-710 1519,-710 1519,-704 1525,-698 1531,-698"/>
<text text-anchor="middle" x="1597" y="-705.8" font-family="Times,serif" font-size="14.00">obfuscators</text>
</g>
<g id="clust8" class="cluster">
<title>cluster_correctors</title>
<path fill="none" stroke="black" d="M1695,-698C1695,-698 1815,-698 1815,-698 1821,-698 1827,-704 1827,-710 1827,-710 1827,-833 1827,-833 1827,-839 1821,-845 1815,-845 1815,-845 1695,-845 1695,-845 1689,-845 1683,-839 1683,-833 1683,-833 1683,-710 1683,-710 1683,-704 1689,-698 1695,-698"/>
<text text-anchor="middle" x="1755" y="-705.8" font-family="Times,serif" font-size="14.00">correctors</text>
</g>
<g id="clust9" class="cluster">
<title>cluster_test</title>
<path fill="none" stroke="black" d="M1361,-479C1361,-479 1937,-479 1937,-479 1943,-479 1949,-485 1949,-491 1949,-491 1949,-614 1949,-614 1949,-620 1943,-626 1937,-626 1937,-626 1361,-626 1361,-626 1355,-626 1349,-620 1349,-614 1349,-614 1349,-491 1349,-491 1349,-485 1355,-479 1361,-479"/>
<text text-anchor="middle" x="1649" y="-486.8" font-family="Times,serif" font-size="14.00">TESTS</text>
</g>
<!-- provider -->
<g id="node1" class="node">
<title>provider</title>
<ellipse fill="none" stroke="red" cx="1268" cy="-819" rx="40.09" ry="18"/>
<text text-anchor="middle" x="1268" y="-815.3" font-family="Times,serif" font-size="14.00" fill="red">provider</text>
</g>
<!-- video_encoder -->
<g id="node26" class="node">
<title>video_encoder</title>
<ellipse fill="none" stroke="black" cx="1518" cy="-891" rx="62.29" ry="18"/>
<text text-anchor="middle" x="1518" y="-887.3" font-family="Times,serif" font-size="14.00">video_encoder</text>
</g>
<!-- provider&#45;&gt;video_encoder -->
<g id="edge32" class="edge">
<title>provider&#45;&gt;video_encoder</title>
<path fill="none" stroke="black" d="M1298.97,-830.52C1312.97,-835.15 1329.75,-840.55 1345,-845 1383.91,-856.37 1428.14,-867.85 1462.15,-876.37"/>
<polygon fill="black" stroke="black" points="1461.35,-879.78 1471.9,-878.8 1463.05,-872.98 1461.35,-879.78"/>
</g>
<!-- basic_provider -->
<g id="node2" class="node">
<title>basic_provider</title>
<ellipse fill="none" stroke="blue" cx="1243" cy="-747" rx="63.09" ry="18"/>
<text text-anchor="middle" x="1243" y="-743.3" font-family="Times,serif" font-size="14.00" fill="blue">basic_provider</text>
</g>
<!-- basic_provider&#45;&gt;provider -->
<g id="edge1" class="edge">
<title>basic_provider&#45;&gt;provider</title>
<path fill="none" stroke="blue" d="M1249.05,-764.95C1251.87,-772.82 1255.28,-782.38 1258.43,-791.21"/>
<polygon fill="blue" stroke="blue" points="1255.17,-792.48 1261.83,-800.72 1261.76,-790.13 1255.17,-792.48"/>
</g>
<!-- basic_block_container -->
<g id="node3" class="node">
<title>basic_block_container</title>
<ellipse fill="none" stroke="black" cx="1243" cy="-528" rx="89.88" ry="18"/>
<text text-anchor="middle" x="1243" y="-524.3" font-family="Times,serif" font-size="14.00">basic_block_container</text>
</g>
<!-- basic_block_container&#45;&gt;basic_provider -->
<g id="edge2" class="edge">
<title>basic_block_container&#45;&gt;basic_provider</title>
<path fill="none" stroke="black" d="M1243,-546.03C1243,-583.49 1243,-673.32 1243,-718.74"/>
<polygon fill="black" stroke="black" points="1239.5,-718.75 1243,-728.75 1246.5,-718.75 1239.5,-718.75"/>
</g>
<!-- raw_ip_length_reader -->
<g id="node7" class="node">
<title>raw_ip_length_reader</title>
<ellipse fill="none" stroke="blue" cx="1135" cy="-600" rx="87.99" ry="18"/>
<text text-anchor="middle" x="1135" y="-596.3" font-family="Times,serif" font-size="14.00" fill="blue">raw_ip_length_reader</text>
</g>
<!-- basic_block_container&#45;&gt;raw_ip_length_reader -->
<g id="edge9" class="edge">
<title>basic_block_container&#45;&gt;raw_ip_length_reader</title>
<path fill="none" stroke="black" d="M1217.68,-545.41C1203.05,-554.89 1184.48,-566.93 1168.64,-577.2"/>
<polygon fill="black" stroke="black" points="1166.65,-574.31 1160.16,-582.69 1170.46,-580.19 1166.65,-574.31"/>
</g>
<!-- basic_block_test -->
<g id="node37" class="node">
<title>basic_block_test</title>
<ellipse fill="none" stroke="black" cx="1763" cy="-600" rx="69.59" ry="18"/>
<text text-anchor="middle" x="1763" y="-596.3" font-family="Times,serif" font-size="14.00">basic_block_test</text>
</g>
<!-- basic_block_container&#45;&gt;basic_block_test -->
<g id="edge56" class="edge">
<title>basic_block_container&#45;&gt;basic_block_test</title>
<path fill="none" stroke="black" d="M1308.21,-540.46C1320.42,-542.44 1333.08,-544.38 1345,-546 1495.13,-566.46 1534.39,-558.03 1684,-582 1690.18,-582.99 1696.61,-584.15 1703.01,-585.4"/>
<polygon fill="black" stroke="black" points="1702.51,-588.86 1713,-587.4 1703.89,-582 1702.51,-588.86"/>
</g>
<!-- basic_block_pointer -->
<g id="node4" class="node">
<title>basic_block_pointer</title>
<ellipse fill="none" stroke="black" cx="1251" cy="-453" rx="81.79" ry="18"/>
<text text-anchor="middle" x="1251" y="-449.3" font-family="Times,serif" font-size="14.00">basic_block_pointer</text>
</g>
<!-- basic_block_pointer&#45;&gt;basic_block_container -->
<g id="edge3" class="edge">
<title>basic_block_pointer&#45;&gt;basic_block_container</title>
<path fill="none" stroke="black" d="M1249.1,-471.3C1248.18,-479.75 1247.04,-490.13 1246,-499.63"/>
<polygon fill="black" stroke="black" points="1242.49,-499.5 1244.88,-509.82 1249.45,-500.27 1242.49,-499.5"/>
</g>
<!-- basic_block_pointer&#45;&gt;basic_block_test -->
<g id="edge57" class="edge">
<title>basic_block_pointer&#45;&gt;basic_block_test</title>
<path fill="none" stroke="black" d="M1326.13,-460.27C1368.14,-463.68 1421.46,-467.83 1469,-471 1500.98,-473.13 1583.06,-467.56 1613,-479 1640.8,-489.63 1702.76,-543.78 1737.73,-575.59"/>
<polygon fill="black" stroke="black" points="1735.43,-578.23 1745.17,-582.39 1740.15,-573.06 1735.43,-578.23"/>
</g>
<!-- basic_block_pointer_proxy -->
<g id="node5" class="node">
<title>basic_block_pointer_proxy</title>
<ellipse fill="none" stroke="black" cx="1226" cy="-381" rx="106.68" ry="18"/>
<text text-anchor="middle" x="1226" y="-377.3" font-family="Times,serif" font-size="14.00">basic_block_pointer_proxy</text>
</g>
<!-- basic_block_pointer_proxy&#45;&gt;basic_block_container -->
<g id="edge5" class="edge">
<title>basic_block_pointer_proxy&#45;&gt;basic_block_container</title>
<path fill="none" stroke="black" d="M1157.22,-394.76C1099.1,-408.47 1030.26,-433.47 1064,-471 1075.21,-483.46 1122.84,-474.54 1139,-479 1161.9,-485.32 1186.07,-496.19 1205.34,-505.99"/>
<polygon fill="black" stroke="black" points="1203.9,-509.19 1214.38,-510.7 1207.13,-502.98 1203.9,-509.19"/>
</g>
<!-- basic_block_pointer_proxy&#45;&gt;basic_block_pointer -->
<g id="edge4" class="edge">
<title>basic_block_pointer_proxy&#45;&gt;basic_block_pointer</title>
<path fill="none" stroke="black" d="M1232.18,-399.3C1235,-407.19 1238.39,-416.7 1241.52,-425.45"/>
<polygon fill="black" stroke="black" points="1238.23,-426.66 1244.89,-434.9 1244.82,-424.3 1238.23,-426.66"/>
</g>
<!-- basic_block_pointer_proxy&#45;&gt;basic_block_test -->
<g id="edge55" class="edge">
<title>basic_block_pointer_proxy&#45;&gt;basic_block_test</title>
<path fill="none" stroke="black" d="M1309.83,-392.16C1422.2,-407.14 1614.15,-437.86 1671,-479 1705.63,-504.05 1733.42,-545.77 1749.07,-572.83"/>
<polygon fill="black" stroke="black" points="1746.13,-574.74 1754.09,-581.74 1752.23,-571.31 1746.13,-574.74"/>
</g>
<!-- data_length_reader -->
<g id="node6" class="node">
<title>data_length_reader</title>
<ellipse fill="none" stroke="red" cx="1140" cy="-672" rx="77.99" ry="18"/>
<text text-anchor="middle" x="1140" y="-668.3" font-family="Times,serif" font-size="14.00" fill="red">data_length_reader</text>
</g>
<!-- data_length_reader&#45;&gt;basic_provider -->
<g id="edge8" class="edge">
<title>data_length_reader&#45;&gt;basic_provider</title>
<path fill="none" stroke="black" d="M1163.12,-689.38C1177.53,-699.6 1196.25,-712.87 1211.95,-724"/>
<polygon fill="black" stroke="black" points="1210.13,-727 1220.32,-729.92 1214.18,-721.29 1210.13,-727"/>
</g>
<!-- raw_ip_length_reader&#45;&gt;data_length_reader -->
<g id="edge7" class="edge">
<title>raw_ip_length_reader&#45;&gt;data_length_reader</title>
<path fill="none" stroke="blue" d="M1136.24,-618.3C1136.79,-626.02 1137.45,-635.29 1138.06,-643.89"/>
<polygon fill="blue" stroke="blue" points="1134.57,-644.17 1138.78,-653.9 1141.56,-643.67 1134.57,-644.17"/>
</g>
<!-- bit_area -->
<g id="node8" class="node">
<title>bit_area</title>
<ellipse fill="none" stroke="black" cx="1112" cy="-453" rx="38.99" ry="18"/>
<text text-anchor="middle" x="1112" y="-449.3" font-family="Times,serif" font-size="14.00">bit_area</text>
</g>
<!-- bit_area&#45;&gt;basic_block_container -->
<g id="edge6" class="edge">
<title>bit_area&#45;&gt;basic_block_container</title>
<path fill="none" stroke="black" d="M1136.03,-467.39C1155.37,-478.17 1182.92,-493.52 1205.21,-505.94"/>
<polygon fill="black" stroke="black" points="1203.66,-509.08 1214.09,-510.89 1207.06,-502.97 1203.66,-509.08"/>
</g>
<!-- video_pipe_config -->
<g id="node9" class="node">
<title>video_pipe_config</title>
<ellipse fill="none" stroke="black" cx="645" cy="-309" rx="76.89" ry="18"/>
<text text-anchor="middle" x="645" y="-305.3" font-family="Times,serif" font-size="14.00">video_pipe_config</text>
</g>
<!-- video_pipe -->
<g id="node10" class="node">
<title>video_pipe</title>
<ellipse fill="none" stroke="purple" cx="679" cy="-381" rx="50.09" ry="18"/>
<text text-anchor="middle" x="679" y="-377.3" font-family="Times,serif" font-size="14.00" fill="purple">video_pipe</text>
</g>
<!-- video_pipe_config&#45;&gt;video_pipe -->
<g id="edge16" class="edge">
<title>video_pipe_config&#45;&gt;video_pipe</title>
<path fill="none" stroke="black" d="M653.23,-326.95C657.2,-335.11 662.04,-345.09 666.46,-354.18"/>
<polygon fill="black" stroke="black" points="663.33,-355.75 670.85,-363.21 669.62,-352.69 663.33,-355.75"/>
</g>
<!-- readonly_video_pipe -->
<g id="node11" class="node">
<title>readonly_video_pipe</title>
<ellipse fill="none" stroke="purple" cx="731" cy="-453" rx="85.29" ry="18"/>
<text text-anchor="middle" x="731" y="-449.3" font-family="Times,serif" font-size="14.00" fill="purple">readonly_video_pipe</text>
</g>
<!-- video_pipe_config&#45;&gt;readonly_video_pipe -->
<g id="edge17" class="edge">
<title>video_pipe_config&#45;&gt;readonly_video_pipe</title>
<path fill="none" stroke="black" d="M689.27,-323.92C707.75,-332.17 727.36,-344.68 738,-363 748.91,-381.77 745.78,-406.64 740.72,-425.32"/>
<polygon fill="black" stroke="black" points="737.34,-424.4 737.78,-434.98 744.04,-426.43 737.34,-424.4"/>
</g>
<!-- linux_tcp_readonly_video_pipe -->
<g id="node13" class="node">
<title>linux_tcp_readonly_video_pipe</title>
<ellipse fill="none" stroke="blue" cx="703" cy="-528" rx="122.38" ry="18"/>
<text text-anchor="middle" x="703" y="-524.3" font-family="Times,serif" font-size="14.00" fill="blue">linux_tcp_readonly_video_pipe</text>
</g>
<!-- video_pipe_config&#45;&gt;linux_tcp_readonly_video_pipe -->
<g id="edge18" class="edge">
<title>video_pipe_config&#45;&gt;linux_tcp_readonly_video_pipe</title>
<path fill="none" stroke="black" d="M634.63,-326.97C629.1,-337.04 622.85,-350.29 620,-363 609.38,-410.42 611.62,-429.56 637,-471 644.83,-483.79 656.58,-495.11 668.01,-504.18"/>
<polygon fill="black" stroke="black" points="666.12,-507.14 676.22,-510.36 670.34,-501.55 666.12,-507.14"/>
</g>
<!-- linux_tcp_writeonly_video_pipe -->
<g id="node14" class="node">
<title>linux_tcp_writeonly_video_pipe</title>
<ellipse fill="none" stroke="blue" cx="141" cy="-528" rx="125.38" ry="18"/>
<text text-anchor="middle" x="141" y="-524.3" font-family="Times,serif" font-size="14.00" fill="blue">linux_tcp_writeonly_video_pipe</text>
</g>
<!-- video_pipe_config&#45;&gt;linux_tcp_writeonly_video_pipe -->
<g id="edge19" class="edge">
<title>video_pipe_config&#45;&gt;linux_tcp_writeonly_video_pipe</title>
<path fill="none" stroke="black" d="M585.77,-320.63C542.98,-329.34 484.27,-343.43 435,-363 335.38,-402.56 227.61,-469.6 174.5,-504.45"/>
<polygon fill="black" stroke="black" points="172.26,-501.74 165.84,-510.17 176.11,-507.58 172.26,-501.74"/>
</g>
<!-- windows_tcp_readonly_video_pipe -->
<g id="node15" class="node">
<title>windows_tcp_readonly_video_pipe</title>
<ellipse fill="none" stroke="blue" cx="979" cy="-528" rx="135.68" ry="18"/>
<text text-anchor="middle" x="979" y="-524.3" font-family="Times,serif" font-size="14.00" fill="blue">windows_tcp_readonly_video_pipe</text>
</g>
<!-- video_pipe_config&#45;&gt;windows_tcp_readonly_video_pipe -->
<g id="edge20" class="edge">
<title>video_pipe_config&#45;&gt;windows_tcp_readonly_video_pipe</title>
<path fill="none" stroke="black" d="M677.32,-325.38C697.69,-335.42 724.33,-349.19 747,-363 822.42,-408.96 905.84,-470.86 949.17,-503.92"/>
<polygon fill="black" stroke="black" points="947.22,-506.83 957.28,-510.13 951.47,-501.27 947.22,-506.83"/>
</g>
<!-- windows_tcp_writeonly_video_pipe -->
<g id="node16" class="node">
<title>windows_tcp_writeonly_video_pipe</title>
<ellipse fill="none" stroke="blue" cx="424" cy="-528" rx="139.18" ry="18"/>
<text text-anchor="middle" x="424" y="-524.3" font-family="Times,serif" font-size="14.00" fill="blue">windows_tcp_writeonly_video_pipe</text>
</g>
<!-- video_pipe_config&#45;&gt;windows_tcp_writeonly_video_pipe -->
<g id="edge21" class="edge">
<title>video_pipe_config&#45;&gt;windows_tcp_writeonly_video_pipe</title>
<path fill="none" stroke="black" d="M589.47,-321.51C532.14,-336.69 445.65,-369.51 406,-435 393.96,-454.89 400.96,-481.23 409.5,-500.63"/>
<polygon fill="black" stroke="black" points="406.42,-502.29 413.88,-509.8 412.73,-499.27 406.42,-502.29"/>
</g>
<!-- video_pipe&#45;&gt;readonly_video_pipe -->
<g id="edge15" class="edge">
<title>video_pipe&#45;&gt;readonly_video_pipe</title>
<path fill="none" stroke="black" d="M691.32,-398.59C697.58,-407.01 705.31,-417.42 712.28,-426.8"/>
<polygon fill="black" stroke="black" points="709.63,-429.1 718.4,-435.04 715.25,-424.93 709.63,-429.1"/>
</g>
<!-- writeonly_video_pipe -->
<g id="node12" class="node">
<title>writeonly_video_pipe</title>
<ellipse fill="none" stroke="purple" cx="503" cy="-453" rx="87.99" ry="18"/>
<text text-anchor="middle" x="503" y="-449.3" font-family="Times,serif" font-size="14.00" fill="purple">writeonly_video_pipe</text>
</g>
<!-- video_pipe&#45;&gt;writeonly_video_pipe -->
<g id="edge14" class="edge">
<title>video_pipe&#45;&gt;writeonly_video_pipe</title>
<path fill="none" stroke="black" d="M646.72,-394.84C619.94,-405.49 581.48,-420.79 551.08,-432.88"/>
<polygon fill="black" stroke="black" points="549.52,-429.73 541.52,-436.68 552.1,-436.24 549.52,-429.73"/>
</g>
<!-- readonly_video_pipe&#45;&gt;linux_tcp_readonly_video_pipe -->
<g id="edge13" class="edge">
<title>readonly_video_pipe&#45;&gt;linux_tcp_readonly_video_pipe</title>
<path fill="none" stroke="black" d="M724.36,-471.3C721.05,-479.94 716.97,-490.58 713.26,-500.24"/>
<polygon fill="black" stroke="black" points="709.9,-499.23 709.59,-509.82 716.44,-501.74 709.9,-499.23"/>
</g>
<!-- readonly_video_pipe&#45;&gt;windows_tcp_readonly_video_pipe -->
<g id="edge11" class="edge">
<title>readonly_video_pipe&#45;&gt;windows_tcp_readonly_video_pipe</title>
<path fill="none" stroke="black" d="M786.81,-466.67C802.17,-470.39 818.79,-474.64 834,-479 864.08,-487.61 897.24,-498.49 924.25,-507.7"/>
<polygon fill="black" stroke="black" points="923.31,-511.08 933.9,-511.02 925.58,-504.46 923.31,-511.08"/>
</g>
<!-- writeonly_video_pipe&#45;&gt;linux_tcp_writeonly_video_pipe -->
<g id="edge12" class="edge">
<title>writeonly_video_pipe&#45;&gt;linux_tcp_writeonly_video_pipe</title>
<path fill="none" stroke="black" d="M419.48,-458.55C376.25,-462.07 322.85,-468.24 276,-479 246.23,-485.84 213.95,-497.16 188.42,-507.09"/>
<polygon fill="black" stroke="black" points="187.01,-503.89 178.99,-510.82 189.58,-510.4 187.01,-503.89"/>
</g>
<!-- writeonly_video_pipe&#45;&gt;windows_tcp_writeonly_video_pipe -->
<g id="edge10" class="edge">
<title>writeonly_video_pipe&#45;&gt;windows_tcp_writeonly_video_pipe</title>
<path fill="none" stroke="black" d="M484.68,-470.93C474.38,-480.44 461.36,-492.48 450.02,-502.95"/>
<polygon fill="black" stroke="black" points="447.47,-500.55 442.5,-509.91 452.22,-505.69 447.47,-500.55"/>
</g>
<!-- basic_block_config -->
<g id="node17" class="node">
<title>basic_block_config</title>
<ellipse fill="none" stroke="black" cx="1034" cy="-309" rx="79.09" ry="18"/>
<text text-anchor="middle" x="1034" y="-305.3" font-family="Times,serif" font-size="14.00">basic_block_config</text>
</g>
<!-- basic_block_config&#45;&gt;basic_block_container -->
<g id="edge22" class="edge">
<title>basic_block_config&#45;&gt;basic_block_container</title>
<path fill="none" stroke="black" d="M1029.8,-327.03C1022.79,-360.04 1013.04,-432.8 1052,-471 1065.86,-484.59 1120.25,-473.97 1139,-479 1162.11,-485.2 1186.47,-496.17 1205.8,-506.06"/>
<polygon fill="black" stroke="black" points="1204.37,-509.27 1214.85,-510.81 1207.62,-503.07 1204.37,-509.27"/>
</g>
<!-- basic_block_config&#45;&gt;basic_block_pointer -->
<g id="edge23" class="edge">
<title>basic_block_config&#45;&gt;basic_block_pointer</title>
<path fill="none" stroke="black" d="M1042.82,-327.15C1053.88,-347.08 1074.64,-379.68 1101,-399 1125.3,-416.82 1156.14,-429.07 1183.52,-437.27"/>
<polygon fill="black" stroke="black" points="1182.85,-440.72 1193.43,-440.11 1184.78,-433.99 1182.85,-440.72"/>
</g>
<!-- basic_block_config&#45;&gt;basic_block_pointer_proxy -->
<g id="edge24" class="edge">
<title>basic_block_config&#45;&gt;basic_block_pointer_proxy</title>
<path fill="none" stroke="black" d="M1074.25,-324.67C1103.15,-335.21 1142.36,-349.51 1173.69,-360.93"/>
<polygon fill="black" stroke="black" points="1172.54,-364.24 1183.14,-364.37 1174.94,-357.66 1172.54,-364.24"/>
</g>
<!-- basic_block_config&#45;&gt;raw_ip_length_reader -->
<g id="edge25" class="edge">
<title>basic_block_config&#45;&gt;raw_ip_length_reader</title>
<path fill="none" stroke="black" d="M1026.27,-327.1C1012.61,-360.21 989.11,-433.16 1028,-471 1043.34,-485.93 1108.8,-463.93 1124,-479 1136.62,-491.52 1137.33,-540.31 1136.39,-571.69"/>
<polygon fill="black" stroke="black" points="1132.88,-571.85 1136,-581.98 1139.87,-572.11 1132.88,-571.85"/>
</g>
<!-- rect -->
<g id="node18" class="node">
<title>rect</title>
<ellipse fill="none" stroke="black" cx="1158" cy="-309" rx="27" ry="18"/>
<text text-anchor="middle" x="1158" y="-305.3" font-family="Times,serif" font-size="14.00">rect</text>
</g>
<!-- rect&#45;&gt;basic_block_pointer -->
<g id="edge27" class="edge">
<title>rect&#45;&gt;basic_block_pointer</title>
<path fill="none" stroke="black" d="M1141.37,-323.51C1121.36,-341.43 1092.51,-373.74 1110,-399 1119.65,-412.94 1155.72,-426.36 1188.95,-436.21"/>
<polygon fill="black" stroke="black" points="1188.1,-439.61 1198.68,-439.02 1190.05,-432.88 1188.1,-439.61"/>
</g>
<!-- rect&#45;&gt;basic_block_pointer_proxy -->
<g id="edge26" class="edge">
<title>rect&#45;&gt;basic_block_pointer_proxy</title>
<path fill="none" stroke="black" d="M1172.09,-324.5C1180.85,-333.53 1192.35,-345.36 1202.47,-355.77"/>
<polygon fill="black" stroke="black" points="1200.06,-358.32 1209.53,-363.05 1205.08,-353.44 1200.06,-358.32"/>
</g>
<!-- rgb_index -->
<g id="node19" class="node">
<title>rgb_index</title>
<ellipse fill="none" stroke="black" cx="1249" cy="-309" rx="46.29" ry="18"/>
<text text-anchor="middle" x="1249" y="-305.3" font-family="Times,serif" font-size="14.00">rgb_index</text>
</g>
<!-- rgb_index&#45;&gt;basic_block_pointer_proxy -->
<g id="edge28" class="edge">
<title>rgb_index&#45;&gt;basic_block_pointer_proxy</title>
<path fill="none" stroke="black" d="M1243.43,-326.95C1240.84,-334.82 1237.7,-344.38 1234.8,-353.21"/>
<polygon fill="black" stroke="black" points="1231.47,-352.13 1231.68,-362.72 1238.12,-354.32 1231.47,-352.13"/>
</g>
<!-- compressor -->
<g id="node20" class="node">
<title>compressor</title>
<ellipse fill="none" stroke="red" cx="1440" cy="-819" rx="51.99" ry="18"/>
<text text-anchor="middle" x="1440" y="-815.3" font-family="Times,serif" font-size="14.00" fill="red">compressor</text>
</g>
<!-- compressor&#45;&gt;video_encoder -->
<g id="edge33" class="edge">
<title>compressor&#45;&gt;video_encoder</title>
<path fill="none" stroke="black" d="M1458.09,-836.24C1468.16,-845.27 1480.87,-856.67 1491.98,-866.65"/>
<polygon fill="black" stroke="black" points="1489.96,-869.54 1499.74,-873.61 1494.63,-864.33 1489.96,-869.54"/>
</g>
<!-- none_compressor -->
<g id="node21" class="node">
<title>none_compressor</title>
<ellipse fill="none" stroke="blue" cx="1430" cy="-747" rx="73.39" ry="18"/>
<text text-anchor="middle" x="1430" y="-743.3" font-family="Times,serif" font-size="14.00" fill="blue">none_compressor</text>
</g>
<!-- none_compressor&#45;&gt;compressor -->
<g id="edge29" class="edge">
<title>none_compressor&#45;&gt;compressor</title>
<path fill="none" stroke="blue" d="M1432.47,-765.3C1433.57,-773.02 1434.9,-782.29 1436.13,-790.89"/>
<polygon fill="blue" stroke="blue" points="1432.68,-791.49 1437.56,-800.9 1439.61,-790.5 1432.68,-791.49"/>
</g>
<!-- obfuscator -->
<g id="node22" class="node">
<title>obfuscator</title>
<ellipse fill="none" stroke="red" cx="1586" cy="-819" rx="48.19" ry="18"/>
<text text-anchor="middle" x="1586" y="-815.3" font-family="Times,serif" font-size="14.00" fill="red">obfuscator</text>
</g>
<!-- obfuscator&#45;&gt;video_encoder -->
<g id="edge34" class="edge">
<title>obfuscator&#45;&gt;video_encoder</title>
<path fill="none" stroke="black" d="M1570.23,-836.24C1561.6,-845.12 1550.75,-856.29 1541.17,-866.15"/>
<polygon fill="black" stroke="black" points="1538.62,-863.76 1534.16,-873.37 1543.64,-868.63 1538.62,-863.76"/>
</g>
<!-- none_obfuscator -->
<g id="node23" class="node">
<title>none_obfuscator</title>
<ellipse fill="none" stroke="blue" cx="1597" cy="-747" rx="69.59" ry="18"/>
<text text-anchor="middle" x="1597" y="-743.3" font-family="Times,serif" font-size="14.00" fill="blue">none_obfuscator</text>
</g>
<!-- none_obfuscator&#45;&gt;obfuscator -->
<g id="edge30" class="edge">
<title>none_obfuscator&#45;&gt;obfuscator</title>
<path fill="none" stroke="blue" d="M1594.28,-765.3C1593.07,-773.02 1591.61,-782.29 1590.26,-790.89"/>
<polygon fill="blue" stroke="blue" points="1586.78,-790.47 1588.69,-800.9 1593.7,-791.56 1586.78,-790.47"/>
</g>
<!-- corrector -->
<g id="node24" class="node">
<title>corrector</title>
<ellipse fill="none" stroke="red" cx="1744" cy="-819" rx="42.49" ry="18"/>
<text text-anchor="middle" x="1744" y="-815.3" font-family="Times,serif" font-size="14.00" fill="red">corrector</text>
</g>
<!-- corrector&#45;&gt;video_encoder -->
<g id="edge35" class="edge">
<title>corrector&#45;&gt;video_encoder</title>
<path fill="none" stroke="black" d="M1714.44,-832.05C1703.4,-836.37 1690.71,-841.12 1679,-845 1644.2,-856.53 1604.54,-867.64 1573.29,-875.93"/>
<polygon fill="black" stroke="black" points="1572.23,-872.59 1563.45,-878.52 1574.02,-879.36 1572.23,-872.59"/>
</g>
<!-- none_corrector -->
<g id="node25" class="node">
<title>none_corrector</title>
<ellipse fill="none" stroke="blue" cx="1755" cy="-747" rx="63.89" ry="18"/>
<text text-anchor="middle" x="1755" y="-743.3" font-family="Times,serif" font-size="14.00" fill="blue">none_corrector</text>
</g>
<!-- none_corrector&#45;&gt;corrector -->
<g id="edge31" class="edge">
<title>none_corrector&#45;&gt;corrector</title>
<path fill="none" stroke="blue" d="M1752.28,-765.3C1751.07,-773.02 1749.61,-782.29 1748.26,-790.89"/>
<polygon fill="blue" stroke="blue" points="1744.78,-790.47 1746.69,-800.9 1751.7,-791.56 1744.78,-790.47"/>
</g>
<!-- color -->
<g id="node27" class="node">
<title>color</title>
<ellipse fill="none" stroke="black" cx="1687" cy="-90" rx="28.7" ry="18"/>
<text text-anchor="middle" x="1687" y="-86.3" font-family="Times,serif" font-size="14.00">color</text>
</g>
<!-- color&#45;&gt;basic_block_pointer -->
<g id="edge37" class="edge">
<title>color&#45;&gt;basic_block_pointer</title>
<path fill="none" stroke="black" d="M1694.51,-107.66C1705.58,-133.8 1725,-186.3 1725,-233 1725,-233 1725,-233 1725,-310 1725,-390.46 1471.23,-429.2 1335.06,-444.19"/>
<polygon fill="black" stroke="black" points="1334.63,-440.72 1325.06,-445.28 1335.38,-447.68 1334.63,-440.72"/>
</g>
<!-- color&#45;&gt;basic_block_pointer_proxy -->
<g id="edge36" class="edge">
<title>color&#45;&gt;basic_block_pointer_proxy</title>
<path fill="none" stroke="black" d="M1686.9,-108.11C1686.03,-127.11 1682.29,-158 1668,-180 1607.52,-273.12 1567.24,-281.4 1466,-327 1420.34,-347.57 1366.09,-360.42 1320.74,-368.3"/>
<polygon fill="black" stroke="black" points="1319.89,-364.9 1310.61,-370.01 1321.05,-371.8 1319.89,-364.9"/>
</g>
<!-- hsv_codec -->
<g id="node31" class="node">
<title>hsv_codec</title>
<ellipse fill="none" stroke="blue" cx="1258" cy="-162" rx="48.19" ry="18"/>
<text text-anchor="middle" x="1258" y="-158.3" font-family="Times,serif" font-size="14.00" fill="blue">hsv_codec</text>
</g>
<!-- color&#45;&gt;hsv_codec -->
<g id="edge39" class="edge">
<title>color&#45;&gt;hsv_codec</title>
<path fill="none" stroke="black" d="M1658.75,-93.58C1596.26,-99.6 1441.81,-116.22 1315,-144 1311.08,-144.86 1307.04,-145.85 1303.01,-146.91"/>
<polygon fill="black" stroke="black" points="1301.77,-143.62 1293.06,-149.66 1303.63,-150.37 1301.77,-143.62"/>
</g>
<!-- rgb_palette_codec -->
<g id="node33" class="node">
<title>rgb_palette_codec</title>
<ellipse fill="none" stroke="blue" cx="1584" cy="-162" rx="75.29" ry="18"/>
<text text-anchor="middle" x="1584" y="-158.3" font-family="Times,serif" font-size="14.00" fill="blue">rgb_palette_codec</text>
</g>
<!-- color&#45;&gt;rgb_palette_codec -->
<g id="edge38" class="edge">
<title>color&#45;&gt;rgb_palette_codec</title>
<path fill="none" stroke="black" d="M1668.11,-103.84C1653.67,-113.65 1633.41,-127.42 1616.4,-138.98"/>
<polygon fill="black" stroke="black" points="1614.15,-136.28 1607.85,-144.79 1618.09,-142.07 1614.15,-136.28"/>
</g>
<!-- color_test -->
<g id="node36" class="node">
<title>color_test</title>
<ellipse fill="none" stroke="black" cx="1896" cy="-600" rx="45.49" ry="18"/>
<text text-anchor="middle" x="1896" y="-596.3" font-family="Times,serif" font-size="14.00">color_test</text>
</g>
<!-- color&#45;&gt;color_test -->
<g id="edge53" class="edge">
<title>color&#45;&gt;color_test</title>
<path fill="none" stroke="black" d="M1711.45,-99.5C1756.49,-116.89 1848,-161.07 1848,-233 1848,-233 1848,-233 1848,-454 1848,-497.41 1867.63,-544.59 1881.78,-572.97"/>
<polygon fill="black" stroke="black" points="1878.83,-574.9 1886.52,-582.19 1885.06,-571.7 1878.83,-574.9"/>
</g>
<!-- color&#45;&gt;basic_block_test -->
<g id="edge52" class="edge">
<title>color&#45;&gt;basic_block_test</title>
<path fill="none" stroke="black" d="M1701.3,-105.77C1723.31,-130.15 1763,-181.27 1763,-233 1763,-233 1763,-233 1763,-454 1763,-494.85 1763,-542.17 1763,-571.35"/>
<polygon fill="black" stroke="black" points="1759.5,-571.59 1763,-581.59 1766.5,-571.59 1759.5,-571.59"/>
</g>
<!-- status_error -->
<g id="node28" class="node">
<title>status_error</title>
<ellipse fill="none" stroke="black" cx="1434" cy="-18" rx="51.99" ry="18"/>
<text text-anchor="middle" x="1434" y="-14.3" font-family="Times,serif" font-size="14.00">status_error</text>
</g>
<!-- status_error&#45;&gt;color -->
<g id="edge40" class="edge">
<title>status_error&#45;&gt;color</title>
<path fill="none" stroke="black" d="M1473.25,-29.86C1522,-43.35 1604.45,-66.16 1651.43,-79.16"/>
<polygon fill="black" stroke="black" points="1650.6,-82.56 1661.17,-81.85 1652.46,-75.81 1650.6,-82.56"/>
</g>
<!-- color_codec -->
<g id="node30" class="node">
<title>color_codec</title>
<ellipse fill="none" stroke="purple" cx="1403" cy="-309" rx="53.89" ry="18"/>
<text text-anchor="middle" x="1403" y="-305.3" font-family="Times,serif" font-size="14.00" fill="purple">color_codec</text>
</g>
<!-- status_error&#45;&gt;color_codec -->
<g id="edge41" class="edge">
<title>status_error&#45;&gt;color_codec</title>
<path fill="none" stroke="black" d="M1390.7,-28.04C1335.45,-42.15 1242.13,-75.26 1201,-144 1192.78,-157.73 1193.71,-165.76 1201,-180 1225.97,-228.74 1250.6,-230.58 1301,-252 1319.29,-259.78 1326.98,-251.61 1345,-260 1357.9,-266.01 1370.32,-275.59 1380.34,-284.61"/>
<polygon fill="black" stroke="black" points="1378.14,-287.35 1387.81,-291.66 1382.93,-282.25 1378.14,-287.35"/>
</g>
<!-- math -->
<g id="node29" class="node">
<title>math</title>
<ellipse fill="none" stroke="black" cx="1507" cy="-453" rx="28.7" ry="18"/>
<text text-anchor="middle" x="1507" y="-449.3" font-family="Times,serif" font-size="14.00">math</text>
</g>
<!-- math&#45;&gt;basic_block_container -->
<g id="edge42" class="edge">
<title>math&#45;&gt;basic_block_container</title>
<path fill="none" stroke="black" d="M1478.65,-455.9C1445.87,-458.67 1390.59,-465.07 1345,-479 1322.9,-485.75 1299.5,-496.48 1280.68,-506.09"/>
<polygon fill="black" stroke="black" points="1278.82,-503.11 1271.57,-510.84 1282.06,-509.32 1278.82,-503.11"/>
</g>
<!-- math_test -->
<g id="node39" class="node">
<title>math_test</title>
<ellipse fill="none" stroke="black" cx="1630" cy="-600" rx="45.49" ry="18"/>
<text text-anchor="middle" x="1630" y="-596.3" font-family="Times,serif" font-size="14.00">math_test</text>
</g>
<!-- math&#45;&gt;math_test -->
<g id="edge54" class="edge">
<title>math&#45;&gt;math_test</title>
<path fill="none" stroke="black" d="M1534.95,-457.03C1562.72,-460.64 1602.64,-467.65 1613,-479 1635.79,-503.97 1636.67,-544.86 1634.17,-571.86"/>
<polygon fill="black" stroke="black" points="1630.69,-571.47 1633.03,-581.81 1637.64,-572.27 1630.69,-571.47"/>
</g>
<!-- color_codec&#45;&gt;basic_block_pointer_proxy -->
<g id="edge43" class="edge">
<title>color_codec&#45;&gt;basic_block_pointer_proxy</title>
<path fill="none" stroke="black" d="M1369.71,-323.17C1343.14,-333.67 1305.52,-348.55 1275.44,-360.45"/>
<polygon fill="black" stroke="black" points="1273.97,-357.26 1265.96,-364.2 1276.55,-363.77 1273.97,-357.26"/>
</g>
<!-- hsv_codec&#45;&gt;color_codec -->
<g id="edge44" class="edge">
<title>hsv_codec&#45;&gt;color_codec</title>
<path fill="none" stroke="blue" d="M1271.81,-179.26C1287.53,-197.5 1314.24,-227.72 1339,-252 1350.73,-263.51 1364.36,-275.59 1376.02,-285.58"/>
<polygon fill="blue" stroke="blue" points="1373.84,-288.32 1383.73,-292.13 1378.37,-282.99 1373.84,-288.32"/>
</g>
<!-- palette_codec -->
<g id="node32" class="node">
<title>palette_codec</title>
<ellipse fill="none" stroke="purple" cx="1407" cy="-234" rx="59.29" ry="18"/>
<text text-anchor="middle" x="1407" y="-230.3" font-family="Times,serif" font-size="14.00" fill="purple">palette_codec</text>
</g>
<!-- palette_codec&#45;&gt;color_codec -->
<g id="edge45" class="edge">
<title>palette_codec&#45;&gt;color_codec</title>
<path fill="none" stroke="purple" d="M1406.05,-252.3C1405.59,-260.75 1405.02,-271.13 1404.5,-280.63"/>
<polygon fill="purple" stroke="purple" points="1400.99,-280.65 1403.94,-290.82 1407.98,-281.03 1400.99,-280.65"/>
</g>
<!-- rgb_palette_codec&#45;&gt;palette_codec -->
<g id="edge46" class="edge">
<title>rgb_palette_codec&#45;&gt;palette_codec</title>
<path fill="none" stroke="blue" d="M1546.89,-177.67C1519.03,-188.7 1480.75,-203.83 1451.28,-215.49"/>
<polygon fill="blue" stroke="blue" points="1449.66,-212.36 1441.65,-219.3 1452.24,-218.87 1449.66,-212.36"/>
</g>
<!-- ycbcr_palette_codec -->
<g id="node34" class="node">
<title>ycbcr_palette_codec</title>
<ellipse fill="none" stroke="blue" cx="1407" cy="-162" rx="83.39" ry="18"/>
<text text-anchor="middle" x="1407" y="-158.3" font-family="Times,serif" font-size="14.00" fill="blue">ycbcr_palette_codec</text>
</g>
<!-- ycbcr_palette_codec&#45;&gt;palette_codec -->
<g id="edge47" class="edge">
<title>ycbcr_palette_codec&#45;&gt;palette_codec</title>
<path fill="none" stroke="blue" d="M1407,-180.3C1407,-188.02 1407,-197.29 1407,-205.89"/>
<polygon fill="blue" stroke="blue" points="1403.5,-205.9 1407,-215.9 1410.5,-205.9 1403.5,-205.9"/>
</g>
<!-- test -->
<g id="node35" class="node">
<title>test</title>
<ellipse fill="none" stroke="black" cx="1577" cy="-528" rx="27" ry="18"/>
<text text-anchor="middle" x="1577" y="-524.3" font-family="Times,serif" font-size="14.00">test</text>
</g>
<!-- test&#45;&gt;color_test -->
<g id="edge48" class="edge">
<title>test&#45;&gt;color_test</title>
<path fill="none" stroke="black" d="M1603.16,-533.27C1650.96,-541.28 1755.43,-559.78 1842,-582 1845.54,-582.91 1849.19,-583.91 1852.85,-584.96"/>
<polygon fill="black" stroke="black" points="1851.88,-588.33 1862.46,-587.83 1853.87,-581.62 1851.88,-588.33"/>
</g>
<!-- test&#45;&gt;basic_block_test -->
<g id="edge49" class="edge">
<title>test&#45;&gt;basic_block_test</title>
<path fill="none" stroke="black" d="M1600.18,-537.72C1628.97,-548.56 1678.78,-567.3 1715.75,-581.22"/>
<polygon fill="black" stroke="black" points="1714.74,-584.58 1725.33,-584.82 1717.2,-578.03 1714.74,-584.58"/>
</g>
<!-- raw_ip_length_reader_test -->
<g id="node38" class="node">
<title>raw_ip_length_reader_test</title>
<ellipse fill="none" stroke="black" cx="1462" cy="-600" rx="104.78" ry="18"/>
<text text-anchor="middle" x="1462" y="-596.3" font-family="Times,serif" font-size="14.00">raw_ip_length_reader_test</text>
</g>
<!-- test&#45;&gt;raw_ip_length_reader_test -->
<g id="edge50" class="edge">
<title>test&#45;&gt;raw_ip_length_reader_test</title>
<path fill="none" stroke="black" d="M1557.75,-540.72C1541.45,-550.64 1517.64,-565.13 1497.84,-577.18"/>
<polygon fill="black" stroke="black" points="1495.79,-574.33 1489.07,-582.52 1499.43,-580.31 1495.79,-574.33"/>
</g>
<!-- test&#45;&gt;math_test -->
<g id="edge51" class="edge">
<title>test&#45;&gt;math_test</title>
<path fill="none" stroke="black" d="M1588.76,-544.54C1595.43,-553.35 1603.93,-564.57 1611.48,-574.54"/>
<polygon fill="black" stroke="black" points="1608.71,-576.67 1617.53,-582.53 1614.29,-572.45 1608.71,-576.67"/>
</g>
</g>
</svg>
