<?xml version="1.0" encoding="UTF-8" standalone="no"?>
<!DOCTYPE svg PUBLIC "-//W3C//DTD SVG 1.1//EN"
 "http://www.w3.org/Graphics/SVG/1.1/DTD/svg11.dtd">
<!-- Generated by graphviz version 2.43.0 (0)
 -->
<!-- Title: %3 Pages: 1 -->
<svg width="811pt" height="700pt"
 viewBox="0.00 0.00 811.00 700.00" xmlns="http://www.w3.org/2000/svg" xmlns:xlink="http://www.w3.org/1999/xlink">
<g id="graph0" class="graph" transform="scale(1 1) rotate(0) translate(4 696)">
<title>%3</title>
<polygon fill="white" stroke="transparent" points="-4,4 -4,-696 807,-696 807,4 -4,4"/>
<g id="clust1" class="cluster">
<title>cluster_providers</title>
<path fill="none" stroke="black" d="M20,-118C20,-118 297,-118 297,-118 303,-118 309,-124 309,-130 309,-130 309,-616 309,-616 309,-622 303,-628 297,-628 297,-628 20,-628 20,-628 14,-628 8,-622 8,-616 8,-616 8,-130 8,-130 8,-124 14,-118 20,-118"/>
<text text-anchor="middle" x="158.5" y="-125.8" font-family="Times,serif" font-size="14.00">providers</text>
</g>
<g id="clust4" class="cluster">
<title>cluster_compressors</title>
<path fill="none" stroke="black" d="M329,-481C329,-481 467,-481 467,-481 473,-481 479,-487 479,-493 479,-493 479,-616 479,-616 479,-622 473,-628 467,-628 467,-628 329,-628 329,-628 323,-628 317,-622 317,-616 317,-616 317,-493 317,-493 317,-487 323,-481 329,-481"/>
<text text-anchor="middle" x="398" y="-488.8" font-family="Times,serif" font-size="14.00">compressors</text>
</g>
<g id="clust5" class="cluster">
<title>cluster_obfuscators</title>
<path fill="none" stroke="black" d="M499,-481C499,-481 631,-481 631,-481 637,-481 643,-487 643,-493 643,-493 643,-616 643,-616 643,-622 637,-628 631,-628 631,-628 499,-628 499,-628 493,-628 487,-622 487,-616 487,-616 487,-493 487,-493 487,-487 493,-481 499,-481"/>
<text text-anchor="middle" x="565" y="-488.8" font-family="Times,serif" font-size="14.00">obfuscators</text>
</g>
<g id="clust6" class="cluster">
<title>cluster_correctors</title>
<path fill="none" stroke="black" d="M663,-481C663,-481 783,-481 783,-481 789,-481 795,-487 795,-493 795,-493 795,-616 795,-616 795,-622 789,-628 783,-628 783,-628 663,-628 663,-628 657,-628 651,-622 651,-616 651,-616 651,-493 651,-493 651,-487 657,-481 663,-481"/>
<text text-anchor="middle" x="723" y="-488.8" font-family="Times,serif" font-size="14.00">correctors</text>
</g>
<!-- color -->
<g id="node1" class="node">
<title>color</title>
<ellipse fill="none" stroke="black" cx="78" cy="-18" rx="28.7" ry="18"/>
<text text-anchor="middle" x="78" y="-14.3" font-family="Times,serif" font-size="14.00">color</text>
</g>
<!-- basic_block_pointer -->
<g id="node5" class="node">
<title>basic_block_pointer</title>
<ellipse fill="none" stroke="black" cx="98" cy="-239" rx="81.79" ry="18"/>
<text text-anchor="middle" x="98" y="-235.3" font-family="Times,serif" font-size="14.00">basic_block_pointer</text>
</g>
<!-- color&#45;&gt;basic_block_pointer -->
<g id="edge17" class="edge">
<title>color&#45;&gt;basic_block_pointer</title>
<path fill="none" stroke="black" d="M75.99,-36.15C72.88,-66.47 68.23,-131.42 78,-185 79.61,-193.8 82.6,-203.05 85.79,-211.3"/>
<polygon fill="black" stroke="black" points="82.65,-212.88 89.69,-220.79 89.12,-210.21 82.65,-212.88"/>
</g>
<!-- basic_block_pointer_proxy -->
<g id="node6" class="node">
<title>basic_block_pointer_proxy</title>
<ellipse fill="none" stroke="black" cx="194" cy="-167" rx="106.68" ry="18"/>
<text text-anchor="middle" x="194" y="-163.3" font-family="Times,serif" font-size="14.00">basic_block_pointer_proxy</text>
</g>
<!-- color&#45;&gt;basic_block_pointer_proxy -->
<g id="edge16" class="edge">
<title>color&#45;&gt;basic_block_pointer_proxy</title>
<path fill="none" stroke="black" d="M90.19,-34.45C110.19,-59.79 150.11,-110.38 174.2,-140.91"/>
<polygon fill="black" stroke="black" points="171.61,-143.27 180.55,-148.95 177.1,-138.93 171.61,-143.27"/>
</g>
<!-- provider -->
<g id="node2" class="node">
<title>provider</title>
<ellipse fill="none" stroke="red" cx="183" cy="-602" rx="40.09" ry="18"/>
<text text-anchor="middle" x="183" y="-598.3" font-family="Times,serif" font-size="14.00" fill="red">provider</text>
</g>
<!-- video_encoder -->
<g id="node15" class="node">
<title>video_encoder</title>
<ellipse fill="none" stroke="black" cx="486" cy="-674" rx="62.29" ry="18"/>
<text text-anchor="middle" x="486" y="-670.3" font-family="Times,serif" font-size="14.00">video_encoder</text>
</g>
<!-- provider&#45;&gt;video_encoder -->
<g id="edge12" class="edge">
<title>provider&#45;&gt;video_encoder</title>
<path fill="none" stroke="black" d="M218.05,-611.1C269.7,-623.03 366.81,-645.47 428.85,-659.8"/>
<polygon fill="black" stroke="black" points="428.34,-663.27 438.88,-662.11 429.92,-656.45 428.34,-663.27"/>
</g>
<!-- basic_provider -->
<g id="node3" class="node">
<title>basic_provider</title>
<ellipse fill="none" stroke="blue" cx="106" cy="-530" rx="63.09" ry="18"/>
<text text-anchor="middle" x="106" y="-526.3" font-family="Times,serif" font-size="14.00" fill="blue">basic_provider</text>
</g>
<!-- basic_provider&#45;&gt;provider -->
<g id="edge1" class="edge">
<title>basic_provider&#45;&gt;provider</title>
<path fill="none" stroke="blue" d="M124.25,-547.59C134.41,-556.83 147.21,-568.46 158.26,-578.51"/>
<polygon fill="blue" stroke="blue" points="156.18,-581.35 165.94,-585.49 160.89,-576.17 156.18,-581.35"/>
</g>
<!-- basic_block_container -->
<g id="node4" class="node">
<title>basic_block_container</title>
<ellipse fill="none" stroke="black" cx="106" cy="-311" rx="89.88" ry="18"/>
<text text-anchor="middle" x="106" y="-307.3" font-family="Times,serif" font-size="14.00">basic_block_container</text>
</g>
<!-- basic_block_container&#45;&gt;basic_provider -->
<g id="edge2" class="edge">
<title>basic_block_container&#45;&gt;basic_provider</title>
<path fill="none" stroke="black" d="M106,-329.03C106,-366.49 106,-456.32 106,-501.74"/>
<polygon fill="black" stroke="black" points="102.5,-501.75 106,-511.75 109.5,-501.75 102.5,-501.75"/>
</g>
<!-- raw_ip_length_reader -->
<g id="node8" class="node">
<title>raw_ip_length_reader</title>
<ellipse fill="none" stroke="blue" cx="213" cy="-383" rx="87.99" ry="18"/>
<text text-anchor="middle" x="213" y="-379.3" font-family="Times,serif" font-size="14.00" fill="blue">raw_ip_length_reader</text>
</g>
<!-- basic_block_container&#45;&gt;raw_ip_length_reader -->
<g id="edge8" class="edge">
<title>basic_block_container&#45;&gt;raw_ip_length_reader</title>
<path fill="none" stroke="black" d="M131.09,-328.41C145.58,-337.89 163.98,-349.93 179.67,-360.2"/>
<polygon fill="black" stroke="black" points="177.79,-363.15 188.07,-365.69 181.62,-357.29 177.79,-363.15"/>
</g>
<!-- basic_block_pointer&#45;&gt;basic_block_container -->
<g id="edge3" class="edge">
<title>basic_block_pointer&#45;&gt;basic_block_container</title>
<path fill="none" stroke="black" d="M99.98,-257.3C100.86,-265.02 101.92,-274.29 102.9,-282.89"/>
<polygon fill="black" stroke="black" points="99.43,-283.36 104.05,-292.9 106.39,-282.56 99.43,-283.36"/>
</g>
<!-- basic_block_pointer_proxy&#45;&gt;basic_block_container -->
<g id="edge5" class="edge">
<title>basic_block_pointer_proxy&#45;&gt;basic_block_container</title>
<path fill="none" stroke="black" d="M197.39,-185.04C200.22,-203.99 201.97,-234.83 189,-257 180.93,-270.8 167.68,-281.59 154.11,-289.73"/>
<polygon fill="black" stroke="black" points="152.23,-286.77 145.2,-294.7 155.64,-292.88 152.23,-286.77"/>
</g>
<!-- basic_block_pointer_proxy&#45;&gt;basic_block_pointer -->
<g id="edge4" class="edge">
<title>basic_block_pointer_proxy&#45;&gt;basic_block_pointer</title>
<path fill="none" stroke="black" d="M171.25,-184.59C158.58,-193.83 142.62,-205.46 128.84,-215.51"/>
<polygon fill="black" stroke="black" points="126.61,-212.81 120.59,-221.53 130.73,-218.47 126.61,-212.81"/>
</g>
<!-- data_length_reader -->
<g id="node7" class="node">
<title>data_length_reader</title>
<ellipse fill="none" stroke="red" cx="208" cy="-455" rx="77.99" ry="18"/>
<text text-anchor="middle" x="208" y="-451.3" font-family="Times,serif" font-size="14.00" fill="red">data_length_reader</text>
</g>
<!-- data_length_reader&#45;&gt;basic_provider -->
<g id="edge7" class="edge">
<title>data_length_reader&#45;&gt;basic_provider</title>
<path fill="none" stroke="black" d="M185.11,-472.38C170.84,-482.6 152.29,-495.87 136.75,-507"/>
<polygon fill="black" stroke="black" points="134.56,-504.26 128.46,-512.92 138.63,-509.95 134.56,-504.26"/>
</g>
<!-- raw_ip_length_reader&#45;&gt;data_length_reader -->
<g id="edge6" class="edge">
<title>raw_ip_length_reader&#45;&gt;data_length_reader</title>
<path fill="none" stroke="blue" d="M211.76,-401.3C211.21,-409.02 210.55,-418.29 209.94,-426.89"/>
<polygon fill="blue" stroke="blue" points="206.44,-426.67 209.22,-436.9 213.43,-427.17 206.44,-426.67"/>
</g>
<!-- compressor -->
<g id="node9" class="node">
<title>compressor</title>
<ellipse fill="none" stroke="red" cx="408" cy="-602" rx="51.99" ry="18"/>
<text text-anchor="middle" x="408" y="-598.3" font-family="Times,serif" font-size="14.00" fill="red">compressor</text>
</g>
<!-- compressor&#45;&gt;video_encoder -->
<g id="edge13" class="edge">
<title>compressor&#45;&gt;video_encoder</title>
<path fill="none" stroke="black" d="M426.09,-619.24C436.16,-628.27 448.87,-639.67 459.98,-649.65"/>
<polygon fill="black" stroke="black" points="457.96,-652.54 467.74,-656.61 462.63,-647.33 457.96,-652.54"/>
</g>
<!-- none_compressor -->
<g id="node10" class="node">
<title>none_compressor</title>
<ellipse fill="none" stroke="blue" cx="398" cy="-530" rx="73.39" ry="18"/>
<text text-anchor="middle" x="398" y="-526.3" font-family="Times,serif" font-size="14.00" fill="blue">none_compressor</text>
</g>
<!-- none_compressor&#45;&gt;compressor -->
<g id="edge9" class="edge">
<title>none_compressor&#45;&gt;compressor</title>
<path fill="none" stroke="blue" d="M400.47,-548.3C401.57,-556.02 402.9,-565.29 404.13,-573.89"/>
<polygon fill="blue" stroke="blue" points="400.68,-574.49 405.56,-583.9 407.61,-573.5 400.68,-574.49"/>
</g>
<!-- obfuscator -->
<g id="node11" class="node">
<title>obfuscator</title>
<ellipse fill="none" stroke="red" cx="554" cy="-602" rx="48.19" ry="18"/>
<text text-anchor="middle" x="554" y="-598.3" font-family="Times,serif" font-size="14.00" fill="red">obfuscator</text>
</g>
<!-- obfuscator&#45;&gt;video_encoder -->
<g id="edge14" class="edge">
<title>obfuscator&#45;&gt;video_encoder</title>
<path fill="none" stroke="black" d="M538.23,-619.24C529.6,-628.12 518.75,-639.29 509.17,-649.15"/>
<polygon fill="black" stroke="black" points="506.62,-646.76 502.16,-656.37 511.64,-651.63 506.62,-646.76"/>
</g>
<!-- none_obfuscator -->
<g id="node12" class="node">
<title>none_obfuscator</title>
<ellipse fill="none" stroke="blue" cx="565" cy="-530" rx="69.59" ry="18"/>
<text text-anchor="middle" x="565" y="-526.3" font-family="Times,serif" font-size="14.00" fill="blue">none_obfuscator</text>
</g>
<!-- none_obfuscator&#45;&gt;obfuscator -->
<g id="edge10" class="edge">
<title>none_obfuscator&#45;&gt;obfuscator</title>
<path fill="none" stroke="blue" d="M562.28,-548.3C561.07,-556.02 559.61,-565.29 558.26,-573.89"/>
<polygon fill="blue" stroke="blue" points="554.78,-573.47 556.69,-583.9 561.7,-574.56 554.78,-573.47"/>
</g>
<!-- corrector -->
<g id="node13" class="node">
<title>corrector</title>
<ellipse fill="none" stroke="red" cx="712" cy="-602" rx="42.49" ry="18"/>
<text text-anchor="middle" x="712" y="-598.3" font-family="Times,serif" font-size="14.00" fill="red">corrector</text>
</g>
<!-- corrector&#45;&gt;video_encoder -->
<g id="edge15" class="edge">
<title>corrector&#45;&gt;video_encoder</title>
<path fill="none" stroke="black" d="M682.44,-615.05C671.4,-619.37 658.71,-624.12 647,-628 612.2,-639.53 572.54,-650.64 541.29,-658.93"/>
<polygon fill="black" stroke="black" points="540.23,-655.59 531.45,-661.52 542.02,-662.36 540.23,-655.59"/>
</g>
<!-- none_corrector -->
<g id="node14" class="node">
<title>none_corrector</title>
<ellipse fill="none" stroke="blue" cx="723" cy="-530" rx="63.89" ry="18"/>
<text text-anchor="middle" x="723" y="-526.3" font-family="Times,serif" font-size="14.00" fill="blue">none_corrector</text>
</g>
<!-- none_corrector&#45;&gt;corrector -->
<g id="edge11" class="edge">
<title>none_corrector&#45;&gt;corrector</title>
<path fill="none" stroke="blue" d="M720.28,-548.3C719.07,-556.02 717.61,-565.29 716.26,-573.89"/>
<polygon fill="blue" stroke="blue" points="712.78,-573.47 714.69,-583.9 719.7,-574.56 712.78,-573.47"/>
</g>
</g>
</svg>
