<?xml version="1.0" encoding="UTF-8" standalone="no"?>
<!DOCTYPE svg PUBLIC "-//W3C//DTD SVG 1.1//EN"
 "http://www.w3.org/Graphics/SVG/1.1/DTD/svg11.dtd">
<!-- Generated by graphviz version 2.43.0 (0)
 -->
<!-- Title: %3 Pages: 1 -->
<svg width="323pt" height="188pt"
 viewBox="0.00 0.00 323.00 188.00" xmlns="http://www.w3.org/2000/svg" xmlns:xlink="http://www.w3.org/1999/xlink">
<g id="graph0" class="graph" transform="scale(1 1) rotate(0) translate(4 184)">
<title>%3</title>
<polygon fill="white" stroke="transparent" points="-4,4 -4,-184 319,-184 319,4 -4,4"/>
<!-- include -->
<g id="node1" class="node">
<title>include</title>
<ellipse fill="none" stroke="black" cx="120" cy="-162" rx="36.29" ry="18"/>
<text text-anchor="middle" x="120" y="-158.3" font-family="Times,serif" font-size="14.00">include</text>
</g>
<!-- src -->
<g id="node2" class="node">
<title>src</title>
<ellipse fill="none" stroke="black" cx="27" cy="-90" rx="27" ry="18"/>
<text text-anchor="middle" x="27" y="-86.3" font-family="Times,serif" font-size="14.00">src</text>
</g>
<!-- include&#45;&gt;src -->
<g id="edge1" class="edge">
<title>include&#45;&gt;src</title>
<path fill="none" stroke="black" d="M100.73,-146.5C86.72,-135.95 67.63,-121.58 52.38,-110.1"/>
<polygon fill="black" stroke="black" points="54.46,-107.29 44.36,-104.07 50.25,-112.88 54.46,-107.29"/>
</g>
<!-- test/include -->
<g id="node3" class="node">
<title>test/include</title>
<ellipse fill="none" stroke="black" cx="199" cy="-90" rx="51.19" ry="18"/>
<text text-anchor="middle" x="199" y="-86.3" font-family="Times,serif" font-size="14.00">test/include</text>
</g>
<!-- include&#45;&gt;test/include -->
<g id="edge2" class="edge">
<title>include&#45;&gt;test/include</title>
<path fill="none" stroke="black" d="M137.14,-145.81C147.79,-136.38 161.67,-124.08 173.58,-113.53"/>
<polygon fill="black" stroke="black" points="175.91,-116.14 181.07,-106.89 171.26,-110.9 175.91,-116.14"/>
</g>
<!-- test/lib -->
<g id="node4" class="node">
<title>test/lib</title>
<ellipse fill="none" stroke="black" cx="89" cy="-18" rx="34.39" ry="18"/>
<text text-anchor="middle" x="89" y="-14.3" font-family="Times,serif" font-size="14.00">test/lib</text>
</g>
<!-- include&#45;&gt;test/lib -->
<g id="edge5" class="edge">
<title>include&#45;&gt;test/lib</title>
<path fill="none" stroke="black" d="M115.16,-143.89C112.31,-133.54 108.74,-120.06 106,-108 101.32,-87.42 96.88,-63.97 93.71,-46.31"/>
<polygon fill="black" stroke="black" points="97.1,-45.37 91.91,-36.14 90.2,-46.59 97.1,-45.37"/>
</g>
<!-- test/src -->
<g id="node5" class="node">
<title>test/src</title>
<ellipse fill="none" stroke="black" cx="181" cy="-18" rx="36" ry="18"/>
<text text-anchor="middle" x="181" y="-14.3" font-family="Times,serif" font-size="14.00">test/src</text>
</g>
<!-- include&#45;&gt;test/src -->
<g id="edge3" class="edge">
<title>include&#45;&gt;test/src</title>
<path fill="none" stroke="black" d="M121.32,-143.86C123.27,-125.37 127.96,-95.44 139,-72 144.06,-61.27 151.67,-50.75 159.02,-41.95"/>
<polygon fill="black" stroke="black" points="161.68,-44.22 165.63,-34.39 156.41,-39.61 161.68,-44.22"/>
</g>
<!-- test/tool -->
<g id="node6" class="node">
<title>test/tool</title>
<ellipse fill="none" stroke="black" cx="276" cy="-18" rx="38.99" ry="18"/>
<text text-anchor="middle" x="276" y="-14.3" font-family="Times,serif" font-size="14.00">test/tool</text>
</g>
<!-- include&#45;&gt;test/tool -->
<g id="edge4" class="edge">
<title>include&#45;&gt;test/tool</title>
<path fill="none" stroke="black" d="M155.21,-157.19C187.16,-151.8 233.12,-138.88 259,-108 273.32,-90.91 277,-65.46 277.42,-46.15"/>
<polygon fill="black" stroke="black" points="280.92,-46.12 277.37,-36.14 273.92,-46.16 280.92,-46.12"/>
</g>
<!-- test/include&#45;&gt;test/lib -->
<g id="edge8" class="edge">
<title>test/include&#45;&gt;test/lib</title>
<path fill="none" stroke="black" d="M175.4,-73.98C158.84,-63.45 136.58,-49.28 118.8,-37.96"/>
<polygon fill="black" stroke="black" points="120.27,-34.75 109.96,-32.34 116.52,-40.66 120.27,-34.75"/>
</g>
<!-- test/include&#45;&gt;test/src -->
<g id="edge6" class="edge">
<title>test/include&#45;&gt;test/src</title>
<path fill="none" stroke="black" d="M194.64,-72.05C192.64,-64.26 190.21,-54.82 187.96,-46.08"/>
<polygon fill="black" stroke="black" points="191.32,-45.09 185.44,-36.28 184.54,-46.83 191.32,-45.09"/>
</g>
<!-- test/include&#45;&gt;test/tool -->
<g id="edge7" class="edge">
<title>test/include&#45;&gt;test/tool</title>
<path fill="none" stroke="black" d="M216.86,-72.76C227.18,-63.38 240.32,-51.44 251.59,-41.2"/>
<polygon fill="black" stroke="black" points="253.99,-43.74 259.03,-34.43 249.28,-38.56 253.99,-43.74"/>
</g>
</g>
</svg>
