<?xml version="1.0" encoding="UTF-8" standalone="no"?>
<!DOCTYPE svg PUBLIC "-//W3C//DTD SVG 1.1//EN"
 "http://www.w3.org/Graphics/SVG/1.1/DTD/svg11.dtd">
<!-- Generated by graphviz version 2.43.0 (0)
 -->
<!-- Title: %3 Pages: 1 -->
<svg width="1513pt" height="1119pt"
 viewBox="0.00 0.00 1512.69 1119.00" xmlns="http://www.w3.org/2000/svg" xmlns:xlink="http://www.w3.org/1999/xlink">
<g id="graph0" class="graph" transform="scale(1 1) rotate(0) translate(4 1115)">
<title>%3</title>
<polygon fill="white" stroke="transparent" points="-4,4 -4,-1115 1508.69,-1115 1508.69,4 -4,4"/>
<g id="clust3" class="cluster">
<title>cluster_providers</title>
<path fill="none" stroke="black" d="M20,-135C20,-135 445,-135 445,-135 451,-135 457,-141 457,-147 457,-147 457,-963 457,-963 457,-969 451,-975 445,-975 445,-975 20,-975 20,-975 14,-975 8,-969 8,-963 8,-963 8,-147 8,-147 8,-141 14,-135 20,-135"/>
<text text-anchor="middle" x="232.5" y="-142.8" font-family="Times,serif" font-size="14.00">providers</text>
</g>
<g id="clust6" class="cluster">
<title>cluster_color_codecs</title>
<path fill="none" stroke="black" d="M37,-166C37,-166 364,-166 364,-166 370,-166 376,-172 376,-178 376,-178 376,-373 376,-373 376,-379 370,-385 364,-385 364,-385 37,-385 37,-385 31,-385 25,-379 25,-373 25,-373 25,-178 25,-178 25,-172 31,-166 37,-166"/>
<text text-anchor="middle" x="200.5" y="-173.8" font-family="Times,serif" font-size="14.00">color_codecs</text>
</g>
<g id="clust7" class="cluster">
<title>cluster_compressors</title>
<path fill="none" stroke="black" d="M477,-828C477,-828 615,-828 615,-828 621,-828 627,-834 627,-840 627,-840 627,-963 627,-963 627,-969 621,-975 615,-975 615,-975 477,-975 477,-975 471,-975 465,-969 465,-963 465,-963 465,-840 465,-840 465,-834 471,-828 477,-828"/>
<text text-anchor="middle" x="546" y="-835.8" font-family="Times,serif" font-size="14.00">compressors</text>
</g>
<g id="clust8" class="cluster">
<title>cluster_obfuscators</title>
<path fill="none" stroke="black" d="M647,-828C647,-828 779,-828 779,-828 785,-828 791,-834 791,-840 791,-840 791,-963 791,-963 791,-969 785,-975 779,-975 779,-975 647,-975 647,-975 641,-975 635,-969 635,-963 635,-963 635,-840 635,-840 635,-834 641,-828 647,-828"/>
<text text-anchor="middle" x="713" y="-835.8" font-family="Times,serif" font-size="14.00">obfuscators</text>
</g>
<g id="clust9" class="cluster">
<title>cluster_correctors</title>
<path fill="none" stroke="black" d="M811,-828C811,-828 931,-828 931,-828 937,-828 943,-834 943,-840 943,-840 943,-963 943,-963 943,-969 937,-975 931,-975 931,-975 811,-975 811,-975 805,-975 799,-969 799,-963 799,-963 799,-840 799,-840 799,-834 805,-828 811,-828"/>
<text text-anchor="middle" x="871" y="-835.8" font-family="Times,serif" font-size="14.00">correctors</text>
</g>
<g id="clust11" class="cluster">
<title>cluster_test</title>
<path fill="none" stroke="black" d="M477,-673C477,-673 973,-673 973,-673 979,-673 985,-679 985,-685 985,-685 985,-808 985,-808 985,-814 979,-820 973,-820 973,-820 477,-820 477,-820 471,-820 465,-814 465,-808 465,-808 465,-685 465,-685 465,-679 471,-673 477,-673"/>
<text text-anchor="middle" x="725" y="-680.8" font-family="Times,serif" font-size="14.00">TESTS</text>
</g>
<g id="clust13" class="cluster">
<title>cluster_legend</title>
<polygon fill="none" stroke="black" stroke-dasharray="5,2" points="661,-8 661,-83 857,-83 857,-8 661,-8"/>
<text text-anchor="middle" x="759" y="-67.8" font-family="Times,serif" font-size="14.00">Legend</text>
</g>
<!-- provider -->
<g id="node1" class="node">
<title>provider</title>
<ellipse fill="none" stroke="red" cx="331" cy="-949" rx="40.09" ry="18"/>
<text text-anchor="middle" x="331" y="-945.3" font-family="Times,serif" font-size="14.00" fill="red">provider</text>
</g>
<!-- video_encoder -->
<g id="node23" class="node">
<title>video_encoder</title>
<ellipse fill="none" stroke="blue" cx="797" cy="-1021" rx="62.29" ry="18"/>
<text text-anchor="middle" x="797" y="-1017.3" font-family="Times,serif" font-size="14.00" fill="blue">video_encoder</text>
</g>
<!-- provider&#45;&gt;video_encoder -->
<g id="edge25" class="edge">
<title>provider&#45;&gt;video_encoder</title>
<path fill="none" stroke="black" d="M366.77,-957.45C392.83,-962.73 429.02,-969.79 461,-975 554.1,-990.17 662.32,-1003.99 730.24,-1012.19"/>
<polygon fill="black" stroke="black" points="730.03,-1015.69 740.38,-1013.41 730.87,-1008.74 730.03,-1015.69"/>
</g>
<!-- basic_provider -->
<g id="node2" class="node">
<title>basic_provider</title>
<ellipse fill="none" stroke="blue" cx="254" cy="-877" rx="63.09" ry="18"/>
<text text-anchor="middle" x="254" y="-873.3" font-family="Times,serif" font-size="14.00" fill="blue">basic_provider</text>
</g>
<!-- basic_provider&#45;&gt;provider -->
<g id="edge1" class="edge">
<title>basic_provider&#45;&gt;provider</title>
<path fill="none" stroke="blue" d="M272.25,-894.59C282.41,-903.83 295.21,-915.46 306.26,-925.51"/>
<polygon fill="blue" stroke="blue" points="304.18,-928.35 313.94,-932.49 308.89,-923.17 304.18,-928.35"/>
</g>
<!-- basic_block_container -->
<g id="node3" class="node">
<title>basic_block_container</title>
<ellipse fill="none" stroke="blue" cx="254" cy="-647" rx="89.88" ry="18"/>
<text text-anchor="middle" x="254" y="-643.3" font-family="Times,serif" font-size="14.00" fill="blue">basic_block_container</text>
</g>
<!-- basic_block_container&#45;&gt;basic_provider -->
<g id="edge2" class="edge">
<title>basic_block_container&#45;&gt;basic_provider</title>
<path fill="none" stroke="black" d="M254,-665.14C254,-704.43 254,-801.3 254,-848.82"/>
<polygon fill="black" stroke="black" points="250.5,-848.98 254,-858.98 257.5,-848.98 250.5,-848.98"/>
</g>
<!-- basic_block_test -->
<g id="node36" class="node">
<title>basic_block_test</title>
<ellipse fill="none" stroke="black" cx="907" cy="-794" rx="69.59" ry="18"/>
<text text-anchor="middle" x="907" y="-790.3" font-family="Times,serif" font-size="14.00">basic_block_test</text>
</g>
<!-- basic_block_container&#45;&gt;basic_block_test -->
<g id="edge53" class="edge">
<title>basic_block_container&#45;&gt;basic_block_test</title>
<path fill="none" stroke="orange" d="M342.97,-649.46C404.03,-651.89 486.61,-657.99 558,-673 647.27,-691.77 665.73,-710.35 752,-740 787.07,-752.05 826.62,-765.58 857,-775.95"/>
<polygon fill="orange" stroke="orange" points="855.93,-779.28 866.52,-779.2 858.19,-772.65 855.93,-779.28"/>
</g>
<!-- len_reader_test -->
<g id="node37" class="node">
<title>len_reader_test</title>
<ellipse fill="none" stroke="black" cx="537" cy="-794" rx="64.19" ry="18"/>
<text text-anchor="middle" x="537" y="-790.3" font-family="Times,serif" font-size="14.00">len_reader_test</text>
</g>
<!-- basic_block_container&#45;&gt;len_reader_test -->
<g id="edge57" class="edge">
<title>basic_block_container&#45;&gt;len_reader_test</title>
<path fill="none" stroke="black" d="M342.78,-649.99C420.47,-652.67 522.96,-658.87 536,-673 558.8,-697.71 553.25,-738.95 546.04,-766.07"/>
<polygon fill="black" stroke="black" points="542.67,-765.12 543.24,-775.7 549.39,-767.07 542.67,-765.12"/>
</g>
<!-- basic_block_pointer -->
<g id="node4" class="node">
<title>basic_block_pointer</title>
<ellipse fill="none" stroke="blue" cx="254" cy="-575" rx="81.79" ry="18"/>
<text text-anchor="middle" x="254" y="-571.3" font-family="Times,serif" font-size="14.00" fill="blue">basic_block_pointer</text>
</g>
<!-- basic_block_pointer&#45;&gt;basic_block_container -->
<g id="edge3" class="edge">
<title>basic_block_pointer&#45;&gt;basic_block_container</title>
<path fill="none" stroke="black" d="M254,-593.3C254,-601.02 254,-610.29 254,-618.89"/>
<polygon fill="black" stroke="black" points="250.5,-618.9 254,-628.9 257.5,-618.9 250.5,-618.9"/>
</g>
<!-- raw_ip_length_reader -->
<g id="node7" class="node">
<title>raw_ip_length_reader</title>
<ellipse fill="none" stroke="blue" cx="361" cy="-722" rx="87.99" ry="18"/>
<text text-anchor="middle" x="361" y="-718.3" font-family="Times,serif" font-size="14.00" fill="blue">raw_ip_length_reader</text>
</g>
<!-- basic_block_pointer&#45;&gt;raw_ip_length_reader -->
<g id="edge16" class="edge">
<title>basic_block_pointer&#45;&gt;raw_ip_length_reader</title>
<path fill="none" stroke="black" d="M300.55,-589.81C319.98,-598.02 340.82,-610.53 353,-629 365.51,-647.97 366.62,-674.14 365.12,-693.72"/>
<polygon fill="black" stroke="black" points="361.62,-693.52 364.07,-703.83 368.58,-694.25 361.62,-693.52"/>
</g>
<!-- basic_block_pointer&#45;&gt;basic_block_test -->
<g id="edge54" class="edge">
<title>basic_block_pointer&#45;&gt;basic_block_test</title>
<path fill="none" stroke="orange" d="M325.39,-583.94C385.25,-591.79 472.49,-606 546,-629 659.7,-664.58 681.52,-690.75 790,-740 814.78,-751.25 842.53,-763.82 864.79,-773.9"/>
<polygon fill="orange" stroke="orange" points="863.41,-777.11 873.96,-778.05 866.29,-770.74 863.41,-777.11"/>
</g>
<!-- basic_block_pointer&#45;&gt;len_reader_test -->
<g id="edge56" class="edge">
<title>basic_block_pointer&#45;&gt;len_reader_test</title>
<path fill="none" stroke="black" d="M335.66,-577.06C407.23,-582.87 507.51,-603.89 558,-673 578.11,-700.53 564.57,-740.97 551.78,-767.15"/>
<polygon fill="black" stroke="black" points="548.64,-765.6 547.17,-776.1 554.86,-768.81 548.64,-765.6"/>
</g>
<!-- basic_block_pointer_proxy -->
<g id="node5" class="node">
<title>basic_block_pointer_proxy</title>
<ellipse fill="none" stroke="blue" cx="324" cy="-503" rx="106.68" ry="18"/>
<text text-anchor="middle" x="324" y="-499.3" font-family="Times,serif" font-size="14.00" fill="blue">basic_block_pointer_proxy</text>
</g>
<!-- basic_block_pointer_proxy&#45;&gt;basic_block_container -->
<g id="edge5" class="edge">
<title>basic_block_pointer_proxy&#45;&gt;basic_block_container</title>
<path fill="none" stroke="black" d="M228.99,-511.21C164.54,-518.31 87.47,-531.88 67,-557 32.33,-599.55 105.51,-623 170.24,-635"/>
<polygon fill="black" stroke="black" points="169.67,-638.46 180.13,-636.76 170.89,-631.56 169.67,-638.46"/>
</g>
<!-- basic_block_pointer_proxy&#45;&gt;basic_block_pointer -->
<g id="edge4" class="edge">
<title>basic_block_pointer_proxy&#45;&gt;basic_block_pointer</title>
<path fill="none" stroke="black" d="M307.05,-520.95C298.37,-529.63 287.64,-540.36 278.11,-549.89"/>
<polygon fill="black" stroke="black" points="275.39,-547.67 270.79,-557.21 280.33,-552.61 275.39,-547.67"/>
</g>
<!-- basic_block_pointer_proxy&#45;&gt;basic_block_test -->
<g id="edge52" class="edge">
<title>basic_block_pointer_proxy&#45;&gt;basic_block_test</title>
<path fill="none" stroke="orange" d="M416.36,-512.1C469.25,-519.21 535.84,-532.45 591,-557 713.62,-611.57 833.72,-720.93 883.28,-769.19"/>
<polygon fill="orange" stroke="orange" points="881.03,-771.88 890.61,-776.39 885.93,-766.89 881.03,-771.88"/>
</g>
<!-- data_length_reader -->
<g id="node6" class="node">
<title>data_length_reader</title>
<ellipse fill="none" stroke="red" cx="356" cy="-794" rx="77.99" ry="18"/>
<text text-anchor="middle" x="356" y="-790.3" font-family="Times,serif" font-size="14.00" fill="red">data_length_reader</text>
</g>
<!-- data_length_reader&#45;&gt;basic_provider -->
<g id="edge15" class="edge">
<title>data_length_reader&#45;&gt;basic_provider</title>
<path fill="none" stroke="black" d="M335.36,-811.39C320.05,-823.55 299.01,-840.26 282.15,-853.64"/>
<polygon fill="black" stroke="black" points="279.92,-850.95 274.26,-859.91 284.27,-856.43 279.92,-850.95"/>
</g>
<!-- raw_ip_length_reader&#45;&gt;data_length_reader -->
<g id="edge14" class="edge">
<title>raw_ip_length_reader&#45;&gt;data_length_reader</title>
<path fill="none" stroke="blue" d="M359.76,-740.3C359.21,-748.02 358.55,-757.29 357.94,-765.89"/>
<polygon fill="blue" stroke="blue" points="354.44,-765.67 357.22,-775.9 361.43,-766.17 354.44,-765.67"/>
</g>
<!-- raw_ip_length_reader&#45;&gt;len_reader_test -->
<g id="edge55" class="edge">
<title>raw_ip_length_reader&#45;&gt;len_reader_test</title>
<path fill="none" stroke="orange" d="M399.62,-738.36C426.9,-749.21 463.53,-763.78 492.1,-775.14"/>
<polygon fill="orange" stroke="orange" points="490.87,-778.42 501.46,-778.86 493.46,-771.92 490.87,-778.42"/>
</g>
<!-- bit_area -->
<g id="node8" class="node">
<title>bit_area</title>
<ellipse fill="none" stroke="green" cx="115" cy="-575" rx="38.99" ry="18"/>
<text text-anchor="middle" x="115" y="-571.3" font-family="Times,serif" font-size="14.00" fill="green">bit_area</text>
</g>
<!-- bit_area&#45;&gt;basic_block_container -->
<g id="edge6" class="edge">
<title>bit_area&#45;&gt;basic_block_container</title>
<path fill="none" stroke="black" d="M140.49,-588.84C160.84,-599.08 189.72,-613.63 213.26,-625.49"/>
<polygon fill="black" stroke="black" points="211.82,-628.68 222.32,-630.05 214.97,-622.42 211.82,-628.68"/>
</g>
<!-- basic_block_config -->
<g id="node9" class="node">
<title>basic_block_config</title>
<ellipse fill="none" stroke="green" cx="105" cy="-431" rx="79.09" ry="18"/>
<text text-anchor="middle" x="105" y="-427.3" font-family="Times,serif" font-size="14.00" fill="green">basic_block_config</text>
</g>
<!-- basic_block_config&#45;&gt;basic_block_container -->
<g id="edge7" class="edge">
<title>basic_block_config&#45;&gt;basic_block_container</title>
<path fill="none" stroke="black" d="M90.59,-448.79C65.52,-480.13 19.67,-548.39 54,-593 68.78,-612.21 123.56,-625.89 172.05,-634.54"/>
<polygon fill="black" stroke="black" points="171.52,-638 181.97,-636.26 172.72,-631.1 171.52,-638"/>
</g>
<!-- basic_block_config&#45;&gt;basic_block_pointer -->
<g id="edge8" class="edge">
<title>basic_block_config&#45;&gt;basic_block_pointer</title>
<path fill="none" stroke="black" d="M122.38,-448.57C148.6,-473.55 198.39,-521.01 228.65,-549.84"/>
<polygon fill="black" stroke="black" points="226.61,-552.73 236.27,-557.1 231.44,-547.67 226.61,-552.73"/>
</g>
<!-- basic_block_config&#45;&gt;basic_block_pointer_proxy -->
<g id="edge9" class="edge">
<title>basic_block_config&#45;&gt;basic_block_pointer_proxy</title>
<path fill="none" stroke="black" d="M149.05,-446.08C182.99,-456.93 230.18,-472.01 267,-483.78"/>
<polygon fill="black" stroke="black" points="266.01,-487.14 276.6,-486.85 268.14,-480.47 266.01,-487.14"/>
</g>
<!-- basic_block_config&#45;&gt;raw_ip_length_reader -->
<g id="edge10" class="edge">
<title>basic_block_config&#45;&gt;raw_ip_length_reader</title>
<path fill="none" stroke="black" d="M78.49,-448.09C65.83,-457.25 51.78,-469.91 44,-485 21.95,-527.75 13.46,-551.05 37,-593 82.35,-673.8 189.45,-703.73 268.16,-714.74"/>
<polygon fill="black" stroke="black" points="267.72,-718.21 278.09,-716.05 268.64,-711.28 267.72,-718.21"/>
</g>
<!-- rect -->
<g id="node10" class="node">
<title>rect</title>
<ellipse fill="none" stroke="green" cx="249" cy="-431" rx="27" ry="18"/>
<text text-anchor="middle" x="249" y="-427.3" font-family="Times,serif" font-size="14.00" fill="green">rect</text>
</g>
<!-- rect&#45;&gt;basic_block_pointer -->
<g id="edge12" class="edge">
<title>rect&#45;&gt;basic_block_pointer</title>
<path fill="none" stroke="black" d="M233.79,-446.15C224.37,-456.01 213.11,-470.03 208,-485 202.83,-500.14 202.4,-506.01 208,-521 211.94,-531.55 219.03,-541.4 226.49,-549.67"/>
<polygon fill="black" stroke="black" points="224.19,-552.32 233.66,-557.08 229.23,-547.46 224.19,-552.32"/>
</g>
<!-- rect&#45;&gt;basic_block_pointer_proxy -->
<g id="edge11" class="edge">
<title>rect&#45;&gt;basic_block_pointer_proxy</title>
<path fill="none" stroke="black" d="M264.18,-446.17C273.98,-455.32 286.99,-467.46 298.38,-478.08"/>
<polygon fill="black" stroke="black" points="296.24,-480.88 305.94,-485.14 301.01,-475.76 296.24,-480.88"/>
</g>
<!-- rgb_index -->
<g id="node11" class="node">
<title>rgb_index</title>
<ellipse fill="none" stroke="green" cx="379" cy="-431" rx="46.29" ry="18"/>
<text text-anchor="middle" x="379" y="-427.3" font-family="Times,serif" font-size="14.00" fill="green">rgb_index</text>
</g>
<!-- rgb_index&#45;&gt;basic_block_pointer_proxy -->
<g id="edge13" class="edge">
<title>rgb_index&#45;&gt;basic_block_pointer_proxy</title>
<path fill="none" stroke="black" d="M365.97,-448.59C359.28,-457.09 351.01,-467.63 343.58,-477.09"/>
<polygon fill="black" stroke="black" points="340.75,-475.02 337.32,-485.04 346.25,-479.34 340.75,-475.02"/>
</g>
<!-- color_codec -->
<g id="node12" class="node">
<title>color_codec</title>
<ellipse fill="none" stroke="purple" cx="314" cy="-359" rx="53.89" ry="18"/>
<text text-anchor="middle" x="314" y="-355.3" font-family="Times,serif" font-size="14.00" fill="purple">color_codec</text>
</g>
<!-- color_codec&#45;&gt;basic_block_pointer_proxy -->
<g id="edge21" class="edge">
<title>color_codec&#45;&gt;basic_block_pointer_proxy</title>
<path fill="none" stroke="black" d="M315.21,-377.13C316.91,-401.33 320.04,-445.79 322.07,-474.61"/>
<polygon fill="black" stroke="black" points="318.6,-475.08 322.79,-484.81 325.58,-474.59 318.6,-475.08"/>
</g>
<!-- hsv_codec -->
<g id="node13" class="node">
<title>hsv_codec</title>
<ellipse fill="none" stroke="blue" cx="320" cy="-287" rx="48.19" ry="18"/>
<text text-anchor="middle" x="320" y="-283.3" font-family="Times,serif" font-size="14.00" fill="blue">hsv_codec</text>
</g>
<!-- hsv_codec&#45;&gt;color_codec -->
<g id="edge17" class="edge">
<title>hsv_codec&#45;&gt;color_codec</title>
<path fill="none" stroke="blue" d="M318.52,-305.3C317.86,-313.02 317.06,-322.29 316.32,-330.89"/>
<polygon fill="blue" stroke="blue" points="312.83,-330.63 315.47,-340.9 319.81,-331.23 312.83,-330.63"/>
</g>
<!-- palette_codec -->
<g id="node14" class="node">
<title>palette_codec</title>
<ellipse fill="none" stroke="purple" cx="195" cy="-287" rx="59.29" ry="18"/>
<text text-anchor="middle" x="195" y="-283.3" font-family="Times,serif" font-size="14.00" fill="purple">palette_codec</text>
</g>
<!-- palette_codec&#45;&gt;color_codec -->
<g id="edge18" class="edge">
<title>palette_codec&#45;&gt;color_codec</title>
<path fill="none" stroke="purple" d="M221.12,-303.36C238.28,-313.46 260.93,-326.79 279.57,-337.75"/>
<polygon fill="purple" stroke="purple" points="277.96,-340.86 288.36,-342.91 281.51,-334.83 277.96,-340.86"/>
</g>
<!-- rgb_palette_codec -->
<g id="node15" class="node">
<title>rgb_palette_codec</title>
<ellipse fill="none" stroke="blue" cx="293" cy="-215" rx="75.29" ry="18"/>
<text text-anchor="middle" x="293" y="-211.3" font-family="Times,serif" font-size="14.00" fill="blue">rgb_palette_codec</text>
</g>
<!-- rgb_palette_codec&#45;&gt;palette_codec -->
<g id="edge19" class="edge">
<title>rgb_palette_codec&#45;&gt;palette_codec</title>
<path fill="none" stroke="blue" d="M270.27,-232.24C256.94,-241.76 239.93,-253.91 225.45,-264.25"/>
<polygon fill="blue" stroke="blue" points="223.37,-261.43 217.27,-270.09 227.44,-267.13 223.37,-261.43"/>
</g>
<!-- ycbcr_palette_codec -->
<g id="node16" class="node">
<title>ycbcr_palette_codec</title>
<ellipse fill="none" stroke="blue" cx="116" cy="-215" rx="83.39" ry="18"/>
<text text-anchor="middle" x="116" y="-211.3" font-family="Times,serif" font-size="14.00" fill="blue">ycbcr_palette_codec</text>
</g>
<!-- ycbcr_palette_codec&#45;&gt;palette_codec -->
<g id="edge20" class="edge">
<title>ycbcr_palette_codec&#45;&gt;palette_codec</title>
<path fill="none" stroke="blue" d="M134.72,-232.59C144.93,-241.63 157.72,-252.97 168.9,-262.87"/>
<polygon fill="blue" stroke="blue" points="166.88,-265.76 176.69,-269.77 171.52,-260.52 166.88,-265.76"/>
</g>
<!-- compressor -->
<g id="node17" class="node">
<title>compressor</title>
<ellipse fill="none" stroke="red" cx="556" cy="-949" rx="51.99" ry="18"/>
<text text-anchor="middle" x="556" y="-945.3" font-family="Times,serif" font-size="14.00" fill="red">compressor</text>
</g>
<!-- compressor&#45;&gt;video_encoder -->
<g id="edge26" class="edge">
<title>compressor&#45;&gt;video_encoder</title>
<path fill="none" stroke="black" d="M591.35,-962.24C603.83,-966.44 617.99,-971.07 631,-975 667.79,-986.11 709.53,-997.42 741.96,-1005.92"/>
<polygon fill="black" stroke="black" points="741.15,-1009.33 751.71,-1008.47 742.92,-1002.55 741.15,-1009.33"/>
</g>
<!-- none_compressor -->
<g id="node18" class="node">
<title>none_compressor</title>
<ellipse fill="none" stroke="blue" cx="546" cy="-877" rx="73.39" ry="18"/>
<text text-anchor="middle" x="546" y="-873.3" font-family="Times,serif" font-size="14.00" fill="blue">none_compressor</text>
</g>
<!-- none_compressor&#45;&gt;compressor -->
<g id="edge22" class="edge">
<title>none_compressor&#45;&gt;compressor</title>
<path fill="none" stroke="blue" d="M548.47,-895.3C549.57,-903.02 550.9,-912.29 552.13,-920.89"/>
<polygon fill="blue" stroke="blue" points="548.68,-921.49 553.56,-930.9 555.61,-920.5 548.68,-921.49"/>
</g>
<!-- obfuscator -->
<g id="node19" class="node">
<title>obfuscator</title>
<ellipse fill="none" stroke="red" cx="724" cy="-949" rx="48.19" ry="18"/>
<text text-anchor="middle" x="724" y="-945.3" font-family="Times,serif" font-size="14.00" fill="red">obfuscator</text>
</g>
<!-- obfuscator&#45;&gt;video_encoder -->
<g id="edge27" class="edge">
<title>obfuscator&#45;&gt;video_encoder</title>
<path fill="none" stroke="black" d="M740.93,-966.24C750.35,-975.27 762.25,-986.67 772.65,-996.65"/>
<polygon fill="black" stroke="black" points="770.27,-999.22 779.91,-1003.61 775.11,-994.16 770.27,-999.22"/>
</g>
<!-- none_obfuscator -->
<g id="node20" class="node">
<title>none_obfuscator</title>
<ellipse fill="none" stroke="blue" cx="713" cy="-877" rx="69.59" ry="18"/>
<text text-anchor="middle" x="713" y="-873.3" font-family="Times,serif" font-size="14.00" fill="blue">none_obfuscator</text>
</g>
<!-- none_obfuscator&#45;&gt;obfuscator -->
<g id="edge23" class="edge">
<title>none_obfuscator&#45;&gt;obfuscator</title>
<path fill="none" stroke="blue" d="M715.72,-895.3C716.93,-903.02 718.39,-912.29 719.74,-920.89"/>
<polygon fill="blue" stroke="blue" points="716.3,-921.56 721.31,-930.9 723.22,-920.47 716.3,-921.56"/>
</g>
<!-- corrector -->
<g id="node21" class="node">
<title>corrector</title>
<ellipse fill="none" stroke="red" cx="860" cy="-949" rx="42.49" ry="18"/>
<text text-anchor="middle" x="860" y="-945.3" font-family="Times,serif" font-size="14.00" fill="red">corrector</text>
</g>
<!-- corrector&#45;&gt;video_encoder -->
<g id="edge28" class="edge">
<title>corrector&#45;&gt;video_encoder</title>
<path fill="none" stroke="black" d="M845.39,-966.24C837.47,-975.03 827.54,-986.07 818.73,-995.86"/>
<polygon fill="black" stroke="black" points="816.06,-993.59 811.97,-1003.37 821.26,-998.28 816.06,-993.59"/>
</g>
<!-- none_corrector -->
<g id="node22" class="node">
<title>none_corrector</title>
<ellipse fill="none" stroke="blue" cx="871" cy="-877" rx="63.89" ry="18"/>
<text text-anchor="middle" x="871" y="-873.3" font-family="Times,serif" font-size="14.00" fill="blue">none_corrector</text>
</g>
<!-- none_corrector&#45;&gt;corrector -->
<g id="edge24" class="edge">
<title>none_corrector&#45;&gt;corrector</title>
<path fill="none" stroke="blue" d="M868.28,-895.3C867.07,-903.02 865.61,-912.29 864.26,-920.89"/>
<polygon fill="blue" stroke="blue" points="860.78,-920.47 862.69,-930.9 867.7,-921.56 860.78,-920.47"/>
</g>
<!-- video_socket -->
<g id="node33" class="node">
<title>video_socket</title>
<ellipse fill="none" stroke="blue" cx="867" cy="-1093" rx="57.39" ry="18"/>
<text text-anchor="middle" x="867" y="-1089.3" font-family="Times,serif" font-size="14.00" fill="blue">video_socket</text>
</g>
<!-- video_encoder&#45;&gt;video_socket -->
<g id="edge41" class="edge">
<title>video_encoder&#45;&gt;video_socket</title>
<path fill="none" stroke="black" d="M813.59,-1038.59C822.48,-1047.48 833.59,-1058.59 843.37,-1068.37"/>
<polygon fill="black" stroke="black" points="840.98,-1070.93 850.53,-1075.53 845.93,-1065.98 840.98,-1070.93"/>
</g>
<!-- color -->
<g id="node24" class="node">
<title>color</title>
<ellipse fill="none" stroke="black" cx="472" cy="-109" rx="28.7" ry="18"/>
<text text-anchor="middle" x="472" y="-105.3" font-family="Times,serif" font-size="14.00">color</text>
</g>
<!-- color&#45;&gt;basic_block_pointer -->
<g id="edge30" class="edge">
<title>color&#45;&gt;basic_block_pointer</title>
<path fill="none" stroke="black" d="M482.05,-126.02C483.56,-128.93 484.96,-131.99 486,-135 508.28,-199.2 510,-218.05 510,-286 510,-286 510,-286 510,-432 510,-513.72 409.02,-548.8 333.9,-563.59"/>
<polygon fill="black" stroke="black" points="333.13,-560.18 323.95,-565.47 334.43,-567.06 333.13,-560.18"/>
</g>
<!-- color&#45;&gt;basic_block_pointer_proxy -->
<g id="edge29" class="edge">
<title>color&#45;&gt;basic_block_pointer_proxy</title>
<path fill="none" stroke="black" d="M472,-127.49C472,-159.12 472,-227.94 472,-286 472,-286 472,-286 472,-360 472,-403.01 463.71,-417.9 434,-449 419.97,-463.68 401.04,-474.8 382.83,-482.96"/>
<polygon fill="black" stroke="black" points="381.25,-479.83 373.41,-486.96 383.98,-486.27 381.25,-479.83"/>
</g>
<!-- color&#45;&gt;hsv_codec -->
<g id="edge32" class="edge">
<title>color&#45;&gt;hsv_codec</title>
<path fill="none" stroke="black" d="M461.07,-125.8C444.15,-149.86 410.1,-196.73 377,-233 367.44,-243.48 356.14,-254.27 346.13,-263.36"/>
<polygon fill="black" stroke="black" points="343.56,-260.97 338.44,-270.25 348.23,-266.18 343.56,-260.97"/>
</g>
<!-- color&#45;&gt;rgb_palette_codec -->
<g id="edge31" class="edge">
<title>color&#45;&gt;rgb_palette_codec</title>
<path fill="none" stroke="black" d="M449.46,-120.18C440.22,-124.53 429.48,-129.79 420,-135 387.22,-153 351.13,-175.75 325.83,-192.21"/>
<polygon fill="black" stroke="black" points="323.81,-189.35 317.35,-197.75 327.64,-195.21 323.81,-189.35"/>
</g>
<!-- color_test -->
<g id="node35" class="node">
<title>color_test</title>
<ellipse fill="none" stroke="black" cx="774" cy="-794" rx="45.49" ry="18"/>
<text text-anchor="middle" x="774" y="-790.3" font-family="Times,serif" font-size="14.00">color_test</text>
</g>
<!-- color&#45;&gt;color_test -->
<g id="edge50" class="edge">
<title>color&#45;&gt;color_test</title>
<path fill="none" stroke="orange" d="M498.91,-115.11C564.64,-129.31 728,-175.7 728,-286 728,-286 728,-286 728,-648 728,-691.23 746.81,-738.47 760.37,-766.9"/>
<polygon fill="orange" stroke="orange" points="757.36,-768.71 764.91,-776.14 763.64,-765.62 757.36,-768.71"/>
</g>
<!-- color&#45;&gt;basic_block_test -->
<g id="edge49" class="edge">
<title>color&#45;&gt;basic_block_test</title>
<path fill="none" stroke="black" d="M500.71,-109.2C594.37,-108.21 885,-118.62 885,-286 885,-286 885,-286 885,-648 885,-689.5 893.92,-736.93 900.4,-765.92"/>
<polygon fill="black" stroke="black" points="897,-766.76 902.65,-775.72 903.82,-765.19 897,-766.76"/>
</g>
<!-- status_error -->
<g id="node25" class="node">
<title>status_error</title>
<ellipse fill="none" stroke="blue" cx="434" cy="-34" rx="51.99" ry="18"/>
<text text-anchor="middle" x="434" y="-30.3" font-family="Times,serif" font-size="14.00" fill="blue">status_error</text>
</g>
<!-- status_error&#45;&gt;color_codec -->
<g id="edge34" class="edge">
<title>status_error&#45;&gt;color_codec</title>
<path fill="none" stroke="black" d="M434.13,-52.19C433.72,-97.1 427.72,-220.34 377,-305 369.62,-317.31 358.34,-328.12 347.35,-336.71"/>
<polygon fill="black" stroke="black" points="345.04,-334.07 339.08,-342.83 349.2,-339.7 345.04,-334.07"/>
</g>
<!-- status_error&#45;&gt;color -->
<g id="edge33" class="edge">
<title>status_error&#45;&gt;color</title>
<path fill="none" stroke="black" d="M442.81,-51.93C447.58,-61.09 453.56,-72.58 458.87,-82.77"/>
<polygon fill="black" stroke="black" points="455.77,-84.41 463.5,-91.66 461.98,-81.18 455.77,-84.41"/>
</g>
<!-- math -->
<g id="node26" class="node">
<title>math</title>
<ellipse fill="none" stroke="black" cx="553" cy="-575" rx="28.7" ry="18"/>
<text text-anchor="middle" x="553" y="-571.3" font-family="Times,serif" font-size="14.00">math</text>
</g>
<!-- math&#45;&gt;basic_block_container -->
<g id="edge35" class="edge">
<title>math&#45;&gt;basic_block_container</title>
<path fill="none" stroke="black" d="M526.73,-582.15C480.85,-592.89 384.82,-615.37 319.86,-630.58"/>
<polygon fill="black" stroke="black" points="319.05,-627.18 310.11,-632.86 320.64,-633.99 319.05,-627.18"/>
</g>
<!-- math_test -->
<g id="node38" class="node">
<title>math_test</title>
<ellipse fill="none" stroke="black" cx="665" cy="-794" rx="45.49" ry="18"/>
<text text-anchor="middle" x="665" y="-790.3" font-family="Times,serif" font-size="14.00">math_test</text>
</g>
<!-- math&#45;&gt;math_test -->
<g id="edge51" class="edge">
<title>math&#45;&gt;math_test</title>
<path fill="none" stroke="orange" d="M578.56,-583.57C600,-591.33 629.53,-605.64 645,-629 672.43,-670.44 671.89,-730.9 668.68,-765.66"/>
<polygon fill="orange" stroke="orange" points="665.16,-765.67 667.57,-775.99 672.12,-766.41 665.16,-765.67"/>
</g>
<!-- video_pipe_in -->
<g id="node27" class="node">
<title>video_pipe_in</title>
<ellipse fill="none" stroke="red" cx="994" cy="-1021" rx="61.19" ry="18"/>
<text text-anchor="middle" x="994" y="-1017.3" font-family="Times,serif" font-size="14.00" fill="red">video_pipe_in</text>
</g>
<!-- video_pipe_in&#45;&gt;video_socket -->
<g id="edge42" class="edge">
<title>video_pipe_in&#45;&gt;video_socket</title>
<path fill="none" stroke="black" d="M966.44,-1037.19C947.84,-1047.44 923.11,-1061.07 902.96,-1072.18"/>
<polygon fill="black" stroke="black" points="901.14,-1069.19 894.07,-1077.08 904.51,-1075.32 901.14,-1069.19"/>
</g>
<!-- video_pipe_out -->
<g id="node28" class="node">
<title>video_pipe_out</title>
<ellipse fill="none" stroke="red" cx="1195" cy="-1021" rx="65.79" ry="18"/>
<text text-anchor="middle" x="1195" y="-1017.3" font-family="Times,serif" font-size="14.00" fill="red">video_pipe_out</text>
</g>
<!-- video_pipe_out&#45;&gt;video_socket -->
<g id="edge43" class="edge">
<title>video_pipe_out&#45;&gt;video_socket</title>
<path fill="none" stroke="black" d="M1144.83,-1032.71C1084.99,-1045.48 985.26,-1066.76 922.97,-1080.05"/>
<polygon fill="black" stroke="black" points="921.98,-1076.69 912.93,-1082.2 923.44,-1083.53 921.98,-1076.69"/>
</g>
<!-- ffmpeg_rtmp_pipe_in -->
<g id="node29" class="node">
<title>ffmpeg_rtmp_pipe_in</title>
<ellipse fill="none" stroke="blue" cx="1040" cy="-949" rx="89.08" ry="18"/>
<text text-anchor="middle" x="1040" y="-945.3" font-family="Times,serif" font-size="14.00" fill="blue">ffmpeg_rtmp_pipe_in</text>
</g>
<!-- ffmpeg_rtmp_pipe_in&#45;&gt;video_pipe_in -->
<g id="edge37" class="edge">
<title>ffmpeg_rtmp_pipe_in&#45;&gt;video_pipe_in</title>
<path fill="none" stroke="blue" d="M1028.86,-966.95C1023.38,-975.29 1016.67,-985.51 1010.59,-994.75"/>
<polygon fill="blue" stroke="blue" points="1007.6,-992.93 1005.03,-1003.21 1013.45,-996.78 1007.6,-992.93"/>
</g>
<!-- ffmpeg_rtmp_pipe_out -->
<g id="node30" class="node">
<title>ffmpeg_rtmp_pipe_out</title>
<ellipse fill="none" stroke="blue" cx="1240" cy="-949" rx="92.88" ry="18"/>
<text text-anchor="middle" x="1240" y="-945.3" font-family="Times,serif" font-size="14.00" fill="blue">ffmpeg_rtmp_pipe_out</text>
</g>
<!-- ffmpeg_rtmp_pipe_out&#45;&gt;video_pipe_out -->
<g id="edge38" class="edge">
<title>ffmpeg_rtmp_pipe_out&#45;&gt;video_pipe_out</title>
<path fill="none" stroke="blue" d="M1229.11,-966.95C1223.75,-975.29 1217.17,-985.51 1211.23,-994.75"/>
<polygon fill="blue" stroke="blue" points="1208.26,-992.91 1205.79,-1003.21 1214.14,-996.69 1208.26,-992.91"/>
</g>
<!-- video_pipe_config -->
<g id="node31" class="node">
<title>video_pipe_config</title>
<ellipse fill="none" stroke="green" cx="1428" cy="-949" rx="76.89" ry="18"/>
<text text-anchor="middle" x="1428" y="-945.3" font-family="Times,serif" font-size="14.00" fill="green">video_pipe_config</text>
</g>
<!-- ffmpeg_rtmp_config -->
<g id="node32" class="node">
<title>ffmpeg_rtmp_config</title>
<ellipse fill="none" stroke="green" cx="1240" cy="-877" rx="85.29" ry="18"/>
<text text-anchor="middle" x="1240" y="-873.3" font-family="Times,serif" font-size="14.00" fill="green">ffmpeg_rtmp_config</text>
</g>
<!-- ffmpeg_rtmp_config&#45;&gt;ffmpeg_rtmp_pipe_in -->
<g id="edge39" class="edge">
<title>ffmpeg_rtmp_config&#45;&gt;ffmpeg_rtmp_pipe_in</title>
<path fill="none" stroke="black" d="M1198.07,-892.67C1167.21,-903.47 1125.06,-918.23 1092.05,-929.78"/>
<polygon fill="black" stroke="black" points="1090.84,-926.5 1082.56,-933.1 1093.16,-933.1 1090.84,-926.5"/>
</g>
<!-- ffmpeg_rtmp_config&#45;&gt;ffmpeg_rtmp_pipe_out -->
<g id="edge40" class="edge">
<title>ffmpeg_rtmp_config&#45;&gt;ffmpeg_rtmp_pipe_out</title>
<path fill="none" stroke="black" d="M1240,-895.3C1240,-903.02 1240,-912.29 1240,-920.89"/>
<polygon fill="black" stroke="black" points="1236.5,-920.9 1240,-930.9 1243.5,-920.9 1236.5,-920.9"/>
</g>
<!-- ffmpeg_rtmp_config&#45;&gt;video_pipe_config -->
<g id="edge36" class="edge">
<title>ffmpeg_rtmp_config&#45;&gt;video_pipe_config</title>
<path fill="none" stroke="green" d="M1280.33,-893.02C1309.34,-903.82 1348.61,-918.44 1379.36,-929.89"/>
<polygon fill="green" stroke="green" points="1378.43,-933.28 1389.02,-933.49 1380.87,-926.72 1378.43,-933.28"/>
</g>
<!-- test -->
<g id="node34" class="node">
<title>test</title>
<ellipse fill="none" stroke="black" cx="500" cy="-722" rx="27" ry="18"/>
<text text-anchor="middle" x="500" y="-718.3" font-family="Times,serif" font-size="14.00">test</text>
</g>
<!-- test&#45;&gt;color_test -->
<g id="edge44" class="edge">
<title>test&#45;&gt;color_test</title>
<path fill="none" stroke="black" d="M525.42,-728.61C566.38,-737.77 649.41,-756.85 719,-776 722.58,-776.99 726.29,-778.04 730,-779.13"/>
<polygon fill="black" stroke="black" points="729.19,-782.54 739.77,-782.06 731.19,-775.84 729.19,-782.54"/>
</g>
<!-- test&#45;&gt;basic_block_test -->
<g id="edge45" class="edge">
<title>test&#45;&gt;basic_block_test</title>
<path fill="none" stroke="black" d="M525.17,-728.88C540.65,-732.37 560.91,-736.75 579,-740 689.06,-759.77 717.94,-756.23 828,-776 834.07,-777.09 840.39,-778.31 846.69,-779.58"/>
<polygon fill="black" stroke="black" points="846.03,-783.02 856.53,-781.6 847.44,-776.16 846.03,-783.02"/>
</g>
<!-- test&#45;&gt;len_reader_test -->
<g id="edge46" class="edge">
<title>test&#45;&gt;len_reader_test</title>
<path fill="none" stroke="black" d="M508.58,-739.24C512.94,-747.47 518.33,-757.68 523.25,-766.98"/>
<polygon fill="black" stroke="black" points="520.18,-768.67 527.95,-775.88 526.37,-765.4 520.18,-768.67"/>
</g>
<!-- test&#45;&gt;math_test -->
<g id="edge47" class="edge">
<title>test&#45;&gt;math_test</title>
<path fill="none" stroke="black" d="M522.25,-732.44C548.64,-743.63 593.11,-762.5 625.41,-776.2"/>
<polygon fill="black" stroke="black" points="624.44,-779.59 635.01,-780.28 627.17,-773.15 624.44,-779.59"/>
</g>
<!-- Hint -->
<g id="node39" class="node">
<title>Hint</title>
<text text-anchor="middle" x="822" y="-30.3" font-family="Times,serif" font-size="14.00">Hint</text>
</g>
<!-- legend2 -->
<g id="node40" class="node">
<title>legend2</title>
<ellipse fill="none" stroke="black" cx="759" cy="-34" rx="18" ry="18"/>
<text text-anchor="middle" x="759" y="-30.3" font-family="Times,serif" font-size="14.00">B</text>
</g>
<!-- legend1 -->
<g id="node41" class="node">
<title>legend1</title>
<ellipse fill="none" stroke="black" cx="687" cy="-34" rx="18" ry="18"/>
<text text-anchor="middle" x="687" y="-30.3" font-family="Times,serif" font-size="14.00">A</text>
</g>
<!-- legend1&#45;&gt;legend2 -->
<g id="edge48" class="edge">
<title>legend1&#45;&gt;legend2</title>
<path fill="none" stroke="black" d="M705,-34C713.59,-34 722.18,-34 730.77,-34"/>
<polygon fill="black" stroke="black" points="730.86,-37.5 740.86,-34 730.86,-30.5 730.86,-37.5"/>
</g>
</g>
</svg>
