<?xml version="1.0" encoding="UTF-8" standalone="no"?>
<!DOCTYPE svg PUBLIC "-//W3C//DTD SVG 1.1//EN"
 "http://www.w3.org/Graphics/SVG/1.1/DTD/svg11.dtd">
<!-- Generated by graphviz version 2.43.0 (0)
 -->
<!-- Title: %3 Pages: 1 -->
<svg width="1513pt" height="1100pt"
 viewBox="0.00 0.00 1512.69 1100.00" xmlns="http://www.w3.org/2000/svg" xmlns:xlink="http://www.w3.org/1999/xlink">
<g id="graph0" class="graph" transform="scale(1 1) rotate(0) translate(4 1096)">
<title>%3</title>
<polygon fill="white" stroke="transparent" points="-4,4 -4,-1096 1508.69,-1096 1508.69,4 -4,4"/>
<g id="clust3" class="cluster">
<title>cluster_providers</title>
<path fill="none" stroke="black" d="M20,-116C20,-116 445,-116 445,-116 451,-116 457,-122 457,-128 457,-128 457,-944 457,-944 457,-950 451,-956 445,-956 445,-956 20,-956 20,-956 14,-956 8,-950 8,-944 8,-944 8,-128 8,-128 8,-122 14,-116 20,-116"/>
<text text-anchor="middle" x="232.5" y="-123.8" font-family="Times,serif" font-size="14.00">providers</text>
</g>
<g id="clust6" class="cluster">
<title>cluster_color_codecs</title>
<path fill="none" stroke="black" d="M37,-147C37,-147 364,-147 364,-147 370,-147 376,-153 376,-159 376,-159 376,-354 376,-354 376,-360 370,-366 364,-366 364,-366 37,-366 37,-366 31,-366 25,-360 25,-354 25,-354 25,-159 25,-159 25,-153 31,-147 37,-147"/>
<text text-anchor="middle" x="200.5" y="-154.8" font-family="Times,serif" font-size="14.00">color_codecs</text>
</g>
<g id="clust7" class="cluster">
<title>cluster_compressors</title>
<path fill="none" stroke="black" d="M477,-809C477,-809 615,-809 615,-809 621,-809 627,-815 627,-821 627,-821 627,-944 627,-944 627,-950 621,-956 615,-956 615,-956 477,-956 477,-956 471,-956 465,-950 465,-944 465,-944 465,-821 465,-821 465,-815 471,-809 477,-809"/>
<text text-anchor="middle" x="546" y="-816.8" font-family="Times,serif" font-size="14.00">compressors</text>
</g>
<g id="clust8" class="cluster">
<title>cluster_obfuscators</title>
<path fill="none" stroke="black" d="M647,-809C647,-809 779,-809 779,-809 785,-809 791,-815 791,-821 791,-821 791,-944 791,-944 791,-950 785,-956 779,-956 779,-956 647,-956 647,-956 641,-956 635,-950 635,-944 635,-944 635,-821 635,-821 635,-815 641,-809 647,-809"/>
<text text-anchor="middle" x="713" y="-816.8" font-family="Times,serif" font-size="14.00">obfuscators</text>
</g>
<g id="clust9" class="cluster">
<title>cluster_correctors</title>
<path fill="none" stroke="black" d="M811,-809C811,-809 931,-809 931,-809 937,-809 943,-815 943,-821 943,-821 943,-944 943,-944 943,-950 937,-956 931,-956 931,-956 811,-956 811,-956 805,-956 799,-950 799,-944 799,-944 799,-821 799,-821 799,-815 805,-809 811,-809"/>
<text text-anchor="middle" x="871" y="-816.8" font-family="Times,serif" font-size="14.00">correctors</text>
</g>
<g id="clust11" class="cluster">
<title>cluster_test</title>
<path fill="none" stroke="black" d="M477,-654C477,-654 973,-654 973,-654 979,-654 985,-660 985,-666 985,-666 985,-789 985,-789 985,-795 979,-801 973,-801 973,-801 477,-801 477,-801 471,-801 465,-795 465,-789 465,-789 465,-666 465,-666 465,-660 471,-654 477,-654"/>
<text text-anchor="middle" x="725" y="-661.8" font-family="Times,serif" font-size="14.00">TESTS</text>
</g>
<!-- provider -->
<g id="node1" class="node">
<title>provider</title>
<ellipse fill="none" stroke="red" cx="331" cy="-930" rx="40.09" ry="18"/>
<text text-anchor="middle" x="331" y="-926.3" font-family="Times,serif" font-size="14.00" fill="red">provider</text>
</g>
<!-- video_encoder -->
<g id="node23" class="node">
<title>video_encoder</title>
<ellipse fill="none" stroke="blue" cx="797" cy="-1002" rx="62.29" ry="18"/>
<text text-anchor="middle" x="797" y="-998.3" font-family="Times,serif" font-size="14.00" fill="blue">video_encoder</text>
</g>
<!-- provider&#45;&gt;video_encoder -->
<g id="edge25" class="edge">
<title>provider&#45;&gt;video_encoder</title>
<path fill="none" stroke="black" d="M366.77,-938.45C392.83,-943.73 429.02,-950.79 461,-956 554.1,-971.17 662.32,-984.99 730.24,-993.19"/>
<polygon fill="black" stroke="black" points="730.03,-996.69 740.38,-994.41 730.87,-989.74 730.03,-996.69"/>
</g>
<!-- basic_provider -->
<g id="node2" class="node">
<title>basic_provider</title>
<ellipse fill="none" stroke="blue" cx="254" cy="-858" rx="63.09" ry="18"/>
<text text-anchor="middle" x="254" y="-854.3" font-family="Times,serif" font-size="14.00" fill="blue">basic_provider</text>
</g>
<!-- basic_provider&#45;&gt;provider -->
<g id="edge1" class="edge">
<title>basic_provider&#45;&gt;provider</title>
<path fill="none" stroke="blue" d="M272.25,-875.59C282.41,-884.83 295.21,-896.46 306.26,-906.51"/>
<polygon fill="blue" stroke="blue" points="304.18,-909.35 313.94,-913.49 308.89,-904.17 304.18,-909.35"/>
</g>
<!-- basic_block_container -->
<g id="node3" class="node">
<title>basic_block_container</title>
<ellipse fill="none" stroke="blue" cx="254" cy="-628" rx="89.88" ry="18"/>
<text text-anchor="middle" x="254" y="-624.3" font-family="Times,serif" font-size="14.00" fill="blue">basic_block_container</text>
</g>
<!-- basic_block_container&#45;&gt;basic_provider -->
<g id="edge2" class="edge">
<title>basic_block_container&#45;&gt;basic_provider</title>
<path fill="none" stroke="black" d="M254,-646.14C254,-685.43 254,-782.3 254,-829.82"/>
<polygon fill="black" stroke="black" points="250.5,-829.98 254,-839.98 257.5,-829.98 250.5,-829.98"/>
</g>
<!-- basic_block_test -->
<g id="node36" class="node">
<title>basic_block_test</title>
<ellipse fill="none" stroke="black" cx="907" cy="-775" rx="69.59" ry="18"/>
<text text-anchor="middle" x="907" y="-771.3" font-family="Times,serif" font-size="14.00">basic_block_test</text>
</g>
<!-- basic_block_container&#45;&gt;basic_block_test -->
<g id="edge52" class="edge">
<title>basic_block_container&#45;&gt;basic_block_test</title>
<path fill="none" stroke="orange" d="M342.94,-630.39C404.24,-632.78 487.26,-638.86 559,-654 647.84,-672.75 666.15,-691.42 752,-721 787.06,-733.08 826.61,-746.6 856.99,-756.97"/>
<polygon fill="orange" stroke="orange" points="855.92,-760.3 866.51,-760.21 858.18,-753.67 855.92,-760.3"/>
</g>
<!-- len_reader_test -->
<g id="node37" class="node">
<title>len_reader_test</title>
<ellipse fill="none" stroke="black" cx="537" cy="-775" rx="64.19" ry="18"/>
<text text-anchor="middle" x="537" y="-771.3" font-family="Times,serif" font-size="14.00">len_reader_test</text>
</g>
<!-- basic_block_container&#45;&gt;len_reader_test -->
<g id="edge56" class="edge">
<title>basic_block_container&#45;&gt;len_reader_test</title>
<path fill="none" stroke="black" d="M342.78,-630.99C420.47,-633.67 522.96,-639.87 536,-654 558.8,-678.71 553.25,-719.95 546.04,-747.07"/>
<polygon fill="black" stroke="black" points="542.67,-746.12 543.24,-756.7 549.39,-748.07 542.67,-746.12"/>
</g>
<!-- basic_block_pointer -->
<g id="node4" class="node">
<title>basic_block_pointer</title>
<ellipse fill="none" stroke="blue" cx="254" cy="-556" rx="81.79" ry="18"/>
<text text-anchor="middle" x="254" y="-552.3" font-family="Times,serif" font-size="14.00" fill="blue">basic_block_pointer</text>
</g>
<!-- basic_block_pointer&#45;&gt;basic_block_container -->
<g id="edge3" class="edge">
<title>basic_block_pointer&#45;&gt;basic_block_container</title>
<path fill="none" stroke="black" d="M254,-574.3C254,-582.02 254,-591.29 254,-599.89"/>
<polygon fill="black" stroke="black" points="250.5,-599.9 254,-609.9 257.5,-599.9 250.5,-599.9"/>
</g>
<!-- raw_ip_length_reader -->
<g id="node7" class="node">
<title>raw_ip_length_reader</title>
<ellipse fill="none" stroke="blue" cx="361" cy="-703" rx="87.99" ry="18"/>
<text text-anchor="middle" x="361" y="-699.3" font-family="Times,serif" font-size="14.00" fill="blue">raw_ip_length_reader</text>
</g>
<!-- basic_block_pointer&#45;&gt;raw_ip_length_reader -->
<g id="edge16" class="edge">
<title>basic_block_pointer&#45;&gt;raw_ip_length_reader</title>
<path fill="none" stroke="black" d="M300.55,-570.81C319.98,-579.02 340.82,-591.53 353,-610 365.51,-628.97 366.62,-655.14 365.12,-674.72"/>
<polygon fill="black" stroke="black" points="361.62,-674.52 364.07,-684.83 368.58,-675.25 361.62,-674.52"/>
</g>
<!-- basic_block_pointer&#45;&gt;basic_block_test -->
<g id="edge53" class="edge">
<title>basic_block_pointer&#45;&gt;basic_block_test</title>
<path fill="none" stroke="orange" d="M325.6,-564.79C385.89,-572.55 473.9,-586.74 548,-610 660.9,-645.44 682.33,-671.92 790,-721 814.77,-732.29 842.52,-744.86 864.77,-754.93"/>
<polygon fill="orange" stroke="orange" points="863.39,-758.15 873.95,-759.08 866.28,-751.77 863.39,-758.15"/>
</g>
<!-- basic_block_pointer&#45;&gt;len_reader_test -->
<g id="edge55" class="edge">
<title>basic_block_pointer&#45;&gt;len_reader_test</title>
<path fill="none" stroke="black" d="M335.57,-557.95C407.4,-563.65 508.24,-584.59 559,-654 579.16,-681.56 565.2,-721.99 552.11,-748.16"/>
<polygon fill="black" stroke="black" points="548.96,-746.63 547.39,-757.1 555.15,-749.89 548.96,-746.63"/>
</g>
<!-- basic_block_pointer_proxy -->
<g id="node5" class="node">
<title>basic_block_pointer_proxy</title>
<ellipse fill="none" stroke="blue" cx="324" cy="-484" rx="106.68" ry="18"/>
<text text-anchor="middle" x="324" y="-480.3" font-family="Times,serif" font-size="14.00" fill="blue">basic_block_pointer_proxy</text>
</g>
<!-- basic_block_pointer_proxy&#45;&gt;basic_block_container -->
<g id="edge5" class="edge">
<title>basic_block_pointer_proxy&#45;&gt;basic_block_container</title>
<path fill="none" stroke="black" d="M228.99,-492.21C164.54,-499.31 87.47,-512.88 67,-538 32.33,-580.55 105.51,-604 170.24,-616"/>
<polygon fill="black" stroke="black" points="169.67,-619.46 180.13,-617.76 170.89,-612.56 169.67,-619.46"/>
</g>
<!-- basic_block_pointer_proxy&#45;&gt;basic_block_pointer -->
<g id="edge4" class="edge">
<title>basic_block_pointer_proxy&#45;&gt;basic_block_pointer</title>
<path fill="none" stroke="black" d="M307.05,-501.95C298.37,-510.63 287.64,-521.36 278.11,-530.89"/>
<polygon fill="black" stroke="black" points="275.39,-528.67 270.79,-538.21 280.33,-533.61 275.39,-528.67"/>
</g>
<!-- basic_block_pointer_proxy&#45;&gt;basic_block_test -->
<g id="edge51" class="edge">
<title>basic_block_pointer_proxy&#45;&gt;basic_block_test</title>
<path fill="none" stroke="orange" d="M422.27,-491.08C479.68,-497.51 552.34,-510.76 612,-538 728.7,-591.29 839.3,-700.93 884.98,-749.69"/>
<polygon fill="orange" stroke="orange" points="882.63,-752.3 892,-757.25 887.76,-747.54 882.63,-752.3"/>
</g>
<!-- data_length_reader -->
<g id="node6" class="node">
<title>data_length_reader</title>
<ellipse fill="none" stroke="red" cx="356" cy="-775" rx="77.99" ry="18"/>
<text text-anchor="middle" x="356" y="-771.3" font-family="Times,serif" font-size="14.00" fill="red">data_length_reader</text>
</g>
<!-- data_length_reader&#45;&gt;basic_provider -->
<g id="edge15" class="edge">
<title>data_length_reader&#45;&gt;basic_provider</title>
<path fill="none" stroke="black" d="M335.36,-792.39C320.05,-804.55 299.01,-821.26 282.15,-834.64"/>
<polygon fill="black" stroke="black" points="279.92,-831.95 274.26,-840.91 284.27,-837.43 279.92,-831.95"/>
</g>
<!-- raw_ip_length_reader&#45;&gt;data_length_reader -->
<g id="edge14" class="edge">
<title>raw_ip_length_reader&#45;&gt;data_length_reader</title>
<path fill="none" stroke="blue" d="M359.76,-721.3C359.21,-729.02 358.55,-738.29 357.94,-746.89"/>
<polygon fill="blue" stroke="blue" points="354.44,-746.67 357.22,-756.9 361.43,-747.17 354.44,-746.67"/>
</g>
<!-- raw_ip_length_reader&#45;&gt;len_reader_test -->
<g id="edge54" class="edge">
<title>raw_ip_length_reader&#45;&gt;len_reader_test</title>
<path fill="none" stroke="orange" d="M399.62,-719.36C426.9,-730.21 463.53,-744.78 492.1,-756.14"/>
<polygon fill="orange" stroke="orange" points="490.87,-759.42 501.46,-759.86 493.46,-752.92 490.87,-759.42"/>
</g>
<!-- bit_area -->
<g id="node8" class="node">
<title>bit_area</title>
<ellipse fill="none" stroke="green" cx="115" cy="-556" rx="38.99" ry="18"/>
<text text-anchor="middle" x="115" y="-552.3" font-family="Times,serif" font-size="14.00" fill="green">bit_area</text>
</g>
<!-- bit_area&#45;&gt;basic_block_container -->
<g id="edge6" class="edge">
<title>bit_area&#45;&gt;basic_block_container</title>
<path fill="none" stroke="black" d="M140.49,-569.84C160.84,-580.08 189.72,-594.63 213.26,-606.49"/>
<polygon fill="black" stroke="black" points="211.82,-609.68 222.32,-611.05 214.97,-603.42 211.82,-609.68"/>
</g>
<!-- basic_block_config -->
<g id="node9" class="node">
<title>basic_block_config</title>
<ellipse fill="none" stroke="green" cx="105" cy="-412" rx="79.09" ry="18"/>
<text text-anchor="middle" x="105" y="-408.3" font-family="Times,serif" font-size="14.00" fill="green">basic_block_config</text>
</g>
<!-- basic_block_config&#45;&gt;basic_block_container -->
<g id="edge7" class="edge">
<title>basic_block_config&#45;&gt;basic_block_container</title>
<path fill="none" stroke="black" d="M90.77,-429.8C66,-461.16 20.76,-529.44 55,-574 69.68,-593.1 124.01,-606.77 172.21,-615.44"/>
<polygon fill="black" stroke="black" points="171.61,-618.89 182.07,-617.16 172.82,-612 171.61,-618.89"/>
</g>
<!-- basic_block_config&#45;&gt;basic_block_pointer -->
<g id="edge8" class="edge">
<title>basic_block_config&#45;&gt;basic_block_pointer</title>
<path fill="none" stroke="black" d="M122.38,-429.57C148.6,-454.55 198.39,-502.01 228.65,-530.84"/>
<polygon fill="black" stroke="black" points="226.61,-533.73 236.27,-538.1 231.44,-528.67 226.61,-533.73"/>
</g>
<!-- basic_block_config&#45;&gt;basic_block_pointer_proxy -->
<g id="edge9" class="edge">
<title>basic_block_config&#45;&gt;basic_block_pointer_proxy</title>
<path fill="none" stroke="black" d="M149.05,-427.08C182.99,-437.93 230.18,-453.01 267,-464.78"/>
<polygon fill="black" stroke="black" points="266.01,-468.14 276.6,-467.85 268.14,-461.47 266.01,-468.14"/>
</g>
<!-- basic_block_config&#45;&gt;raw_ip_length_reader -->
<g id="edge10" class="edge">
<title>basic_block_config&#45;&gt;raw_ip_length_reader</title>
<path fill="none" stroke="black" d="M79.35,-429.27C67.11,-438.48 53.51,-451.13 46,-466 24.31,-508.93 15.62,-531.97 39,-574 83.64,-654.25 189.53,-684.31 267.75,-695.5"/>
<polygon fill="black" stroke="black" points="267.74,-699.03 278.12,-696.89 268.67,-692.09 267.74,-699.03"/>
</g>
<!-- rect -->
<g id="node10" class="node">
<title>rect</title>
<ellipse fill="none" stroke="green" cx="249" cy="-412" rx="27" ry="18"/>
<text text-anchor="middle" x="249" y="-408.3" font-family="Times,serif" font-size="14.00" fill="green">rect</text>
</g>
<!-- rect&#45;&gt;basic_block_pointer -->
<g id="edge12" class="edge">
<title>rect&#45;&gt;basic_block_pointer</title>
<path fill="none" stroke="black" d="M233.79,-427.15C224.37,-437.01 213.11,-451.03 208,-466 202.83,-481.14 202.4,-487.01 208,-502 211.94,-512.55 219.03,-522.4 226.49,-530.67"/>
<polygon fill="black" stroke="black" points="224.19,-533.32 233.66,-538.08 229.23,-528.46 224.19,-533.32"/>
</g>
<!-- rect&#45;&gt;basic_block_pointer_proxy -->
<g id="edge11" class="edge">
<title>rect&#45;&gt;basic_block_pointer_proxy</title>
<path fill="none" stroke="black" d="M264.18,-427.17C273.98,-436.32 286.99,-448.46 298.38,-459.08"/>
<polygon fill="black" stroke="black" points="296.24,-461.88 305.94,-466.14 301.01,-456.76 296.24,-461.88"/>
</g>
<!-- rgb_index -->
<g id="node11" class="node">
<title>rgb_index</title>
<ellipse fill="none" stroke="green" cx="379" cy="-412" rx="46.29" ry="18"/>
<text text-anchor="middle" x="379" y="-408.3" font-family="Times,serif" font-size="14.00" fill="green">rgb_index</text>
</g>
<!-- rgb_index&#45;&gt;basic_block_pointer_proxy -->
<g id="edge13" class="edge">
<title>rgb_index&#45;&gt;basic_block_pointer_proxy</title>
<path fill="none" stroke="black" d="M365.97,-429.59C359.28,-438.09 351.01,-448.63 343.58,-458.09"/>
<polygon fill="black" stroke="black" points="340.75,-456.02 337.32,-466.04 346.25,-460.34 340.75,-456.02"/>
</g>
<!-- color_codec -->
<g id="node12" class="node">
<title>color_codec</title>
<ellipse fill="none" stroke="purple" cx="314" cy="-340" rx="53.89" ry="18"/>
<text text-anchor="middle" x="314" y="-336.3" font-family="Times,serif" font-size="14.00" fill="purple">color_codec</text>
</g>
<!-- color_codec&#45;&gt;basic_block_pointer_proxy -->
<g id="edge21" class="edge">
<title>color_codec&#45;&gt;basic_block_pointer_proxy</title>
<path fill="none" stroke="black" d="M315.21,-358.13C316.91,-382.33 320.04,-426.79 322.07,-455.61"/>
<polygon fill="black" stroke="black" points="318.6,-456.08 322.79,-465.81 325.58,-455.59 318.6,-456.08"/>
</g>
<!-- hsv_codec -->
<g id="node13" class="node">
<title>hsv_codec</title>
<ellipse fill="none" stroke="blue" cx="320" cy="-268" rx="48.19" ry="18"/>
<text text-anchor="middle" x="320" y="-264.3" font-family="Times,serif" font-size="14.00" fill="blue">hsv_codec</text>
</g>
<!-- hsv_codec&#45;&gt;color_codec -->
<g id="edge17" class="edge">
<title>hsv_codec&#45;&gt;color_codec</title>
<path fill="none" stroke="blue" d="M318.52,-286.3C317.86,-294.02 317.06,-303.29 316.32,-311.89"/>
<polygon fill="blue" stroke="blue" points="312.83,-311.63 315.47,-321.9 319.81,-312.23 312.83,-311.63"/>
</g>
<!-- palette_codec -->
<g id="node14" class="node">
<title>palette_codec</title>
<ellipse fill="none" stroke="purple" cx="195" cy="-268" rx="59.29" ry="18"/>
<text text-anchor="middle" x="195" y="-264.3" font-family="Times,serif" font-size="14.00" fill="purple">palette_codec</text>
</g>
<!-- palette_codec&#45;&gt;color_codec -->
<g id="edge18" class="edge">
<title>palette_codec&#45;&gt;color_codec</title>
<path fill="none" stroke="purple" d="M221.12,-284.36C238.28,-294.46 260.93,-307.79 279.57,-318.75"/>
<polygon fill="purple" stroke="purple" points="277.96,-321.86 288.36,-323.91 281.51,-315.83 277.96,-321.86"/>
</g>
<!-- rgb_palette_codec -->
<g id="node15" class="node">
<title>rgb_palette_codec</title>
<ellipse fill="none" stroke="blue" cx="293" cy="-196" rx="75.29" ry="18"/>
<text text-anchor="middle" x="293" y="-192.3" font-family="Times,serif" font-size="14.00" fill="blue">rgb_palette_codec</text>
</g>
<!-- rgb_palette_codec&#45;&gt;palette_codec -->
<g id="edge19" class="edge">
<title>rgb_palette_codec&#45;&gt;palette_codec</title>
<path fill="none" stroke="blue" d="M270.27,-213.24C256.94,-222.76 239.93,-234.91 225.45,-245.25"/>
<polygon fill="blue" stroke="blue" points="223.37,-242.43 217.27,-251.09 227.44,-248.13 223.37,-242.43"/>
</g>
<!-- ycbcr_palette_codec -->
<g id="node16" class="node">
<title>ycbcr_palette_codec</title>
<ellipse fill="none" stroke="blue" cx="116" cy="-196" rx="83.39" ry="18"/>
<text text-anchor="middle" x="116" y="-192.3" font-family="Times,serif" font-size="14.00" fill="blue">ycbcr_palette_codec</text>
</g>
<!-- ycbcr_palette_codec&#45;&gt;palette_codec -->
<g id="edge20" class="edge">
<title>ycbcr_palette_codec&#45;&gt;palette_codec</title>
<path fill="none" stroke="blue" d="M134.72,-213.59C144.93,-222.63 157.72,-233.97 168.9,-243.87"/>
<polygon fill="blue" stroke="blue" points="166.88,-246.76 176.69,-250.77 171.52,-241.52 166.88,-246.76"/>
</g>
<!-- compressor -->
<g id="node17" class="node">
<title>compressor</title>
<ellipse fill="none" stroke="red" cx="556" cy="-930" rx="51.99" ry="18"/>
<text text-anchor="middle" x="556" y="-926.3" font-family="Times,serif" font-size="14.00" fill="red">compressor</text>
</g>
<!-- compressor&#45;&gt;video_encoder -->
<g id="edge26" class="edge">
<title>compressor&#45;&gt;video_encoder</title>
<path fill="none" stroke="black" d="M591.35,-943.24C603.83,-947.44 617.99,-952.07 631,-956 667.79,-967.11 709.53,-978.42 741.96,-986.92"/>
<polygon fill="black" stroke="black" points="741.15,-990.33 751.71,-989.47 742.92,-983.55 741.15,-990.33"/>
</g>
<!-- none_compressor -->
<g id="node18" class="node">
<title>none_compressor</title>
<ellipse fill="none" stroke="blue" cx="546" cy="-858" rx="73.39" ry="18"/>
<text text-anchor="middle" x="546" y="-854.3" font-family="Times,serif" font-size="14.00" fill="blue">none_compressor</text>
</g>
<!-- none_compressor&#45;&gt;compressor -->
<g id="edge22" class="edge">
<title>none_compressor&#45;&gt;compressor</title>
<path fill="none" stroke="blue" d="M548.47,-876.3C549.57,-884.02 550.9,-893.29 552.13,-901.89"/>
<polygon fill="blue" stroke="blue" points="548.68,-902.49 553.56,-911.9 555.61,-901.5 548.68,-902.49"/>
</g>
<!-- obfuscator -->
<g id="node19" class="node">
<title>obfuscator</title>
<ellipse fill="none" stroke="red" cx="724" cy="-930" rx="48.19" ry="18"/>
<text text-anchor="middle" x="724" y="-926.3" font-family="Times,serif" font-size="14.00" fill="red">obfuscator</text>
</g>
<!-- obfuscator&#45;&gt;video_encoder -->
<g id="edge27" class="edge">
<title>obfuscator&#45;&gt;video_encoder</title>
<path fill="none" stroke="black" d="M740.93,-947.24C750.35,-956.27 762.25,-967.67 772.65,-977.65"/>
<polygon fill="black" stroke="black" points="770.27,-980.22 779.91,-984.61 775.11,-975.16 770.27,-980.22"/>
</g>
<!-- none_obfuscator -->
<g id="node20" class="node">
<title>none_obfuscator</title>
<ellipse fill="none" stroke="blue" cx="713" cy="-858" rx="69.59" ry="18"/>
<text text-anchor="middle" x="713" y="-854.3" font-family="Times,serif" font-size="14.00" fill="blue">none_obfuscator</text>
</g>
<!-- none_obfuscator&#45;&gt;obfuscator -->
<g id="edge23" class="edge">
<title>none_obfuscator&#45;&gt;obfuscator</title>
<path fill="none" stroke="blue" d="M715.72,-876.3C716.93,-884.02 718.39,-893.29 719.74,-901.89"/>
<polygon fill="blue" stroke="blue" points="716.3,-902.56 721.31,-911.9 723.22,-901.47 716.3,-902.56"/>
</g>
<!-- corrector -->
<g id="node21" class="node">
<title>corrector</title>
<ellipse fill="none" stroke="red" cx="860" cy="-930" rx="42.49" ry="18"/>
<text text-anchor="middle" x="860" y="-926.3" font-family="Times,serif" font-size="14.00" fill="red">corrector</text>
</g>
<!-- corrector&#45;&gt;video_encoder -->
<g id="edge28" class="edge">
<title>corrector&#45;&gt;video_encoder</title>
<path fill="none" stroke="black" d="M845.39,-947.24C837.47,-956.03 827.54,-967.07 818.73,-976.86"/>
<polygon fill="black" stroke="black" points="816.06,-974.59 811.97,-984.37 821.26,-979.28 816.06,-974.59"/>
</g>
<!-- none_corrector -->
<g id="node22" class="node">
<title>none_corrector</title>
<ellipse fill="none" stroke="blue" cx="871" cy="-858" rx="63.89" ry="18"/>
<text text-anchor="middle" x="871" y="-854.3" font-family="Times,serif" font-size="14.00" fill="blue">none_corrector</text>
</g>
<!-- none_corrector&#45;&gt;corrector -->
<g id="edge24" class="edge">
<title>none_corrector&#45;&gt;corrector</title>
<path fill="none" stroke="blue" d="M868.28,-876.3C867.07,-884.02 865.61,-893.29 864.26,-901.89"/>
<polygon fill="blue" stroke="blue" points="860.78,-901.47 862.69,-911.9 867.7,-902.56 860.78,-901.47"/>
</g>
<!-- video_socket -->
<g id="node33" class="node">
<title>video_socket</title>
<ellipse fill="none" stroke="blue" cx="867" cy="-1074" rx="57.39" ry="18"/>
<text text-anchor="middle" x="867" y="-1070.3" font-family="Times,serif" font-size="14.00" fill="blue">video_socket</text>
</g>
<!-- video_encoder&#45;&gt;video_socket -->
<g id="edge41" class="edge">
<title>video_encoder&#45;&gt;video_socket</title>
<path fill="none" stroke="black" d="M813.59,-1019.59C822.48,-1028.48 833.59,-1039.59 843.37,-1049.37"/>
<polygon fill="black" stroke="black" points="840.98,-1051.93 850.53,-1056.53 845.93,-1046.98 840.98,-1051.93"/>
</g>
<!-- color -->
<g id="node24" class="node">
<title>color</title>
<ellipse fill="none" stroke="black" cx="472" cy="-90" rx="28.7" ry="18"/>
<text text-anchor="middle" x="472" y="-86.3" font-family="Times,serif" font-size="14.00">color</text>
</g>
<!-- color&#45;&gt;basic_block_pointer -->
<g id="edge30" class="edge">
<title>color&#45;&gt;basic_block_pointer</title>
<path fill="none" stroke="black" d="M482.05,-107.02C483.56,-109.93 484.96,-112.99 486,-116 508.28,-180.2 510,-199.05 510,-267 510,-267 510,-267 510,-413 510,-494.72 409.02,-529.8 333.9,-544.59"/>
<polygon fill="black" stroke="black" points="333.13,-541.18 323.95,-546.47 334.43,-548.06 333.13,-541.18"/>
</g>
<!-- color&#45;&gt;basic_block_pointer_proxy -->
<g id="edge29" class="edge">
<title>color&#45;&gt;basic_block_pointer_proxy</title>
<path fill="none" stroke="black" d="M472,-108.49C472,-140.12 472,-208.94 472,-267 472,-267 472,-267 472,-341 472,-384.01 463.71,-398.9 434,-430 419.97,-444.68 401.04,-455.8 382.83,-463.96"/>
<polygon fill="black" stroke="black" points="381.25,-460.83 373.41,-467.96 383.98,-467.27 381.25,-460.83"/>
</g>
<!-- color&#45;&gt;hsv_codec -->
<g id="edge32" class="edge">
<title>color&#45;&gt;hsv_codec</title>
<path fill="none" stroke="black" d="M461.07,-106.8C444.15,-130.86 410.1,-177.73 377,-214 367.44,-224.48 356.14,-235.27 346.13,-244.36"/>
<polygon fill="black" stroke="black" points="343.56,-241.97 338.44,-251.25 348.23,-247.18 343.56,-241.97"/>
</g>
<!-- color&#45;&gt;rgb_palette_codec -->
<g id="edge31" class="edge">
<title>color&#45;&gt;rgb_palette_codec</title>
<path fill="none" stroke="black" d="M449.46,-101.18C440.22,-105.53 429.48,-110.79 420,-116 387.22,-134 351.13,-156.75 325.83,-173.21"/>
<polygon fill="black" stroke="black" points="323.81,-170.35 317.35,-178.75 327.64,-176.21 323.81,-170.35"/>
</g>
<!-- color_test -->
<g id="node35" class="node">
<title>color_test</title>
<ellipse fill="none" stroke="black" cx="774" cy="-775" rx="45.49" ry="18"/>
<text text-anchor="middle" x="774" y="-771.3" font-family="Times,serif" font-size="14.00">color_test</text>
</g>
<!-- color&#45;&gt;color_test -->
<g id="edge49" class="edge">
<title>color&#45;&gt;color_test</title>
<path fill="none" stroke="orange" d="M498.91,-96.11C564.64,-110.31 728,-156.7 728,-267 728,-267 728,-267 728,-629 728,-672.23 746.81,-719.47 760.37,-747.9"/>
<polygon fill="orange" stroke="orange" points="757.36,-749.71 764.91,-757.14 763.64,-746.62 757.36,-749.71"/>
</g>
<!-- color&#45;&gt;basic_block_test -->
<g id="edge48" class="edge">
<title>color&#45;&gt;basic_block_test</title>
<path fill="none" stroke="black" d="M500.71,-90.2C594.37,-89.21 885,-99.62 885,-267 885,-267 885,-267 885,-629 885,-670.5 893.92,-717.93 900.4,-746.92"/>
<polygon fill="black" stroke="black" points="897,-747.76 902.65,-756.72 903.82,-746.19 897,-747.76"/>
</g>
<!-- status_error -->
<g id="node25" class="node">
<title>status_error</title>
<ellipse fill="none" stroke="blue" cx="434" cy="-18" rx="51.99" ry="18"/>
<text text-anchor="middle" x="434" y="-14.3" font-family="Times,serif" font-size="14.00" fill="blue">status_error</text>
</g>
<!-- status_error&#45;&gt;color_codec -->
<g id="edge34" class="edge">
<title>status_error&#45;&gt;color_codec</title>
<path fill="none" stroke="black" d="M434.08,-36.32C433.52,-81.01 427.15,-202.5 377,-286 369.61,-298.3 358.33,-309.11 347.34,-317.7"/>
<polygon fill="black" stroke="black" points="345.02,-315.06 339.06,-323.82 349.18,-320.69 345.02,-315.06"/>
</g>
<!-- status_error&#45;&gt;color -->
<g id="edge33" class="edge">
<title>status_error&#45;&gt;color</title>
<path fill="none" stroke="black" d="M443.2,-35.95C447.75,-44.32 453.32,-54.6 458.36,-63.87"/>
<polygon fill="black" stroke="black" points="455.3,-65.57 463.15,-72.69 461.45,-62.23 455.3,-65.57"/>
</g>
<!-- math -->
<g id="node26" class="node">
<title>math</title>
<ellipse fill="none" stroke="black" cx="574" cy="-556" rx="28.7" ry="18"/>
<text text-anchor="middle" x="574" y="-552.3" font-family="Times,serif" font-size="14.00">math</text>
</g>
<!-- math&#45;&gt;basic_block_container -->
<g id="edge35" class="edge">
<title>math&#45;&gt;basic_block_container</title>
<path fill="none" stroke="black" d="M547.27,-562.85C498.23,-573.57 392.51,-596.7 322.31,-612.06"/>
<polygon fill="black" stroke="black" points="321.25,-608.71 312.23,-614.26 322.74,-615.54 321.25,-608.71"/>
</g>
<!-- math_test -->
<g id="node38" class="node">
<title>math_test</title>
<ellipse fill="none" stroke="black" cx="665" cy="-775" rx="45.49" ry="18"/>
<text text-anchor="middle" x="665" y="-771.3" font-family="Times,serif" font-size="14.00">math_test</text>
</g>
<!-- math&#45;&gt;math_test -->
<g id="edge50" class="edge">
<title>math&#45;&gt;math_test</title>
<path fill="none" stroke="orange" d="M596.5,-567.55C612.81,-576.46 633.89,-590.84 645,-610 669.8,-652.77 670.27,-712.28 667.93,-746.61"/>
<polygon fill="orange" stroke="orange" points="664.42,-746.57 667.1,-756.82 671.4,-747.13 664.42,-746.57"/>
</g>
<!-- video_pipe_in -->
<g id="node27" class="node">
<title>video_pipe_in</title>
<ellipse fill="none" stroke="red" cx="994" cy="-1002" rx="61.19" ry="18"/>
<text text-anchor="middle" x="994" y="-998.3" font-family="Times,serif" font-size="14.00" fill="red">video_pipe_in</text>
</g>
<!-- video_pipe_in&#45;&gt;video_socket -->
<g id="edge42" class="edge">
<title>video_pipe_in&#45;&gt;video_socket</title>
<path fill="none" stroke="black" d="M966.44,-1018.19C947.84,-1028.44 923.11,-1042.07 902.96,-1053.18"/>
<polygon fill="black" stroke="black" points="901.14,-1050.19 894.07,-1058.08 904.51,-1056.32 901.14,-1050.19"/>
</g>
<!-- video_pipe_out -->
<g id="node28" class="node">
<title>video_pipe_out</title>
<ellipse fill="none" stroke="red" cx="1195" cy="-1002" rx="65.79" ry="18"/>
<text text-anchor="middle" x="1195" y="-998.3" font-family="Times,serif" font-size="14.00" fill="red">video_pipe_out</text>
</g>
<!-- video_pipe_out&#45;&gt;video_socket -->
<g id="edge43" class="edge">
<title>video_pipe_out&#45;&gt;video_socket</title>
<path fill="none" stroke="black" d="M1144.83,-1013.71C1084.99,-1026.48 985.26,-1047.76 922.97,-1061.05"/>
<polygon fill="black" stroke="black" points="921.98,-1057.69 912.93,-1063.2 923.44,-1064.53 921.98,-1057.69"/>
</g>
<!-- ffmpeg_rtmp_pipe_in -->
<g id="node29" class="node">
<title>ffmpeg_rtmp_pipe_in</title>
<ellipse fill="none" stroke="blue" cx="1040" cy="-930" rx="89.08" ry="18"/>
<text text-anchor="middle" x="1040" y="-926.3" font-family="Times,serif" font-size="14.00" fill="blue">ffmpeg_rtmp_pipe_in</text>
</g>
<!-- ffmpeg_rtmp_pipe_in&#45;&gt;video_pipe_in -->
<g id="edge37" class="edge">
<title>ffmpeg_rtmp_pipe_in&#45;&gt;video_pipe_in</title>
<path fill="none" stroke="blue" d="M1028.86,-947.95C1023.38,-956.29 1016.67,-966.51 1010.59,-975.75"/>
<polygon fill="blue" stroke="blue" points="1007.6,-973.93 1005.03,-984.21 1013.45,-977.78 1007.6,-973.93"/>
</g>
<!-- ffmpeg_rtmp_pipe_out -->
<g id="node30" class="node">
<title>ffmpeg_rtmp_pipe_out</title>
<ellipse fill="none" stroke="blue" cx="1240" cy="-930" rx="92.88" ry="18"/>
<text text-anchor="middle" x="1240" y="-926.3" font-family="Times,serif" font-size="14.00" fill="blue">ffmpeg_rtmp_pipe_out</text>
</g>
<!-- ffmpeg_rtmp_pipe_out&#45;&gt;video_pipe_out -->
<g id="edge38" class="edge">
<title>ffmpeg_rtmp_pipe_out&#45;&gt;video_pipe_out</title>
<path fill="none" stroke="blue" d="M1229.11,-947.95C1223.75,-956.29 1217.17,-966.51 1211.23,-975.75"/>
<polygon fill="blue" stroke="blue" points="1208.26,-973.91 1205.79,-984.21 1214.14,-977.69 1208.26,-973.91"/>
</g>
<!-- video_pipe_config -->
<g id="node31" class="node">
<title>video_pipe_config</title>
<ellipse fill="none" stroke="green" cx="1428" cy="-930" rx="76.89" ry="18"/>
<text text-anchor="middle" x="1428" y="-926.3" font-family="Times,serif" font-size="14.00" fill="green">video_pipe_config</text>
</g>
<!-- ffmpeg_rtmp_config -->
<g id="node32" class="node">
<title>ffmpeg_rtmp_config</title>
<ellipse fill="none" stroke="green" cx="1240" cy="-858" rx="85.29" ry="18"/>
<text text-anchor="middle" x="1240" y="-854.3" font-family="Times,serif" font-size="14.00" fill="green">ffmpeg_rtmp_config</text>
</g>
<!-- ffmpeg_rtmp_config&#45;&gt;ffmpeg_rtmp_pipe_in -->
<g id="edge39" class="edge">
<title>ffmpeg_rtmp_config&#45;&gt;ffmpeg_rtmp_pipe_in</title>
<path fill="none" stroke="black" d="M1198.07,-873.67C1167.21,-884.47 1125.06,-899.23 1092.05,-910.78"/>
<polygon fill="black" stroke="black" points="1090.84,-907.5 1082.56,-914.1 1093.16,-914.1 1090.84,-907.5"/>
</g>
<!-- ffmpeg_rtmp_config&#45;&gt;ffmpeg_rtmp_pipe_out -->
<g id="edge40" class="edge">
<title>ffmpeg_rtmp_config&#45;&gt;ffmpeg_rtmp_pipe_out</title>
<path fill="none" stroke="black" d="M1240,-876.3C1240,-884.02 1240,-893.29 1240,-901.89"/>
<polygon fill="black" stroke="black" points="1236.5,-901.9 1240,-911.9 1243.5,-901.9 1236.5,-901.9"/>
</g>
<!-- ffmpeg_rtmp_config&#45;&gt;video_pipe_config -->
<g id="edge36" class="edge">
<title>ffmpeg_rtmp_config&#45;&gt;video_pipe_config</title>
<path fill="none" stroke="green" d="M1280.33,-874.02C1309.34,-884.82 1348.61,-899.44 1379.36,-910.89"/>
<polygon fill="green" stroke="green" points="1378.43,-914.28 1389.02,-914.49 1380.87,-907.72 1378.43,-914.28"/>
</g>
<!-- test -->
<g id="node34" class="node">
<title>test</title>
<ellipse fill="none" stroke="black" cx="500" cy="-703" rx="27" ry="18"/>
<text text-anchor="middle" x="500" y="-699.3" font-family="Times,serif" font-size="14.00">test</text>
</g>
<!-- test&#45;&gt;color_test -->
<g id="edge44" class="edge">
<title>test&#45;&gt;color_test</title>
<path fill="none" stroke="black" d="M525.42,-709.61C566.38,-718.77 649.41,-737.85 719,-757 722.58,-757.99 726.29,-759.04 730,-760.13"/>
<polygon fill="black" stroke="black" points="729.19,-763.54 739.77,-763.06 731.19,-756.84 729.19,-763.54"/>
</g>
<!-- test&#45;&gt;basic_block_test -->
<g id="edge45" class="edge">
<title>test&#45;&gt;basic_block_test</title>
<path fill="none" stroke="black" d="M525.17,-709.88C540.65,-713.37 560.91,-717.75 579,-721 689.06,-740.77 717.94,-737.23 828,-757 834.07,-758.09 840.39,-759.31 846.69,-760.58"/>
<polygon fill="black" stroke="black" points="846.03,-764.02 856.53,-762.6 847.44,-757.16 846.03,-764.02"/>
</g>
<!-- test&#45;&gt;len_reader_test -->
<g id="edge46" class="edge">
<title>test&#45;&gt;len_reader_test</title>
<path fill="none" stroke="black" d="M508.58,-720.24C512.94,-728.47 518.33,-738.68 523.25,-747.98"/>
<polygon fill="black" stroke="black" points="520.18,-749.67 527.95,-756.88 526.37,-746.4 520.18,-749.67"/>
</g>
<!-- test&#45;&gt;math_test -->
<g id="edge47" class="edge">
<title>test&#45;&gt;math_test</title>
<path fill="none" stroke="black" d="M522.25,-713.44C548.64,-724.63 593.11,-743.5 625.41,-757.2"/>
<polygon fill="black" stroke="black" points="624.44,-760.59 635.01,-761.28 627.17,-754.15 624.44,-760.59"/>
</g>
</g>
</svg>
